<svg xmlns="http://www.w3.org/2000/svg" viewBox="0 0 20 20">
    <path d="M14.96 11h2.97c-.38 3.03-2.46 5.532-5.252 6.53 1.025-1.465 2.078-3.635 2.282-6.53zm-9.92 0c.204 2.895 1.258 5.065 2.283 6.53-2.793-1-4.873-3.5-5.253-6.53h2.97zm0-2H2.07a8.013 8.013 0 015.253-6.53C6.298 3.934 5.243 6.104 5.04 9zm2.002 0C7.328 5.506 9.06 3.302 10 2.346c.94.956 2.672 3.16 2.96 6.654H7.04zm0 2h5.917c-.29 3.494-2.02 5.7-2.96 6.653-.94-.956-2.674-3.16-2.96-6.653zm7.9-2c-.207-2.895-1.244-5.073-2.268-6.53A8.003 8.003 0 0117.93 9h-2.99zM0 10c0 5.513 4.486 10 10 10s10-4.487 10-10c0-5.514-4.486-10-10-10S0 4.486 0 10z" /></svg>