<svg xmlns="http://www.w3.org/2000/svg" data-name="Layer 1" viewBox="0 0 650 512"><circle cx="405.003" cy="228.41" r="173.618" fill="#dbe8ec"/><path fill="#dbe8ec" d="M590.42615,191.38827h30.39868a13.07957,13.07957,0,0,0,13.07934-13.07959v-18.1914a13.07931,13.07931,0,0,0-13.07934-13.07911H53.62988a13.07926,13.07926,0,0,0-13.07946,13.07911v18.1914a13.07952,13.07952,0,0,0,13.07946,13.07959H73.47644a13.07952,13.07952,0,0,1,13.07947,13.07959v18.19092a13.07952,13.07952,0,0,1-13.07947,13.07959h-.048A13.0796,13.0796,0,0,0,60.349,248.818v18.19092a13.0796,13.0796,0,0,0,13.07947,13.07959h2.87146a13.07938,13.07938,0,0,1,13.07934,13.0791V311.359a13.08242,13.08242,0,0,1-10.38672,12.79932H53.62988a13.117,13.117,0,0,0-2.69275.28027H29.17542a13.07952,13.07952,0,0,0-13.07959,13.07911v18.1914a13.07961,13.07961,0,0,0,13.07959,13.07959H76.16919a13.08161,13.08161,0,0,1,10.38672,12.79883V399.7789a13.07952,13.07952,0,0,1-13.07947,13.07959h-.048A13.07918,13.07918,0,0,0,60.349,425.93759V444.129A13.07918,13.07918,0,0,0,73.42847,457.2081H598.53772A13.079,13.079,0,0,0,611.61707,444.129v-18.1914a13.079,13.079,0,0,0-13.07935-13.0791h-8.11157a13.07962,13.07962,0,0,1-13.07959-13.07959V381.58749a13.07962,13.07962,0,0,1,13.07959-13.07959h30.39868a13.07915,13.07915,0,0,0,13.07934-13.0791V337.23739a13.07915,13.07915,0,0,0-13.07934-13.0791h-46.166a13.07963,13.07963,0,0,1-13.07959-13.07959V292.8873a13.08169,13.08169,0,0,1,10.387-12.79883h26.57153a13.07942,13.07942,0,0,0,13.07935-13.07959V248.818a13.07942,13.07942,0,0,0-13.07935-13.07959h-8.11157a13.07962,13.07962,0,0,1-13.07959-13.07959V204.46786A13.07962,13.07962,0,0,1,590.42615,191.38827Z"/><ellipse cx="416.461" cy="232.809" fill="#f9ae2b" rx="114.383" ry="123.657"/><ellipse cx="384.486" cy="232.809" fill="none" stroke="#4d76b8" stroke-miterlimit="10" stroke-width="3" rx="64.116" ry="69.315"/><ellipse cx="426.352" cy="405.382" fill="#1a5e70" rx="96.209" ry="31.792"/><path fill="#3086a3" d="M465.44646,344.58407v44.23032a9.979,9.979,0,0,1-9.98126,9.98146H412.55953a9.98,9.98,0,0,1-8.34862-15.44949l17.683-27.01733A106.926,106.926,0,0,0,465.44646,344.58407Z"/><path fill="none" stroke="#e06714" stroke-miterlimit="10" d="M459.85027,206.25273c-9.88981,16.56631-51.28557,28.0088-66.40561,18.98239s8.37414-31.15584,18.264-47.72215,23.55143-26.62638,38.67147-17.6S469.74008,189.68642,459.85027,206.25273Z"/><path fill="#ee781d" d="M459.85027 206.25273c-9.88981 16.56631-51.28557 28.0088-66.40561 18.98239s8.37414-31.15584 18.264-47.72215 23.55143-26.62638 38.67147-17.6S469.74008 189.68642 459.85027 206.25273zM406.20743 311.23491c-16.41892-10.13262-27.25075-51.69235-18.00272-66.67787s31.02918 8.8319 47.4481 18.96453 26.27677 23.94086 17.02874 38.92639S422.62635 321.36753 406.20743 311.23491z"/><path fill="#ee781d" d="M331.19474,261.59085c18.39112,5.83247,56.95437-13.073,62.27765-29.85852s-26.9374-17.75357-45.32852-23.586-35.28727-4.29452-40.61055,12.491S312.80362,255.75839,331.19474,261.59085Z"/><ellipse cx="384.486" cy="232.809" fill="#409cb5" rx="20.517" ry="22.181"/><path fill="none" stroke="#4d76b8" stroke-miterlimit="10" stroke-width="3" d="M346.3196,330.32964c-11.47459,6.37773-19.33384,8.06019-22.73627,4.86725-10.31468-9.67962,22.73614-61.90858,73.21585-115.70022s100.506-90.09037,110.82064-80.41075c2.86745,2.6909,2.48707,8.7673-1.11195,17.76289"/><path fill="none" stroke="#4d76b8" stroke-miterlimit="10" stroke-width="3" d="M506.9579 308.11083c5.34773 11.56788 6.39519 19.31525 3.0338 22.439-10.36173 9.62925-60.21051-26.91278-110.42754-80.94974s-83.013-106.42633-72.65125-116.05558c2.94628-2.738 9.193-1.84332 18.23927 2.61229M294.28486 237.1414s205.91038-13.20506 242.50845-2.11474"/><path fill="none" stroke="#4d76b8" stroke-miterlimit="10" stroke-width="3" d="M420.52434,356.46783c-3.23624,7.31414-6.72609,11.08823-10.25316,11.08823-14.14524,0-25.785-60.702-25.785-134.4702s11.63977-134.4702,25.785-134.4702c3.43688,0,6.83933,3.58353,10.00683,10.53942"/><ellipse cx="416.461" cy="232.809" fill="none" stroke="#4d76b8" stroke-miterlimit="10" stroke-width="3" rx="114.383" ry="123.657"/><path fill="#4d76b8" d="M66.65823 174.03009l2.86939-.1211c.95825-.00073 1.91845.05445 2.88281.08008.95972.07764 1.92407.17066 2.88672.29.9541.16846 1.92236.30542 2.86011.56763 3.82226.874 7.30957 2.667 10.79589 3.80347a36.84725 36.84725 0 0010.83252 1.83813 51.14707 51.14707 0 0011.02784-.71143 35.29126 35.29126 0 005.3352-1.40454c1.75562-.6084 3.51148-1.34546 5.31812-2.00952a39.16523 39.16523 0 0111.29492-2.45312 58.83665 58.83665 0 0111.49658.24609l1.43311.19775 1.41992.28907c.95581.15991 1.88183.44384 2.82251.68115 1.85425.55762 3.66528 1.24267 5.43188 1.95434 1.76563.70191 3.519 1.35108 5.29175 1.87183.897.219 1.77856.48511 2.68872.6294l1.35181.26538 1.36963.17871a53.41757 53.41757 0 0011.07421.0354c.45679-.0503.91651-.08643 1.37061-.14722l1.35107-.23c.90723-.12451 1.78174-.37476 2.667-.57788a36.84726 36.84726 0 005.16382-1.82764c1.70654-.739 3.437-1.54248 5.27221-2.26025a34.72642 34.72642 0 015.69751-1.72 45.17181 45.17181 0 0111.74439-.70484 44.11259 44.11259 0 015.844.72657 34.18917 34.18917 0 015.6604 1.6853c3.67627 1.418 6.88208 3.40234 10.43677 4.51294.8728.33032 1.7876.50781 2.68213.78369.90844.21411 1.82715.40552 2.75049.58325.93115.126 1.863.283 2.80273.38526l2.83325.26049v.3a37.42529 37.42529 0 01-11.488-.85425c-3.80567-.89819-7.32154-2.62768-10.81373-3.74707a36.17714 36.17714 0 00-10.83105-1.73144 45.29105 45.29105 0 00-10.94922.92822 34.42139 34.42139 0 00-5.20972 1.57276c-1.70874.66357-3.43017 1.46093-5.23974 2.16967a39.93082 39.93082 0 01-5.63184 1.822c-.97265.199-1.93847.44189-2.92065.55273l-1.467.20825c-.48926.05249-.97925.0791-1.46851.11939a49.185 49.185 0 01-11.68066-.49121 31.41129 31.41129 0 01-5.69263-1.48047c-1.83521-.68335-3.59985-1.48609-5.31567-2.31324-1.71485-.81689-3.42163-1.58422-5.17481-2.23242a29.396 29.396 0 00-5.42651-1.38818 44.86979 44.86979 0 00-11.2583-.28491c-.46778.04565-.93628.08813-1.40064.155l-1.384.24878a27.64147 27.64147 0 00-2.73218.6267 37.5594 37.5594 0 00-5.22974 1.99781c-1.70971.783-3.40551 1.648-5.1936 2.42065a33.70236 33.70236 0 01-5.57129 1.89063 41.06891 41.06891 0 01-11.66528.92456 43.91929 43.91929 0 01-5.83814-.66382 33.91291 33.91291 0 01-5.66552-1.63965c-1.83936-.67822-3.573-1.54126-5.27906-2.33423a47.7187 47.7187 0 00-5.1748-2.12353c-.87134-.332-1.78418-.51172-2.67749-.7898-.90723-.21631-1.825-.40967-2.74732-.58984-.93017-.12842-1.86132-.2876-2.80053-.39209l-2.83228-.27954zM117.52493 262.52105l2.86939-.12133c.95825-.00049 1.91821.05468 2.88281.08007.95972.07789 1.92407.1709 2.88672.29029.9541.16846 1.92212.30542 2.85986.56763 3.82251.874 7.30982 2.667 10.79614 3.80346a36.83693 36.83693 0 0010.83228 1.83789 51.13408 51.13408 0 0011.02808-.71142 35.27062 35.27062 0 005.3352-1.4043c1.75562-.60864 3.51123-1.3457 5.31787-2.00977a39.17707 39.17707 0 0111.29492-2.45288 58.85656 58.85656 0 0111.49659.24585l1.4331.198 1.41992.28906c.95606.15967 1.88184.44385 2.82276.68116 1.85424.55737 3.665 1.24267 5.43164 1.95434 1.76587.70191 3.51928 1.35083 5.29175 1.87183.897.21875 1.7788.48486 2.689.62939l1.35156.26538 1.36963.17871a53.436 53.436 0 0011.07446.0354c.45679-.05029.91626-.08642 1.37037-.14746l1.35107-.22973c.90747-.12451 1.782-.37476 2.66724-.57788a36.84841 36.84841 0 005.16381-1.82764c1.7063-.739 3.43677-1.54248 5.272-2.26025a34.72987 34.72987 0 015.69775-1.72022 45.16974 45.16974 0 0111.74414-.70459 44.10921 44.10921 0 015.844.72656 34.19283 34.19283 0 015.66064 1.68531c3.67627 1.41772 6.88184 3.40234 10.43652 4.51294.873.33007 1.7876.50756 2.68213.78369.90845.21411 1.8274.40527 2.75074.58325.9309.126 1.86279.283 2.80249.38525l2.83349.2605v.3a37.42514 37.42514 0 01-11.488-.85425c-3.8059-.89819-7.32177-2.62793-10.81372-3.74707a36.162 36.162 0 00-10.8313-1.73144 45.279 45.279 0 00-10.94921.92822 34.44748 34.44748 0 00-5.20972 1.57251c-1.7085.66357-3.42993 1.46118-5.2395 2.16968a39.88054 39.88054 0 01-5.63184 1.822c-.97265.199-1.93872.44189-2.92065.553l-1.467.208c-.48926.05274-.97925.07935-1.46851.11963a49.20027 49.20027 0 01-11.68091-.49121 31.42035 31.42035 0 01-5.69263-1.48047c-1.8352-.68335-3.59985-1.48632-5.31542-2.31323-1.71485-.81689-3.42164-1.58423-5.17481-2.23242a29.40284 29.40284 0 00-5.42676-1.38818 44.85868 44.85868 0 00-11.2583-.28492c-.46753.04541-.936.08814-1.40039.155l-1.38428.24878A27.65014 27.65014 0 00178.2 264.4a37.56061 37.56061 0 00-5.22974 1.9978c-1.70971.783-3.40551 1.64795-5.19384 2.42066a33.71641 33.71641 0 01-5.57129 1.89062 41.06623 41.06623 0 01-11.665.92456 43.95748 43.95748 0 01-5.83814-.66381 33.93939 33.93939 0 01-5.66577-1.63965c-1.83911-.67823-3.573-1.54151-5.27881-2.33448a47.76023 47.76023 0 00-5.1748-2.12329c-.87134-.33227-1.78442-.51172-2.67774-.78979-.907-.21655-1.8247-.40967-2.74707-.59009-.93017-.12817-1.86132-.28735-2.80053-.39209l-2.83228-.2793zM29.1448 344.43414l2.86939-.12134c.95825-.00049 1.91846.05445 2.88281.08008.95972.07788 1.92407.1709 2.88672.29028.9541.16846 1.92236.30542 2.85986.56763 3.82251.87378 7.30982 2.667 10.79615 3.80322A36.83093 36.83093 0 0062.272 350.89215a51.13241 51.13241 0 0011.02808-.71143 35.23314 35.23314 0 005.3352-1.40454c1.75562-.6084 3.51148-1.34546 5.31812-2.00952a39.15692 39.15692 0 0111.29492-2.45288 58.83658 58.83658 0 0111.49658.24585l1.43311.198 1.41992.28882c.95581.15991 1.88184.44384 2.82251.68115 1.85425.55761 3.665 1.24292 5.43188 1.95459 1.76563.7019 3.519 1.35083 5.29175 1.87182.897.21875 1.77857.48487 2.68872.6294l1.35157.26538 1.36987.17847a53.401 53.401 0 0011.07422.0354c.45678-.05.9165-.08619 1.3706-.14722l1.35108-.22974c.90722-.12451 1.78174-.375 2.667-.57812a36.8166 36.8166 0 005.16382-1.82739c1.70654-.73926 3.437-1.54273 5.27221-2.26026a34.70411 34.70411 0 015.69751-1.72021 45.17016 45.17016 0 0111.74414-.70484 44.15314 44.15314 0 015.84424.72681 34.18888 34.18888 0 015.6604 1.6853c3.67627 1.41773 6.88208 3.4021 10.43677 4.5127.8728.33032 1.7876.50781 2.68213.78369.90845.21411 1.82715.40552 2.75049.58325.93115.126 1.863.2832 2.80273.38525l2.83325.26075v.3a37.43338 37.43338 0 01-11.488-.85425c-3.80567-.8982-7.32154-2.62793-10.81372-3.74732a36.16937 36.16937 0 00-10.83106-1.7312 45.267 45.267 0 00-10.94922.92822 34.42138 34.42138 0 00-5.20971 1.57251c-1.70874.66358-3.43018 1.46094-5.23975 2.16968a39.89848 39.89848 0 01-5.63184 1.822c-.97265.199-1.93847.4419-2.92065.55274l-1.467.20825c-.48926.05249-.97925.0791-1.46851.11963a49.21023 49.21023 0 01-11.68066-.49121 31.40986 31.40986 0 01-5.69263-1.48047c-1.83545-.68335-3.59985-1.48633-5.31567-2.31323-1.71485-.8169-3.42163-1.58448-5.17481-2.23267a29.4151 29.4151 0 00-5.42651-1.38818 44.87 44.87 0 00-11.2583-.28467c-.46777.04541-.93628.08813-1.40064.15478l-1.384.249a27.63932 27.63932 0 00-2.73218.62671 37.55754 37.55754 0 00-5.22973 1.99756c-1.70972.7832-3.40552 1.64819-5.19361 2.42089a33.70324 33.70324 0 01-5.57153 1.89038 41.0575 41.0575 0 01-11.665.92457 43.95847 43.95847 0 01-5.83813-.66358 33.96755 33.96755 0 01-5.66577-1.63965c-1.83912-.67822-3.57276-1.5415-5.27881-2.33447a47.73768 47.73768 0 00-5.17481-2.12329c-.87134-.33228-1.78418-.512-2.67749-.7898-.90722-.21655-1.825-.40991-2.74731-.59008-.93018-.12818-1.86133-.2876-2.80054-.39209l-2.83228-.2793z"/><circle cx="249.717" cy="299.566" r="13.807" fill="#b9d4db"/><circle cx="262.194" cy="327.048" r="7.159" fill="#b9d4db"/><circle cx="242.774" cy="348.493" r="7.159" fill="#b9d4db"/><circle cx="227.711" cy="321.606" r="10.228" fill="#b9d4db"/><circle cx="527.623" cy="111.133" r="13.807" fill="#b9d4db"/><circle cx="497.473" cy="112.517" r="7.159" fill="#b9d4db"/><circle cx="484.769" cy="86.524" r="7.159" fill="#b9d4db"/><circle cx="515.327" cy="82.518" r="10.228" fill="#b9d4db"/><line x1="547.743" x2="580.046" y1="245.123" y2="245.123" fill="none" stroke="#b9d4db" stroke-linecap="round" stroke-miterlimit="10" stroke-width="3"/><line x1="547.743" x2="580.046" y1="254.434" y2="254.434" fill="none" stroke="#b9d4db" stroke-linecap="round" stroke-miterlimit="10" stroke-width="3"/><line x1="547.743" x2="580.046" y1="263.744" y2="263.744" fill="none" stroke="#b9d4db" stroke-linecap="round" stroke-miterlimit="10" stroke-width="3"/><line x1="138.887" x2="171.19" y1="405.382" y2="405.382" fill="none" stroke="#b9d4db" stroke-linecap="round" stroke-miterlimit="10" stroke-width="3"/><line x1="138.887" x2="171.19" y1="414.693" y2="414.693" fill="none" stroke="#b9d4db" stroke-linecap="round" stroke-miterlimit="10" stroke-width="3"/><line x1="138.887" x2="171.19" y1="424.003" y2="424.003" fill="none" stroke="#b9d4db" stroke-linecap="round" stroke-miterlimit="10" stroke-width="3"/><line x1="253.203" x2="285.506" y1="109.151" y2="109.151" fill="none" stroke="#b9d4db" stroke-linecap="round" stroke-miterlimit="10" stroke-width="3"/><line x1="253.203" x2="285.506" y1="118.462" y2="118.462" fill="none" stroke="#b9d4db" stroke-linecap="round" stroke-miterlimit="10" stroke-width="3"/><line x1="253.203" x2="285.506" y1="127.773" y2="127.773" fill="none" stroke="#b9d4db" stroke-linecap="round" stroke-miterlimit="10" stroke-width="3"/><circle cx="566.979" cy="369.911" r="13.807" fill="#b9d4db"/><circle cx="530.544" cy="379.875" r="7.159" fill="#b9d4db"/><circle cx="548.723" cy="336.125" r="10.228" fill="#b9d4db"/></svg>