<svg xmlns="http://www.w3.org/2000/svg" data-name="Layer 1" viewBox="0 0 650 512"><circle cx="306.824" cy="194.15" r="173.618" fill="#dbe8ec"/><path fill="#dbe8ec" d="M603.90415,212.68105V194.48989a13.07945,13.07945,0,0,0-13.07945-13.07945h-46.166A13.07945,13.07945,0,0,1,531.57923,168.331V150.13982a13.07945,13.07945,0,0,1,13.07946-13.07945h1.45764a13.07945,13.07945,0,0,0,13.07945-13.07945V105.78976a13.07945,13.07945,0,0,0-13.07945-13.07945H134.20918a13.07945,13.07945,0,0,0-13.07945,13.07945v18.19116a13.07945,13.07945,0,0,0,13.07945,13.07945h0a13.07945,13.07945,0,0,1,13.07945,13.07945V168.331a13.07945,13.07945,0,0,1-13.07945,13.07945H83.6298a13.07945,13.07945,0,0,0-13.07945,13.07945v18.19116A13.07945,13.07945,0,0,0,83.6298,225.7605h19.84658A13.07945,13.07945,0,0,1,116.55583,238.84V257.0312a13.07945,13.07945,0,0,1-13.07945,13.07946h-.048A13.07945,13.07945,0,0,0,90.349,283.19011v18.19107a13.07945,13.07945,0,0,0,13.07945,13.07946h2.87139a13.07945,13.07945,0,0,1,13.07945,13.07945v18.19125a13.07945,13.07945,0,0,1-13.07945,13.07945H59.1753a13.07945,13.07945,0,0,0-13.07945,13.07945V390.0814A13.07945,13.07945,0,0,0,59.1753,403.16085h493.963a13.07945,13.07945,0,0,0,13.07945-13.07945V371.89024a13.07945,13.07945,0,0,0-13.07945-13.07945H541.79779a13.07945,13.07945,0,0,1-13.07945-13.07945V327.54009a13.07945,13.07945,0,0,1,13.07945-13.07945h26.73986a13.07945,13.07945,0,0,0,13.07945-13.07946V283.19011a13.07945,13.07945,0,0,0-13.07945-13.07945H560.426a13.07945,13.07945,0,0,1-13.07945-13.07946V238.84A13.07945,13.07945,0,0,1,560.426,225.7605H590.8247A13.07945,13.07945,0,0,0,603.90415,212.68105Z"/><line x1="188.696" x2="187.031" y1="186.481" y2="235.257" fill="#3086a3"/><path fill="#3086a3" d="M188.6956,186.48105c.09862,4.07285.084,8.1416.0297,12.20923-.01644,2.03419-.07415,4.06688-.11225,6.10032l-.17651,6.0979-.23814,6.096c-.10123,2.0312-.1808,4.06315-.30351,6.09379-.22264,4.06183-.486,8.12218-.86347,12.1786-.10011-4.07267-.08611-8.14161-.03138-12.20923.01588-2.034.07508-4.0667.11244-6.10014l.178-6.09808.23963-6.09584c.10049-2.03139.18155-4.06333.3037-6.09378C188.05682,194.598,188.31962,190.53765,188.6956,186.48105Z"/><line x1="232.794" x2="207.89" y1="201.928" y2="241.526" fill="#3086a3"/><path fill="#3086a3" d="M232.79382,201.9275c-1.87449,3.42623-3.84461,6.79233-5.84854,10.13713-.99291,1.678-2.02056,3.33416-3.03195,5.00077l-3.08612,4.96658-3.1386,4.93372c-1.06481,1.633-2.11114,3.27737-3.19388,4.899-2.14644,3.25515-4.32744,6.48844-6.605,9.66122,1.873-3.427,3.84275-6.79345,5.84687-10.13806.99253-1.67819,2.02167-3.3336,3.03214-5.00058l3.08761-4.96584,3.13972-4.933c1.06406-1.63336,2.1117-3.277,3.19407-4.89878C228.337,208.33469,230.51739,205.101,232.79382,201.9275Z"/><line x1="211.863" x2="197.461" y1="191.53" y2="238.391" fill="#3086a3"/><path fill="#3086a3" d="M211.86323,191.52963c-.9733,3.975-2.05474,7.91654-3.17428,11.84651-.54968,1.96807-1.13859,3.92418-1.70882,5.8859l-1.77009,5.867-1.8291,5.84873c-.63075,1.94323-1.24057,3.89281-1.89168,5.82969-1.28073,3.88047-2.60012,7.749-4.02878,11.5839.972-3.97536,2.05287-7.9171,3.17278-11.84689.54913-1.96825,1.13934-3.92381,1.709-5.8859l1.77139-5.86648,1.83079-5.84854c.62981-1.94342,1.24113-3.89243,1.89168-5.8295C209.117,199.23361,210.43606,195.36509,211.86323,191.52963Z"/><rect width="32.223" height="18.105" x="184.149" y="220.728" fill="#409cb5" rx="4" transform="rotate(16.728 200.26 229.78)"/><path fill="#3086a3" d="M188.766 216.87376c-.2826 1.4903-.63766 2.95911-1.01794 4.42008-.37579 1.46246-.79455 2.912-1.22152 4.35919-.44061 1.44285-.89037 2.88309-1.3829 4.31044-.48786 1.42865-1.00187 2.84965-1.58872 4.24861.28185-1.49067.63635-2.95948 1.017-4.42045.376-1.46246.79455-2.912 1.22245-4.35881.44155-1.44267.89149-2.88272 1.38421-4.31007C187.66665 219.6941 188.18028 218.27291 188.766 216.87376zM192.24249 217.91841c-.28278 1.49048-.63765 2.95929-1.01812 4.42026-.37579 1.46246-.79436 2.912-1.22133 4.35919-.44061 1.44285-.89055 2.88309-1.38308 4.31044-.48787 1.42865-1.00188 2.84965-1.58854 4.24861.28166-1.49067.63635-2.95948 1.01681-4.42045.376-1.46246.79474-2.912 1.22264-4.35881.44154-1.44267.8913-2.88291 1.384-4.31007C191.14294 220.73893 191.65658 219.31774 192.24249 217.91841zM195.71879 218.96324c-.2826 1.49048-.63766 2.95929-1.01794 4.42026-.37579 1.46246-.79455 2.912-1.22152 4.359-.44061 1.443-.89036 2.88328-1.38289 4.31063-.48787 1.42865-1.00188 2.84965-1.58873 4.24861.28185-1.49067.63635-2.95948 1.017-4.42045.376-1.46246.79455-2.912 1.22246-4.35881.44154-1.44267.89148-2.8829 1.384-4.31007C194.61942 221.78357 195.13305 220.36257 195.71879 218.96324zM199.19527 220.00807c-.28278 1.49048-.63766 2.9591-1.01812 4.42026-.3758 1.46246-.79437 2.912-1.22134 4.359-.44061 1.443-.89055 2.88328-1.38308 4.31063-.48786 1.42865-1.00187 2.84965-1.58854 4.24861.28166-1.49067.63635-2.95948 1.01681-4.42045.376-1.46246.79474-2.912 1.22265-4.35881.44154-1.44267.8913-2.8829 1.384-4.31007C198.09571 222.8284 198.60935 221.4074 199.19527 220.00807zM202.67156 221.0529c-.28259 1.49048-.63766 2.9591-1.01794 4.42026-.37579 1.46246-.79454 2.912-1.22152 4.359-.4406 1.443-.89036 2.88328-1.38289 4.31063-.488 1.42865-1.00187 2.84965-1.58873 4.24861.28185-1.49067.63635-2.95948 1.017-4.42045.376-1.46246.79455-2.912 1.22246-4.35881.44154-1.44267.89148-2.8829 1.384-4.31025C201.57219 223.87323 202.08564 222.45223 202.67156 221.0529zM206.14785 222.09773c-.28259 1.49048-.63747 2.9591-1.01793 4.42026-.3758 1.46246-.79437 2.912-1.22134 4.359-.44079 1.443-.89055 2.88309-1.38308 4.31063-.48786 1.42865-1.00187 2.84965-1.58854 4.24861.28166-1.49067.63616-2.95948 1.01682-4.42045.376-1.46246.79473-2.912 1.22245-4.35881.44154-1.44267.89149-2.8829 1.3842-4.31025C205.04848 224.91806 205.56212 223.49706 206.14785 222.09773zM209.62433 223.14256c-.28259 1.49048-.63766 2.95911-1.01793 4.42026-.3758 1.46246-.79455 2.912-1.22152 4.359-.44061 1.443-.89056 2.88309-1.3829 4.31044-.48805 1.42884-1.00187 2.84966-1.58873 4.2488.28185-1.49067.63635-2.95948 1.017-4.42063.376-1.46228.79455-2.91186 1.22246-4.35863.44154-1.44267.8913-2.8829 1.384-4.31025C208.525 225.96289 209.03841 224.54189 209.62433 223.14256zM213.10062 224.18739c-.28259 1.49048-.63747 2.95911-1.01793 4.42026-.3758 1.46246-.79436 2.91185-1.22134 4.359-.44079 1.443-.89055 2.88309-1.38308 4.31044-.48786 1.42884-1.00187 2.84966-1.58854 4.2488.28166-1.49066.63617-2.95948 1.01682-4.42063.376-1.46228.79473-2.91186 1.22245-4.35863.44154-1.44267.89149-2.8829 1.38421-4.31025C212.00125 227.00772 212.51489 225.58672 213.10062 224.18739zM216.5771 225.23222c-.28278 1.49048-.63765 2.95911-1.01793 4.42026-.376 1.46228-.79455 2.91185-1.22152 4.359-.44061 1.44285-.89056 2.88309-1.3829 4.31044-.488 1.42884-1.00187 2.84966-1.58872 4.2488.28184-1.49066.63634-2.95967 1.01681-4.42063.37617-1.46228.79474-2.91186 1.22264-4.35863.44154-1.44267.8913-2.8829 1.384-4.31025C215.47773 228.05255 215.99118 226.63155 216.5771 225.23222z"/><path fill="#3086a3" d="M186.74789 218.684q3.92428.94779 7.80616 2.03549c2.591.715 5.16924 1.47292 7.74489 2.23908 2.57154.7798 5.14029 1.56893 7.69633 2.40065q3.83855 1.23187 7.63451 2.6061-3.92456-.94641-7.80634-2.03438c-2.591-.71517-5.16924-1.47311-7.74452-2.2402-2.57136-.78073-5.14011-1.56968-7.69615-2.40158Q190.54451 220.05673 186.74789 218.684zM185.735 222.05421q3.924.9478 7.80615 2.03568c2.591.715 5.16924 1.47274 7.7449 2.2389 2.57154.78 5.14029 1.56892 7.69633 2.40064q3.83855 1.23189 7.63451 2.60629-3.92457-.94668-7.80635-2.03457c-2.591-.71516-5.16923-1.47311-7.7447-2.24-2.57117-.78092-5.13992-1.56986-7.696-2.40177Q189.53134 223.42693 185.735 222.05421zM184.72211 225.42441q3.924.94809 7.80615 2.03568c2.591.715 5.16906 1.47293 7.7449 2.23909 2.57154.77979 5.14028 1.56874 7.69614 2.40045q3.83883 1.23217 7.63469 2.60629-3.92456-.94668-7.80652-2.03456c-2.591-.71517-5.16906-1.47293-7.74452-2.24-2.57118-.78073-5.14011-1.56986-7.696-2.40176Q188.51845 226.79712 184.72211 225.42441zM183.70922 228.7948q3.924.9478 7.806 2.0355c2.59115.715 5.16923 1.47292 7.74489 2.23908 2.57154.77979 5.14047 1.56893 7.69633 2.40064q3.83883 1.23189 7.63451 2.6061-3.92429-.94639-7.80635-2.03437c-2.591-.71536-5.169-1.47311-7.74452-2.24021-2.57117-.78072-5.1401-1.56986-7.696-2.40176Q187.50556 230.16733 183.70922 228.7948zM182.69633 232.165q3.924.94779 7.806 2.03549c2.59116.71517 5.16924 1.47292 7.7449 2.23908 2.57154.7798 5.14047 1.56893 7.69633 2.40065q3.83883 1.23188 7.63451 2.6061-3.92429-.94641-7.80635-2.03438c-2.591-.71517-5.169-1.47311-7.74452-2.2402-2.57135-.78073-5.1401-1.56968-7.696-2.40158Q186.49267 233.53773 182.69633 232.165z"/><path fill="#4cb9d3" d="M266.29458,155.40535c6.04173-20.10246-9.02-42.39755-29.12252-48.43929s-44.95984,4.25579-51.00157,24.35825c-2.333,7.76254,2.01184,70.19992,2.01184,70.19992l37.73284,11.34048S263.96159,163.16785,266.29458,155.40535Z"/><path fill="#409cb5" d="M237.17206,106.96606a41.03411,41.03411,0,0,0-9.4902-1.64814c15.39523,8.9668,25.41218,27.56,20.29614,44.58243-2.333,7.76246-40.37941,57.45937-40.37941,57.45937l18.31659,5.505s38.04643-49.69691,40.37941-57.45937C272.33632,135.30289,257.27454,113.00779,237.17206,106.96606Z"/><path fill="#409cb5" d="M245.99845,110.82292a41.03331,41.03331,0,0,0-8.82639-3.85686c-20.10245-6.04173-44.95983,4.25579-51.00156,24.35824-2.333,7.76255,2.01184,70.19992,2.01184,70.19992l18.31659,5.505s-4.34485-62.43738-2.01184-70.19993C209.60313,119.80685,228.21072,109.81668,245.99845,110.82292Z"/><path fill="#3086a3" d="M237.17206,106.96606q-1.8347-.55141-3.7172-.92172c18.24739,7.4675,31.18721,28.27969,25.51309,47.159-2.333,7.7625-40.37941,57.45937-40.37941,57.45937l7.32663,2.202s38.04642-49.69686,40.37941-57.45936C272.33631,135.30289,257.27454,113.0078,237.17206,106.96606Z"/><path fill="#3086a3" d="M240.7815,108.24633q-1.77333-.72567-3.60944-1.28027c-20.10246-6.04173-44.95984,4.25579-51.00157,24.35825-2.333,7.76254,2.01184,70.19992,2.01184,70.19992l7.32664,2.202s-4.34485-62.43737-2.01184-70.19992C199.17125,114.647,221.44071,104.41683,240.7815,108.24633Z"/><path fill="#f9ae2b" d="M415.85374,137.141a40.63143,40.63143,0,0,1-40.59525,40.61319H223.565a31.30029,31.30029,0,0,1-6.65412-61.88565,36.11171,36.11171,0,0,1,35.98469-33.731,35.04958,35.04958,0,0,1,10.91593,1.74394A56.97923,56.97923,0,0,1,369.87873,96.94822c24.6801-3.40764,45.975,16.05373,45.975,40.19273Zm0,0"/><line x1="279.375" x2="275.025" y1="344.466" y2="471.979" fill="#3086a3"/><path fill="#3086a3" d="M279.37527,344.46637c.25782,10.64746.21973,21.28418.07764,31.918-.043,5.31787-.19385,10.63183-.29346,15.94775L278.698,408.2735,278.07547,424.21c-.26465,5.31006-.47266,10.62207-.79346,15.93066-.582,10.61866-1.27051,21.2334-2.25732,31.83789-.26172-10.647-.2251-21.28418-.082-31.918.0415-5.31739.19629-10.63135.29394-15.94727l.46533-15.94189.62647-15.936c.26269-5.31055.47461-10.62256.79394-15.93066C277.70535,365.68609,278.39236,355.07135,279.37527,344.46637Z"/><line x1="394.659" x2="329.553" y1="384.847" y2="488.367" fill="#3086a3"/><path fill="#3086a3" d="M394.659,384.84723c-4.90039,8.957-10.05078,17.75683-15.28955,26.501-2.5957,4.38672-5.28222,8.71631-7.92627,13.07325l-8.06787,12.98388-8.20507,12.89795c-2.7837,4.269-5.51905,8.56787-8.34961,12.80713-5.61133,8.50977-11.313,16.9624-17.26709,25.25684,4.89648-8.959,10.04589-17.75977,15.28515-26.50342,2.59473-4.38721,5.28516-8.71485,7.92676-13.07276l8.07178-12.98193,8.208-12.896c2.78173-4.27,5.5205-8.56689,8.35009-12.80664C383.0076,401.59723,388.70779,393.14361,394.659,384.84723Z"/><line x1="339.941" x2="302.289" y1="357.665" y2="480.173" fill="#3086a3"/><path fill="#3086a3" d="M339.94119,357.66461c-2.54443,10.3916-5.37158,20.6958-8.29834,30.96973-1.437,5.145-2.97656,10.25878-4.46728,15.3872l-4.62744,15.33789-4.78174,15.29c-1.64893,5.08008-3.24317,10.17676-4.94532,15.24024-3.34814,10.14453-6.79736,20.25781-10.53222,30.2832,2.541-10.39258,5.3667-20.69727,8.29443-30.9707,1.43555-5.14551,2.97852-10.25782,4.46777-15.38721l4.63086-15.33643,4.78614-15.28955c1.64648-5.08056,3.24463-10.17578,4.94531-15.23974C332.762,377.80475,336.21023,367.69146,339.94119,357.66461Z"/><rect width="84.24" height="47.33" x="267.489" y="433.997" fill="#409cb5" rx="4" transform="rotate(16.728 309.609 457.662)"/><path fill="#3086a3" d="M279.55936 423.92047c-.73877 3.896-1.667 7.73584-2.66114 11.55517-.98242 3.82325-2.07715 7.6128-3.19336 11.396-1.15185 3.772-2.32763 7.53711-3.61523 11.26856-1.27539 3.73486-2.61914 7.4497-4.15332 11.10693.73682-3.897 1.66357-7.73682 2.65869-11.55615.98291-3.82325 2.07715-7.6128 3.1958-11.395 1.1543-3.77149 2.33057-7.53614 3.61865-11.26758C276.68533 431.29352 278.02811 427.57818 279.55936 423.92047zM288.64773 426.65143c-.73925 3.89648-1.667 7.73632-2.66162 11.55566-.98242 3.82324-2.07666 7.61279-3.19287 11.396-1.15185 3.772-2.32812 7.53711-3.61572 11.26855-1.27539 3.73486-2.61914 7.44971-4.15283 11.10693.73633-3.897 1.66357-7.73681 2.6582-11.55615.98291-3.82324 2.07764-7.61279 3.19629-11.395 1.1543-3.77148 2.33008-7.53662 3.61816-11.26758C285.77322 434.025 287.116 430.30963 288.64773 426.65143zM297.73563 429.38287c-.73877 3.89649-1.667 7.73633-2.66114 11.55567-.98242 3.82324-2.07715 7.61279-3.19336 11.3955-1.15185 3.77246-2.32763 7.5376-3.61523 11.269-1.27539 3.73486-2.61914 7.4497-4.15332 11.10693.73681-3.897 1.66357-7.73682 2.65869-11.55615.98291-3.82325 2.07715-7.6128 3.1958-11.395 1.1543-3.77149 2.33057-7.53662 3.61816-11.26758C294.8616 436.75592 296.20438 433.04107 297.73563 429.38287zM306.824 432.11432c-.73925 3.89648-1.667 7.73584-2.66162 11.55566-.98242 3.82324-2.07666 7.61279-3.19287 11.39551-1.15185 3.77246-2.32812 7.5376-3.61572 11.269-1.27539 3.73486-2.61914 7.44971-4.15283 11.10693.73633-3.897 1.66357-7.73681 2.6582-11.55615.98291-3.82324 2.07764-7.61279 3.19629-11.395 1.1543-3.77148 2.33008-7.53662 3.61816-11.26758C303.94949 439.48736 305.29227 435.77252 306.824 432.11432zM315.91189 434.84576c-.73876 3.89649-1.667 7.73584-2.66113 11.55567-.98242 3.82324-2.07715 7.61279-3.19336 11.3955-1.15185 3.77246-2.32763 7.5376-3.61523 11.26905-1.27588 3.73486-2.61914 7.4497-4.15332 11.10693.73681-3.897 1.66357-7.73682 2.65869-11.55615.98291-3.82324 2.07715-7.6128 3.1958-11.395 1.1543-3.77149 2.33057-7.53662 3.61816-11.26807C313.03787 442.21881 314.38016 438.504 315.91189 434.84576zM324.99979 437.57721c-.73877 3.89648-1.66651 7.73584-2.66114 11.55566-.98242 3.82324-2.07666 7.61279-3.19287 11.39551-1.15234 3.77246-2.32812 7.53711-3.61572 11.269-1.27539 3.73487-2.61914 7.44971-4.15283 11.10694.73632-3.897 1.66308-7.73682 2.6582-11.55616.98291-3.82324 2.07764-7.61279 3.1958-11.395 1.1543-3.77148 2.33057-7.53662 3.61865-11.26806C322.12576 444.95025 323.46854 441.23541 324.99979 437.57721zM334.08816 440.30865c-.73877 3.89649-1.667 7.73584-2.66113 11.55567-.98242 3.82324-2.07715 7.61279-3.19336 11.3955-1.15185 3.77247-2.32812 7.53711-3.61523 11.26856-1.27588 3.73535-2.61914 7.44971-4.15332 11.10742.73681-3.897 1.66357-7.73682 2.65869-11.55664.98291-3.82275 2.07715-7.6123 3.1958-11.39453 1.1543-3.77149 2.33008-7.53662 3.61816-11.26807C331.21414 447.6817 332.55643 443.96686 334.08816 440.30865zM343.176 443.0401c-.73876 3.89648-1.6665 7.73584-2.66113 11.55566-.98242 3.82324-2.07666 7.61231-3.19287 11.39551-1.15234 3.77246-2.32812 7.53711-3.61572 11.26855-1.27539 3.73536-2.61914 7.44971-4.15283 11.10743.73632-3.897 1.66308-7.73682 2.6582-11.55664.98291-3.82276 2.07764-7.61231 3.1958-11.39454 1.1543-3.77148 2.33057-7.53662 3.61865-11.26806C340.302 450.41314 341.6448 446.6983 343.176 443.0401zM352.26443 445.77154c-.73925 3.89649-1.667 7.73584-2.66113 11.55567-.98291 3.82275-2.07715 7.6123-3.19336 11.3955-1.15185 3.772-2.32812 7.53711-3.61523 11.26856-1.27588 3.73535-2.61914 7.44971-4.15332 11.10742.73681-3.897 1.66357-7.7373 2.6582-11.55664.9834-3.82275 2.07764-7.6123 3.19629-11.39453 1.1543-3.77148 2.33008-7.53662 3.61816-11.26807C349.39041 453.14459 350.7327 449.42975 352.26443 445.77154z"/><path fill="#3086a3" d="M274.28348 428.65289q10.259 2.47779 20.40722 5.32129c6.77344 1.86914 13.51368 3.85059 20.24707 5.85352 6.72266 2.03857 13.438 4.10156 20.12012 6.27587q10.03491 3.22047 19.9585 6.813-10.25977-2.47411-20.40772-5.31836c-6.77344-1.86963-13.51367-3.85107-20.24609-5.85644-6.72217-2.041-13.4375-4.10352-20.11963-6.27832Q284.20877 432.24152 274.28348 428.65289zM271.63553 437.46344q10.25829 2.47778 20.40722 5.32177c6.77344 1.86915 13.51368 3.8501 20.24707 5.853 6.72266 2.03906 13.438 4.10156 20.12012 6.27588q10.03491 3.22045 19.9585 6.81348-10.25978-2.47485-20.40772-5.31885c-6.77343-1.86963-13.51367-3.85107-20.24658-5.856-6.72168-2.0415-13.437-4.104-20.11914-6.27881Q281.56009 441.05207 271.63553 437.46344zM268.98758 446.274q10.25831 2.47853 20.40722 5.32178c6.77344 1.86914 13.51319 3.85059 20.24708 5.85352 6.72265 2.03857 13.438 4.10107 20.11962 6.27539q10.03564 3.22119 19.959 6.81347-10.25977-2.47485-20.4082-5.31884c-6.77344-1.86963-13.51319-3.85059-20.2461-5.856-6.72168-2.041-13.4375-4.104-20.11914-6.27881Q278.91214 449.86261 268.98758 446.274zM266.33963 455.085q10.25831 2.47778 20.40674 5.32129c6.77392 1.86914 13.51367 3.85058 20.24707 5.85351 6.72265 2.03858 13.43847 4.10157 20.12011 6.27588q10.03565 3.22047 19.9585 6.813-10.259-2.47411-20.40771-5.31836c-6.77344-1.87012-13.51319-3.85107-20.2461-5.85644-6.72168-2.041-13.4375-4.104-20.11914-6.27881Q276.26419 458.67316 266.33963 455.085zM263.69168 463.89557q10.2583 2.47777 20.40674 5.32129c6.77392 1.86962 13.51367 3.85058 20.24707 5.85351 6.72265 2.03858 13.43847 4.10156 20.12012 6.27588q10.03564 3.22046 19.95849 6.813-10.259-2.47413-20.40771-5.31836c-6.77344-1.86963-13.51319-3.85108-20.2461-5.85645-6.72216-2.041-13.4375-4.10351-20.11914-6.27832Q273.61624 467.48419 263.69168 463.89557z"/><path fill="#4cb9d3" d="M482.23826,263.22678c15.79458-52.5528-23.58064-110.8377-76.1335-126.6323C353.552,120.7999,288.56859,147.72017,272.774,200.273c-6.09906,20.29323,5.25946,183.52,5.25946,183.52l98.643,29.64684S476.13923,283.51989,482.23826,263.22678Z"/><path fill="#409cb5" d="M406.10477,136.59447a107.27274,107.27274,0,0,0-24.80975-4.30863c40.24695,23.44144,66.43375,72.04864,53.05915,116.54952-6.099,20.293-105.56179,150.213-105.56179,150.213l47.8841,14.39142s99.4628-129.92,105.56179-150.213C498.03285,210.674,458.65763,152.38907,406.10477,136.59447Z"/><path fill="#409cb5" d="M429.17912,146.67725a107.27291,107.27291,0,0,0-23.07435-10.08278C353.552,120.7999,288.56861,147.72016,272.774,200.273c-6.09907,20.29322,5.25945,183.52,5.25945,183.52l47.8841,14.39141s-11.35851-163.22677-5.25945-183.52C334.03273,170.1635,382.67758,144.04671,429.17912,146.67725Z"/><path fill="#3086a3" d="M406.10476,136.59448q-4.79637-1.44153-9.71768-2.40961c47.70321,19.52191,81.5311,73.93012,66.69754,123.28535-6.099,20.29311-105.56179,150.213-105.56179,150.213l19.15364,5.75657s99.46276-129.91993,105.56179-150.213C498.03284,210.674,458.65762,152.38908,406.10476,136.59448Z"/><path fill="#3086a3" d="M415.54072,139.94143q-4.63592-1.89711-9.436-3.34695C353.552,120.7999,288.56859,147.72017,272.774,200.273c-6.09906,20.29323,5.25946,183.52,5.25946,183.52l19.15364,5.75656s-11.35852-163.22678-5.25946-183.52C306.76121,156.67431,364.97911,129.93017,415.54072,139.94143Z"/><path fill="#f9ae2b" d="M575.16254 265.43816a21.98431 21.98431 0 01-21.96473 21.97444H471.12153a16.93553 16.93553 0 01-3.60032-33.48425 19.53884 19.53884 0 0119.47011-18.25074 18.96417 18.96417 0 015.90624.94359 30.82956 30.82956 0 0157.38944 7.07 21.9377 21.9377 0 0124.87554 21.74694zm0 0M264.74729 331.30449a21.98431 21.98431 0 01-21.96473 21.97444H160.70628a16.93553 16.93553 0 01-3.60032-33.48425 19.53883 19.53883 0 0119.47011-18.25074 18.96426 18.96426 0 015.90624.94359 30.82956 30.82956 0 0157.38944 7.07 21.9377 21.9377 0 0124.87554 21.74694zm0 0"/><circle cx="125.579" cy="209.628" r="13.807" fill="#b9d4db"/><circle cx="138.056" cy="237.11" r="7.159" fill="#b9d4db"/><circle cx="118.635" cy="258.555" r="7.159" fill="#b9d4db"/><circle cx="103.572" cy="231.667" r="10.228" fill="#b9d4db"/><circle cx="463.383" cy="106.354" r="13.807" fill="#b9d4db"/><circle cx="433.233" cy="107.738" r="7.159" fill="#b9d4db"/><circle cx="420.529" cy="81.745" r="7.159" fill="#b9d4db"/><circle cx="451.087" cy="77.739" r="10.228" fill="#b9d4db"/><line x1="483.198" x2="515.501" y1="155.288" y2="155.288" fill="none" stroke="#b9d4db" stroke-linecap="round" stroke-miterlimit="10" stroke-width="3"/><line x1="483.198" x2="515.501" y1="164.598" y2="164.598" fill="none" stroke="#b9d4db" stroke-linecap="round" stroke-miterlimit="10" stroke-width="3"/><line x1="483.198" x2="515.501" y1="173.909" y2="173.909" fill="none" stroke="#b9d4db" stroke-linecap="round" stroke-miterlimit="10" stroke-width="3"/><line x1="112.913" x2="145.216" y1="368.211" y2="368.211" fill="none" stroke="#b9d4db" stroke-linecap="round" stroke-miterlimit="10" stroke-width="3"/><line x1="112.913" x2="145.216" y1="377.521" y2="377.521" fill="none" stroke="#b9d4db" stroke-linecap="round" stroke-miterlimit="10" stroke-width="3"/><line x1="112.913" x2="145.216" y1="386.832" y2="386.832" fill="none" stroke="#b9d4db" stroke-linecap="round" stroke-miterlimit="10" stroke-width="3"/><line x1="176.111" x2="208.414" y1="54.585" y2="54.585" fill="none" stroke="#b9d4db" stroke-linecap="round" stroke-miterlimit="10" stroke-width="3"/><line x1="176.111" x2="208.414" y1="63.895" y2="63.895" fill="none" stroke="#b9d4db" stroke-linecap="round" stroke-miterlimit="10" stroke-width="3"/><line x1="176.111" x2="208.414" y1="73.206" y2="73.206" fill="none" stroke="#b9d4db" stroke-linecap="round" stroke-miterlimit="10" stroke-width="3"/><circle cx="500.657" cy="363.477" r="13.807" fill="#b9d4db"/><circle cx="464.221" cy="373.441" r="7.159" fill="#b9d4db"/><circle cx="482.4" cy="329.692" r="10.228" fill="#b9d4db"/></svg>