<svg xmlns="http://www.w3.org/2000/svg" data-name="Layer 1" viewBox="0 0 650 512"><circle cx="364.783" cy="280.373" r="200.488" fill="#dbe8ec"/><path fill="#dbe8ec" d="M98.47644,62.97334h-.048A13.0796,13.0796,0,0,0,85.349,76.05293V94.24385a13.0796,13.0796,0,0,0,13.07947,13.07959h2.87146a13.07938,13.07938,0,0,1,13.07934,13.0791V138.594a13.0824,13.0824,0,0,1-10.38672,12.79931H78.62988a13.11634,13.11634,0,0,0-2.69275.28028H54.17542a13.07951,13.07951,0,0,0-13.07959,13.0791v18.19141a13.07962,13.07962,0,0,0,13.07959,13.07959h46.99377a13.08159,13.08159,0,0,1,10.38672,12.79882v18.19141a13.07952,13.07952,0,0,1-13.07947,13.07959h-.048A13.07918,13.07918,0,0,0,85.349,253.17256V271.364a13.07918,13.07918,0,0,0,13.07947,13.0791h2.87146a13.07949,13.07949,0,0,1,13.07934,13.07959v18.1914a13.07948,13.07948,0,0,1-13.07934,13.07959H54.17542a13.0792,13.0792,0,0,0-13.07959,13.07911v18.1914a13.07919,13.07919,0,0,0,13.07959,13.0791H558.13831a13.0792,13.0792,0,0,0,13.07959-13.0791v-18.1914a13.07921,13.07921,0,0,0-13.07959-13.07911H546.79773a13.07957,13.07957,0,0,1-13.07935-13.07959v-18.1914a13.07957,13.07957,0,0,1,13.07935-13.07959h26.74a13.079,13.079,0,0,0,13.07935-13.0791V253.17256a13.079,13.079,0,0,0-13.07935-13.0791h-8.11157a13.07962,13.07962,0,0,1-13.07959-13.07959V208.82246a13.07962,13.07962,0,0,1,13.07959-13.07959h30.39868a13.07915,13.07915,0,0,0,13.07934-13.0791v-18.1914a13.07915,13.07915,0,0,0-13.07934-13.07911h-46.166a13.07962,13.07962,0,0,1-13.07959-13.07959v-18.1914a13.08169,13.08169,0,0,1,10.387-12.79883h26.57153a13.07942,13.07942,0,0,0,13.07935-13.07959V76.05293a13.07942,13.07942,0,0,0-13.07935-13.07959H98.47644Z"/><path fill="#3086a3" d="M72.909 291.00348l27.69385 45.02978a2.0015 2.0015 0 11-3.40967 2.09717c-.02587-.042-.05175-.08887-.07421-.13184zM456.45 71.11676L484.14383 116.147a2.00137 2.00137 0 11-3.40967 2.09668c-.02588-.042-.05225-.08887-.07422-.13184zM249.156 279.88629l27.69384 45.02978a2.0015 2.0015 0 01-3.40967 2.09717c-.02587-.042-.05175-.08887-.07421-.13232zM159.78738 272.74029l27.69385 45.03028a2.00137 2.00137 0 01-3.40967 2.09668c-.02588-.042-.05224-.08887-.07422-.13184zM199.07352 172.046l27.69384 45.02978a2.00149 2.00149 0 11-3.40966 2.09717c-.02588-.042-.05225-.08887-.07471-.13232zM283.28592 177.6192l27.69385 45.03027a2.0015 2.0015 0 11-3.40967 2.09717c-.02588-.04248-.05176-.08887-.07422-.13232zM85.885 166.95221L113.57889 211.982a2.0015 2.0015 0 01-3.40967 2.09717c-.02588-.042-.05225-.08887-.07471-.13184zM390.83572 229.03082l27.69385 45.02979a2.0015 2.0015 0 01-3.40967 2.09716c-.02588-.042-.05224-.08886-.0747-.13183zM326.07254 87.79254l27.69385 45.02978a2.0015 2.0015 0 01-3.40967 2.09717c-.02588-.042-.05176-.08887-.07422-.13183zM398.58182 143.94586l27.69384 45.03027a2.00137 2.00137 0 01-3.40966 2.09668c-.02588-.042-.05225-.08886-.07471-.13183zM495.80691 200.62555l27.69385 45.03027a2.00137 2.00137 0 11-3.40967 2.09668c-.02588-.042-.05224-.08887-.0747-.13184zM377.85965 31.13922L405.5535 76.169a2.0015 2.0015 0 01-3.40967 2.09717c-.02588-.042-.05225-.08887-.07422-.13183zM225.02518 77.15143L252.719 122.1817a2.00137 2.00137 0 11-3.40966 2.09668c-.02588-.042-.05225-.08838-.07422-.13184zM122.64432 87.064l27.69384 45.03028a2.00137 2.00137 0 01-3.40966 2.09668c-.02588-.042-.05225-.08887-.07471-.13184z"/><path fill="#e06714" d="M253.55449,417.52147s14.10928-23.00484,16.36745-51.91609c0,0,34.20256-9.88005,55.07806-29.72656,0,0,42.23935.98812,84.3173-26.56615,0,0,56.59281-1.67615,86.48959-13.566,0,0,24.84966,20.5889,49.16853,15.83408l-57.99533,90.54288-86.16315,31.32305-110.43753-1.73259Z"/><path fill="#cc5e15" d="M269.92215 365.60553q15.91113 6.40869 32.0918 11.53955a318.524 318.524 0 0032.76806 8.51465c1.375.30615 2.76514.5205 4.14746.78466 1.38282.2627 2.76807.50342 4.15918.70411 1.38916.2124 2.7749.46435 4.168.6455l4.18018.54151c5.58056.64648 11.18213 1.07324 16.80078 1.23242 1.4043.03857 2.80664.00293 4.21289.0083 1.4082.02246 2.80908-.05029 4.21435-.104 1.40186-.07422 2.81983-.04932 4.21631-.20557l4.21241-.36133a131.29 131.29 0 0016.75244-2.96142 84.73431 84.73431 0 01-16.36475 5.38574A110.68473 110.68473 0 01368.284 393.4693a133.67808 133.67808 0 01-17.33789-.41651 167.91936 167.91936 0 01-17.13818-2.49072 198.0501 198.0501 0 01-33.084-9.75049A180.02523 180.02523 0 01269.92215 365.60553zM324.99979 335.879c6.64111 4.31543 13.06689 8.815 19.50683 13.27735 6.42871 4.47217 12.82715 8.95117 19.28076 13.31933 6.45752 4.35889 12.94629 8.65137 19.62793 12.585 3.34278 1.96044 6.71045 3.89306 10.21582 5.5332a53.991 53.991 0 0010.93506 4.07422 37.26221 37.26221 0 01-11.81592-1.78272 81.92965 81.92965 0 01-11.165-4.34472 152.80444 152.80444 0 01-20.60107-11.92676 224.91963 224.91963 0 01-18.8667-14.35205A178.88737 178.88737 0 01324.99979 335.879z"/><path fill="#cc5e15" d="M495.80691,295.74664a296.85313,296.85313,0,0,1-18.86474,26.55273q-10.05689,12.81739-21.26074,24.71192a235.61621,235.61621,0,0,1-23.89893,22.3042q-3.19408,2.56713-6.52832,4.96826l-3.396,2.31348c-1.14062.75781-2.31445,1.47314-3.47363,2.1997a55.60216,55.60216,0,0,1-14.98633,6.58252,73.89188,73.89188,0,0,0,13.60449-8.61133c4.26368-3.24072,8.28516-6.79638,12.24122-10.41552,7.87841-7.28125,15.40283-14.96436,22.80615-22.77686,7.40674-7.8125,14.64892-15.79883,21.92187-23.7832C481.20633,311.77252,488.42313,303.72271,495.80691,295.74664Z"/><path fill="#cc5e15" d="M409.31717,309.31256a120.08874,120.08874,0,0,1,3.73,19.42431,148.61145,148.61145,0,0,1,.96,19.77686,103.04529,103.04529,0,0,1-2.1543,19.80322,61.77241,61.77241,0,0,1-2.91845,9.60938,29.825,29.825,0,0,1-5.12305,8.58935,46.15054,46.15054,0,0,0,2.77588-9.3081c.65527-3.14307,1.04-6.33154,1.38476-9.51807.65088-6.38379.90088-12.8208,1.0376-19.27783.13916-6.458.13037-12.94043.126-19.44824C409.14822,322.45123,409.10916,315.92633,409.31717,309.31256Z"/><polygon fill="#409cb5" points="458.504 373.473 405.929 384.955 416.89 377.557 416.331 376.727 404.566 384.668 354.736 261.553 357.053 260.615 347.007 235.794 343.299 237.295 341.909 237.857 341.909 237.857 339.592 238.795 349.638 263.616 351.955 262.678 401.846 385.944 384.363 390.888 384.636 391.851 398.84 387.834 336.769 419.849 339.815 419.293 401.075 387.807 379.351 410.615 381.002 410.333 401.964 388.324 393.695 407.928 394.884 407.681 403.811 386.516 453.936 388.95 455.81 388.04 407.277 385.683 458.717 374.449 458.504 373.473"/><rect width="9.05" height="30.295" x="343.797" y="234.558" fill="#ee781d" rx="2" transform="rotate(-22.035 348.322 249.705)"/><path fill="#ee781d" d="M253.55446,417.52151s62.61975,13.49756,107.23938-4.25488c0,0,101.90875-10.48926,127.83038-51.57813,0,0,47.61445-30.58813,56.3512-50.10791,0,0-20.3468,67.66358-75.54956,115.311,0,0-41.2962.20117-71.07092,22.26123C398.35494,449.15286,306.41109,463.16946,253.55446,417.52151Z"/><path fill="#e06714" d="M360.79373 413.26666c3.15869 3.11816 6.14844 6.27051 9.16748 9.3833q4.50806 4.68091 9.05762 9.23877c3.05029 3.03174 6.17431 5.96045 9.35449 8.86133 3.20313 2.88232 6.53906 5.57666 9.98145 8.40283a47.63412 47.63412 0 01-11.91407-5.92139 74.57278 74.57278 0 01-10.23877-8.50439 87.06362 87.06362 0 01-8.6416-10.0625A63.24489 63.24489 0 01360.79373 413.26666zM488.6243 361.68854a131.164 131.164 0 01-1.64112 17.11914c-.85156 5.66406-2.001 11.28027-3.40576 16.84277a126.92234 126.92234 0 01-5.27734 16.41894 69.05662 69.05662 0 01-3.70362 7.85059 29.1022 29.1022 0 01-5.17041 6.97168 46.39866 46.39866 0 003.38184-7.7832c.94336-2.65284 1.7544-5.352 2.54248-8.06006 1.53516-5.42871 2.95117-10.89844 4.35205-16.38477 1.40137-5.48681 2.76953-10.99072 4.23633-16.48779C485.37869 372.67193 486.86746 367.171 488.6243 361.68854z"/></svg>