<svg xmlns="http://www.w3.org/2000/svg" xmlns:xlink="http://www.w3.org/1999/xlink" preserveAspectRatio="xMidYMid" width="100" height="100" viewBox="0 0 100 100">
  <defs>
    <style>
      .cls-1 {
        fill: #faf7e6;
      }

      .cls-2 {
        fill: #f6d728;
        fill-rule: evenodd;
      }
    </style>
  </defs>
  <g>
    <circle cx="50" cy="50" r="50" class="cls-1"/>
    <path d="M50.412,42.314 L50.412,65.966 L69.113,62.392 L69.113,50.869 C69.113,50.387 69.530,50.012 70.006,50.066 L72.307,50.425 C72.712,50.472 73.018,50.817 73.018,51.227 L73.018,64.614 C73.018,64.995 72.754,65.324 72.384,65.404 L51.912,69.836 C50.923,70.050 49.900,70.052 48.909,69.843 L28.657,65.553 C28.293,65.477 28.030,65.158 28.020,64.785 L27.671,51.188 C27.660,50.762 27.980,50.401 28.402,50.364 L45.605,48.841 C45.903,48.814 46.162,48.623 46.276,48.344 L48.868,42.007 C49.203,41.189 50.412,41.430 50.412,42.314 ZM27.476,34.571 L22.077,46.189 C21.814,46.757 22.265,47.397 22.884,47.334 L43.159,45.271 C43.445,45.243 43.694,45.060 43.811,44.796 L50.334,29.999 L28.057,34.119 C27.803,34.166 27.586,34.333 27.476,34.571 ZM50.334,29.999 L57.237,45.259 C57.358,45.525 57.612,45.705 57.903,45.729 L78.138,47.367 C78.748,47.417 79.186,46.788 78.932,46.227 L73.655,34.578 C73.546,34.337 73.326,34.166 73.067,34.119 L50.334,29.999 Z" class="cls-2"/>
  </g>
</svg>
