<svg xmlns="http://www.w3.org/2000/svg" xmlns:xlink="http://www.w3.org/1999/xlink" preserveAspectRatio="xMidYMid" width="100" height="100" viewBox="0 0 100 100">
  <defs>
    <style>
      .cls-1 {
        fill: #ddf5f5;
      }

      .cls-2 {
        fill: #59c3c3;
        fill-rule: evenodd;
      }
    </style>
  </defs>
  <g>
    <circle cx="50" cy="50" r="50" class="cls-1"/>
    <path d="M69.092,30.907 C63.992,25.808 57.212,22.999 50.000,22.999 C42.788,22.999 36.008,25.808 30.908,30.907 C25.808,36.007 23.000,42.787 23.000,49.999 C23.000,57.211 25.808,63.991 30.908,69.090 C36.008,74.190 42.788,76.999 50.000,76.999 C57.212,76.999 63.992,74.190 69.092,69.090 C74.191,63.991 77.000,57.211 77.000,49.999 C77.000,42.787 74.191,36.007 69.092,30.907 ZM63.029,55.716 C60.753,60.925 55.610,64.290 49.928,64.290 C42.047,64.290 35.637,57.879 35.637,49.999 C35.637,42.118 42.047,35.708 49.928,35.708 C55.578,35.708 60.708,39.047 62.998,44.213 C63.352,45.012 62.992,45.946 62.193,46.300 C61.394,46.655 60.459,46.294 60.105,45.495 C58.322,41.472 54.327,38.871 49.928,38.871 C43.792,38.871 38.801,43.864 38.801,49.999 C38.801,56.134 43.792,61.126 49.928,61.126 C54.353,61.126 58.357,58.506 60.129,54.449 C60.479,53.648 61.412,53.283 62.212,53.633 C63.013,53.983 63.379,54.916 63.029,55.716 Z" class="cls-2"/>
  </g>
</svg>
