<svg xmlns="http://www.w3.org/2000/svg" xmlns:xlink="http://www.w3.org/1999/xlink" preserveAspectRatio="xMidYMid" width="100" height="100" viewBox="0 0 100 100">
  <defs>
    <style>
      .cls-1 {
        fill: #faf7e6;
      }

      .cls-2 {
        fill: #f6d728;
        fill-rule: evenodd;
      }
    </style>
  </defs>
  <g>
    <circle cx="50" cy="50" r="50" class="cls-1"/>
    <path d="M68.602,74.000 L31.398,74.000 C30.074,74.000 29.000,72.931 29.000,71.612 L29.000,70.652 C29.000,63.311 34.175,57.175 41.089,55.662 C42.155,56.770 43.366,57.664 44.699,58.324 C45.329,58.636 45.974,58.889 46.632,59.085 C47.165,60.548 48.573,61.593 50.227,61.593 L55.012,61.593 C58.423,61.593 61.450,59.928 63.319,57.372 C67.912,60.029 71.000,64.981 71.000,70.652 L71.000,71.612 C71.000,72.931 69.926,74.000 68.602,74.000 ZM63.098,50.196 L63.098,51.365 C63.098,55.805 59.471,59.418 55.012,59.418 L50.227,59.418 C49.322,59.418 48.588,58.687 48.588,57.786 C48.588,56.885 49.322,56.154 50.227,56.154 L55.012,56.154 C57.664,56.154 59.821,54.006 59.821,51.365 L59.821,50.196 C59.512,49.965 59.254,49.669 59.066,49.330 C58.732,50.235 58.356,51.065 57.870,51.849 C57.566,52.339 56.978,53.263 56.324,53.628 C55.934,53.845 55.490,53.979 55.012,53.979 L50.227,53.979 C48.863,53.979 47.666,54.691 46.990,55.761 C44.192,54.715 42.071,52.318 40.981,49.460 C40.977,49.450 40.973,49.440 40.970,49.430 C40.957,49.397 40.945,49.364 40.933,49.331 C40.468,50.171 39.571,50.740 38.540,50.740 C37.038,50.740 35.810,49.526 35.810,48.020 L35.810,41.213 C35.810,40.306 36.257,39.502 36.943,39.008 C37.476,32.298 43.128,27.000 50.000,27.000 C56.872,27.000 62.524,32.298 63.057,39.008 C63.743,39.502 64.190,40.306 64.190,41.214 L64.190,43.100 L64.190,48.020 C64.190,48.910 63.761,49.700 63.098,50.196 ZM50.000,30.263 C44.913,30.263 40.717,34.135 40.227,39.076 C40.548,39.328 40.812,39.650 40.994,40.020 C40.996,40.015 40.998,40.010 41.000,40.004 C42.509,36.099 45.904,33.207 50.000,33.207 C54.009,33.207 57.460,36.003 59.006,40.020 C59.187,39.650 59.451,39.328 59.773,39.076 C59.283,34.135 55.087,30.263 50.000,30.263 Z" class="cls-2"/>
  </g>
</svg>
