<svg xmlns="http://www.w3.org/2000/svg" xmlns:xlink="http://www.w3.org/1999/xlink" preserveAspectRatio="xMidYMid" width="100" height="100" viewBox="0 0 100 100">
  <defs>
    <style>
      .cls-1 {
        fill: #ddf5f5;
      }

      .cls-2 {
        fill: #59c3c3;
        fill-rule: evenodd;
      }
    </style>
  </defs>
  <g>
    <circle cx="50" cy="50" r="50" class="cls-1"/>
    <path d="M46.410,72.823 C18.736,70.794 34.599,42.828 45.884,37.258 C42.102,34.796 39.684,29.144 41.092,27.590 C42.824,25.679 45.910,29.108 48.743,28.764 C50.740,28.467 54.873,26.779 56.776,27.164 C58.208,27.454 55.881,34.074 52.398,37.012 C65.527,42.441 84.700,75.631 46.410,72.823 ZM50.955,47.655 L50.955,47.563 L50.955,46.411 C50.955,45.973 50.695,45.566 50.299,45.383 C49.898,45.198 49.413,45.270 49.083,45.563 C48.843,45.777 48.702,46.089 48.702,46.411 L48.702,47.563 L48.702,47.661 C47.597,47.818 46.495,48.246 45.666,49.013 C45.278,49.372 44.961,49.804 44.742,50.286 C44.507,50.801 44.400,51.361 44.404,51.926 C44.408,52.482 44.509,53.042 44.752,53.545 C44.983,54.022 45.335,54.424 45.749,54.748 C46.602,55.415 47.669,55.762 48.702,56.030 L48.702,60.506 C48.174,60.357 47.667,60.107 47.269,59.722 C47.076,59.535 46.908,59.319 46.775,59.086 C46.707,58.967 46.649,58.843 46.601,58.715 C46.553,58.586 46.524,58.452 46.481,58.322 C46.342,57.898 45.955,57.590 45.512,57.551 C45.063,57.511 44.623,57.753 44.414,58.154 C44.313,58.349 44.270,58.572 44.292,58.791 C44.305,58.922 44.343,59.049 44.381,59.174 C44.422,59.312 44.469,59.449 44.521,59.583 C44.722,60.097 45.013,60.573 45.370,60.993 C46.087,61.835 47.068,62.403 48.125,62.695 C48.316,62.748 48.508,62.792 48.702,62.829 L48.702,64.145 C48.702,64.583 48.962,64.990 49.358,65.173 C49.759,65.359 50.244,65.286 50.574,64.993 C50.815,64.780 50.955,64.468 50.955,64.145 L50.955,62.941 C52.086,62.849 53.225,62.520 54.133,61.813 C54.993,61.144 55.568,60.158 55.686,59.068 C55.775,58.246 55.641,57.380 55.232,56.656 C55.311,56.795 55.386,56.927 55.229,56.650 C55.069,56.368 55.146,56.505 55.226,56.645 C54.712,55.744 53.820,55.172 52.879,54.799 C52.256,54.553 51.605,54.382 50.955,54.226 L50.955,49.943 C51.502,50.040 52.049,50.215 52.501,50.549 C52.709,50.704 52.892,50.891 53.033,51.110 C53.105,51.222 53.168,51.341 53.217,51.466 C53.265,51.589 53.288,51.720 53.336,51.844 C53.494,52.259 53.895,52.549 54.337,52.568 C54.788,52.587 55.216,52.326 55.407,51.917 C55.500,51.717 55.533,51.491 55.501,51.272 C55.480,51.135 55.438,51.000 55.395,50.869 C55.349,50.728 55.296,50.590 55.236,50.455 C55.019,49.971 54.712,49.528 54.336,49.155 C53.542,48.369 52.480,47.919 51.395,47.722 C51.249,47.695 51.102,47.673 50.955,47.655 ZM47.249,53.048 C47.045,52.908 46.847,52.735 46.753,52.500 C46.654,52.254 46.640,51.963 46.665,51.701 C46.691,51.440 46.783,51.194 46.931,50.978 C47.325,50.400 48.044,50.099 48.702,49.958 L48.702,53.680 C48.442,53.600 48.200,53.516 47.985,53.430 C47.729,53.326 47.477,53.204 47.249,53.048 ZM53.113,57.553 C53.273,57.729 53.371,57.942 53.418,58.173 C53.506,58.601 53.463,59.073 53.248,59.457 C52.798,60.262 51.813,60.574 50.955,60.672 L50.955,56.558 C51.483,56.698 52.016,56.852 52.502,57.107 C52.726,57.225 52.942,57.365 53.113,57.553 Z" class="cls-2"/>
  </g>
</svg>
