<svg xmlns="http://www.w3.org/2000/svg" xmlns:xlink="http://www.w3.org/1999/xlink" preserveAspectRatio="xMidYMid" width="100" height="100" viewBox="0 0 100 100">
  <defs>
    <style>
      .cls-1 {
        fill: #fbece9;
      }

      .cls-2 {
        fill: #f27059;
        fill-rule: evenodd;
      }
    </style>
  </defs>
  <g>
    <circle cx="50" cy="50" r="50" class="cls-1"/>
    <path d="M70.197,70.629 L63.211,70.629 C62.217,70.629 61.408,69.829 61.408,68.847 L61.408,55.768 C61.408,54.786 62.217,53.986 63.211,53.986 L70.197,53.986 C71.191,53.986 72.000,54.786 72.000,55.768 L72.000,68.847 C72.000,69.829 71.191,70.629 70.197,70.629 ZM66.194,69.561 C66.329,69.683 66.507,69.763 66.705,69.763 C66.902,69.763 67.079,69.683 67.214,69.561 C67.366,69.423 67.464,69.230 67.464,69.010 C67.464,68.594 67.124,68.258 66.705,68.258 C66.283,68.258 65.943,68.594 65.943,69.010 C65.943,69.230 66.041,69.423 66.194,69.561 ZM69.840,56.121 L63.568,56.121 L63.568,67.426 L69.840,67.426 L69.840,56.121 ZM69.118,52.206 L69.118,46.127 C69.118,45.712 68.778,45.375 68.359,45.375 L54.038,45.375 C53.619,45.375 53.279,45.712 53.279,46.127 L53.279,65.771 L59.608,65.771 L59.608,68.847 C59.608,69.529 59.861,70.314 60.258,70.877 L54.038,70.877 C52.032,70.877 50.399,69.263 50.399,67.279 L50.399,46.127 C50.399,44.142 52.032,42.528 54.038,42.528 L68.359,42.528 C70.366,42.528 71.998,44.142 71.998,46.127 L71.998,52.702 C71.467,52.395 70.857,52.206 70.197,52.206 L69.118,52.206 ZM69.118,34.472 C69.118,34.128 68.834,33.847 68.485,33.847 L32.513,33.847 C32.165,33.847 31.880,34.128 31.880,34.472 L31.880,58.602 C31.880,58.947 32.164,59.228 32.513,59.228 L47.518,59.228 L47.519,59.228 L47.519,67.279 C47.519,68.667 47.976,69.946 48.734,71.000 L42.669,71.000 C41.476,71.000 40.509,70.044 40.509,68.865 C40.509,67.685 41.476,66.729 42.669,66.729 L44.570,66.729 L44.570,62.075 L32.513,62.075 C30.577,62.075 29.000,60.517 29.000,58.602 L29.000,34.472 C29.000,32.558 30.577,31.000 32.513,31.000 L68.485,31.000 C70.422,31.000 71.998,32.558 71.998,34.472 L71.998,40.782 C71.159,40.221 70.172,39.880 69.118,39.757 L69.118,34.472 Z" class="cls-2"/>
  </g>
</svg>
