<svg xmlns="http://www.w3.org/2000/svg" xmlns:xlink="http://www.w3.org/1999/xlink" preserveAspectRatio="xMidYMid" width="100" height="100" viewBox="0 0 100 100">
  <defs>
    <style>
      .cls-1 {
        fill: #ddf5f5;
      }

      .cls-2 {
        fill: #59c3c3;
        fill-rule: evenodd;
      }
    </style>
  </defs>
  <g>
    <circle cx="50" cy="50" r="50" class="cls-1"/>
    <path d="M48.882,28.983 C49.188,28.376 49.817,27.991 50.505,27.991 C51.192,27.991 51.822,28.376 52.127,28.983 L57.945,40.585 C58.208,41.110 58.718,41.474 59.307,41.559 L72.322,43.419 C73.003,43.516 73.569,43.986 73.782,44.630 C73.994,45.274 73.817,45.982 73.324,46.454 L63.909,55.486 C63.483,55.895 63.288,56.484 63.388,57.062 L65.610,69.816 C65.726,70.483 65.448,71.159 64.890,71.557 C64.332,71.954 63.594,72.007 62.984,71.693 L51.344,65.671 C50.818,65.398 50.188,65.398 49.661,65.671 L38.022,71.692 C37.413,72.007 36.674,71.954 36.116,71.557 C35.559,71.159 35.280,70.483 35.396,69.816 L37.618,57.062 C37.719,56.484 37.524,55.895 37.097,55.486 L27.681,46.454 C27.188,45.981 27.011,45.274 27.224,44.630 C27.436,43.986 28.002,43.516 28.684,43.419 L41.699,41.559 C42.287,41.474 42.798,41.110 43.061,40.584 L48.882,28.983 Z" class="cls-2"/>
  </g>
</svg>
