<svg xmlns="http://www.w3.org/2000/svg" xmlns:xlink="http://www.w3.org/1999/xlink" preserveAspectRatio="xMidYMid" width="100" height="100" viewBox="0 0 100 100">
  <defs>
    <style>
      .cls-1 {
        fill: #ddf5f5;
      }

      .cls-2 {
        fill: #59c3c3;
        fill-rule: evenodd;
      }
    </style>
  </defs>
  <g>
    <circle cx="50" cy="50" r="50" class="cls-1"/>
    <path d="M56.004,69.441 L56.004,70.960 C56.004,72.170 55.114,73.175 53.957,73.346 L53.581,74.727 C53.378,75.476 52.702,76.000 51.920,76.000 L48.200,76.000 C47.417,76.000 46.742,75.476 46.538,74.727 L46.174,73.346 C45.005,73.165 44.115,72.170 44.115,70.950 L44.115,69.430 C44.115,68.617 44.769,67.965 45.584,67.965 L54.535,67.965 C55.350,67.975 56.004,68.628 56.004,69.441 ZM62.897,48.962 C62.897,52.418 61.525,55.553 59.295,57.854 C57.602,59.608 56.508,61.844 56.144,64.230 C55.983,65.258 55.093,66.017 54.042,66.017 L46.077,66.017 C45.037,66.017 44.137,65.268 43.987,64.241 C43.611,61.855 42.507,59.587 40.813,57.843 C38.626,55.575 37.265,52.493 37.233,49.101 C37.158,41.975 42.840,36.208 49.979,36.155 C57.108,36.101 62.897,41.858 62.897,48.962 ZM51.512,41.205 C51.512,40.413 50.869,39.760 50.065,39.760 C44.962,39.760 40.803,43.901 40.803,49.005 C40.803,49.797 41.446,50.449 42.250,50.449 C43.043,50.449 43.697,49.807 43.697,49.005 C43.697,45.495 46.560,42.649 50.065,42.649 C50.869,42.649 51.512,42.007 51.512,41.205 ZM50.065,31.950 C50.858,31.950 51.512,31.308 51.512,30.505 L51.512,25.444 C51.512,24.653 50.869,24.000 50.065,24.000 C49.261,24.000 48.618,24.642 48.618,25.444 L48.618,30.505 C48.618,31.308 49.272,31.950 50.065,31.950 ZM33.030,48.951 C33.030,48.160 32.387,47.507 31.583,47.507 L26.512,47.507 C25.719,47.507 25.065,48.149 25.065,48.951 C25.065,49.743 25.708,50.396 26.512,50.396 L31.583,50.396 C32.387,50.396 33.030,49.754 33.030,48.951 ZM73.618,47.507 L68.547,47.507 C67.754,47.507 67.100,48.149 67.100,48.951 C67.100,49.743 67.743,50.396 68.547,50.396 L73.618,50.396 C74.411,50.396 75.065,49.754 75.065,48.951 C75.065,48.160 74.422,47.507 73.618,47.507 ZM35.978,60.978 L32.387,64.562 C31.819,65.129 31.819,66.039 32.387,66.606 C32.666,66.884 33.041,67.023 33.406,67.023 C33.770,67.023 34.145,66.884 34.424,66.606 L38.015,63.021 C38.584,62.454 38.584,61.545 38.015,60.978 C37.458,60.411 36.536,60.411 35.978,60.978 ZM63.133,37.353 C63.498,37.353 63.873,37.214 64.152,36.936 L67.743,33.351 C68.311,32.784 68.311,31.875 67.743,31.308 C67.175,30.741 66.264,30.741 65.695,31.308 L62.104,34.892 C61.536,35.459 61.536,36.369 62.104,36.936 C62.394,37.214 62.758,37.353 63.133,37.353 ZM35.978,36.925 C36.257,37.203 36.632,37.342 36.997,37.342 C37.361,37.342 37.737,37.203 38.015,36.925 C38.584,36.358 38.584,35.449 38.015,34.881 L34.424,31.297 C33.856,30.730 32.945,30.730 32.376,31.297 C31.808,31.864 31.808,32.774 32.376,33.341 L35.978,36.925 ZM64.152,60.978 C63.584,60.411 62.672,60.411 62.104,60.978 C61.536,61.545 61.536,62.454 62.104,63.021 L65.695,66.606 C65.974,66.884 66.349,67.023 66.714,67.023 C67.078,67.023 67.454,66.884 67.732,66.606 C68.301,66.039 68.301,65.129 67.732,64.562 L64.152,60.978 Z" class="cls-2"/>
  </g>
</svg>
