<svg xmlns="http://www.w3.org/2000/svg" xmlns:xlink="http://www.w3.org/1999/xlink" preserveAspectRatio="xMidYMid" width="100" height="100" viewBox="0 0 100 100">
  <defs>
    <style>
      .cls-1 {
        fill: #faf7e6;
      }

      .cls-2 {
        fill: #f6d728;
        fill-rule: evenodd;
      }
    </style>
  </defs>
  <g>
    <circle cx="50" cy="50" r="50" class="cls-1"/>
    <path d="M78.803,27.553 C78.690,27.267 78.432,27.066 78.128,27.028 C77.826,26.991 77.526,27.124 77.349,27.374 C76.295,28.860 74.913,29.355 73.312,29.928 C72.021,30.391 70.686,30.869 69.243,31.911 C67.202,33.385 66.268,35.394 66.734,37.299 L66.684,37.363 C65.832,36.119 64.905,34.969 63.926,33.942 C59.348,29.136 52.952,26.247 46.376,26.016 C46.086,26.005 45.792,26.000 45.501,26.000 C38.158,26.000 31.129,29.302 26.218,35.060 C21.332,40.788 19.167,48.244 20.277,55.517 C20.370,56.125 20.486,56.739 20.622,57.343 C22.428,65.339 27.040,71.421 33.276,74.030 C34.814,74.674 36.364,75.000 37.884,75.000 C41.661,75.000 44.960,72.967 46.936,69.424 C47.687,68.076 48.171,66.681 48.375,65.279 C48.496,64.452 48.413,63.625 48.334,62.824 C48.251,61.999 48.174,61.219 48.298,60.435 C48.582,58.636 49.831,57.562 51.639,57.562 C52.154,57.562 52.679,57.647 53.204,57.815 C52.589,58.949 52.031,60.031 51.544,61.035 C50.511,63.161 49.798,64.922 49.424,66.268 C49.195,67.098 48.584,69.304 50.073,70.345 C50.546,70.675 51.146,70.792 51.771,70.675 C52.333,70.570 54.045,70.250 58.910,64.679 C60.215,63.184 61.622,61.454 63.092,59.535 C66.867,58.256 69.805,55.073 70.582,51.416 C70.777,50.502 70.858,49.523 70.823,48.507 C72.237,46.309 73.476,44.259 74.724,42.055 C74.748,42.012 74.771,41.967 74.795,41.921 C76.605,41.422 78.165,40.004 79.080,38.022 C80.417,35.129 80.318,31.410 78.803,27.553 ZM58.395,41.252 C57.740,42.298 56.615,42.923 55.384,42.923 C54.715,42.923 54.062,42.733 53.493,42.373 C52.690,41.864 52.131,41.070 51.921,40.139 C51.710,39.208 51.873,38.249 52.379,37.441 C53.034,36.395 54.160,35.770 55.391,35.770 C56.059,35.770 56.713,35.960 57.281,36.320 C58.084,36.829 58.643,37.623 58.853,38.554 C59.064,39.486 58.901,40.444 58.395,41.252 ZM63.009,47.731 C64.806,45.068 66.707,42.420 68.512,40.064 C68.805,40.330 69.132,40.590 69.486,40.837 C70.074,41.247 70.688,41.564 71.315,41.781 C69.791,44.403 68.153,47.001 66.168,49.941 C62.908,54.774 59.519,59.263 56.623,62.581 C55.006,64.435 53.591,65.866 52.501,66.752 C52.922,65.398 53.726,63.539 54.845,61.336 C56.847,57.397 59.747,52.566 63.009,47.731 ZM31.456,47.708 C30.788,47.708 30.134,47.518 29.565,47.158 C28.762,46.649 28.203,45.856 27.993,44.924 C27.783,43.993 27.946,43.035 28.452,42.226 C29.106,41.180 30.232,40.555 31.463,40.555 C32.132,40.555 32.785,40.746 33.354,41.106 C35.012,42.157 35.512,44.369 34.468,46.037 C33.813,47.084 32.687,47.708 31.456,47.708 ZM27.730,55.583 C28.385,54.537 29.510,53.912 30.741,53.912 C31.410,53.912 32.063,54.102 32.632,54.463 C33.435,54.971 33.994,55.765 34.204,56.696 C34.414,57.628 34.252,58.586 33.745,59.394 C33.091,60.440 31.965,61.065 30.734,61.065 C30.066,61.065 29.412,60.875 28.843,60.514 C28.040,60.005 27.482,59.212 27.271,58.281 C27.061,57.349 27.224,56.391 27.730,55.583 ZM39.114,34.344 C39.769,33.298 40.895,32.673 42.125,32.673 C42.794,32.673 43.447,32.863 44.016,33.223 C45.674,34.274 46.174,36.486 45.130,38.155 C44.475,39.201 43.349,39.826 42.118,39.826 C41.450,39.826 40.796,39.636 40.228,39.275 C39.425,38.767 38.866,37.974 38.656,37.042 C38.445,36.111 38.608,35.152 39.114,34.344 Z" class="cls-2"/>
  </g>
</svg>
