<svg xmlns="http://www.w3.org/2000/svg" xmlns:xlink="http://www.w3.org/1999/xlink" preserveAspectRatio="xMidYMid" width="100" height="100" viewBox="0 0 100 100">
  <defs>
    <style>
      .cls-1 {
        fill: #fbece9;
      }

      .cls-2 {
        fill: #f27059;
        fill-rule: evenodd;
      }
    </style>
  </defs>
  <g>
    <circle cx="50" cy="50" r="50" class="cls-1"/>
    <path d="M74.788,47.210 C74.709,46.507 73.890,45.978 73.181,45.978 C70.892,45.978 68.860,44.633 68.008,42.551 C67.138,40.419 67.699,37.933 69.405,36.366 C69.942,35.875 70.008,35.051 69.557,34.480 C68.385,32.990 67.053,31.644 65.599,30.478 C65.030,30.021 64.194,30.084 63.700,30.632 C62.211,32.283 59.536,32.896 57.468,32.033 C55.318,31.127 53.960,28.945 54.094,26.602 C54.137,25.866 53.600,25.226 52.867,25.141 C51.000,24.925 49.117,24.918 47.245,25.126 C46.522,25.206 45.985,25.831 46.009,26.558 C46.090,28.877 44.717,31.021 42.587,31.894 C40.545,32.730 37.888,32.121 36.402,30.484 C35.911,29.945 35.089,29.879 34.516,30.326 C33.019,31.502 31.657,32.849 30.474,34.326 C30.013,34.901 30.081,35.733 30.623,36.227 C32.363,37.804 32.923,40.311 32.020,42.468 C31.158,44.524 29.025,45.849 26.584,45.849 C25.792,45.824 25.228,46.356 25.140,47.078 C24.921,48.956 24.918,50.871 25.130,52.765 C25.209,53.471 26.052,53.996 26.768,53.996 C28.944,53.940 31.033,55.288 31.910,57.423 C32.783,59.555 32.221,62.040 30.512,63.608 C29.978,64.100 29.909,64.922 30.361,65.493 C31.521,66.973 32.854,68.320 34.313,69.496 C34.885,69.958 35.718,69.893 36.215,69.345 C37.710,67.690 40.385,67.078 42.443,67.943 C44.600,68.846 45.957,71.028 45.825,73.371 C45.781,74.108 46.320,74.749 47.050,74.833 C48.006,74.945 48.966,75.000 49.929,75.000 C50.843,75.000 51.757,74.950 52.672,74.848 C53.396,74.768 53.933,74.143 53.908,73.416 C53.825,71.097 55.200,68.953 57.327,68.082 C59.384,67.241 62.028,67.856 63.515,69.491 C64.009,70.029 64.826,70.094 65.401,69.648 C66.896,68.475 68.255,67.129 69.443,65.648 C69.904,65.074 69.839,64.241 69.294,63.746 C67.555,62.171 66.991,59.662 67.894,57.507 C68.743,55.479 70.797,54.117 73.005,54.117 L73.314,54.125 C74.031,54.183 74.690,53.630 74.777,52.898 C74.998,51.018 75.000,49.105 74.788,47.210 ZM49.959,64.407 C42.003,64.407 35.554,57.951 35.554,49.987 C35.554,42.023 42.003,35.568 49.959,35.568 C57.914,35.568 64.364,42.023 64.364,49.987 C64.364,52.691 63.619,55.219 62.326,57.381 L56.019,51.067 C56.475,49.989 56.717,48.821 56.716,47.615 C56.716,45.253 55.798,43.033 54.129,41.364 C52.462,39.694 50.244,38.775 47.886,38.775 C47.099,38.775 46.315,38.880 45.557,39.086 C45.225,39.177 44.954,39.451 44.866,39.784 C44.775,40.124 44.877,40.473 45.143,40.739 C45.143,40.739 48.257,43.881 49.299,44.924 C49.408,45.033 49.408,45.293 49.392,45.387 L49.383,45.456 C49.278,46.603 49.075,47.979 48.908,48.508 C48.886,48.530 48.864,48.549 48.841,48.572 C48.817,48.596 48.795,48.619 48.772,48.643 C48.237,48.815 46.841,49.020 45.677,49.124 L45.678,49.118 L45.625,49.131 C45.616,49.132 45.599,49.134 45.576,49.134 C45.450,49.134 45.265,49.098 45.097,48.930 C44.012,47.845 41.021,44.871 41.021,44.871 C40.752,44.603 40.477,44.547 40.293,44.547 C39.866,44.547 39.483,44.856 39.362,45.300 C38.539,48.351 39.412,51.633 41.641,53.865 C43.309,55.535 45.527,56.454 47.886,56.454 C49.091,56.454 50.258,56.213 51.334,55.756 L57.710,62.139 C55.472,63.573 52.814,64.407 49.959,64.407 Z" class="cls-2"/>
  </g>
</svg>
