<svg xmlns="http://www.w3.org/2000/svg" xmlns:xlink="http://www.w3.org/1999/xlink" preserveAspectRatio="xMidYMid" width="100" height="100" viewBox="0 0 100 100">
  <defs>
    <style>
      .cls-1 {
        fill: #fbece9;
      }

      .cls-2 {
        fill: #f27059;
        fill-rule: evenodd;
      }
    </style>
  </defs>
  <g>
    <circle cx="50" cy="50" r="50" class="cls-1"/>
    <path d="M71.440,48.045 C70.398,47.015 69.149,46.500 67.693,46.500 L65.925,46.500 L65.925,39.500 C65.925,38.771 65.740,37.968 65.371,37.094 C65.003,36.219 64.561,35.526 64.045,35.016 L59.843,30.859 C59.327,30.349 58.627,29.912 57.742,29.547 C56.858,29.182 56.047,29.000 55.309,29.000 L36.733,29.000 C35.996,29.000 35.369,29.255 34.853,29.766 C34.337,30.276 34.079,30.896 34.079,31.625 L34.079,46.500 L32.310,46.500 C30.854,46.500 29.605,47.015 28.564,48.045 C27.523,49.075 27.002,50.310 27.002,51.750 L27.002,63.125 C27.002,63.363 27.090,63.567 27.265,63.741 C27.440,63.914 27.647,64.000 27.887,64.000 L34.079,64.000 L34.079,68.375 C34.079,69.104 34.337,69.724 34.853,70.235 C35.369,70.745 35.996,71.000 36.733,71.000 L63.271,71.000 C64.008,71.000 64.635,70.745 65.151,70.235 C65.666,69.724 65.925,69.104 65.925,68.375 L65.925,64.000 L72.117,64.000 C72.356,64.000 72.563,63.914 72.739,63.741 C72.913,63.567 73.001,63.363 73.001,63.125 L73.001,51.750 C73.001,50.310 72.481,49.075 71.440,48.045 ZM62.386,67.500 L37.617,67.500 L37.617,60.501 L62.386,60.501 L62.386,67.500 ZM62.386,50.000 L37.617,50.000 L37.617,32.500 L55.309,32.500 L55.309,36.875 C55.309,37.604 55.568,38.224 56.083,38.734 C56.599,39.245 57.226,39.500 57.963,39.500 L62.386,39.500 L62.386,50.000 ZM68.937,52.981 C68.587,53.327 68.173,53.500 67.693,53.500 C67.214,53.500 66.800,53.327 66.450,52.981 C66.100,52.635 65.925,52.224 65.925,51.750 C65.925,51.276 66.100,50.866 66.450,50.520 C66.800,50.173 67.214,50.000 67.693,50.000 C68.173,50.000 68.587,50.173 68.937,50.520 C69.288,50.866 69.463,51.276 69.463,51.750 C69.463,52.224 69.288,52.635 68.937,52.981 Z" class="cls-2"/>
  </g>
</svg>
