<svg xmlns="http://www.w3.org/2000/svg" xmlns:xlink="http://www.w3.org/1999/xlink" preserveAspectRatio="xMidYMid" width="100" height="100" viewBox="0 0 100 100">
  <defs>
    <style>
      .cls-1 {
        fill: #faf7e6;
      }

      .cls-2 {
        fill: #f6d728;
        fill-rule: evenodd;
      }
    </style>
  </defs>
  <g>
    <circle cx="50" cy="50" r="50" class="cls-1"/>
    <path d="M69.011,48.586 L51.571,48.586 L51.571,39.963 L49.446,39.963 L49.446,48.586 L32.010,48.586 L31.989,39.963 L41.275,39.963 C39.905,39.247 38.913,38.374 38.287,37.371 C37.789,36.571 37.548,35.691 37.556,34.851 C37.561,33.411 38.217,31.395 39.154,30.500 C40.096,29.595 41.356,29.009 42.731,29.005 C44.111,29.005 45.394,29.487 46.490,30.237 C47.595,30.988 48.535,31.992 49.317,33.127 C49.764,33.783 50.159,35.220 50.496,35.938 C50.541,35.847 50.587,35.757 50.634,35.664 C51.556,33.802 52.850,31.363 54.504,30.237 C55.603,29.487 56.888,29.005 58.269,29.005 C59.562,29.005 60.773,29.482 61.686,30.296 C62.598,31.102 63.225,33.033 63.225,34.381 C63.228,36.024 62.276,37.680 60.482,38.987 C60.016,39.330 59.489,39.653 58.899,39.963 L68.986,39.963 L69.011,48.586 ZM48.037,36.854 C47.283,35.315 46.197,33.213 45.047,32.441 C44.274,31.922 43.505,31.658 42.731,31.652 L42.713,31.652 C42.111,31.652 41.441,31.948 40.947,32.427 C40.442,32.904 40.157,33.922 40.162,34.502 C40.162,34.849 40.248,35.557 40.493,35.959 C40.746,36.365 41.176,36.816 41.876,37.266 C43.185,38.106 45.442,38.889 48.935,39.257 C48.732,38.456 48.431,37.638 48.037,36.854 ZM58.957,36.836 C60.309,35.830 60.608,34.475 60.617,33.885 C60.617,33.386 60.391,32.678 59.966,32.291 C59.543,31.910 58.921,31.652 58.276,31.652 L58.269,31.652 C57.495,31.658 56.717,31.922 55.953,32.441 C55.185,32.962 54.443,34.475 53.814,35.391 C52.975,36.600 52.341,38.063 52.018,39.445 C55.445,38.762 57.672,37.788 58.957,36.836 ZM38.863,58.555 L42.340,57.922 L43.986,60.637 L49.709,50.310 L49.709,71.995 L34.521,71.995 L34.521,50.310 L43.435,50.310 L38.863,58.555 ZM58.679,57.922 L62.154,58.521 L57.587,50.310 L66.501,50.310 L66.501,71.995 L51.389,71.995 L51.389,50.450 L57.039,60.668 L58.679,57.922 Z" class="cls-2"/>
  </g>
</svg>
