<svg xmlns="http://www.w3.org/2000/svg" xmlns:xlink="http://www.w3.org/1999/xlink" preserveAspectRatio="xMidYMid" width="100" height="100" viewBox="0 0 100 100">
  <defs>
    <style>
      .cls-1 {
        fill: #fbece9;
      }

      .cls-2 {
        fill: #f27059;
        fill-rule: evenodd;
      }
    </style>
  </defs>
  <g>
    <circle fill="#fbece9" cx="50" cy="50" r="50" class="cls-1"/>
    <path fill="#f27059" d="M70.065,33.868 C69.480,33.868 68.954,33.605 68.599,33.193 L60.621,33.193 C62.468,34.182 64.180,35.448 65.703,36.971 C69.763,41.031 72.000,46.430 72.000,52.173 C72.000,52.869 71.436,53.434 70.740,53.434 C70.044,53.434 69.480,52.869 69.480,52.173 C69.480,42.296 61.895,34.157 52.243,33.274 C52.020,33.629 51.625,33.868 51.175,33.868 L49.825,33.868 C49.374,33.868 48.980,33.629 48.757,33.274 C39.105,34.157 31.519,42.296 31.519,52.173 C31.519,52.869 30.955,53.434 30.260,53.434 C29.564,53.434 29.000,52.869 29.000,52.173 C29.000,46.430 31.236,41.031 35.297,36.971 C36.820,35.448 38.532,34.182 40.379,33.193 L32.400,33.193 C32.045,33.605 31.520,33.868 30.934,33.868 C29.868,33.868 29.000,33.000 29.000,31.933 C29.000,31.484 29.154,31.071 29.412,30.743 C29.766,30.290 30.317,29.999 30.934,29.999 C31.520,29.999 32.045,30.260 32.400,30.674 L48.710,30.674 C48.921,30.273 49.341,29.999 49.825,29.999 L51.175,29.999 C51.659,29.999 52.079,30.273 52.290,30.674 L68.599,30.674 C68.954,30.260 69.480,29.999 70.065,29.999 C71.132,29.999 72.000,30.867 72.000,31.933 C72.000,33.000 71.132,33.868 70.065,33.868 ZM49.240,40.296 L49.240,61.502 C48.828,61.858 48.566,62.382 48.566,62.968 C48.566,64.035 49.433,64.903 50.500,64.903 C51.566,64.903 52.434,64.035 52.434,62.968 C52.434,62.382 52.172,61.858 51.760,61.502 L51.760,40.296 L63.664,56.724 C63.900,57.050 63.967,57.469 63.842,57.853 L59.203,72.129 C59.035,72.647 58.551,72.999 58.005,72.999 L42.994,72.999 C42.449,72.999 41.965,72.647 41.796,72.129 L37.158,57.853 C37.033,57.469 37.099,57.050 37.336,56.724 L49.240,40.296 Z" class="cls-2"/>
  </g>
</svg>
