<svg xmlns="http://www.w3.org/2000/svg" xmlns:xlink="http://www.w3.org/1999/xlink" preserveAspectRatio="xMidYMid" width="769" height="216" viewBox="0 0 769 216">
  <defs>
    <style>
      .cls-1 {
        fill: #59c3c3;
      }

      .cls-1, .cls-3 {
        fill-rule: evenodd;
      }

      .cls-2 {
        fill: #dfdfdf;
      }

      .cls-3 {
        fill: #f27059;
      }
    </style>
  </defs>
  <g>
    <path d="M254.290,214.947 C254.290,214.947 232.097,68.403 363.721,62.297 C363.721,62.297 467.795,52.375 472.387,214.184 L408.105,214.184 C408.105,214.184 410.401,110.382 354.538,114.961 C354.538,114.961 307.857,111.908 317.806,214.184 L254.290,214.947 Z" class="cls-1"/>
    <rect y="210" width="769" height="6" class="cls-2"/>
    <path d="M489.000,210.000 L577.696,-0.000 L633.559,16.792 L560.095,195.392 L615.959,192.339 L611.367,125.173 L670.292,120.594 L675.648,186.996 L705.493,185.470 L711.000,210.000 L489.000,210.000 Z" class="cls-3"/>
    <path d="M168.285,157.756 L170.000,210.000 L232.000,210.000 L227.210,154.703 L168.285,157.756 Z" class="cls-3"/>
    <path d="M133.084,29.583 L59.000,210.000 L122.000,210.000 L189.713,46.375 L133.084,29.583 Z" class="cls-3"/>
  </g>
</svg>
