<svg xmlns="http://www.w3.org/2000/svg" xmlns:xlink="http://www.w3.org/1999/xlink" preserveAspectRatio="xMidYMid" width="20" height="20" viewBox="0 0 20 20">
  <path d="M18.876,6.905 L18.907,6.912 L5.524,6.912 L9.731,2.597 C9.937,2.387 10.050,2.101 10.050,1.802 C10.050,1.502 9.937,1.219 9.731,1.008 L9.077,0.337 C8.871,0.127 8.597,0.010 8.304,0.010 C8.011,0.010 7.737,0.126 7.531,0.337 L0.320,7.716 C0.113,7.928 -0.000,8.209 0.001,8.509 C-0.000,8.811 0.113,9.092 0.320,9.304 L7.531,16.684 C7.737,16.894 8.011,17.010 8.304,17.010 C8.597,17.010 8.871,16.894 9.077,16.684 L9.731,16.014 C9.937,15.803 10.050,15.522 10.050,15.223 C10.050,14.924 9.937,14.657 9.731,14.447 L5.477,10.108 L18.891,10.108 C19.493,10.108 20.000,9.576 20.000,8.960 L20.000,8.012 C20.000,7.395 19.479,6.905 18.876,6.905 Z" transform="translate(0 1.5)" class="cls-1"/>
</svg>
