<svg xmlns="http://www.w3.org/2000/svg" xmlns:xlink="http://www.w3.org/1999/xlink" preserveAspectRatio="xMidYMid" width="12" height="14" viewBox="0 0 12 14">
  <path d="M7.126,13.213 L7.121,13.235 L7.121,3.867 L10.166,6.812 C10.315,6.956 10.517,7.035 10.728,7.035 C10.939,7.035 11.139,6.956 11.289,6.812 L11.762,6.354 C11.910,6.210 11.993,6.018 11.993,5.813 C11.993,5.608 11.911,5.416 11.762,5.272 L6.553,0.224 C6.404,0.079 6.205,-0.000 5.993,0.000 C5.781,-0.000 5.582,0.079 5.433,0.224 L0.223,5.272 C0.074,5.416 -0.007,5.608 -0.007,5.813 C-0.007,6.018 0.074,6.210 0.223,6.354 L0.696,6.812 C0.845,6.956 1.043,7.035 1.254,7.035 C1.466,7.035 1.653,6.956 1.802,6.812 L4.865,3.834 L4.865,13.223 C4.865,13.645 5.240,14.000 5.675,14.000 L6.344,14.000 C6.780,14.000 7.126,13.635 7.126,13.213 Z" class="cls-1"/>
</svg>
