<svg xmlns="http://www.w3.org/2000/svg" xmlns:xlink="http://www.w3.org/1999/xlink" preserveAspectRatio="xMidYMid" width="12" height="14" viewBox="0 0 12 14">
 <path d="M4.874,0.787 L4.879,0.765 L4.879,10.133 L1.833,7.188 C1.685,7.044 1.483,6.965 1.272,6.965 C1.060,6.965 0.860,7.044 0.711,7.188 L0.238,7.646 C0.089,7.790 0.007,7.982 0.007,8.187 C0.007,8.392 0.089,8.584 0.237,8.728 L5.447,13.776 C5.596,13.921 5.795,14.000 6.006,13.999 C6.219,14.000 6.418,13.921 6.567,13.776 L11.777,8.728 C11.925,8.584 12.007,8.392 12.007,8.187 C12.007,7.982 11.925,7.790 11.777,7.646 L11.304,7.188 C11.155,7.044 10.957,6.965 10.745,6.965 C10.534,6.965 10.346,7.044 10.198,7.188 L7.135,10.166 L7.135,0.776 C7.135,0.355 6.760,-0.000 6.324,-0.000 L5.655,-0.000 C5.220,-0.000 4.874,0.365 4.874,0.787 Z" class="cls-1"/>
</svg>
