<svg xmlns="http://www.w3.org/2000/svg" xmlns:xlink="http://www.w3.org/1999/xlink" preserveAspectRatio="xMidYMid" width="14" height="12" viewBox="0 0 14 12">
  <path d="M0.787,4.874 L0.765,4.879 L10.133,4.879 L7.188,1.833 C7.044,1.685 6.964,1.483 6.964,1.272 C6.964,1.060 7.044,0.860 7.188,0.711 L7.646,0.238 C7.790,0.089 7.982,0.007 8.187,0.007 C8.392,0.007 8.584,0.089 8.728,0.238 L13.776,5.447 C13.921,5.596 14.000,5.795 13.999,6.006 C14.000,6.219 13.921,6.418 13.776,6.567 L8.728,11.777 C8.584,11.925 8.392,12.007 8.187,12.007 C7.982,12.007 7.790,11.925 7.646,11.777 L7.188,11.304 C7.044,11.155 6.964,10.957 6.964,10.746 C6.964,10.534 7.044,10.346 7.188,10.198 L10.166,7.135 L0.776,7.135 C0.354,7.135 -0.000,6.760 -0.000,6.325 L-0.000,5.655 C-0.000,5.220 0.365,4.874 0.787,4.874 Z" class="cls-1"/>
</svg>
