<svg xmlns="http://www.w3.org/2000/svg" xmlns:xlink="http://www.w3.org/1999/xlink" preserveAspectRatio="xMidYMid" width="14" height="12" viewBox="0 0 14 12">
  <path d="M13.213,4.874 L13.235,4.879 L3.867,4.879 L6.812,1.833 C6.956,1.685 7.035,1.483 7.035,1.272 C7.035,1.060 6.956,0.860 6.812,0.711 L6.354,0.238 C6.210,0.089 6.017,0.007 5.813,0.007 C5.608,0.007 5.416,0.089 5.272,0.238 L0.224,5.447 C0.079,5.596 -0.000,5.795 0.000,6.006 C-0.000,6.219 0.079,6.418 0.224,6.567 L5.272,11.777 C5.416,11.925 5.608,12.007 5.813,12.007 C6.017,12.007 6.210,11.925 6.354,11.777 L6.812,11.304 C6.956,11.155 7.035,10.957 7.035,10.746 C7.035,10.534 6.956,10.346 6.812,10.198 L3.834,7.135 L13.223,7.135 C13.645,7.135 14.000,6.760 14.000,6.325 L14.000,5.655 C14.000,5.220 13.635,4.874 13.213,4.874 Z" class="cls-1"/>
</svg>
