<svg width="45" height="11" xmlns="http://www.w3.org/2000/svg"><path d="M3.003 4.269c.059.04.13.064.212.073a.768.768 0 0 0 .689-.22.771.771 0 0 0 .249-.607.512.512 0 0 0-.322-.484c-.206-.102-.41-.085-.616.052-.185.122-.312.31-.38.563-.079.284-.022.491.168.623zm.454 4.585c.215-.112.352-.269.41-.469.073-.23.076-.444.008-.644-.088-.254-.27-.371-.542-.352-.215.015-.4.127-.557.337-.137.186-.21.376-.22.571a.644.644 0 0 0 .14.447c.029.044.063.078.102.103.205.127.425.13.659.007zm2.49-3.076c.352.659.54 1.035.564 1.128.186.747.15 1.428-.11 2.043-.23.552-.642 1.011-1.237 1.377a4.573 4.573 0 0 1-1.912.637c-.65.064-1.211.044-1.685-.058-.659-.147-1.057-.5-1.193-1.062-.064-.244-.071-.82-.022-1.729.01-.132.044-.9.102-2.307.015-.288.022-.659.022-1.113a37.774 37.774 0 0 1 0-1.106c0-.103-.01-.31-.03-.623a8.125 8.125 0 0 1-.021-.71c.01-.571.158-.96.447-1.165.317-.224.776-.378 1.377-.461.903-.127 1.638-.127 2.204 0 .781.176 1.358.593 1.729 1.252.312.562.385 1.175.22 1.839-.03.112-.15.385-.36.82-.166.357-.241.635-.227.835a.944.944 0 0 0 .132.403zM11.741.98c.346-.366.954-.451 1.823-.256.445.098.686.42.726.967.004.044-.03.493-.103 1.348-.146 1.801-.278 3.049-.395 3.742-.142.87-.257 1.463-.345 1.78-.195.679-.47 1.204-.827 1.575a2.81 2.81 0 0 1-1.912.857c-.757.044-1.404-.181-1.94-.674-.763-.694-1.222-1.85-1.378-3.472-.044-.459-.054-1.262-.03-2.41a6.982 6.982 0 0 0-.05-.834c-.04-.42-.061-.716-.066-.887-.02-.708.134-1.24.461-1.596A1.923 1.923 0 0 1 8.9.512c.518-.069.925.068 1.223.41.303.356.42.986.352 1.89a20.65 20.65 0 0 1-.22 1.713 132.606 132.606 0 0 0-.271 1.707c-.068.483-.093.84-.073 1.07.034.512.22.739.556.68.489-.078.772-.5.85-1.267.024-.244.032-.559.022-.944l-.03-.77c.006-.268.003-.656-.007-1.164-.014-.527-.02-.916-.014-1.165.01-.825.16-1.389.454-1.692zm5.881 3.289c.059.04.13.064.212.073a.768.768 0 0 0 .689-.22.771.771 0 0 0 .249-.607.512.512 0 0 0-.322-.484c-.205-.102-.41-.085-.616.052-.185.122-.312.31-.38.563-.079.284-.022.491.168.623zm.454 4.585c.215-.112.352-.269.41-.469.074-.23.076-.444.008-.644-.088-.254-.269-.371-.542-.352-.215.015-.4.127-.557.337-.137.186-.21.376-.22.571a.644.644 0 0 0 .14.447c.029.044.063.078.102.103.205.127.425.13.66.007zm2.49-3.076c.352.659.54 1.035.564 1.128.186.747.15 1.428-.11 2.043-.229.552-.642 1.011-1.237 1.377a4.573 4.573 0 0 1-1.912.637c-.65.064-1.21.044-1.684-.058-.66-.147-1.058-.5-1.194-1.062-.064-.244-.071-.82-.022-1.729.01-.132.044-.9.102-2.307.015-.288.022-.659.022-1.113a37.774 37.774 0 0 1 0-1.106c0-.103-.01-.31-.03-.623a8.125 8.125 0 0 1-.021-.71c.01-.571.159-.96.447-1.165.317-.224.776-.378 1.377-.461.903-.127 1.638-.127 2.204 0 .782.176 1.358.593 1.729 1.252.312.562.386 1.175.22 1.839-.03.112-.15.385-.36.82-.165.357-.241.635-.226.835a.944.944 0 0 0 .131.403zm4.007-1.509c.058.04.13.064.212.073a.768.768 0 0 0 .689-.22.771.771 0 0 0 .249-.607.512.512 0 0 0-.323-.484c-.205-.102-.41-.085-.615.052-.185.122-.312.31-.38.563-.079.284-.023.491.168.623zm.454 4.585c.215-.112.351-.269.41-.469.073-.23.076-.444.007-.644-.088-.254-.268-.371-.542-.352-.215.015-.4.127-.556.337-.137.186-.21.376-.22.571a.644.644 0 0 0 .14.447c.028.044.063.078.102.103.205.127.424.13.659.007zm2.49-3.076c.352.659.54 1.035.564 1.128.186.747.149 1.428-.11 2.043-.23.552-.642 1.011-1.238 1.377a4.573 4.573 0 0 1-1.911.637c-.65.064-1.211.044-1.685-.058-.659-.147-1.057-.5-1.194-1.062-.063-.244-.07-.82-.022-1.729.01-.132.044-.9.103-2.307.015-.288.022-.659.022-1.113a37.774 37.774 0 0 1 0-1.106c0-.103-.01-.31-.03-.623a8.125 8.125 0 0 1-.021-.71c.01-.571.158-.96.446-1.165.318-.224.777-.378 1.377-.461.904-.127 1.639-.127 2.205 0 .781.176 1.357.593 1.728 1.252.313.562.386 1.175.22 1.839-.03.112-.149.385-.359.82-.166.357-.241.635-.227.835a.944.944 0 0 0 .132.403zm7.493 3.2c.176.333.273.657.293.975.034.503-.022.8-.169.893-.073.044-.227.069-.461.073-2.012.044-3.125.061-3.34.052-.522-.03-.918-.078-1.187-.147-.454-.117-.786-.32-.996-.608-.293-.4-.393-.99-.3-1.772.025-.186.078-.508.161-.967.073-.39.115-.686.125-.886.029-.469.01-1.27-.059-2.403-.058-1.025-.054-1.82.015-2.387.063-.528.251-.88.564-1.055.742-.415 1.338-.308 1.787.322.332.47.544 1.133.637 1.993.064.532.08 1.21.051 2.036-.039 1.225-.058 1.904-.058 2.036.005.386.041.652.11.798.107.235.322.335.644.3.591-.068 1.008-.075 1.253-.022.405.093.715.35.93.77zm3.757-2.263c-.034-.361-.168-.73-.403-1.106.025.044-.21-.278-.703-.966-.957-1.324-1.501-2.266-1.633-2.828-.122-.512.168-.854.871-1.025a3.667 3.667 0 0 1 1.626-.044.78.78 0 0 1 .55.396c.078.136.149.358.212.666.068.332.127.554.176.667.098.21.244.334.44.373.253.054.546-.19.878-.732a9.53 9.53 0 0 0 .352-.652l.242-.462c.166-.253.427-.42.783-.498.2-.044.535-.068 1.004-.073.244 0 .427-.007.549-.022.644-.073.96.088.945.484-.015.307-.242.776-.681 1.406-.19.268-.457.613-.799 1.033-.42.512-.693.852-.82 1.018-.39.512-.63.869-.718 1.069-.03.059-.078.383-.146.974-.04.317-.074.654-.103 1.01a12.313 12.313 0 0 0-.036 1.502c.029.606-.01 1.06-.118 1.363-.166.463-.505.705-1.018.725-.61.029-1.047-.061-1.31-.271-.299-.24-.423-.652-.374-1.238.154-1.862.233-2.785.234-2.77z" fill="#000" fill-rule="nonzero"/></svg>