<svg xmlns="http://www.w3.org/2000/svg" xmlns:xlink="http://www.w3.org/1999/xlink" preserveAspectRatio="xMidYMid" width="72" height="72" viewBox="0 0 72 72">
  <g>
    <circle fill="#fef4f2" cx="36" cy="36" r="36" class="cls-1"/>
    <path fill="#f27059" d="M51.894,34.668 C51.842,34.204 51.301,33.855 50.833,33.855 C49.321,33.855 47.980,32.968 47.417,31.595 C46.843,30.188 47.213,28.548 48.340,27.515 C48.694,27.191 48.738,26.647 48.440,26.270 C47.666,25.288 46.787,24.400 45.826,23.630 C45.451,23.329 44.899,23.371 44.572,23.732 C43.589,24.821 41.822,25.226 40.457,24.656 C39.037,24.059 38.141,22.619 38.229,21.074 C38.258,20.589 37.903,20.167 37.419,20.110 C36.186,19.967 34.943,19.963 33.707,20.100 C33.229,20.153 32.874,20.565 32.890,21.045 C32.944,22.575 32.037,23.989 30.631,24.565 C29.282,25.116 27.528,24.714 26.546,23.635 C26.222,23.279 25.679,23.235 25.301,23.530 C24.312,24.306 23.413,25.195 22.632,26.169 C22.328,26.548 22.373,27.097 22.730,27.423 C23.879,28.463 24.249,30.117 23.653,31.540 C23.084,32.896 21.675,33.770 20.063,33.770 C19.540,33.754 19.168,34.105 19.110,34.581 C18.965,35.820 18.963,37.083 19.103,38.333 C19.155,38.798 19.712,39.144 20.185,39.144 C21.622,39.108 23.001,39.997 23.580,41.405 C24.156,42.811 23.785,44.451 22.657,45.485 C22.304,45.810 22.259,46.352 22.557,46.728 C23.323,47.705 24.203,48.593 25.167,49.369 C25.545,49.674 26.095,49.631 26.423,49.270 C27.410,48.178 29.176,47.774 30.536,48.345 C31.960,48.941 32.856,50.380 32.768,51.925 C32.740,52.411 33.096,52.834 33.578,52.890 C34.209,52.963 34.843,53.000 35.479,53.000 C36.082,53.000 36.686,52.967 37.290,52.900 C37.768,52.847 38.123,52.434 38.107,51.955 C38.051,50.426 38.960,49.011 40.364,48.436 C41.722,47.882 43.469,48.288 44.451,49.366 C44.777,49.721 45.316,49.764 45.696,49.470 C46.683,48.696 47.580,47.808 48.365,46.831 C48.669,46.452 48.626,45.902 48.266,45.577 C47.118,44.537 46.746,42.882 47.342,41.461 C47.903,40.123 49.259,39.224 50.717,39.224 L50.921,39.230 C51.395,39.268 51.830,38.903 51.887,38.420 C52.033,37.180 52.034,35.918 51.894,34.668 ZM35.499,46.012 C30.245,46.012 25.987,41.754 25.987,36.500 C25.987,31.247 30.245,26.988 35.499,26.988 C40.752,26.988 45.011,31.247 45.011,36.500 C45.011,38.283 44.519,39.951 43.665,41.378 L39.500,37.212 C39.802,36.501 39.961,35.730 39.961,34.935 C39.961,33.377 39.354,31.913 38.253,30.812 C37.151,29.710 35.687,29.104 34.130,29.104 C33.610,29.104 33.093,29.173 32.592,29.309 C32.373,29.369 32.194,29.550 32.135,29.769 C32.076,29.994 32.143,30.224 32.318,30.400 C32.318,30.400 34.375,32.472 35.063,33.160 C35.135,33.232 35.135,33.404 35.124,33.466 L35.118,33.511 C35.049,34.267 34.915,35.175 34.805,35.524 C34.790,35.539 34.776,35.551 34.761,35.567 C34.745,35.582 34.730,35.598 34.715,35.613 C34.362,35.727 33.440,35.862 32.671,35.931 L32.671,35.927 L32.637,35.935 C32.631,35.936 32.619,35.937 32.604,35.937 C32.521,35.937 32.399,35.914 32.288,35.803 C31.572,35.087 29.596,33.125 29.596,33.125 C29.419,32.948 29.237,32.911 29.116,32.911 C28.834,32.911 28.581,33.115 28.501,33.408 C27.957,35.421 28.534,37.586 30.006,39.058 C31.108,40.160 32.572,40.766 34.130,40.766 C34.925,40.766 35.696,40.607 36.407,40.305 L40.617,44.516 C39.139,45.462 37.384,46.012 35.499,46.012 Z" class="cls-2"/>
  </g>
</svg>
