<svg xmlns="http://www.w3.org/2000/svg" xmlns:xlink="http://www.w3.org/1999/xlink" preserveAspectRatio="xMidYMid" width="72" height="72" viewBox="0 0 72 72">
  <g>
    <circle fill="#fef4f2" cx="36" cy="36" r="36" class="cls-1"/>
    <path fill="#f27059" d="M49.182,24.831 C48.636,24.275 47.980,23.997 47.212,23.997 L23.788,23.997 C23.021,23.997 22.364,24.275 21.818,24.831 C21.272,25.388 20.999,26.057 20.999,26.838 L20.999,46.161 C20.999,46.943 21.272,47.611 21.818,48.168 C22.364,48.725 23.021,49.002 23.788,49.002 L47.212,49.002 C47.980,49.002 48.636,48.725 49.182,48.168 C49.728,47.611 50.001,46.943 50.001,46.161 L50.001,26.838 C50.001,26.057 49.728,25.388 49.182,24.831 ZM29.923,46.160 C29.923,46.327 29.870,46.463 29.766,46.570 C29.661,46.676 29.528,46.729 29.365,46.729 L23.788,46.729 C23.625,46.729 23.491,46.676 23.387,46.570 C23.282,46.463 23.230,46.327 23.230,46.160 L23.230,42.750 C23.230,42.585 23.282,42.448 23.387,42.343 C23.491,42.236 23.625,42.183 23.788,42.183 L29.365,42.183 C29.528,42.183 29.662,42.236 29.766,42.343 C29.870,42.448 29.923,42.585 29.923,42.750 L29.923,46.160 ZM29.923,39.341 C29.923,39.507 29.870,39.643 29.766,39.750 C29.661,39.857 29.528,39.909 29.365,39.909 L23.788,39.909 C23.625,39.909 23.491,39.857 23.387,39.750 C23.282,39.643 23.230,39.507 23.230,39.341 L23.230,35.931 C23.230,35.765 23.282,35.629 23.387,35.523 C23.491,35.416 23.625,35.363 23.788,35.363 L29.365,35.363 C29.528,35.363 29.661,35.416 29.766,35.523 C29.870,35.629 29.923,35.765 29.923,35.931 L29.923,39.341 ZM29.923,32.522 C29.923,32.687 29.870,32.823 29.766,32.930 C29.661,33.036 29.528,33.090 29.365,33.090 L23.788,33.090 C23.625,33.090 23.491,33.036 23.387,32.930 C23.282,32.823 23.230,32.687 23.230,32.522 L23.230,29.111 C23.230,28.946 23.282,28.809 23.387,28.703 C23.491,28.596 23.625,28.543 23.788,28.543 L29.365,28.543 C29.528,28.543 29.661,28.596 29.766,28.703 C29.870,28.809 29.923,28.946 29.923,29.111 L29.923,32.522 ZM38.846,46.160 C38.846,46.327 38.794,46.463 38.690,46.570 C38.586,46.676 38.452,46.729 38.289,46.729 L32.711,46.729 C32.549,46.729 32.415,46.676 32.310,46.570 C32.206,46.463 32.154,46.327 32.154,46.160 L32.154,42.750 C32.154,42.585 32.206,42.448 32.310,42.343 C32.415,42.236 32.549,42.183 32.711,42.183 L38.289,42.183 C38.452,42.183 38.585,42.236 38.690,42.343 C38.794,42.448 38.846,42.585 38.846,42.750 L38.846,46.160 L38.846,46.160 ZM38.846,39.341 C38.846,39.507 38.794,39.643 38.690,39.750 C38.586,39.857 38.452,39.909 38.289,39.909 L32.711,39.909 C32.549,39.909 32.415,39.857 32.310,39.750 C32.206,39.643 32.154,39.507 32.154,39.341 L32.154,35.931 C32.154,35.765 32.206,35.629 32.310,35.523 C32.415,35.416 32.549,35.363 32.711,35.363 L38.289,35.363 C38.452,35.363 38.585,35.416 38.690,35.523 C38.794,35.629 38.846,35.765 38.846,35.931 L38.846,39.341 L38.846,39.341 ZM38.846,32.522 C38.846,32.687 38.794,32.823 38.690,32.930 C38.586,33.036 38.452,33.090 38.289,33.090 L32.711,33.090 C32.549,33.090 32.415,33.036 32.310,32.930 C32.206,32.823 32.154,32.687 32.154,32.522 L32.154,29.111 C32.154,28.946 32.206,28.809 32.310,28.703 C32.415,28.596 32.549,28.543 32.711,28.543 L38.289,28.543 C38.452,28.543 38.585,28.596 38.690,28.703 C38.794,28.809 38.846,28.946 38.846,29.111 L38.846,32.522 L38.846,32.522 ZM47.770,46.160 C47.770,46.327 47.718,46.463 47.613,46.570 C47.509,46.676 47.375,46.729 47.212,46.729 L41.635,46.729 C41.472,46.729 41.339,46.676 41.234,46.570 C41.130,46.463 41.078,46.327 41.078,46.160 L41.078,42.750 C41.078,42.585 41.130,42.448 41.234,42.343 C41.339,42.236 41.472,42.183 41.635,42.183 L47.212,42.183 C47.375,42.183 47.509,42.236 47.613,42.343 C47.718,42.448 47.770,42.585 47.770,42.750 L47.770,46.160 ZM47.770,39.341 C47.770,39.507 47.718,39.643 47.613,39.750 C47.509,39.857 47.375,39.909 47.212,39.909 L41.635,39.909 C41.472,39.909 41.339,39.857 41.234,39.750 C41.130,39.643 41.078,39.507 41.078,39.341 L41.078,35.931 C41.078,35.765 41.130,35.629 41.234,35.523 C41.339,35.416 41.472,35.363 41.635,35.363 L47.212,35.363 C47.375,35.363 47.509,35.416 47.613,35.523 C47.718,35.629 47.770,35.765 47.770,35.931 L47.770,39.341 ZM47.770,32.522 C47.770,32.687 47.718,32.823 47.613,32.930 C47.509,33.036 47.375,33.090 47.212,33.090 L41.635,33.090 C41.472,33.090 41.339,33.036 41.234,32.930 C41.130,32.823 41.078,32.687 41.078,32.522 L41.078,29.111 C41.078,28.946 41.130,28.809 41.234,28.703 C41.339,28.596 41.472,28.543 41.635,28.543 L47.212,28.543 C47.375,28.543 47.509,28.596 47.613,28.703 C47.718,28.809 47.770,28.946 47.770,29.111 L47.770,32.522 Z" class="cls-2"/>
  </g>
</svg>
