<svg xmlns="http://www.w3.org/2000/svg" xmlns:xlink="http://www.w3.org/1999/xlink" preserveAspectRatio="xMidYMid" width="72" height="72" viewBox="0 0 72 72">
  <g>
    <circle fill="#fef4f2" cx="36" cy="36" r="36" class="cls-1"/>
    <path fill="#f27059" d="M52.542,34.432 C52.306,35.512 51.767,36.634 51.061,37.762 C49.867,34.842 47.047,32.789 43.755,32.789 C39.384,32.789 35.840,36.409 35.840,40.874 C35.840,44.135 37.735,46.938 40.458,48.216 C38.191,49.916 36.507,51.001 36.507,51.001 C36.507,51.001 22.064,41.760 20.465,34.432 C20.168,33.512 20.004,32.528 20.004,31.502 C20.004,27.920 21.951,24.802 24.824,23.181 C26.163,22.431 27.692,21.999 29.323,21.999 C32.212,21.999 34.793,23.339 36.507,25.440 C38.212,23.339 40.795,21.999 43.681,21.999 C45.315,21.999 46.848,22.431 48.183,23.181 C51.056,24.805 53.003,27.921 53.003,31.502 C53.003,32.527 52.838,33.512 52.542,34.432 ZM37.160,41.042 C37.160,37.230 40.189,34.140 43.925,34.140 C47.661,34.140 50.690,37.230 50.690,41.042 C50.690,44.854 47.661,47.944 43.925,47.944 C40.189,47.944 37.160,44.854 37.160,41.042 ZM40.313,41.473 L43.482,44.731 C43.602,44.854 43.748,44.916 43.920,44.916 C44.089,44.916 44.237,44.854 44.363,44.731 L47.533,41.473 C47.653,41.349 47.713,41.200 47.713,41.023 C47.713,40.850 47.653,40.698 47.533,40.568 L47.168,40.193 C47.041,40.070 46.893,40.009 46.725,40.009 C46.552,40.009 46.406,40.070 46.286,40.193 L44.855,41.663 L44.855,38.145 C44.855,37.971 44.793,37.821 44.670,37.695 C44.547,37.568 44.401,37.505 44.232,37.505 L43.609,37.505 C43.440,37.505 43.294,37.568 43.171,37.695 C43.047,37.821 42.986,37.971 42.986,38.145 L42.986,41.663 L41.554,40.193 C41.434,40.070 41.288,40.009 41.116,40.009 C40.947,40.009 40.800,40.070 40.673,40.193 L40.313,40.568 C40.189,40.695 40.128,40.846 40.128,41.023 C40.128,41.203 40.190,41.353 40.313,41.473 Z" class="cls-2"/>
  </g>
</svg>
