<svg xmlns="http://www.w3.org/2000/svg" xmlns:xlink="http://www.w3.org/1999/xlink" preserveAspectRatio="xMidYMid" width="357.75" height="58.938" viewBox="0 0 357.75 58.938">
  <defs>
    <style>
      .cls-1 {
        fill: #f27059;
      }

      .cls-1, .cls-2 {
        fill-rule: evenodd;
      }

      .cls-2 {
        fill: #000;
      }
    </style>
  </defs>
  <g>
    <path d="M160.386,54.549 C156.973,57.482 152.413,58.949 146.706,58.949 C140.999,58.949 136.453,57.482 133.066,54.549 C129.679,51.616 127.986,46.976 127.986,40.629 L127.986,18.309 C127.986,11.963 129.679,7.323 133.066,4.389 C136.453,1.456 140.999,-0.011 146.706,-0.011 C152.413,-0.011 156.973,1.456 160.386,4.389 C163.799,7.323 165.506,11.963 165.506,18.309 L165.506,40.629 C165.506,46.976 163.799,51.616 160.386,54.549 ZM155.106,18.309 C155.106,12.176 152.306,9.109 146.706,9.109 C141.159,9.109 138.386,12.176 138.386,18.309 L138.386,40.629 C138.386,46.762 141.159,49.829 146.706,49.829 C152.306,49.829 155.106,46.762 155.106,40.629 L155.106,18.309 ZM101.587,58.949 C95.879,58.949 91.333,57.482 87.947,54.549 C84.559,51.616 82.867,46.976 82.867,40.629 L82.867,18.309 C82.867,12.016 84.559,7.389 87.947,4.429 C91.333,1.469 95.773,-0.011 101.267,-0.011 C106.919,-0.011 111.519,1.376 115.067,4.149 C118.613,6.922 120.387,10.656 120.387,15.349 C120.387,17.269 119.973,18.576 119.147,19.269 C118.319,19.963 116.999,20.309 115.187,20.309 C111.773,20.309 110.039,19.216 109.987,17.029 C109.827,14.683 109.159,12.776 107.987,11.309 C106.813,9.843 104.707,9.109 101.667,9.109 C96.067,9.109 93.267,12.176 93.267,18.309 L93.267,40.629 C93.267,46.762 96.039,49.829 101.587,49.829 C104.253,49.829 106.319,49.056 107.787,47.509 C109.253,45.962 109.987,43.669 109.987,40.629 L109.987,35.909 L103.507,35.909 C102.493,35.909 101.707,35.509 101.147,34.709 C100.587,33.909 100.307,32.949 100.307,31.829 C100.307,30.762 100.599,29.816 101.187,28.989 C101.773,28.162 102.547,27.749 103.507,27.749 L117.107,27.749 C118.119,27.749 118.919,28.082 119.507,28.749 C120.093,29.416 120.387,30.202 120.387,31.109 L120.387,40.629 C120.387,46.976 118.679,51.616 115.267,54.549 C111.853,57.482 107.293,58.949 101.587,58.949 ZM55.827,58.949 C50.120,58.949 45.574,57.482 42.187,54.549 C38.800,51.616 37.108,46.976 37.108,40.629 L37.108,18.309 C37.108,11.963 38.800,7.323 42.187,4.389 C45.574,1.456 50.120,-0.011 55.827,-0.011 C61.534,-0.011 66.094,1.456 69.507,4.389 C72.920,7.323 74.627,11.963 74.627,18.309 L74.627,40.629 C74.627,46.976 72.920,51.616 69.507,54.549 C66.094,57.482 61.534,58.949 55.827,58.949 ZM64.228,18.309 C64.228,12.176 61.428,9.109 55.827,9.109 C50.280,9.109 47.508,12.176 47.508,18.309 L47.508,40.629 C47.508,46.762 50.280,49.829 55.827,49.829 C61.428,49.829 64.228,46.762 64.228,40.629 L64.228,18.309 ZM29.907,58.469 L4.547,58.469 C3.320,58.469 2.254,58.176 1.347,57.589 C0.440,57.002 -0.013,56.202 -0.013,55.189 L-0.013,3.189 C-0.013,2.122 0.494,1.322 1.507,0.789 C2.520,0.256 3.747,-0.011 5.187,-0.011 C6.627,-0.011 7.854,0.256 8.867,0.789 C9.880,1.322 10.387,2.122 10.387,3.189 L10.387,49.349 L29.907,49.349 C30.867,49.349 31.627,49.802 32.187,50.709 C32.747,51.616 33.027,52.683 33.027,53.909 C33.027,55.136 32.747,56.202 32.187,57.109 C31.627,58.016 30.867,58.469 29.907,58.469 Z" class="cls-1"/>
    <path d="M356.905,57.109 C356.345,58.016 355.585,58.469 354.625,58.469 L329.265,58.469 C328.038,58.469 326.972,58.176 326.065,57.589 C325.158,57.002 324.705,56.202 324.705,55.189 L324.705,3.189 C324.705,2.122 325.212,1.322 326.225,0.789 C327.238,0.256 328.465,-0.011 329.905,-0.011 C331.345,-0.011 332.572,0.256 333.585,0.789 C334.598,1.322 335.105,2.122 335.105,3.189 L335.105,49.349 L354.625,49.349 C355.585,49.349 356.345,49.802 356.905,50.709 C357.465,51.616 357.745,52.683 357.745,53.909 C357.745,55.136 357.465,56.202 356.905,57.109 ZM315.906,58.469 L290.546,58.469 C289.318,58.469 288.252,58.176 287.346,57.589 C286.438,57.002 285.986,56.202 285.986,55.189 L285.986,3.189 C285.986,2.122 286.492,1.322 287.506,0.789 C288.518,0.256 289.746,-0.011 291.186,-0.011 C292.626,-0.011 293.852,0.256 294.866,0.789 C295.878,1.322 296.386,2.122 296.386,3.189 L296.386,49.349 L315.906,49.349 C316.866,49.349 317.626,49.802 318.186,50.709 C318.746,51.616 319.026,52.683 319.026,53.909 C319.026,55.136 318.746,56.202 318.186,57.109 C317.626,58.016 316.866,58.469 315.906,58.469 ZM271.186,58.469 C269.746,58.469 268.518,58.176 267.506,57.589 C266.492,57.002 265.986,56.202 265.986,55.189 L265.986,3.189 C265.986,2.122 266.492,1.322 267.506,0.789 C268.518,0.256 269.746,-0.011 271.186,-0.011 C272.626,-0.011 273.852,0.256 274.866,0.789 C275.878,1.322 276.386,2.122 276.386,3.189 L276.386,55.189 C276.386,56.202 275.866,57.002 274.826,57.589 C273.786,58.176 272.572,58.469 271.186,58.469 ZM252.466,58.869 C250.919,58.869 249.719,58.042 248.866,56.389 L237.506,34.309 L230.786,34.309 L230.786,55.189 C230.786,56.202 230.279,57.002 229.266,57.589 C228.253,58.176 227.026,58.469 225.586,58.469 C224.199,58.469 222.986,58.176 221.946,57.589 C220.906,57.002 220.386,56.202 220.386,55.189 L220.386,3.189 C220.386,2.336 220.706,1.589 221.346,0.949 C221.986,0.309 222.786,-0.011 223.746,-0.011 L239.586,-0.011 C252.226,-0.011 258.546,5.562 258.546,16.709 C258.546,21.082 257.599,24.603 255.706,27.269 C253.813,29.936 251.266,31.749 248.066,32.709 L258.546,52.149 C258.813,52.469 258.946,52.896 258.946,53.429 C258.946,54.762 258.253,56.002 256.866,57.149 C255.479,58.296 254.013,58.869 252.466,58.869 ZM248.146,17.669 C248.146,11.963 245.293,9.109 239.586,9.109 L230.786,9.109 L230.786,26.149 L239.586,26.149 C245.293,26.149 248.146,23.323 248.146,17.669 ZM192.707,58.469 L178.547,58.469 C177.214,58.469 176.120,58.149 175.267,57.509 C174.414,56.869 173.987,56.122 173.987,55.269 L173.987,3.189 C173.987,2.336 174.414,1.589 175.267,0.949 C176.120,0.309 177.214,-0.011 178.547,-0.011 L192.707,-0.011 C198.414,-0.011 202.974,1.456 206.387,4.389 C209.800,7.323 211.507,11.963 211.507,18.309 L211.507,40.149 C211.507,46.496 209.800,51.136 206.387,54.069 C202.974,57.002 198.414,58.469 192.707,58.469 ZM201.107,18.309 C201.107,12.176 198.307,9.109 192.707,9.109 L184.387,9.109 L184.387,49.349 L192.707,49.349 C198.307,49.349 201.107,46.282 201.107,40.149 L201.107,18.309 Z" class="cls-2"/>
  </g>
</svg>
