<svg xmlns="http://www.w3.org/2000/svg" xmlns:xlink="http://www.w3.org/1999/xlink" preserveAspectRatio="xMidYMid" width="72" height="72" viewBox="0 0 72 72">
  <defs>
    <style>
      .cls-1 {
        fill: #fef4f2;
      }

      .cls-2 {
        fill: #f27059;
        fill-rule: evenodd;
      }
    </style>
  </defs>
  <g>
    <circle cx="36" cy="36" r="36" class="cls-1"/>
    <path d="M49.287,52.000 L22.713,52.000 C21.767,52.000 21.000,51.226 21.000,50.272 L21.000,49.578 C21.000,44.268 24.696,39.829 29.635,38.734 C30.396,39.536 31.261,40.182 32.214,40.660 C32.664,40.885 33.124,41.069 33.594,41.210 C33.975,42.269 34.981,43.025 36.162,43.025 L39.580,43.025 C42.016,43.025 44.179,41.820 45.514,39.971 C48.794,41.893 51.000,45.476 51.000,49.578 L51.000,50.272 C51.000,51.226 50.233,52.000 49.287,52.000 ZM45.356,34.780 L45.356,35.626 C45.356,38.838 42.765,41.451 39.580,41.451 L36.162,41.451 C35.516,41.451 34.992,40.923 34.992,40.271 C34.992,39.619 35.516,39.090 36.162,39.090 L39.580,39.090 C41.474,39.090 43.015,37.536 43.015,35.626 L43.015,34.780 C42.794,34.613 42.610,34.399 42.476,34.153 C42.237,34.808 41.968,35.409 41.621,35.976 C41.404,36.330 40.984,36.999 40.517,37.263 C40.239,37.419 39.921,37.517 39.580,37.517 L36.162,37.517 C35.188,37.517 34.333,38.032 33.850,38.806 C31.852,38.049 30.337,36.315 29.558,34.248 C29.555,34.241 29.552,34.233 29.550,34.226 C29.541,34.202 29.532,34.179 29.523,34.154 C29.191,34.762 28.551,35.173 27.814,35.173 C26.742,35.173 25.864,34.296 25.864,33.206 L25.864,28.282 C25.864,27.625 26.183,27.044 26.674,26.687 C27.054,21.833 31.092,18.000 36.000,18.000 C40.908,18.000 44.946,21.833 45.326,26.687 C45.816,27.044 46.136,27.625 46.136,28.282 L46.136,29.647 L46.136,33.206 C46.136,33.850 45.829,34.421 45.356,34.780 ZM36.000,20.361 C32.366,20.361 29.369,23.162 29.019,26.736 C29.249,26.918 29.437,27.151 29.567,27.419 C29.569,27.415 29.570,27.411 29.571,27.407 C30.649,24.583 33.074,22.490 36.000,22.490 C38.864,22.490 41.329,24.513 42.433,27.419 C42.562,27.151 42.751,26.918 42.981,26.736 C42.631,23.162 39.634,20.361 36.000,20.361 Z" class="cls-2"/>
  </g>
</svg>
