<svg xmlns="http://www.w3.org/2000/svg" xmlns:xlink="http://www.w3.org/1999/xlink" preserveAspectRatio="xMidYMid" width="72" height="72" viewBox="0 0 72 72">
  <defs>
    <style>
      .cls-1 {
        fill: #fef4f2;
      }

      .cls-2 {
        fill: #f27059;
        fill-rule: evenodd;
      }
    </style>
  </defs>
  <g>
    <circle cx="36" cy="36" r="36" class="cls-1"/>
    <path d="M53.506,41.446 C52.502,42.882 51.124,44.094 49.371,45.084 C49.513,45.414 49.657,45.716 49.806,45.991 C49.954,46.266 50.131,46.531 50.336,46.785 C50.541,47.039 50.700,47.239 50.813,47.383 C50.926,47.527 51.110,47.729 51.365,47.991 C51.619,48.251 51.781,48.423 51.852,48.506 C51.866,48.520 51.895,48.551 51.937,48.598 C51.980,48.646 52.011,48.681 52.032,48.701 C52.053,48.722 52.082,48.756 52.117,48.804 C52.152,48.852 52.176,48.890 52.191,48.918 L52.244,49.020 C52.244,49.020 52.258,49.061 52.286,49.144 C52.314,49.226 52.318,49.271 52.297,49.278 C52.276,49.284 52.269,49.329 52.276,49.412 C52.233,49.604 52.141,49.755 52.000,49.865 C51.859,49.975 51.703,50.023 51.533,50.009 C50.826,49.913 50.218,49.803 49.710,49.679 C47.533,49.129 45.567,48.250 43.815,47.041 C42.542,47.261 41.298,47.371 40.082,47.371 C36.251,47.371 32.915,46.464 30.073,44.650 C30.893,44.705 31.515,44.732 31.939,44.732 C34.216,44.732 36.400,44.423 38.492,43.805 C40.584,43.186 42.450,42.300 44.090,41.146 C45.857,39.882 47.214,38.425 48.161,36.776 C49.109,35.128 49.582,33.382 49.582,31.541 C49.582,30.483 49.420,29.439 49.095,28.408 C50.918,29.384 52.360,30.607 53.421,32.077 C54.481,33.547 55.011,35.128 55.011,36.818 C55.011,38.468 54.510,40.010 53.506,41.446 ZM39.436,40.683 C37.139,41.624 34.640,42.095 31.940,42.094 C30.724,42.094 29.480,41.984 28.208,41.764 C26.455,42.973 24.490,43.853 22.313,44.402 C21.804,44.526 21.196,44.636 20.489,44.732 L20.426,44.732 C20.270,44.732 20.125,44.678 19.991,44.568 C19.857,44.457 19.776,44.313 19.747,44.135 C19.733,44.094 19.726,44.049 19.726,44.001 C19.726,43.953 19.729,43.908 19.737,43.867 C19.744,43.826 19.758,43.785 19.779,43.744 L19.832,43.641 C19.832,43.641 19.857,43.603 19.906,43.527 C19.956,43.452 19.984,43.418 19.991,43.425 C19.998,43.431 20.030,43.397 20.086,43.321 C20.143,43.246 20.171,43.215 20.171,43.229 C20.242,43.146 20.405,42.975 20.659,42.713 C20.914,42.453 21.097,42.250 21.211,42.106 C21.324,41.962 21.483,41.763 21.688,41.508 C21.893,41.254 22.069,40.990 22.218,40.715 C22.366,40.440 22.511,40.138 22.653,39.808 C20.900,38.818 19.521,37.602 18.518,36.160 C17.514,34.717 17.011,33.177 17.011,31.542 C17.011,29.632 17.676,27.866 19.005,26.245 C20.334,24.623 22.147,23.342 24.444,22.401 C26.741,21.460 29.240,20.989 31.940,20.989 C34.640,20.989 37.139,21.459 39.436,22.401 C41.733,23.342 43.546,24.623 44.875,26.245 C46.204,27.866 46.868,29.632 46.868,31.542 C46.868,33.452 46.204,35.218 44.875,36.839 C43.547,38.460 41.733,39.742 39.436,40.683 Z" class="cls-2"/>
  </g>
</svg>
