<svg xmlns="http://www.w3.org/2000/svg" xmlns:xlink="http://www.w3.org/1999/xlink" preserveAspectRatio="xMidYMid" width="72" height="72" viewBox="0 0 72 72">
  <defs>
    <style>
      .cls-1 {
        fill: #fef4f2;
      }

      .cls-2 {
        fill: #f27059;
        fill-rule: evenodd;
      }
    </style>
  </defs>
  <g>
    <circle cx="36" cy="36" r="36" class="cls-1"/>
    <path d="M51.170,49.139 C50.611,49.710 49.938,49.995 49.153,49.995 L22.867,49.995 C22.081,49.995 21.408,49.710 20.849,49.139 C20.289,48.568 20.010,47.882 20.010,47.080 L20.010,38.333 L32.010,38.333 L32.010,41.248 C32.010,41.564 32.123,41.838 32.349,42.069 C32.575,42.299 32.843,42.415 33.153,42.415 L38.867,42.415 C39.176,42.415 39.444,42.299 39.671,42.069 C39.897,41.838 40.010,41.564 40.010,41.248 L40.010,38.333 L52.010,38.333 L52.010,47.080 C52.010,47.882 51.730,48.568 51.170,49.139 ZM33.724,40.665 L33.724,38.333 L38.296,38.333 L38.296,40.665 L33.724,40.665 ZM20.010,29.585 C20.010,28.783 20.289,28.097 20.849,27.526 C21.408,26.955 22.081,26.670 22.867,26.670 L29.153,26.670 L29.153,23.754 C29.153,23.268 29.319,22.855 29.653,22.515 C29.986,22.175 30.391,22.005 30.867,22.005 L41.153,22.005 C41.629,22.005 42.034,22.175 42.367,22.515 C42.700,22.855 42.867,23.268 42.867,23.754 L42.867,26.670 L49.153,26.670 C49.938,26.670 50.611,26.955 51.170,27.526 C51.730,28.097 52.010,28.783 52.010,29.585 L52.010,36.583 L20.010,36.583 L20.010,29.585 ZM31.438,26.670 L40.581,26.670 L40.581,24.337 L31.438,24.337 L31.438,26.670 Z" class="cls-2"/>
  </g>
</svg>
