<svg xmlns="http://www.w3.org/2000/svg" xmlns:xlink="http://www.w3.org/1999/xlink" preserveAspectRatio="xMidYMid" width="30" height="30" viewBox="0 0 30 30">
  <path d="M-0.000,7.000 L0.005,3.788 C0.005,3.386 0.145,3.043 0.424,2.757 C0.704,2.471 1.040,2.328 1.433,2.328 L4.576,2.328 L4.576,0.868 C4.576,0.625 4.660,0.418 4.826,0.247 C4.993,0.077 5.195,-0.008 5.433,-0.008 L10.576,-0.008 C10.814,-0.008 11.017,0.077 11.183,0.247 C11.350,0.418 11.433,0.625 11.433,0.868 L11.433,2.328 L14.576,2.328 C14.969,2.328 15.305,2.471 15.585,2.757 C15.865,3.043 16.005,3.386 16.005,3.788 L16.000,7.000 L-0.000,7.000 ZM10.290,1.160 L5.719,1.160 L5.719,2.328 L10.290,2.328 L10.290,1.160 ZM9.000,8.000 L9.000,9.000 L7.000,9.000 L7.000,8.000 L9.000,8.000 ZM6.005,9.628 C6.005,9.786 6.061,9.923 6.174,10.039 C6.288,10.154 6.421,10.212 6.576,10.212 L9.433,10.212 C9.588,10.212 9.722,10.154 9.835,10.039 C9.948,9.923 10.005,9.786 10.005,9.628 L10.000,8.000 L16.000,8.000 L16.005,13.548 C16.005,13.949 15.865,14.293 15.585,14.579 C15.305,14.865 14.969,15.008 14.576,15.008 L1.433,15.008 C1.040,15.008 0.704,14.865 0.424,14.579 C0.145,14.293 0.005,13.949 0.005,13.548 L-0.000,8.000 L6.000,8.000 L6.005,9.628 Z" transform="translate(7 7.5)" class="cls-1"/>
</svg>
