<svg xmlns="http://www.w3.org/2000/svg" xmlns:xlink="http://www.w3.org/1999/xlink" preserveAspectRatio="xMidYMid" width="30" height="30" viewBox="0 0 30 30">
  <path fill="#666" d="M18.952,8.440 C18.922,8.173 18.610,7.972 18.341,7.972 C17.469,7.972 16.696,7.461 16.371,6.669 C16.040,5.859 16.254,4.914 16.903,4.319 C17.108,4.132 17.133,3.819 16.961,3.602 C16.515,3.036 16.008,2.525 15.454,2.082 C15.238,1.908 14.920,1.932 14.732,2.140 C14.165,2.767 13.146,3.001 12.359,2.672 C11.541,2.328 11.024,1.499 11.075,0.609 C11.091,0.329 10.887,0.086 10.608,0.054 C9.897,-0.029 9.181,-0.031 8.468,0.048 C8.193,0.078 7.988,0.316 7.997,0.592 C8.028,1.473 7.505,2.288 6.695,2.620 C5.917,2.937 4.906,2.706 4.340,2.084 C4.153,1.879 3.841,1.854 3.622,2.024 C3.053,2.471 2.534,2.983 2.084,3.544 C1.908,3.762 1.934,4.079 2.141,4.266 C2.803,4.865 3.016,5.818 2.672,6.638 C2.344,7.419 1.532,7.923 0.603,7.923 C0.301,7.913 0.087,8.115 0.053,8.390 C-0.030,9.103 -0.031,9.831 0.049,10.551 C0.079,10.819 0.400,11.018 0.673,11.018 C1.501,10.997 2.296,11.509 2.630,12.321 C2.963,13.131 2.749,14.075 2.098,14.671 C1.895,14.858 1.869,15.170 2.041,15.387 C2.482,15.950 2.990,16.461 3.545,16.908 C3.763,17.084 4.080,17.059 4.269,16.851 C4.838,16.222 5.856,15.990 6.640,16.318 C7.461,16.662 7.978,17.491 7.927,18.381 C7.911,18.661 8.116,18.905 8.394,18.936 C8.757,18.979 9.123,19.000 9.489,19.000 C9.837,19.000 10.186,18.981 10.534,18.942 C10.809,18.912 11.014,18.674 11.004,18.398 C10.972,17.517 11.496,16.702 12.306,16.371 C13.088,16.052 14.095,16.285 14.661,16.906 C14.849,17.111 15.160,17.136 15.379,16.966 C15.948,16.521 16.465,16.009 16.918,15.446 C17.093,15.228 17.068,14.911 16.861,14.724 C16.199,14.125 15.984,13.172 16.328,12.353 C16.651,11.582 17.433,11.064 18.274,11.064 L18.391,11.067 C18.664,11.090 18.915,10.879 18.948,10.601 C19.032,9.887 19.033,9.160 18.952,8.440 ZM9.501,14.975 C6.472,14.975 4.018,12.522 4.018,9.495 C4.018,6.469 6.473,4.016 9.501,4.016 C12.529,4.016 14.984,6.469 14.984,9.495 C14.984,10.522 14.701,11.483 14.209,12.305 L11.808,9.905 C11.981,9.496 12.073,9.052 12.073,8.594 C12.073,7.696 11.723,6.853 11.088,6.218 C10.454,5.584 9.609,5.234 8.712,5.234 C8.412,5.234 8.114,5.274 7.825,5.353 C7.699,5.387 7.596,5.491 7.562,5.618 C7.528,5.747 7.566,5.880 7.668,5.981 C7.668,5.981 8.853,7.175 9.250,7.571 C9.291,7.612 9.291,7.712 9.285,7.747 L9.281,7.773 C9.242,8.209 9.164,8.732 9.101,8.933 C9.092,8.941 9.084,8.949 9.076,8.957 C9.066,8.966 9.058,8.975 9.049,8.984 C8.845,9.050 8.314,9.128 7.871,9.167 L7.871,9.165 L7.851,9.170 C7.848,9.170 7.841,9.171 7.832,9.171 C7.785,9.171 7.714,9.157 7.650,9.093 C7.237,8.681 6.098,7.551 6.098,7.551 C5.996,7.449 5.891,7.428 5.822,7.428 C5.659,7.428 5.513,7.545 5.467,7.714 C5.154,8.873 5.486,10.121 6.335,10.969 C6.970,11.603 7.814,11.953 8.712,11.953 C9.170,11.953 9.615,11.861 10.024,11.687 L12.452,14.113 C11.599,14.658 10.588,14.975 9.501,14.975 Z" transform="translate(5.48 5.5)" class="cls-1"/>
</svg>
