<svg xmlns="http://www.w3.org/2000/svg" xmlns:xlink="http://www.w3.org/1999/xlink" preserveAspectRatio="xMidYMid" width="30" height="30" viewBox="0 0 30 30">
  <path d="M11.700,7.500 L3.120,7.500 L3.120,4.750 C3.120,2.958 4.636,1.500 6.500,1.500 C8.364,1.500 9.880,2.958 9.880,4.750 L9.880,5.250 C9.880,5.664 10.229,6.000 10.660,6.000 C11.091,6.000 11.440,5.664 11.440,5.250 L11.440,4.750 C11.440,2.131 9.224,-0.000 6.500,-0.000 C3.776,-0.000 1.560,2.131 1.560,4.750 L1.560,7.500 L1.300,7.500 C0.582,7.500 -0.000,8.060 -0.000,8.750 L-0.000,16.750 C-0.000,17.440 0.582,18.000 1.300,18.000 L11.700,18.000 C12.418,18.000 13.000,17.440 13.000,16.750 L13.000,8.750 C13.000,8.060 12.418,7.500 11.700,7.500 ZM4.940,11.750 C4.940,10.921 5.638,10.250 6.500,10.250 C7.361,10.250 8.060,10.921 8.060,11.750 C8.060,12.305 7.746,12.789 7.280,13.049 L7.280,15.250 L5.720,15.250 L5.720,13.049 C5.254,12.789 4.940,12.305 4.940,11.750 Z" transform="translate(8.5 6)" class="cls-1"/>
</svg>
