<svg xmlns="http://www.w3.org/2000/svg" xmlns:xlink="http://www.w3.org/1999/xlink" preserveAspectRatio="xMidYMid" width="30" height="30" viewBox="0 0 30 30">
 <path d="M14.945,15.560 C14.878,15.677 14.754,15.750 14.619,15.750 L0.369,15.750 C0.234,15.750 0.110,15.677 0.043,15.559 C-0.023,15.442 -0.022,15.298 0.048,15.181 L1.336,13.035 C1.930,12.044 2.244,10.910 2.244,9.755 L2.244,7.875 C2.244,5.501 3.828,3.493 5.994,2.846 L5.994,1.500 C5.994,0.673 6.666,-0.000 7.494,-0.000 C8.321,-0.000 8.994,0.673 8.994,1.500 L8.994,2.846 C11.160,3.493 12.744,5.501 12.744,7.875 L12.744,9.755 C12.744,10.910 13.058,12.045 13.653,13.036 L14.940,15.182 C15.009,15.298 15.012,15.443 14.945,15.560 ZM7.494,18.000 C6.450,18.000 5.555,17.383 5.132,16.500 L9.855,16.500 C9.432,17.383 8.537,18.000 7.494,18.000 Z" transform="translate(7.5 6)" class="cls-1"/>
</svg>
