<svg width="36" height="14" xmlns="http://www.w3.org/2000/svg"><path d="M3.321 2.584c-.214.003-.43-.031-.687-.051-.033.707.073 1.317.332 1.897.25.556.507 1.108.773 1.687.325 0 .672-.004 1.018 0 .276.004.555-.002.829.028.487.054.755.403.674.886-.1.597-.38.935-1.036.849-.447-.059-.891-.138-1.337-.204-.084-.013-.17-.011-.268-.016-.267.526-.544 1.037-.787 1.563-.217.467-.297.974-.328 1.485-.036.595-.054 1.192-.075 1.789-.014.388-.03.417-.411.467-.244.031-.494.078-.736.059-.576-.046-.875-.357-.88-.93C.394 11.046.344 9.991.73 8.985c.124-.326.255-.65.389-.973a3.356 3.356 0 0 0 .022-2.634 12.66 12.66 0 0 1-.5-1.531c-.22-.85-.08-1.709.028-2.56C.705.999.851.89 1.15.888 1.904.881 2.661.885 3.418.882 4.102.88 4.785.881 5.47.871c.418-.006.54.087.613.5.112.645-.151 1.08-.803 1.154-.646.073-1.305.05-1.958.059zm7.932-.288c.035-.41.054-.82.084-1.283h1.78c0 .334.029.65-.005.959-.105.946.02 1.842.502 2.677.13.226.24.467.342.707.238.556.272 1.123.046 1.692-.122.308-.234.623-.39.913-.354.655-.522 1.357-.64 2.085-.068.418-.19.832-.323 1.236-.313.95-1.08 1.368-1.98 1.559-1.14.242-2.31-.263-2.86-1.397a8.73 8.73 0 0 1-.376-.918 2.216 2.216 0 0 1 .015-1.542c.11-.297.252-.582.392-.866.11-.222.24-.434.358-.653.392-.728.39-1.45-.04-2.164-.165-.271-.327-.544-.502-.81-.58-.881-.67-1.853-.515-2.863.068-.445.19-.532.633-.541.248-.006.497-.006.745 0 .36.007.392.04.4.413.008.318.01.635.014.953.01.748.195 1.442.6 2.079.186.29.348.597.493.908.252.541.271 1.095.01 1.64-.153.324-.324.64-.496.954-.226.413-.463.828-.501 1.303-.026.31-.017.638.06.936.116.447.482.662.92.722a.647.647 0 0 0 .669-.327 2.19 2.19 0 0 0 .232-.527c.24-.872.622-1.68 1.09-2.45.1-.164.188-.338.267-.513.276-.614.294-1.229-.015-1.838-.119-.233-.235-.47-.374-.69-.455-.72-.709-1.491-.635-2.354zm7.77 3.269c.332.55.54 1.145.633 1.793.243-.613.221-1.242.096-1.868-.078-.392-.189-.777-.303-1.16-.302-1.013-.198-2.024.012-3.03.1-.484.273-.559.745-.413.21.065.422.128.633.192.42.128.513.244.514.677 0 .552-.036 1.104-.006 1.654.023.425.1.85.194 1.266.253 1.107.208 2.187-.209 3.252-.316.806-.421 1.653-.446 2.514a37.387 37.387 0 0 1-.092 1.819c-.039.495-.151.587-.646.607a4.35 4.35 0 0 1-.372-.002c-.339-.015-.589-.18-.691-.5-.336-1.05-.683-2.097-.965-3.162-.108-.403-.065-.85-.067-1.276-.004-.573-.086-1.128-.308-1.658-.03-.072-.075-.138-.143-.259 0 .24-.008.415 0 .59.033.625-.194 1.193-.41 1.758a6.224 6.224 0 0 0-.384 1.981 170.27 170.27 0 0 1-.085 1.819c-.005.11-.021.22-.047.327-.09.373-.196.467-.57.453a5.292 5.292 0 0 1-.777-.093c-.227-.042-.355-.185-.363-.433-.047-1.45-.092-2.893.455-4.287.42-1.07.372-2.168.005-3.246-.357-1.048-.45-2.127-.436-3.223 0-.055 0-.11.004-.165.037-.448.2-.606.654-.633.802-.049 1.132.142 1.458.877.145.327.266.666.377 1.007.224.687.536 1.328.955 1.919.207.292.4.596.585.903zm5.674-.855c.022.046.059.087.147.215.08-.809.382-1.435.786-2.023.282-.409.553-.826.801-1.255.107-.184.242-.31.437-.342.31-.051.626-.093.94-.095.287-.002.366.124.295.402-.03.118-.084.234-.147.34-.184.307-.386.604-.567.913-.203.344-.406.69-.58 1.048-.306.627-.219 1.294-.152 1.953.01.097.106.188.169.277.135.191.279.377.412.57.395.572.53 1.212.425 1.891-.118.777.009 1.508.32 2.22.167.379.321.762.468 1.149.063.166.116.342.134.518.034.34-.152.602-.482.591a4.51 4.51 0 0 1-1.129-.195c-.139-.041-.268-.236-.33-.39-.255-.625-.484-1.261-.72-1.894-.24-.635-.31-1.278-.152-1.949.07-.302.077-.618.075-.944-.33.202-.585.45-.799.75-.502.709-.63 1.513-.652 2.355a10.88 10.88 0 0 1-.109 1.4c-.11.706-.902 1.018-1.486.585a.748.748 0 0 1-.258-.488c-.046-.575-.048-1.155-.06-1.734a3.622 3.622 0 0 1 .024-.495c.057-.487.219-.937.475-1.356.179-.294.35-.593.515-.896.378-.69.312-1.381-.017-2.063a6.71 6.71 0 0 0-.433-.752 3.141 3.141 0 0 1-.525-2.083c.035-.37.067-.74.094-1.112.017-.237.128-.398.364-.434.31-.048.628-.117.938-.098.457.027.657.298.611.752-.026.26-.087.516-.125.775-.094.66.013 1.29.293 1.894zm7.951-.488c.032.073.09.135.134.202.171-1.262.787-2.323 1.201-3.437.49-.027.94-.059 1.392-.075.311-.01.401.086.367.391a1.83 1.83 0 0 1-.116.438c-.166.438-.347.87-.512 1.309-.254.678-.444 1.373-.295 2.102.209 1.018-.155 1.93-.485 2.85-.102.283-.255.55-.396.818-.3.573-.46 1.176-.441 1.828.017.62.028 1.24.02 1.861-.007.464-.14.557-.583.505-.3-.035-.602-.046-.903-.068-.453-.035-.553-.11-.536-.548.034-.88-.064-1.773.15-2.637.12-.49.35-.953.515-1.433.106-.31.19-.63.273-.948.067-.255 0-.496-.141-.71-.273-.414-.523-.85-.84-1.227-.983-1.164-1.523-2.548-2.024-3.954-.121-.339-.036-.451.32-.482.341-.03.684-.055 1.026-.09.266-.026.462.082.574.316.214.447.418.898.615 1.353.234.543.454 1.092.685 1.636z" fill="#000" fill-rule="nonzero"/></svg>