<svg width="91" height="10" xmlns="http://www.w3.org/2000/svg"><path d="M.656.799L0 .143h8.463c.007 0 .007 0 .007.006v1.019c0 .007 0 .007-.007.007H2.509a233.53 233.53 0 0 0 1.928 1.907h4.026c.007 0 .007 0 .007.007v1.018c0 .007 0 .007-.007.007H1.77v5.88c0 .006 0 .006-.007.006H.738V3.082h2.229A351.22 351.22 0 0 0 .657.799zM11.865.184V5.81c0 .54.143 1.066.43 1.579.082.136.192.287.321.444.158.178.294.314.417.417a3.191 3.191 0 0 0 2.038.725c.697 0 1.326-.233 1.886-.69.185-.158.315-.295.404-.411a2.876 2.876 0 0 0 .643-1.798V.184h1.031v5.878c0 .787-.232 1.518-.69 2.209-.103.15-.226.307-.376.471a4.997 4.997 0 0 1-.417.39 4.458 4.458 0 0 1-.595.39 3.909 3.909 0 0 1-1.866.478h-.04c-.78 0-1.518-.212-2.223-.636a4.366 4.366 0 0 1-1.579-1.763 4.147 4.147 0 0 1-.417-1.805V.184h1.033zm3.062 4.265h.014c.253 0 .458.11.629.328a.809.809 0 0 1 .136.445.766.766 0 0 1-.772.766c-.26 0-.472-.11-.643-.336a.774.774 0 0 1-.13-.43.75.75 0 0 1 .315-.622.76.76 0 0 1 .451-.15zM21.671.143h8.23v2.426h-1.024c-.007 0-.007 0-.007-.006V1.175H26.3v8.818c0 .007 0 .007-.007.007h-1.019c-.007 0-.007 0-.007-.007V1.175h-2.57v1.387c0 .007 0 .007-.007.007h-1.019c-.006 0-.006 0-.006-.006V.148c0-.006 0-.006.006-.006zm11.325.04V5.81c0 .54.143 1.066.43 1.579.083.136.192.287.322.444.157.178.294.314.417.417a3.191 3.191 0 0 0 2.037.725c.697 0 1.326-.233 1.887-.69.184-.158.314-.295.403-.411a2.876 2.876 0 0 0 .643-1.798V.184h1.032v5.878c0 .787-.233 1.518-.69 2.209-.103.15-.226.307-.377.471a4.997 4.997 0 0 1-.417.39 4.458 4.458 0 0 1-.594.39 3.909 3.909 0 0 1-1.866.478h-.042c-.779 0-1.517-.212-2.221-.636a4.366 4.366 0 0 1-1.58-1.763 4.147 4.147 0 0 1-.416-1.805V.184h1.032zm3.062 4.266h.014c.253 0 .458.11.629.328a.809.809 0 0 1 .137.445.766.766 0 0 1-.772.766c-.26 0-.472-.11-.643-.336a.774.774 0 0 1-.13-.43.75.75 0 0 1 .314-.622.76.76 0 0 1 .451-.15zM42.803.163h2.645c.547 0 1.06.164 1.545.5a2.682 2.682 0 0 1 .711.744c.287.445.43.937.43 1.47 0 .636-.211 1.21-.628 1.736-.144.158-.273.28-.39.383l-.177.123c1.415 1.45 2.16 2.208 2.228 2.283l1.702 1.744c.007.006.287.287.834.854h-1.415l-2.297-2.338-2.03-2.064h-2.133v4.395c0 .007 0 .007-.007.007h-1.018c-.007 0-.007 0-.007-.007V.17c0-.007 0-.007.007-.007zm2.652 1.032h-1.627v3.37h1.484c.28 0 .52-.034.704-.109.424-.17.731-.465.93-.868.102-.226.157-.465.157-.718 0-.437-.158-.827-.472-1.169-.15-.143-.28-.24-.383-.294a1.643 1.643 0 0 0-.793-.212zM53.683.122h1.04c.006 0 .006 0 .006.007v9.864c0 .007 0 .007-.007.007h-1.039c-.007 0-.007 0-.007-.007V.13c0-.007 0-.007.007-.007zm7.045.02h.322c.464 0 .895.151 1.285.445a2 2 0 0 1 .28.26c.314.369.472.779.472 1.23H62.06c-.007 0-.007 0-.007-.007 0-.26-.116-.485-.348-.676a1.166 1.166 0 0 0-.704-.22h-.226c-.362 0-.65.13-.861.39a.761.761 0 0 0-.171.479v.02c0 .28.13.534.383.752.239.178.485.267.752.267h.177c.41 0 .745.034 1.005.103.301.075.54.15.718.239.185.075.376.184.574.321.123.075.267.192.43.349.124.116.226.225.302.321.116.144.205.28.28.397.308.52.458 1.06.458 1.626v.137c0 .704-.226 1.36-.684 1.983-.075.102-.205.239-.382.417a3.766 3.766 0 0 1-1.128.724c-.486.198-.985.301-1.484.301h-.369c-.745 0-1.45-.212-2.099-.629a3.371 3.371 0 0 1-.458-.369 2.63 2.63 0 0 1-.3-.315c-.103-.13-.192-.239-.26-.341-.342-.554-.513-1.128-.513-1.723v-.014c0-.006 0-.006.007-.006h1.019c.006 0 .006 0 .006.006v.028c0 .383.117.759.342 1.134.062.103.171.24.328.41.54.527 1.203.787 1.99.787h.239c.786 0 1.45-.253 1.996-.766.157-.157.267-.294.335-.403.253-.39.383-.8.383-1.217v-.157c0-.445-.15-.875-.451-1.292a4.34 4.34 0 0 0-.288-.315l-.157-.136a2.762 2.762 0 0 0-1.688-.568h-.274a2.272 2.272 0 0 1-1.627-.65c-.396-.41-.594-.881-.594-1.407 0-.52.205-.978.615-1.374.089-.076.17-.137.24-.185.361-.24.751-.355 1.161-.355zm6.116 0h8.23V2.57H74.05c-.007 0-.007 0-.007-.006V1.175h-2.57v8.818c0 .007 0 .007-.007.007h-1.019c-.007 0-.007 0-.007-.007V1.175h-2.57v1.387c0 .007 0 .007-.007.007h-1.018c-.007 0-.007 0-.007-.006V.148c0-.006 0-.006.007-.006zm10.299-.02h1.039c.007 0 .007 0 .007.007v9.864c0 .007 0 .007-.007.007h-1.04c-.006 0-.006 0-.006-.007V.13c0-.007 0-.007.007-.007zm8.371.02h.062c.813 0 1.6.206 2.365.623.24.13.492.307.759.52.266.225.499.457.683.683.199.253.37.506.506.759.116.211.212.437.301.676v.007c-.581.212-.91.321-.97.342a4.054 4.054 0 0 0-.431-.84 3.76 3.76 0 0 0-.39-.5c-.212-.212-.356-.342-.43-.39a3.98 3.98 0 0 0-.561-.376 4.546 4.546 0 0 0-.698-.293 4.022 4.022 0 0 0-1.155-.178h-.027c-.793 0-1.531.232-2.222.704-.13.089-.294.225-.506.417a4.176 4.176 0 0 0-.423.492c-.493.704-.739 1.463-.739 2.283 0 .773.219 1.497.663 2.174.09.144.233.315.424.52a3.794 3.794 0 0 0 .848.67 3.878 3.878 0 0 0 1.955.533h.027c.814 0 1.58-.246 2.283-.745.356-.267.657-.575.91-.923.102-.144.191-.294.266-.451.069-.13.137-.28.198-.452h.007c.636.233.957.35.964.35a4.951 4.951 0 0 1-.52 1.045c-.116.17-.26.349-.43.547a4.549 4.549 0 0 1-.451.451 5.276 5.276 0 0 1-.656.479 4.943 4.943 0 0 1-2.55.731h-.062a4.925 4.925 0 0 1-2.4-.636 6.152 6.152 0 0 1-.703-.478 5.386 5.386 0 0 1-1.073-1.23 7.961 7.961 0 0 1-.28-.527 4.869 4.869 0 0 1-.452-2.03v-.055c0-.848.219-1.661.663-2.447.116-.199.274-.424.472-.67.089-.116.232-.26.424-.445.164-.15.307-.273.43-.362.233-.17.458-.308.67-.424a4.903 4.903 0 0 1 2.25-.553z" fill="#000" fill-rule="nonzero"/></svg>