<svg width="72" height="11" xmlns="http://www.w3.org/2000/svg"><path d="M1.587 4.741c-.005.22.023.44.043.775l2.97-.25c0-.588.003-1.076 0-1.563-.003-.268-.027-.537-.019-.805.022-.688.246-.994.714-.96.54.04.668.421.695.884.043.727.115 1.452.146 2.18.06 1.416.094 2.833.148 4.25.017.462-.07.858-.592.967-.424.088-.792-.268-.843-.867-.074-.87-.096-1.743-.144-2.674l-3.126.276c0 .946-.003 1.815 0 2.684.003.859-.2 1.224-.692 1.224-.487.001-.728-.36-.726-1.212C.168 7.504.2 5.358.22 3.211c.002-.153-.008-.307.005-.46.04-.443.277-.73.731-.72.458.01.69.32.69.757 0 .651-.044 1.302-.058 1.953zm11.743 5.325c.015.28-.177.676-.404.84-.323.233-.651-.005-.861-.32-.1-.149-.173-.317-.256-.474-.539.277-.988.577-1.482.75-1.41.493-2.647-.382-2.717-1.88-.091-1.938 1.698-3.966 3.613-4.095.93-.063 1.644.471 1.761 1.407.157 1.253.277 2.512.346 3.772zm-3.279-.6c1.082-.487 1.615-1.84 1.21-3.072-1.17.165-2.265 1.39-2.22 2.485.027.647.397.862 1.01.587zm8.804-4.323c.734.253 1.072.875 1.04 1.62-.05 1.18-.15 2.36-.282 3.534-.052.457-.366.798-.879.68-.49-.113-.625-.484-.535-.978.11-.6.198-1.207.245-1.814.04-.518.008-1.04.008-1.561l-.323-.141c-.323.499-.692.974-.956 1.502-.375.75-.666 1.541-1.004 2.31-.168.382-.476.687-.888.525-.267-.106-.611-.457-.618-.706-.039-1.449-.005-2.9.045-4.35.012-.363.26-.648.676-.648.473 0 .671.305.706.736.017.207.003.416.003.857.382-.45.59-.706.81-.952.528-.592 1.185-.878 1.952-.614zm8.576-3.57c-.05 2.561-.1 5.122-.16 7.683-.01.435.248 1.032-.299 1.225-.348.122-.819-.104-1.33-.19-.478.183-1.067.475-1.689.632-1.36.344-2.556-.498-2.707-1.891-.173-1.59.577-2.769 1.891-3.519.77-.44 1.69-.613 2.674-.952.038-.775.074-1.684.128-2.592.02-.34.007-.716.148-1.007.108-.223.442-.475.664-.464.228.01.48.295.645.517.093.126.039.369.035.559zM25.188 8.79c.492-.292.804-.7.665-1.234-.018-1.356-.394-1.604-1.533-1.089-.206.094-.421.19-.596.33-.61.49-1.1 1.065-1.071 1.91.024.725.45 1.055 1.129.815.493-.175.951-.462 1.406-.732zm11.845-5.122c.418.195.487.56.335.97-.226.61-.467 1.213-.69 1.824-.448 1.22-.86 2.454-1.348 3.657-.127.312-.433.655-.737.767-.463.171-.806-.21-.987-.599-.37-.793-.678-1.613-1.061-2.54-.171.247-.334.425-.432.634-.308.658-.588 1.33-.887 1.992-.167.372-.422.651-.87.625-.51-.03-.72-.39-.815-.827a46.575 46.575 0 0 1-.345-1.804 98.505 98.505 0 0 1-.394-2.377c-.066-.433-.072-.873.48-1.009.428-.105.766.187.91.813.145.63.242 1.27.36 1.905l.245.081c.273-.614.543-1.23.821-1.843.195-.429.424-.858.968-.86.613-.004.831.483.998.96.236.675.436 1.364.65 2.047l.244.037c.337-.856.671-1.712 1.01-2.567.196-.498.374-1.005.604-1.487.183-.382.51-.6.941-.4zm7.082 1.436c.277.33.355.712.087 1.05-.243.31-.597.308-.926.074-.093-.066-.172-.156-.27-.212-.13-.075-.272-.128-.438-.204-1.313.872-1.67 2.23-1.925 3.64-.047.262-.041.534-.069.8-.045.435-.269.743-.717.748-.457.005-.697-.329-.732-.743-.14-1.64-.278-3.282-.358-4.926-.025-.533.393-.825.822-.661.193.074.387.254.486.437.116.214.128.483.226.907.405-.436.68-.801 1.02-1.087.877-.732 2.114-.637 2.794.177zm2.635-.794c.463.06.633.374.613.81-.078 1.672-.16 3.344-.237 5.017-.02.459-.136.866-.685.863-.513-.003-.735-.362-.745-.833-.018-.8-.005-1.6-.005-2.4l.06.001c.034-.723.065-1.446.104-2.169.012-.227.019-.46.072-.68.1-.42.367-.669.823-.61zm-.325-2.011c-.292-.444-.535-.679-.586-.95-.025-.129.292-.43.493-.473.389-.082.703.165.67.565-.02.231-.285.442-.577.858zm6.664 1.59c.061.488-.28.664-.69.745-.262.05-.525.095-.899.162.042 1.05.083 2.106.127 3.16.028.65.074 1.298.087 1.948.01.45.092.972-.552 1.083-.51.088-.806-.28-.866-1.082-.056-.762-.08-1.527-.123-2.29-.047-.837-.099-1.675-.15-2.518-.46-.306-1.317-.005-1.331-.843-.012-.688.66-.615 1.171-.85-.018-.607-.045-1.249-.055-1.891-.008-.445.066-.862.606-.953.445-.076.77.255.832.875.059.598.07 1.2.105 1.829.367.013.629.02.89.033.406.02.788.114.848.592zm5.735 0c.061.488-.28.664-.69.745-.262.05-.525.095-.899.162.042 1.05.083 2.106.127 3.16.028.65.074 1.298.087 1.948.01.45.092.972-.552 1.083-.51.088-.806-.28-.866-1.082-.056-.762-.08-1.527-.123-2.29-.047-.837-.099-1.675-.15-2.518-.46-.306-1.317-.005-1.331-.843-.012-.688.66-.615 1.171-.85-.018-.607-.045-1.249-.055-1.891-.008-.445.066-.862.606-.953.445-.076.77.255.832.875.059.598.07 1.2.105 1.829.367.013.629.02.89.033.406.02.788.114.848.592zm6.25 4.97c.261.351.126.716-.162.913-.623.426-1.26.895-1.964 1.125-.965.317-1.739-.12-2.306-1.054-.93-1.535-.458-4.277.964-5.363.317-.243.747-.42 1.143-.464 1.13-.126 1.901.779 1.663 1.893-.202.943-.846 1.523-1.677 1.915-.34.16-.71.252-1.177.413.124.377.182.64.295.877.224.47.62.572 1.054.341.403-.214.756-.521 1.15-.755.366-.217.737-.22 1.018.159zM62.727 5.36l-.783 1.012c.624-.035.978-.288 1.018-.815l-.235-.197zm8.024-.217c.734.253 1.072.875 1.04 1.62-.05 1.18-.15 2.36-.282 3.534-.052.457-.366.798-.879.68-.49-.113-.625-.484-.535-.978.11-.6.198-1.207.245-1.814.04-.518.008-1.04.008-1.561l-.323-.141c-.323.499-.692.974-.956 1.502-.375.75-.666 1.541-1.004 2.31-.168.382-.476.687-.888.525-.267-.106-.611-.457-.618-.706-.039-1.449-.005-2.9.045-4.35.012-.363.26-.648.676-.648.473 0 .671.305.706.736.017.207.003.416.003.857.382-.45.59-.706.81-.952.528-.592 1.185-.878 1.952-.614z" fill="#000" fill-rule="nonzero"/></svg>