<svg xmlns="http://www.w3.org/2000/svg" xmlns:xlink="http://www.w3.org/1999/xlink" preserveAspectRatio="xMidYMid" width="100" height="100" viewBox="0 0 100 100">
    <circle cx="50" cy="50" r="50" class="cls-1"/>
    <path d="M65.062,45.127 L55.940,54.249 C54.657,55.533 53.049,56.445 51.289,56.887 L51.210,56.887 L50.794,56.973 L50.565,57.016 L50.071,57.087 L49.827,57.087 C49.641,57.087 49.476,57.123 49.318,57.130 L48.888,57.180 L48.845,57.180 L48.344,57.180 C47.986,57.166 47.630,57.133 47.276,57.080 C46.982,57.030 46.696,56.973 46.409,56.901 L45.986,56.786 C45.836,56.743 45.678,56.693 45.528,56.636 C45.377,56.578 45.219,56.528 45.069,56.464 C44.918,56.399 44.768,56.342 44.617,56.270 C43.551,55.776 42.581,55.097 41.751,54.264 C41.170,53.681 40.867,52.877 40.920,52.057 C40.966,51.365 41.261,50.713 41.751,50.222 C42.882,49.157 44.647,49.157 45.778,50.222 C47.457,51.899 50.176,51.899 51.855,50.222 L54.206,47.886 L54.263,47.821 L60.985,41.107 C62.665,39.426 62.665,36.702 60.985,35.022 C59.305,33.342 56.581,33.342 54.901,35.022 L49.505,40.411 C49.300,40.617 48.992,40.680 48.724,40.569 C47.270,39.975 45.715,39.670 44.145,39.673 L43.879,39.673 C43.587,39.679 43.320,39.506 43.206,39.236 C43.090,38.967 43.150,38.655 43.356,38.448 L50.874,30.938 C54.792,27.019 61.144,27.019 65.062,30.938 C68.980,34.856 68.980,41.209 65.062,45.127 ZM49.555,43.407 C50.165,43.795 50.730,44.249 51.239,44.761 C51.820,45.344 52.123,46.148 52.070,46.969 C52.021,47.655 51.726,48.302 51.239,48.789 C50.108,49.854 48.343,49.854 47.212,48.789 C45.533,47.112 42.814,47.112 41.135,48.789 L31.984,57.933 C30.304,59.613 30.304,62.337 31.984,64.017 C33.664,65.697 36.388,65.697 38.068,64.017 L43.478,58.599 C43.683,58.394 43.991,58.331 44.259,58.442 C45.716,59.034 47.274,59.336 48.846,59.330 L49.132,59.330 C49.528,59.328 49.851,59.647 49.853,60.043 C49.854,60.235 49.778,60.420 49.641,60.556 L42.117,68.080 C40.238,69.961 37.687,71.013 35.030,71.004 C29.489,71.001 25.000,66.506 25.004,60.965 C25.005,58.310 26.059,55.763 27.935,53.884 L37.050,44.761 C38.929,42.876 41.483,41.818 44.145,41.823 C46.062,41.823 47.940,42.373 49.555,43.407 Z"/>

</svg>
