<svg xmlns="http://www.w3.org/2000/svg" xmlns:xlink="http://www.w3.org/1999/xlink" preserveAspectRatio="xMidYMid" width="20" height="20" viewBox="0 0 20 20">
  <path fill="#cecece" d="M11.700,8.500 L3.120,8.500 L3.120,4.750 C3.120,2.958 4.636,1.500 6.500,1.500 C8.364,1.500 9.880,2.958 9.880,4.750 L9.880,6.250 C9.880,6.664 10.229,7.000 10.660,7.000 C11.091,7.000 11.440,6.664 11.440,6.250 L11.440,4.750 C11.440,2.131 9.224,-0.000 6.500,-0.000 C3.776,-0.000 1.560,2.131 1.560,4.750 L1.560,8.500 L1.300,8.500 C0.582,8.500 -0.000,9.060 -0.000,9.750 L-0.000,17.750 C-0.000,18.440 0.582,19.000 1.300,19.000 L11.700,19.000 C12.418,19.000 13.000,18.440 13.000,17.750 L13.000,9.750 C13.000,9.060 12.418,8.500 11.700,8.500 ZM4.940,12.750 C4.940,11.921 5.638,11.250 6.500,11.250 C7.361,11.250 8.060,11.921 8.060,12.750 C8.060,13.305 7.746,13.789 7.280,14.049 L7.280,16.250 L5.720,16.250 L5.720,14.049 C5.254,13.789 4.940,13.305 4.940,12.750 Z" transform="translate(3.5 0.5)" class="cls-1"/>
</svg>
