<svg xmlns="http://www.w3.org/2000/svg" xmlns:xlink="http://www.w3.org/1999/xlink" preserveAspectRatio="xMidYMid" width="18" height="19.875" viewBox="0 0 18 19.875">
  <path d="M13.810,11.439 C13.639,11.439 13.479,11.393 13.330,11.303 C13.180,11.212 13.063,11.071 12.978,10.879 L12.018,8.735 L6.386,8.735 L5.426,10.879 C5.340,11.071 5.223,11.212 5.074,11.303 C4.924,11.393 4.759,11.439 4.578,11.439 C4.332,11.439 4.108,11.354 3.906,11.183 C3.703,11.012 3.602,10.804 3.602,10.559 C3.602,10.420 3.634,10.282 3.698,10.143 L8.114,0.655 C8.210,0.442 8.356,0.279 8.554,0.167 C8.751,0.055 8.962,-0.001 9.186,-0.001 C9.410,-0.001 9.620,0.055 9.818,0.167 C10.015,0.279 10.162,0.442 10.258,0.655 L14.690,10.143 C14.754,10.282 14.786,10.420 14.786,10.559 C14.786,10.804 14.687,11.012 14.490,11.183 C14.292,11.354 14.066,11.439 13.810,11.439 ZM9.202,2.383 L7.090,7.135 L11.314,7.135 L9.202,2.383 ZM3.947,15.875 L14.000,15.875 L14.000,17.875 L3.908,17.875 L3.869,19.877 L0.001,16.778 L3.985,13.880 L3.947,15.875 ZM14.131,19.877 L14.014,13.880 L17.999,16.778 L14.131,19.877 Z" class="cls-1"/>
</svg>
