<svg xmlns="http://www.w3.org/2000/svg" xmlns:xlink="http://www.w3.org/1999/xlink" preserveAspectRatio="xMidYMid" width="100" height="100" viewBox="0 0 100 100">
  <g>
    <circle cx="50" cy="50" r="50" class="cls-1"/>
    <path d="M69.765,56.039 C67.650,56.039 65.905,54.456 65.587,52.396 L60.311,51.863 C60.445,51.204 60.525,50.520 60.525,49.819 C60.525,49.780 60.519,49.741 60.519,49.700 L65.795,50.230 C66.395,48.585 67.941,47.405 69.765,47.405 C72.106,47.405 74.003,49.337 74.003,51.720 C74.003,54.107 72.106,56.039 69.765,56.039 ZM61.627,35.631 C61.223,35.631 60.834,35.553 60.458,35.444 L56.659,41.953 C56.093,41.515 55.481,41.140 54.829,40.839 L58.615,34.348 C57.856,33.566 57.391,32.496 57.391,31.312 C57.391,28.926 59.285,26.994 61.627,26.994 C63.977,26.994 65.875,28.926 65.875,31.312 C65.875,33.698 63.977,35.631 61.627,35.631 ZM58.101,49.819 C58.101,53.907 54.844,57.223 50.829,57.223 C46.812,57.223 43.556,53.907 43.556,49.819 C43.556,45.730 46.812,42.414 50.829,42.414 C54.845,42.414 58.101,45.730 58.101,49.819 ZM43.101,43.882 L40.246,41.134 C39.594,41.548 38.829,41.799 38.002,41.799 C35.659,41.799 33.759,39.866 33.759,37.480 C33.759,35.095 35.659,33.163 38.002,33.163 C40.347,33.163 42.244,35.095 42.244,37.480 C42.244,38.233 42.038,38.931 41.704,39.546 L44.564,42.298 C44.019,42.768 43.533,43.299 43.101,43.882 ZM34.782,54.144 L41.353,51.903 C41.507,52.623 41.742,53.312 42.039,53.963 L35.447,56.213 C35.456,56.310 35.476,56.400 35.476,56.500 C35.476,58.887 33.575,60.819 31.234,60.819 C28.889,60.819 26.993,58.887 26.993,56.500 C26.993,54.116 28.889,52.184 31.234,52.184 C32.718,52.184 34.023,52.966 34.782,54.144 ZM53.115,64.876 L51.934,59.622 C52.656,59.538 53.351,59.367 54.018,59.133 L55.197,64.384 C57.479,64.452 59.313,66.347 59.307,68.690 C59.307,71.071 57.412,73.003 55.071,73.003 C52.720,73.003 50.826,71.074 50.826,68.690 C50.826,67.023 51.761,65.596 53.115,64.876 Z" class="cls-2"/>
  </g>
</svg>
