<svg xmlns="http://www.w3.org/2000/svg" xmlns:xlink="http://www.w3.org/1999/xlink" preserveAspectRatio="xMidYMid" width="14" height="16" viewBox="0 0 14 16">
  <path d="M12.526,16.000 L4.421,16.000 C3.607,16.000 2.947,15.349 2.947,14.545 L2.947,4.364 C2.947,3.560 3.607,2.909 4.421,2.909 L12.526,2.909 C13.341,2.909 14.000,3.560 14.000,4.364 L14.000,14.545 C14.000,15.349 13.341,16.000 12.526,16.000 ZM12.526,4.364 L4.421,4.364 L4.421,14.545 L12.526,14.545 L12.526,4.364 ZM1.474,11.636 L-0.000,11.636 L-0.000,1.455 C-0.000,0.651 0.659,-0.000 1.474,-0.000 L10.316,-0.000 L10.316,1.455 L1.474,1.455 L1.474,11.636 Z" class="cls-1"/>
</svg>
