<svg xmlns="http://www.w3.org/2000/svg" xmlns:xlink="http://www.w3.org/1999/xlink" preserveAspectRatio="xMidYMid" width="10" height="12" viewBox="0 0 10 12">
  <defs>
    <style>
      .cls-1 {
        fill: #666;
        fill-rule: evenodd;
      }
    </style>
  </defs>
  <path d="M0.001,7.486 C0.001,9.975 2.162,12.001 4.817,12.001 L6.522,12.001 C6.804,12.001 7.033,11.786 7.033,11.521 L7.033,11.361 C7.033,11.097 6.804,10.882 6.522,10.882 L4.817,10.882 C2.820,10.882 1.194,9.358 1.194,7.486 C1.194,5.613 2.820,4.090 4.817,4.090 L7.962,4.090 L5.796,6.120 C5.563,6.338 5.563,6.693 5.796,6.911 C6.022,7.123 6.415,7.123 6.640,6.911 L9.824,3.926 C9.937,3.820 9.999,3.680 9.999,3.531 C9.999,3.381 9.937,3.241 9.824,3.135 L6.640,0.150 C6.415,-0.062 6.021,-0.062 5.796,0.150 C5.563,0.367 5.563,0.723 5.796,0.940 L7.962,2.971 L4.817,2.971 C2.162,2.971 0.001,4.997 0.001,7.486 Z" class="cls-1"/>
</svg>
