<svg xmlns="http://www.w3.org/2000/svg" xmlns:xlink="http://www.w3.org/1999/xlink" preserveAspectRatio="xMidYMid" width="10" height="12" viewBox="0 0 10 12">
  <defs>
    <style>
      .cls-1 {
        fill: #666;
        fill-rule: evenodd;
      }
    </style>
  </defs>
  <path d="M9.999,7.486 C9.999,9.975 7.838,12.001 5.183,12.001 L3.478,12.001 C3.196,12.001 2.967,11.786 2.967,11.521 L2.967,11.361 C2.967,11.097 3.196,10.882 3.478,10.882 L5.183,10.882 C7.180,10.882 8.805,9.358 8.805,7.486 C8.805,5.613 7.180,4.090 5.183,4.090 L2.038,4.090 L4.204,6.120 C4.436,6.338 4.436,6.693 4.204,6.911 C3.978,7.123 3.585,7.123 3.360,6.911 L0.176,3.926 C0.063,3.820 0.001,3.680 0.001,3.531 C0.001,3.381 0.063,3.241 0.176,3.135 L3.360,0.150 C3.585,-0.062 3.979,-0.062 4.204,0.150 C4.436,0.367 4.436,0.723 4.204,0.940 L2.038,2.971 L5.183,2.971 C7.838,2.971 9.999,4.997 9.999,7.486 Z" class="cls-1"/>
</svg>
