<svg xmlns="http://www.w3.org/2000/svg" xmlns:xlink="http://www.w3.org/1999/xlink" preserveAspectRatio="xMidYMid" viewBox="0 0 20 20">
  <path d="M14.227,15.274 C13.708,15.756 13.018,15.997 12.159,15.997 L2.841,15.997 C1.981,15.997 1.292,15.756 0.773,15.274 C0.254,14.791 -0.005,14.133 -0.005,13.300 C-0.005,12.932 0.007,12.573 0.032,12.223 C0.057,11.872 0.107,11.494 0.182,11.087 C0.256,10.681 0.350,10.305 0.464,9.958 C0.578,9.611 0.731,9.272 0.922,8.942 C1.114,8.613 1.335,8.331 1.583,8.099 C1.832,7.866 2.136,7.680 2.495,7.542 C2.854,7.403 3.250,7.333 3.683,7.333 C3.747,7.333 3.896,7.408 4.131,7.557 C4.366,7.707 4.630,7.873 4.925,8.057 C5.220,8.241 5.604,8.408 6.076,8.557 C6.549,8.706 7.023,8.781 7.500,8.781 C7.976,8.781 8.450,8.706 8.923,8.557 C9.395,8.408 9.779,8.241 10.074,8.057 C10.369,7.873 10.634,7.707 10.868,7.557 C11.103,7.408 11.252,7.333 11.316,7.333 C11.749,7.333 12.146,7.403 12.505,7.542 C12.863,7.680 13.167,7.866 13.416,8.099 C13.665,8.331 13.885,8.613 14.077,8.942 C14.269,9.272 14.422,9.611 14.535,9.958 C14.649,10.305 14.744,10.681 14.818,11.087 C14.893,11.494 14.942,11.872 14.967,12.223 C14.992,12.573 15.005,12.932 15.005,13.300 C15.005,14.134 14.746,14.791 14.227,15.274 ZM7.500,8.000 C6.370,8.000 5.405,7.609 4.606,6.828 C3.806,6.047 3.406,5.105 3.406,4.001 C3.406,2.897 3.806,1.955 4.606,1.174 C5.405,0.393 6.370,0.003 7.500,0.003 C8.630,0.003 9.595,0.393 10.394,1.174 C11.194,1.955 11.594,2.897 11.594,4.001 C11.594,5.105 11.194,6.047 10.394,6.828 C9.595,7.609 8.630,8.000 7.500,8.000 Z" transform="translate(2.5 2)" class="cls-1"/>
</svg>
