<svg xmlns="http://www.w3.org/2000/svg" xmlns:xlink="http://www.w3.org/1999/xlink" preserveAspectRatio="xMidYMid" width="14" height="15" viewBox="0 0 14 15">
  <path d="M11.667,10.610 C11.076,10.610 10.543,10.832 10.138,11.190 L4.597,8.061 C4.639,7.892 4.667,7.715 4.667,7.534 C4.667,7.353 4.639,7.176 4.597,7.007 L10.080,3.908 C10.496,4.285 11.052,4.518 11.667,4.518 C12.954,4.518 14.000,3.505 14.000,2.259 C14.000,1.013 12.954,-0.000 11.667,-0.000 C10.379,-0.000 9.333,1.013 9.333,2.259 C9.333,2.440 9.361,2.617 9.403,2.786 L3.920,5.885 C3.504,5.508 2.948,5.275 2.333,5.275 C1.046,5.275 -0.000,6.288 -0.000,7.534 C-0.000,8.780 1.046,9.793 2.333,9.793 C2.948,9.793 3.504,9.559 3.920,9.183 L9.462,12.312 C9.423,12.470 9.399,12.636 9.399,12.805 C9.399,14.017 10.414,15.000 11.667,15.000 C12.919,15.000 13.934,14.017 13.934,12.805 C13.934,11.593 12.919,10.610 11.667,10.610 Z" class="cls-1"/>
</svg>
