<svg xmlns="http://www.w3.org/2000/svg" width="13" height="13" viewBox="0 0 13 13">
  <path id="Left_icon_3" d="M30.5,295a6.5,6.5,0,0,0,0,13,1.082,1.082,0,0,0,1.083-1.083,1.059,1.059,0,0,0-.282-.726,1.085,1.085,0,0,1,.813-1.8h1.275A3.612,3.612,0,0,0,37,300.778C37,297.586,34.089,295,30.5,295Zm-3.972,6.5a1.083,1.083,0,1,1,1.083-1.083A1.082,1.082,0,0,1,26.528,301.5Zm2.167-2.889a1.083,1.083,0,1,1,1.083-1.083A1.082,1.082,0,0,1,28.694,298.611Zm3.611,0a1.083,1.083,0,1,1,1.083-1.083A1.082,1.082,0,0,1,32.306,298.611Zm2.167,2.889a1.083,1.083,0,1,1,1.083-1.083A1.082,1.082,0,0,1,34.472,301.5Z" transform="translate(-24 -295)" fill="#f27059"/>
</svg>
