<svg xmlns="http://www.w3.org/2000/svg" width="14.988" height="10" viewBox="0 0 14.988 10">
  <path id="Left_icon_1" d="M30.117,204.176l-.529-1.742H26.7l-.491,1.753a1.124,1.124,0,0,1-1.98.364,1.1,1.1,0,0,1-.171-.985l2.389-7.746A1.167,1.167,0,0,1,27.563,195h1.268a1.167,1.167,0,0,1,1.117.814l2.4,7.684a1.149,1.149,0,0,1-.176,1.03,1.173,1.173,0,0,1-2.06-.353Zm-2.491-5.556-.6,2.122h2.231l-.629-2.122c-.179-.593-.36-1.335-.51-1.929h-.028C27.941,197.285,27.79,198.041,27.625,198.62Zm5.938,4.558c0-1.544,1.4-2.284,3.52-2.272v-.085c0-.316-.172-.766-1.092-.766a3.461,3.461,0,0,0-1.067.182.618.618,0,0,1-.48-.037.607.607,0,0,1-.3-.37l-.005-.02a.594.594,0,0,1,.376-.725,5.465,5.465,0,0,1,1.81-.294,2.322,2.322,0,0,1,2.638,2.563v2.066c0,.361.01.712.032,1a.411.411,0,0,1-.11.31.415.415,0,0,1-.3.131H37.71a.412.412,0,0,1-.407-.336l-.049-.26h-.036A2.169,2.169,0,0,1,35.5,205,1.83,1.83,0,0,1,33.564,203.178ZM35.4,203a.666.666,0,0,0,.735.7,1.017,1.017,0,0,0,.968-.68,1.282,1.282,0,0,0,.037-.316v-.643h-.075C36.126,202.059,35.4,202.3,35.4,203Z" transform="translate(-24.006 -195)" fill="#f27059"/>
</svg>
