<svg xmlns="http://www.w3.org/2000/svg" width="11.999" height="12.01" viewBox="0 0 11.999 12.01">
  <path id="Left_icon_4" d="M35.739,349.442a.921.921,0,0,0,.218-.922.866.866,0,0,0-.695-.612l-2.905-.441a.381.381,0,0,1-.286-.217l-1.3-2.75a.845.845,0,0,0-1.543,0l-1.3,2.75a.382.382,0,0,1-.286.217l-2.905.441a.866.866,0,0,0-.695.612.921.921,0,0,0,.218.922l2.1,2.141a.409.409,0,0,1,.11.352l-.5,3.023a.908.908,0,0,0,.188.729.844.844,0,0,0,1.061.219l2.6-1.427a.374.374,0,0,1,.354,0l2.6,1.427a.823.823,0,0,0,.4.1.849.849,0,0,0,.66-.323.908.908,0,0,0,.188-.729l-.5-3.023a.408.408,0,0,1,.11-.352Z" transform="translate(-24 -343.999)" fill="#f27059"/>
</svg>
