<svg xmlns="http://www.w3.org/2000/svg" viewBox="0 0 80 60" width="80" height="60">
	<style>
		tspan { white-space:pre }
		.shp0 { fill: #f27059 } 
		.shp1 { fill: #000000 } 
	</style>
	<g id="final logo">
		<path id="logo" class="shp0" d="M3.16 58.12C4.07 58.71 5.13 59 6.36 59L31.72 59C32.68 59 33.44 58.55 34 57.64C34.56 56.73 34.84 55.67 34.84 54.44C34.84 53.21 34.56 52.15 34 51.24C33.44 50.33 32.68 49.88 31.72 49.88L12.2 49.88L12.2 3.72C12.2 2.65 11.69 1.85 10.68 1.32C9.67 0.79 8.44 0.52 7 0.52C5.56 0.52 4.33 0.79 3.32 1.32C2.31 1.85 1.8 2.65 1.8 3.72L1.8 55.72C1.8 56.73 2.25 57.53 3.16 58.12Z" />
		<path id="drill" class="shp1" d="M42.08 58.04C42.93 58.68 44.03 59 45.36 59L59.52 59C65.23 59 69.79 57.53 73.2 54.6C76.61 51.67 78.32 47.03 78.32 40.68L78.32 18.84C78.32 12.49 76.61 7.85 73.2 4.92C69.79 1.99 65.23 0.52 59.52 0.52L45.36 0.52C44.03 0.52 42.93 0.84 42.08 1.48C41.23 2.12 40.8 2.87 40.8 3.72L40.8 55.8C40.8 56.65 41.23 57.4 42.08 58.04ZM51.2 9.64L59.52 9.64C65.12 9.64 67.92 12.71 67.92 18.84L67.92 40.68C67.92 46.81 65.12 49.88 59.52 49.88L51.2 49.88L51.2 9.64Z" />
	</g>
</svg>