<svg width="52" height="13" xmlns="http://www.w3.org/2000/svg"><path d="M.26 1.38h2.145L5.78 9.42h.06l3.345-8.04h2.145V12H9.89V3.27h-.03L6.275 12h-.96L1.73 3.27H1.7V12H.26V1.38zm14.445 7.065c0 .36.055.692.165.997.11.306.265.565.465.78.2.216.445.385.735.51.29.126.615.188.975.188s.685-.062.975-.188c.29-.125.535-.294.735-.51.2-.215.355-.474.465-.78a2.92 2.92 0 0 0 .165-.997c0-.36-.055-.692-.165-.998a2.25 2.25 0 0 0-.465-.78 2.153 2.153 0 0 0-.735-.51 2.44 2.44 0 0 0-.975-.187c-.36 0-.685.062-.975.187-.29.126-.535.295-.735.51a2.25 2.25 0 0 0-.465.78 2.92 2.92 0 0 0-.165.998zm-1.44 0c0-.52.097-1.005.292-1.455a3.745 3.745 0 0 1 2.002-1.988c.461-.195.956-.292 1.486-.292a3.765 3.765 0 0 1 3.487 2.28c.196.45.293.935.293 1.455s-.097 1.007-.293 1.462a3.68 3.68 0 0 1-.802 1.186 3.808 3.808 0 0 1-2.685 1.087 3.808 3.808 0 0 1-2.685-1.088 3.68 3.68 0 0 1-.803-1.185 3.673 3.673 0 0 1-.292-1.462zM29.645 12h-1.35v-1.02h-.03c-.26.38-.617.675-1.073.885-.455.21-.922.315-1.402.315-.55 0-1.047-.095-1.492-.285a3.298 3.298 0 0 1-1.14-.795 3.592 3.592 0 0 1-.728-1.185c-.17-.45-.255-.94-.255-1.47s.085-1.022.255-1.477a3.348 3.348 0 0 1 1.867-1.972c.446-.191.943-.286 1.493-.286.51 0 .99.107 1.44.322.45.216.795.508 1.035.878h.03V.66h1.35V12zm-3.69-1.08c.36 0 .685-.062.975-.188.29-.125.535-.294.735-.51.2-.215.355-.474.465-.78a2.92 2.92 0 0 0 .165-.997c0-.36-.055-.692-.165-.998a2.25 2.25 0 0 0-.465-.78 2.153 2.153 0 0 0-.735-.51 2.44 2.44 0 0 0-.975-.187c-.36 0-.685.062-.975.187-.29.126-.535.295-.735.51a2.25 2.25 0 0 0-.465.78 2.92 2.92 0 0 0-.165.998c0 .36.055.692.165.997.11.306.265.565.465.78.2.216.445.385.735.51.29.126.615.188.975.188zm6.75-1.98c0 .31.067.592.203.847.135.256.312.473.532.653.22.18.475.32.765.42.29.1.59.15.9.15.42 0 .785-.097 1.095-.292.31-.196.595-.453.855-.773l1.02.78c-.75.97-1.8 1.455-3.15 1.455-.56 0-1.067-.095-1.522-.285a3.315 3.315 0 0 1-1.155-.788 3.493 3.493 0 0 1-.728-1.184 4.188 4.188 0 0 1-.255-1.478c0-.53.092-1.022.277-1.477.186-.456.44-.85.765-1.186a3.491 3.491 0 0 1 1.163-.787c.45-.19.94-.285 1.47-.285.63 0 1.162.11 1.598.33.435.22.792.507 1.072.863.28.355.482.754.608 1.2.125.445.187.897.187 1.357v.48h-5.7zm4.26-1.08c-.01-.3-.057-.575-.143-.825a1.815 1.815 0 0 0-.382-.653 1.762 1.762 0 0 0-.637-.435 2.332 2.332 0 0 0-.893-.157 2.21 2.21 0 0 0-2.047 1.343 1.836 1.836 0 0 0-.158.727h4.26zm3.06-2.97h1.35v1.095h.03c.09-.19.21-.362.36-.517.15-.156.317-.288.502-.398.186-.11.388-.197.608-.262.22-.065.44-.098.66-.098.22 0 .42.03.6.09l-.06 1.455c-.11-.03-.22-.055-.33-.075-.11-.02-.22-.03-.33-.03-.66 0-1.165.185-1.515.555-.35.37-.525.945-.525 1.725V12h-1.35V4.89zm5.55 0h1.35v1.095h.03c.17-.38.465-.687.885-.923.42-.235.905-.352 1.455-.352.34 0 .667.052.983.158.315.105.59.267.825.487.235.22.422.502.562.847.14.346.21.753.21 1.223V12h-1.35V7.8c0-.33-.045-.612-.135-.848a1.549 1.549 0 0 0-.36-.57 1.35 1.35 0 0 0-.517-.315 1.908 1.908 0 0 0-.608-.097c-.28 0-.54.045-.78.135-.24.09-.45.232-.63.427-.18.196-.32.443-.42.743-.1.3-.15.655-.15 1.065V12h-1.35V4.89z" fill="#000" fill-rule="nonzero"/></svg>