<svg xmlns="http://www.w3.org/2000/svg" xmlns:xlink="http://www.w3.org/1999/xlink" preserveAspectRatio="xMidYMid" width="511.969" height="507.75" viewBox="0 0 511.969 507.75">
  <path d="M510.431,141.413 L386.396,312.188 C386.599,314.810 386.707,317.438 386.707,320.032 C386.707,344.279 378.191,367.213 362.579,385.433 L382.292,405.140 L388.631,398.802 C390.117,397.319 392.128,396.485 394.226,396.485 C396.325,396.485 398.337,397.319 399.821,398.802 L471.426,470.386 C472.909,471.869 473.743,473.881 473.743,475.978 C473.743,478.076 472.909,480.088 471.426,481.571 L447.557,505.433 C446.012,506.977 443.987,507.750 441.963,507.750 C439.937,507.750 437.913,506.977 436.368,505.433 L364.764,433.849 C361.675,430.760 361.675,425.751 364.764,422.663 L371.103,416.326 L351.391,396.617 C346.630,400.687 341.504,404.285 336.076,407.401 L336.076,429.703 C336.076,434.071 332.534,437.612 328.164,437.612 L108.761,437.612 C104.392,437.612 100.849,434.071 100.849,429.703 L100.849,344.842 L51.058,352.741 C50.644,352.806 50.230,352.839 49.818,352.839 C48.158,352.839 46.529,352.318 45.170,351.331 C43.472,350.097 42.335,348.241 42.005,346.169 L-0.315,79.546 C-1.000,75.233 1.943,71.180 6.258,70.496 L222.949,36.119 C225.020,35.790 227.139,36.296 228.837,37.529 C230.535,38.763 231.674,40.618 232.003,42.690 L242.663,109.847 L320.088,3.245 C321.322,1.548 323.179,0.411 325.250,0.082 C327.326,-0.250 329.441,0.261 331.138,1.492 L508.677,130.368 C512.213,132.933 512.999,137.879 510.431,141.413 ZM441.962,488.657 L454.641,475.980 L394.225,415.581 L381.547,428.257 L441.962,488.657 ZM346.012,380.061 C346.013,380.060 346.014,380.059 346.015,380.058 C362.053,364.025 370.885,342.709 370.886,320.033 C370.886,316.989 370.717,313.888 370.386,310.813 C370.386,310.807 370.385,310.801 370.384,310.796 C367.307,282.321 350.176,257.505 324.564,244.410 C312.537,238.261 299.551,235.143 285.973,235.143 C260.802,235.143 237.076,246.218 220.880,265.528 C213.134,274.762 207.545,285.310 204.270,296.878 C202.139,304.403 201.059,312.194 201.059,320.033 C201.059,333.621 204.171,346.600 210.310,358.608 C210.311,358.610 210.312,358.612 210.313,358.614 C224.920,387.177 253.911,404.922 285.972,404.922 C299.566,404.922 312.551,401.808 324.564,395.669 C332.482,391.622 339.699,386.372 346.012,380.061 ZM217.617,52.982 L16.552,84.879 L56.391,335.880 L100.850,328.827 L100.850,276.508 L90.484,278.152 C90.065,278.219 89.646,278.251 89.234,278.251 C85.411,278.251 82.049,275.475 81.431,271.580 C80.746,267.267 83.689,263.214 88.004,262.530 L100.850,260.493 L100.850,208.174 L79.905,211.496 C79.485,211.563 79.067,211.595 78.655,211.595 C74.832,211.595 71.470,208.819 70.851,204.925 C70.167,200.611 73.110,196.558 77.425,195.874 L100.850,192.157 L100.850,159.743 C100.850,155.375 104.392,151.835 108.761,151.834 L212.168,151.834 L229.517,127.948 L217.617,52.982 ZM216.201,167.654 C216.199,167.654 216.195,167.655 216.193,167.655 C216.190,167.655 216.189,167.654 216.186,167.654 L116.672,167.654 L116.672,198.912 L116.672,267.246 L116.672,335.580 L116.672,421.795 L320.254,421.795 L320.255,421.795 L320.255,414.763 C309.328,418.732 297.845,420.743 285.973,420.743 C249.584,420.743 216.540,401.467 198.577,370.126 L159.394,370.126 C155.025,370.126 151.482,366.585 151.482,362.217 C151.482,357.849 155.025,354.308 159.394,354.308 L191.219,354.308 C187.249,343.385 185.237,331.905 185.237,320.036 C185.237,314.192 185.744,308.371 186.748,302.635 L159.393,302.635 C155.024,302.635 151.481,299.094 151.481,294.726 C151.481,290.358 155.024,286.817 159.393,286.817 L190.867,286.817 C194.868,275.330 200.864,264.771 208.753,255.367 C215.440,247.393 223.212,240.609 231.760,235.145 L159.392,235.145 C155.023,235.145 151.480,231.604 151.480,227.236 C151.480,222.868 155.023,219.327 159.392,219.327 L277.532,219.327 C278.166,219.327 278.780,219.410 279.371,219.550 C281.559,219.408 283.760,219.327 285.970,219.327 C297.834,219.327 309.317,221.341 320.252,225.317 L320.252,175.918 L320.252,167.654 L305.887,167.654 C305.883,167.654 305.880,167.655 305.877,167.655 C305.875,167.655 305.873,167.654 305.871,167.654 L242.571,167.654 L216.201,167.654 ZM328.243,18.939 L244.245,134.590 C244.244,134.592 244.243,134.593 244.242,134.594 L231.719,151.836 L242.570,151.836 L281.992,151.836 C279.788,149.122 279.577,145.173 281.729,142.210 C284.296,138.674 289.244,137.891 292.780,140.457 L308.455,151.836 L328.164,151.836 C332.534,151.836 336.076,155.377 336.076,159.745 L336.076,171.886 L388.377,209.851 C391.913,212.418 392.699,217.364 390.132,220.898 C388.582,223.029 386.169,224.161 383.723,224.161 C382.111,224.161 380.486,223.669 379.082,222.651 L336.076,191.434 L336.076,232.675 C358.595,245.582 375.026,266.377 382.393,290.777 L492.979,138.520 L328.243,18.939 ZM321.394,87.597 C323.962,84.062 328.909,83.278 332.444,85.844 L428.041,155.239 C431.577,157.805 432.363,162.751 429.795,166.286 C428.246,168.417 425.832,169.548 423.387,169.548 C421.775,169.548 420.149,169.057 418.745,168.038 L323.148,98.644 C319.612,96.077 318.826,91.131 321.394,87.597 ZM186.004,126.331 L69.324,144.842 C68.905,144.909 68.487,144.941 68.074,144.941 C64.252,144.941 60.889,142.165 60.271,138.270 C59.587,133.956 62.530,129.903 66.845,129.219 L183.524,110.709 C187.839,110.019 191.893,112.966 192.577,117.280 C193.264,121.595 190.320,125.647 186.004,126.331 ZM218.990,320.034 C218.990,283.110 249.038,253.071 285.972,253.071 C322.906,253.071 352.954,283.109 352.954,320.034 C352.954,356.957 322.906,386.996 285.972,386.996 C249.038,386.996 218.990,356.957 218.990,320.034 ZM337.131,320.034 C337.131,291.833 314.182,268.889 285.972,268.889 C257.763,268.889 234.813,291.832 234.813,320.034 C234.813,348.234 257.762,371.178 285.972,371.178 C314.181,371.178 337.131,348.234 337.131,320.034 ZM276.157,350.934 C273.068,347.846 273.068,342.838 276.157,339.750 L297.254,318.659 C300.345,315.571 305.354,315.571 308.444,318.659 C311.534,321.746 311.534,326.754 308.444,329.844 L287.347,350.934 C285.802,352.479 283.777,353.251 281.752,353.251 C279.728,353.251 277.702,352.478 276.157,350.934 ZM276.800,319.298 C275.255,320.843 273.229,321.615 271.205,321.615 C269.180,321.615 267.155,320.842 265.610,319.298 C262.521,316.210 262.521,311.202 265.610,308.114 L288.816,284.914 C291.906,281.826 296.915,281.826 300.005,284.914 C303.095,288.001 303.095,293.009 300.005,296.099 L276.800,319.298 Z" class="cls-1"/>
</svg>
