<svg  enable-background="new 0 0 512 512" viewBox="0 0 512 512"  xmlns="http://www.w3.org/2000/svg"><path d="m455.098 358.294v-67.715c32.228-5.32 56.902-33.559 56.902-67.507 0-37.727-30.468-68.42-67.918-68.42-18.342 0-34.997 7.375-47.229 19.319-6.816-3.456-14.056-6.21-21.62-8.176v-10.071c0-15.023-12.393-27.245-27.625-27.245h-13.585c-15.232 0-27.625 12.222-27.625 27.245v10.06c-33.941 8.817-61.345 33.605-73.329 65.652h-219.622c-7.415 0-13.447 6.055-13.447 13.497v130.116c0 7.442 6.032 13.497 13.447 13.497h20.453v36.09c0 5.47 3.251 10.361 8.284 12.462 1.646.687 3.383 1.035 5.163 1.035 3.606 0 6.992-1.413 9.532-3.975l45.236-45.612h102.995l-25.296 35.724c-3.181 4.397-3.591 10.11-1.065 14.92 2.492 4.73 7.385 7.669 12.769 7.669h100.069c4.095 23.636 24.604 41.662 49.228 41.662 24.623 0 45.132-18.026 49.227-41.662h100.069c5.387 0 10.28-2.94 12.769-7.672 2.527-4.8 2.119-10.516-1.02-14.855zm-11.016-188.642c29.179 0 52.918 23.964 52.918 53.42s-23.739 53.42-52.918 53.42-52.918-23.964-52.918-53.42 23.739-53.42 52.918-53.42zm-122.685-13.928c0-6.752 5.664-12.245 12.625-12.245h13.585c6.961 0 12.625 5.493 12.625 12.245v7.284c-4.071-.463-8.208-.714-12.403-.714h-14.03c-4.195 0-8.331.246-12.402.708zm-222.407 217.822c-2 0-3.917.799-5.325 2.219l-44.765 45.136v-39.855c0-4.142-3.358-7.5-7.5-7.5h-26.4v-127.11h213.721c-1.436 6.865-2.191 13.971-2.191 21.247v11.61h-84.53c-4.142 0-7.5 3.358-7.5 7.5s3.358 7.5 7.5 7.5h84.53v23.38h-170.26c-4.142 0-7.5 3.358-7.5 7.5s3.358 7.5 7.5 7.5h170.26v25.62l-10.8 15.252h-116.74zm241.825 99.975c-16.326 0-30.06-11.359-33.9-26.662h67.799c-3.839 15.303-17.573 26.662-33.899 26.662zm-147.996-41.662 45.09-63.679h138.091c4.142 0 7.5-3.358 7.5-7.5s-3.358-7.5-7.5-7.5h-134.47v-85.497c0-49.841 41.392-90.39 92.269-90.39h14.03c14.038 0 27.348 3.098 39.272 8.615-6.907 10.71-10.937 23.468-10.937 37.163 0 36.379 28.332 66.207 63.934 68.293v61.815h-28.098c-4.142 0-7.5 3.358-7.5 7.5s3.358 7.5 7.5 7.5h31.719l45.091 63.679h-295.991z"/><path d="m412.421 239.035c1.319 2.616 3.961 4.125 6.703 4.125 1.135 0 2.288-.259 3.371-.804l14.088-7.103v12.99c0 4.142 3.358 7.5 7.5 7.5s7.5-3.358 7.5-7.5v-12.99l14.087 7.102c1.083.546 2.235.804 3.371.804 2.742 0 5.384-1.509 6.703-4.125 1.864-3.699.378-8.209-3.321-10.074l-11.68-5.889 11.68-5.888c3.699-1.865 5.185-6.375 3.321-10.074-1.865-3.699-6.375-5.185-10.074-3.321l-14.087 7.102v-12.99c0-4.142-3.358-7.5-7.5-7.5s-7.5 3.358-7.5 7.5v12.991l-14.088-7.103c-3.698-1.865-8.209-.378-10.074 3.321-1.864 3.699-.378 8.209 3.321 10.074l11.68 5.888-11.68 5.889c-3.699 1.866-5.185 6.376-3.321 10.075z"/><path d="m56.27 294.293h49.958c4.142 0 7.5-3.358 7.5-7.5s-3.358-7.5-7.5-7.5h-49.958c-4.142 0-7.5 3.358-7.5 7.5s3.357 7.5 7.5 7.5z"/><path d="m69.721 170.837h109.922l32.594 32.253c3.175 3.142 6.219 3.984 8.57 3.984 1.628 0 2.925-.404 3.703-.729 1.896-.791 6.305-3.443 6.305-10.964v-24.544h19.438c8.66 0 15.705-7.007 15.705-15.62v-61.217c0-4.142-3.358-7.5-7.5-7.5s-7.5 3.358-7.5 7.5v61.217c0 .293-.302.62-.705.62h-26.938c-4.142 0-7.5 3.358-7.5 7.5v22.19l-27.813-27.521c-1.404-1.39-3.3-2.169-5.275-2.169h-113.006c-.404 0-.706-.327-.706-.62v-116.117c0-.293.302-.621.706-.621h180.531c.403 0 .705.328.705.621v19.9c0 4.142 3.358 7.5 7.5 7.5s7.5-3.358 7.5-7.5v-19.9c0-8.613-7.045-15.621-15.705-15.621h-180.531c-8.66 0-15.706 7.007-15.706 15.621v116.118c0 8.612 7.046 15.619 15.706 15.619z"/><path d="m217.051 62.131h-114.131c-4.142 0-7.5 3.358-7.5 7.5s3.358 7.5 7.5 7.5h114.131c4.142 0 7.5-3.358 7.5-7.5s-3.358-7.5-7.5-7.5z"/><path d="m217.051 91.479h-114.131c-4.142 0-7.5 3.358-7.5 7.5s3.358 7.5 7.5 7.5h114.131c4.142 0 7.5-3.358 7.5-7.5s-3.358-7.5-7.5-7.5z"/><path d="m217.051 120.827h-114.131c-4.142 0-7.5 3.358-7.5 7.5s3.358 7.5 7.5 7.5h114.131c4.142 0 7.5-3.358 7.5-7.5s-3.358-7.5-7.5-7.5z"/></svg>