<svg xmlns="http://www.w3.org/2000/svg" xmlns:xlink="http://www.w3.org/1999/xlink" preserveAspectRatio="xMidYMid" width="18" height="18" viewBox="0 0 18 18">
 <path fill="#cecece" d="M14.299,10.636 C13.684,10.029 12.917,10.029 12.306,10.636 C11.840,11.098 11.374,11.560 10.915,12.031 C10.790,12.160 10.684,12.187 10.531,12.101 C10.230,11.936 9.909,11.803 9.619,11.623 C8.267,10.773 7.135,9.681 6.133,8.451 C5.635,7.840 5.193,7.186 4.883,6.450 C4.821,6.301 4.832,6.203 4.954,6.082 C5.420,5.632 5.874,5.170 6.333,4.707 C6.971,4.065 6.971,3.313 6.329,2.667 C5.964,2.299 5.600,1.939 5.236,1.571 C4.860,1.195 4.488,0.815 4.108,0.443 C3.493,-0.156 2.725,-0.156 2.114,0.447 C1.644,0.909 1.194,1.383 0.716,1.837 C0.273,2.256 0.050,2.769 0.003,3.368 C-0.072,4.343 0.167,5.264 0.504,6.160 C1.194,8.017 2.243,9.665 3.516,11.177 C5.236,13.221 7.288,14.838 9.689,16.005 C10.770,16.530 11.890,16.933 13.109,17.000 C13.947,17.047 14.675,16.835 15.259,16.182 C15.659,15.735 16.109,15.328 16.532,14.901 C17.159,14.267 17.163,13.499 16.540,12.872 C15.796,12.124 15.048,11.380 14.299,10.636 Z" transform="translate(0.5 0.5)" class="cls-1"/>
</svg>
