<svg xmlns="http://www.w3.org/2000/svg" width="9.998" height="12.009" viewBox="0 0 9.998 12.009">
  <path id="redo" d="M129,120.486A4.678,4.678,0,0,0,133.817,125h1.7a.5.5,0,0,0,.512-.479v-.16a.5.5,0,0,0-.512-.479h-1.7a3.4,3.4,0,1,1,0-6.792h3.145L134.8,119.12a.535.535,0,0,0,0,.791.641.641,0,0,0,.844,0l3.184-2.985a.535.535,0,0,0,0-.791l-3.185-2.986a.641.641,0,0,0-.844,0,.535.535,0,0,0,0,.791l2.166,2.031h-3.145A4.678,4.678,0,0,0,129,120.486Z" transform="translate(-129.001 -112.991)" fill="#666"/>
</svg>
