<svg height="14" width="80" xmlns="http://www.w3.org/2000/svg"><path d="M2.64 7.445c0 .36.065.665.195.915s.302.452.518.607c.215.156.467.27.757.345.29.076.59.113.9.113.21 0 .435-.017.675-.053.24-.035.465-.102.675-.202.21-.1.385-.237.525-.412.14-.176.21-.398.21-.668 0-.29-.092-.525-.277-.705a2.2 2.2 0 0 0-.728-.45c-.3-.12-.64-.225-1.02-.315s-.765-.19-1.155-.3c-.4-.1-.79-.222-1.17-.367a4.02 4.02 0 0 1-1.02-.563c-.3-.23-.542-.517-.728-.862C.813 4.181.72 3.764.72 3.274c0-.55.117-1.027.353-1.432.235-.406.542-.743.922-1.013.38-.27.81-.47 1.29-.6s.96-.195 1.44-.195c.56 0 1.097.062 1.613.188.515.125.972.327 1.372.607.4.28.717.637.952 1.072.236.436.353.963.353 1.583h-2.28c-.02-.32-.087-.585-.203-.795a1.325 1.325 0 0 0-.457-.495 1.934 1.934 0 0 0-.652-.255 4.017 4.017 0 0 0-.803-.075c-.19 0-.38.02-.57.06-.19.04-.362.11-.517.21-.156.1-.283.225-.383.375-.1.15-.15.34-.15.57 0 .21.04.38.12.51.08.13.237.25.472.36.236.11.56.22.975.33.416.11.958.25 1.628.42.2.04.477.112.832.218a3.99 3.99 0 0 1 1.058.502c.35.23.652.537.907.922.256.386.383.878.383 1.478 0 .49-.095.945-.285 1.365-.19.42-.472.782-.848 1.088-.375.305-.84.542-1.395.712-.555.17-1.197.255-1.927.255-.59 0-1.162-.072-1.717-.217a4.32 4.32 0 0 1-1.47-.683A3.371 3.371 0 0 1 .72 9.155c-.25-.48-.37-1.05-.36-1.71h2.28zm7.815-1.815c.03-.5.155-.915.375-1.245.22-.33.5-.595.84-.795.34-.2.722-.342 1.148-.428a6.524 6.524 0 0 1 1.282-.127c.39 0 .785.027 1.185.082.4.056.765.163 1.095.323.33.16.6.382.81.667.21.286.315.663.315 1.133v4.035c0 .35.02.685.06 1.005.04.32.11.56.21.72h-2.16a3.057 3.057 0 0 1-.15-.75c-.34.35-.74.595-1.2.735-.46.14-.93.21-1.41.21a3.81 3.81 0 0 1-1.035-.135c-.32-.09-.6-.23-.84-.42-.24-.19-.427-.43-.563-.72-.135-.29-.202-.635-.202-1.035 0-.44.077-.802.232-1.088.156-.285.355-.512.6-.682.246-.17.525-.297.84-.383.316-.085.633-.152.953-.202.32-.05.635-.09.945-.12.31-.03.585-.075.825-.135.24-.06.43-.147.57-.263.14-.115.205-.282.195-.502 0-.23-.037-.412-.113-.547a.827.827 0 0 0-.3-.315 1.18 1.18 0 0 0-.434-.15 3.56 3.56 0 0 0-.533-.038c-.42 0-.75.09-.99.27-.24.18-.38.48-.42.9h-2.13zm4.92 1.575a.955.955 0 0 1-.338.188c-.135.045-.28.082-.435.112-.155.03-.317.055-.487.075-.17.02-.34.045-.51.075-.16.03-.317.07-.473.12-.155.05-.29.117-.405.202a.963.963 0 0 0-.277.323c-.07.13-.105.295-.105.495 0 .19.035.35.105.48.07.13.165.232.285.307.12.076.26.128.42.158.16.03.325.045.495.045.42 0 .745-.07.975-.21.23-.14.4-.307.51-.502.11-.196.177-.393.203-.593.025-.2.037-.36.037-.48v-.795zm3.78-3.96h2.025v1.08h.045c.27-.45.62-.777 1.05-.982.43-.206.87-.308 1.32-.308.57 0 1.037.077 1.402.232.366.156.653.37.863.645.21.276.357.61.442 1.006.086.395.128.832.128 1.312V11H24.3V6.62c0-.64-.1-1.117-.3-1.433-.2-.315-.555-.472-1.065-.472-.58 0-1 .172-1.26.518-.26.345-.39.912-.39 1.702V11h-2.13V3.245zM29.7 8.48a1.168 1.168 0 0 0 .51.997c.15.106.322.183.517.233.196.05.398.075.608.075.15 0 .307-.017.473-.053.165-.035.314-.09.45-.164.135-.076.247-.175.337-.3a.788.788 0 0 0 .135-.473c0-.32-.212-.56-.637-.72-.426-.16-1.018-.32-1.778-.48-.31-.07-.612-.152-.908-.247a3.101 3.101 0 0 1-.787-.375 1.823 1.823 0 0 1-.555-.586c-.14-.235-.21-.522-.21-.862 0-.5.097-.91.293-1.23.195-.32.452-.572.772-.758.32-.185.68-.314 1.08-.39.4-.075.81-.112 1.23-.112.42 0 .827.04 1.223.12.395.08.747.215 1.057.405.31.19.567.442.773.758.205.315.327.712.367 1.192h-2.025c-.03-.41-.185-.687-.465-.832a2.126 2.126 0 0 0-.99-.218c-.12 0-.25.007-.39.022-.14.016-.267.048-.383.098a.788.788 0 0 0-.292.217.575.575 0 0 0-.12.383c0 .19.07.345.21.465.14.12.322.217.547.293.226.075.483.142.773.202.29.06.585.125.885.195.31.07.612.155.907.255.296.1.558.232.788.398.23.165.415.37.555.614.14.246.21.548.21.908 0 .51-.102.937-.307 1.283a2.46 2.46 0 0 1-.803.832 3.29 3.29 0 0 1-1.133.443A6.6 6.6 0 0 1 30 11.06c-.43-.09-.812-.24-1.148-.45a2.574 2.574 0 0 1-.825-.832c-.215-.346-.332-.778-.352-1.298H29.7zm12.405-1.035c0 .36.065.665.195.915s.302.452.518.607c.215.156.467.27.757.345.29.076.59.113.9.113.21 0 .435-.017.675-.053.24-.035.465-.102.675-.202.21-.1.385-.237.525-.412.14-.176.21-.398.21-.668 0-.29-.092-.525-.278-.705a2.2 2.2 0 0 0-.727-.45c-.3-.12-.64-.225-1.02-.315s-.765-.19-1.155-.3c-.4-.1-.79-.222-1.17-.367a4.02 4.02 0 0 1-1.02-.563c-.3-.23-.542-.517-.727-.862-.186-.346-.278-.763-.278-1.253 0-.55.117-1.027.352-1.432.236-.406.543-.743.923-1.013.38-.27.81-.47 1.29-.6s.96-.195 1.44-.195c.56 0 1.097.062 1.613.188.515.125.972.327 1.372.607.4.28.717.637.953 1.072.235.436.352.963.352 1.583H46.2c-.02-.32-.087-.585-.203-.795a1.325 1.325 0 0 0-.457-.495 1.934 1.934 0 0 0-.652-.255 4.017 4.017 0 0 0-.803-.075c-.19 0-.38.02-.57.06-.19.04-.362.11-.517.21-.156.1-.283.225-.383.375-.1.15-.15.34-.15.57 0 .21.04.38.12.51.08.13.237.25.472.36.236.11.56.22.975.33.416.11.958.25 1.628.42.2.04.477.112.833.218a3.99 3.99 0 0 1 1.057.502c.35.23.652.537.908.922.255.386.382.878.382 1.478 0 .49-.095.945-.285 1.365-.19.42-.472.782-.847 1.088-.376.305-.84.542-1.395.712-.556.17-1.198.255-1.928.255-.59 0-1.162-.072-1.718-.217a4.32 4.32 0 0 1-1.47-.683 3.371 3.371 0 0 1-1.012-1.185c-.25-.48-.37-1.05-.36-1.71h2.28zM55.23 6.29c-.1-.54-.277-.95-.532-1.23-.256-.28-.643-.42-1.163-.42-.34 0-.622.057-.847.173a1.566 1.566 0 0 0-.825.967c-.056.19-.088.36-.098.51h3.465zm-3.465 1.35c.03.69.205 1.19.525 1.5.32.31.78.465 1.38.465.43 0 .8-.107 1.11-.322.31-.216.5-.443.57-.683h1.875c-.3.93-.76 1.595-1.38 1.995-.62.4-1.37.6-2.25.6a4.43 4.43 0 0 1-1.65-.293 3.43 3.43 0 0 1-1.245-.832c-.34-.36-.602-.79-.788-1.29a4.722 4.722 0 0 1-.277-1.65c0-.58.095-1.12.285-1.62.19-.5.46-.932.81-1.297.35-.366.767-.653 1.253-.863a4.016 4.016 0 0 1 1.612-.315c.66 0 1.235.127 1.725.383.49.255.892.597 1.208 1.027.315.43.542.92.682 1.47.14.55.19 1.125.15 1.725h-5.595zm6.855-4.395h2.025v1.44h.03a2.653 2.653 0 0 1 .99-1.193c.22-.145.455-.257.705-.337.25-.08.51-.12.78-.12.14 0 .295.025.465.075v1.98a4.091 4.091 0 0 0-.765-.075c-.39 0-.72.065-.99.195s-.487.307-.652.532a2.135 2.135 0 0 0-.353.788c-.07.3-.105.625-.105.975V11h-2.13V3.245zm8.025-1.2h-2.13V.29h2.13v1.755zm-2.13 1.2h2.13V11h-2.13V3.245zM68.79 4.67h-1.275V3.245h1.275v-.6c0-.69.215-1.255.645-1.695.43-.44 1.08-.66 1.95-.66.19 0 .38.007.57.023.19.015.375.027.555.037v1.59c-.25-.03-.51-.045-.78-.045-.29 0-.497.067-.623.203-.125.135-.187.362-.187.682v.465h1.47V4.67h-1.47V11h-2.13V4.67z" fill="#000" fill-rule="nonzero"/></svg>