<svg width="33" height="13" xmlns="http://www.w3.org/2000/svg"><path d="M7.185 7.232c.22.244.382.511.487.802.105.29.158.629.158 1.014 0 .918-.34 1.675-1.018 2.27-.68.597-1.521.894-2.527.894a4.67 4.67 0 0 1-1.392-.216 5.37 5.37 0 0 1-1.201-.523l-.315.534H.791l-.103-3.56h.594c.122.44.265.837.428 1.19.164.355.38.686.648.993.254.288.55.518.89.689.34.17.734.256 1.183.256.337 0 .631-.044.883-.132.251-.088.455-.212.611-.373.157-.161.273-.35.348-.568.076-.217.114-.467.114-.75 0-.416-.117-.803-.352-1.161-.234-.36-.583-.632-1.047-.817a54.44 54.44 0 0 0-1.092-.421c-.41-.154-.764-.3-1.062-.436-.585-.264-1.04-.61-1.365-1.036C1.144 5.453.98 4.896.98 4.207c0-.395.081-.764.242-1.106.161-.342.39-.647.689-.915a3.12 3.12 0 0 1 1.003-.597 3.426 3.426 0 0 1 1.209-.216c.478 0 .907.073 1.285.22.378.146.724.317 1.036.512l.3-.498h.587l.058 3.45h-.593a13.161 13.161 0 0 0-.363-1.136 4.013 4.013 0 0 0-.523-.981 2.403 2.403 0 0 0-.77-.678c-.302-.168-.673-.252-1.113-.252a1.7 1.7 0 0 0-1.186.447 1.42 1.42 0 0 0-.49 1.09c0 .45.104.822.314 1.118.21.295.515.538.916.729.356.17.706.318 1.05.443.345.124.678.257 1 .399.293.127.575.27.846.432.271.161.507.35.707.564zM15.36 10.3a3.699 3.699 0 0 1-1.216 1.377c-.508.342-1.091.512-1.75.512-.581 0-1.09-.102-1.528-.307a2.998 2.998 0 0 1-1.08-.835 3.546 3.546 0 0 1-.633-1.23 5.198 5.198 0 0 1-.21-1.487c0-.47.075-.93.224-1.381.15-.452.368-.858.656-1.22a3.172 3.172 0 0 1 1.036-.838 2.987 2.987 0 0 1 1.388-.319c.527 0 .98.083 1.355.25.376.165.681.392.916.68.224.274.391.596.501.967.11.371.165.774.165 1.209v.483H10.4c0 .474.046.903.136 1.29.09.385.233.724.428 1.017.19.283.44.507.747.67.308.164.674.246 1.1.246.434 0 .808-.102 1.123-.304.315-.203.62-.568.912-1.095l.513.315zM13.74 7.547c0-.274-.023-.567-.07-.879a2.696 2.696 0 0 0-.223-.784 1.489 1.489 0 0 0-.461-.549c-.195-.142-.447-.212-.755-.212-.512 0-.938.213-1.278.64-.339.428-.523 1.022-.553 1.784h3.34zm7.984-1.839c0 .25-.061.47-.183.663-.123.193-.31.29-.564.29-.274 0-.483-.071-.627-.213a.646.646 0 0 1-.216-.469c0-.107.009-.205.026-.292a9.96 9.96 0 0 0 .048-.264c-.23 0-.499.093-.806.278a2.38 2.38 0 0 0-.784.791v4.204c0 .171.033.31.099.418.066.107.17.188.311.241.122.05.28.086.473.11.193.025.36.042.501.052V12h-3.808v-.483l.348-.03c.12-.01.223-.029.311-.058a.527.527 0 0 0 .304-.231.825.825 0 0 0 .099-.428V6.31c0-.152-.036-.301-.106-.448a.889.889 0 0 0-.297-.351 1 1 0 0 0-.33-.128 2.923 2.923 0 0 0-.41-.055v-.476l2.403-.162.102.103v1.018h.037c.303-.395.64-.696 1.01-.9.372-.206.711-.308 1.019-.308.307 0 .557.1.75.3.193.2.29.469.29.805zM25.847 12h-3.493v-.483l.347-.03c.12-.01.224-.029.312-.058a.527.527 0 0 0 .304-.231.825.825 0 0 0 .099-.428V6.31c0-.157-.036-.3-.107-.43a.945.945 0 0 0-.296-.325 1.356 1.356 0 0 0-.403-.15 2.983 2.983 0 0 0-.484-.077v-.476l2.55-.162.102.103v5.889c0 .17.033.312.099.424.066.113.17.196.311.25.107.043.212.079.315.106.102.027.217.045.344.055V12zm-.923-10.159c0 .279-.091.522-.274.73a.868.868 0 0 1-.678.31.856.856 0 0 1-.648-.296 1.009 1.009 0 0 1 0-1.38c.183-.201.4-.301.648-.301.278 0 .507.094.685.282a.923.923 0 0 1 .267.655zm7.185-.307c0 .22-.058.405-.175.556-.118.152-.296.227-.535.227a.811.811 0 0 1-.4-.095 1.248 1.248 0 0 1-.318-.256 2.373 2.373 0 0 1-.27-.366 5.905 5.905 0 0 0-.213-.33c-.327.015-.58.243-.758.685-.179.442-.268 1.146-.268 2.113v.74h1.86v.703h-1.86v5.185c0 .171.033.31.1.418.065.107.169.188.31.241.118.044.274.08.47.107.195.027.363.045.505.055V12h-3.809v-.483l.348-.03c.12-.01.223-.029.311-.058a.527.527 0 0 0 .304-.231.825.825 0 0 0 .1-.428V5.51h-1.43v-.702h1.43v-.462c0-1.098.283-1.988.852-2.67.57-.68 1.28-1.021 2.135-1.021.435 0 .762.085.982.256.22.171.33.379.33.623z" fill="#000" fill-rule="nonzero"/></svg>