<?xml version="1.0" encoding="iso-8859-1"?>
<!-- Generator: Adobe Illustrator 19.0.0, SVG Export Plug-In . SVG Version: 6.00 Build 0)  -->
<svg xmlns="http://www.w3.org/2000/svg" xmlns:xlink="http://www.w3.org/1999/xlink" version="1.1" id="Capa_1" x="0px" y="0px" viewBox="0 0 512 512" style="enable-background:new 0 0 512 512;" xml:space="preserve" width="512px" height="512px">
<g>
	<g>
		<rect x="117.333" y="64" width="106.667" height="21.333" fill="#0080ff"/>
	</g>
</g>
<g>
	<g>
		<rect x="117.333" y="106.667" width="21.333" height="21.333" fill="#0080ff"/>
	</g>
</g>
<g>
	<g>
		<rect x="160" y="106.667" width="21.333" height="21.333" fill="#0080ff"/>
	</g>
</g>
<g>
	<g>
		<path d="M455.541,88.459L370.208,3.125c-2-2-4.713-3.125-7.541-3.125H85.333c-17.673,0-32,14.327-32,32v448    c0,17.673,14.327,32,32,32h341.333c17.673,0,32-14.327,32-32V96C458.666,93.171,457.542,90.459,455.541,88.459z M437.333,480    c0,5.891-4.776,10.667-10.667,10.667H85.333c-5.891,0-10.667-4.776-10.667-10.667V32c0-5.891,4.776-10.667,10.667-10.667    l272.917,0l79.083,79.083V480z" fill="#0080ff"/>
	</g>
</g>
<g>
	<g>
		<path d="M384,85.333c-5.891,0-10.667-4.776-10.667-10.667v-64H352v64c0,17.673,14.327,32,32,32h21.333V85.333H384z" fill="#0080ff"/>
	</g>
</g>
<g>
	<g>
		<path d="M328.533,238.933l-64-85.333c-0.454-0.552-0.96-1.058-1.512-1.512c-4.713-3.878-11.677-3.201-15.555,1.512l-64,85.333    c-3.184,4.247-2.761,10.188,0.992,13.941l28.875,28.875V448h21.333V277.333c-0.001-2.829-1.125-5.541-3.125-7.541l-25.461-25.461    L256,177.781l49.92,66.549l-25.461,25.461c-2.001,2-3.125,4.713-3.125,7.541V448h21.333l0-166.251l28.875-28.875    C331.295,249.122,331.717,243.18,328.533,238.933z" fill="#0080ff"/>
	</g>
</g>
<g>
	<g>
		<rect x="192" y="298.667" width="128" height="21.333" fill="#0080ff"/>
	</g>
</g>
<g>
	<g>
		<rect x="245.333" y="160" width="21.333" height="85.333" fill="#0080ff"/>
	</g>
</g>
<g>
</g>
<g>
</g>
<g>
</g>
<g>
</g>
<g>
</g>
<g>
</g>
<g>
</g>
<g>
</g>
<g>
</g>
<g>
</g>
<g>
</g>
<g>
</g>
<g>
</g>
<g>
</g>
<g>
</g>
</svg>
