<svg xmlns="http://www.w3.org/2000/svg" xmlns:xlink="http://www.w3.org/1999/xlink" preserveAspectRatio="xMidYMid" width="11" height="21" viewBox="0 0 11 21">
  <defs>
    <style>
      .cls-1 {
        fill: #fff;
        fill-rule: evenodd;
      }
    </style>
  </defs>
  <path d="M10.586,0.003 L7.947,-0.001 C4.983,-0.001 3.068,2.027 3.068,5.166 L3.068,7.550 L0.415,7.550 C0.186,7.550 -0.000,7.741 -0.000,7.978 L-0.000,11.431 C-0.000,11.667 0.186,11.859 0.415,11.859 L3.068,11.859 L3.068,20.571 C3.068,20.808 3.253,20.999 3.482,20.999 L6.943,20.999 C7.173,20.999 7.358,20.808 7.358,20.571 L7.358,11.859 L10.460,11.859 C10.689,11.859 10.875,11.667 10.875,11.431 L10.876,7.978 C10.876,7.865 10.832,7.756 10.754,7.675 C10.677,7.595 10.571,7.550 10.461,7.550 L7.358,7.550 L7.358,5.529 C7.358,4.559 7.583,4.066 8.808,4.066 L10.585,4.065 C10.814,4.065 11.000,3.873 11.000,3.637 L11.000,0.431 C11.000,0.195 10.814,0.003 10.586,0.003 Z" class="cls-1"/>
</svg>
