<svg xmlns="http://www.w3.org/2000/svg" xmlns:xlink="http://www.w3.org/1999/xlink" preserveAspectRatio="xMidYMid" width="15" height="16" viewBox="0 0 15 16">
  <defs>
    <style>
      .cls-1 {
        fill: #fff;
        fill-rule: evenodd;
      }
    </style>
  </defs>
  <path d="M1.936,0.006 L13.076,0.006 C14.134,0.006 15.000,0.841 15.000,2.057 L15.000,13.938 C15.000,15.154 14.134,15.989 13.076,15.989 L1.936,15.989 C0.877,15.989 0.012,15.154 0.012,13.938 L0.012,2.057 C0.012,0.841 0.877,0.006 1.936,0.006 L1.936,0.006 ZM10.930,1.782 C10.559,1.782 10.255,2.105 10.255,2.502 L10.255,4.224 C10.255,4.620 10.559,4.943 10.930,4.943 L12.624,4.943 C12.995,4.943 13.299,4.620 13.299,4.224 L13.299,2.502 C13.299,2.105 12.995,1.782 12.624,1.782 L10.930,1.782 L10.930,1.782 ZM13.306,6.765 L11.987,6.765 C12.112,7.200 12.179,7.660 12.179,8.137 C12.179,10.794 10.093,12.950 7.520,12.950 C4.947,12.950 2.861,10.794 2.861,8.137 C2.861,7.660 2.929,7.200 3.054,6.765 L1.677,6.765 L1.677,13.517 C1.677,13.866 1.945,14.152 2.273,14.152 L12.711,14.152 C13.038,14.152 13.306,13.866 13.306,13.517 L13.306,6.765 L13.306,6.765 ZM7.520,4.852 C5.858,4.852 4.510,6.245 4.510,7.963 C4.510,9.680 5.858,11.073 7.520,11.073 C9.182,11.073 10.531,9.680 10.531,7.963 C10.531,6.245 9.183,4.852 7.520,4.852 Z" class="cls-1"/>
</svg>
