<svg xmlns="http://www.w3.org/2000/svg" xmlns:xlink="http://www.w3.org/1999/xlink" preserveAspectRatio="xMidYMid" width="515" height="371" viewBox="0 0 515 371">
  <defs>
    <style>
      .cls-1, .cls-37, .cls-40 {
        fill: #fff;
      }

      .cls-2 {
        fill: #db8f61;
      }

      .cls-3 {
        fill: #c5db61;
      }

      .cls-4 {
        fill: #61b7db;
      }

      .cls-5 {
        fill: #59c386;
      }

      .cls-11, .cls-17, .cls-24, .cls-31, .cls-36, .cls-38, .cls-40, .cls-5 {
        fill-rule: evenodd;
      }

      .cls-6 {
        fill: #6a61db;
      }

      .cls-7 {
        fill: #d982bf;
      }

      .cls-8 {
        fill: #db6178;
      }

      .cls-9 {
        fill: red;
      }

      .cls-10 {
        fill: #0bceff;
      }

      .cls-11 {
        fill: #9caca3;
      }

      .cls-12 {
        fill: #00d8ff;
      }

      .cls-13 {
        fill: #bd4bff;
      }

      .cls-14 {
        fill: #ffe34b;
      }

      .cls-15 {
        fill: #00aeff;
      }

      .cls-16 {
        fill: #d40bff;
      }

      .cls-17 {
        fill: #d1bc0c;
      }

      .cls-18 {
        fill: #1ba0b8;
      }

      .cls-19 {
        fill: #ec4bff;
      }

      .cls-20 {
        fill: #fcd500;
      }

      .cls-21 {
        fill: #cca266;
      }

      .cls-22 {
        fill: #005aff;
      }

      .cls-23 {
        fill: #98c6d1;
      }

      .cls-24 {
        fill: #9dceb2;
      }

      .cls-25 {
        fill: #8db1b8;
      }

      .cls-26 {
        fill: #cfa5e7;
      }

      .cls-27 {
        fill: #b99e06;
      }

      .cls-28 {
        fill: #5d3c0c;
      }

      .cls-29 {
        fill: #55f6ed;
      }

      .cls-30 {
        fill: #d1bc98;
      }

      .cls-31 {
        fill: #11d765;
      }

      .cls-32 {
        fill: #00a8ff;
      }

      .cls-33 {
        fill: #e7a5a5;
      }

      .cls-34 {
        fill: #0628b9;
      }

      .cls-35 {
        stroke: #f27059;
        stroke-width: 2px;
        fill: none;
      }

      .cls-36 {
        fill: #f27059;
      }

      .cls-37 {
        filter: url(#drop-shadow-1);
      }

      .cls-38 {
        fill: #000;
      }

      .cls-39 {
        fill: #59c3c3;
      }
    </style>

    <filter id="drop-shadow-1" filterUnits="userSpaceOnUse">
      <feOffset in="SourceAlpha"/>
      <feGaussianBlur stdDeviation="6.557" result="dropBlur"/>
      <feFlood flood-opacity="0.1"/>
      <feComposite operator="in" in2="dropBlur" result="dropShadowComp"/>
      <feComposite in="SourceGraphic" result="shadowed"/>
    </filter>
  </defs>
  <g>
    <rect width="412" height="309" rx="20" ry="20" class="cls-1"/>
    <g>
      <circle cx="43.953" cy="48.175" r="17.953" class="cls-2"/>
      <circle cx="312.955" cy="48.175" r="17.955" class="cls-3"/>
      <circle cx="367.955" cy="48.175" r="17.955" class="cls-4"/>
      <path d="M258.516,30.000 C268.431,30.000 276.469,37.975 276.469,47.813 C276.469,57.650 268.431,65.625 258.516,65.625 C248.600,65.625 240.562,57.650 240.562,47.813 C240.562,37.975 248.600,30.000 258.516,30.000 Z" class="cls-5"/>
      <circle cx="97.141" cy="48.19" r="17.953" class="cls-6"/>
      <circle cx="150.328" cy="48.19" r="17.953" class="cls-7"/>
      <circle cx="43.953" cy="99.175" r="17.953" class="cls-8"/>
      <circle cx="312.955" cy="99.175" r="17.955" class="cls-9"/>
      <circle cx="367.955" cy="99.175" r="17.955" class="cls-10"/>
      <path d="M258.516,81.000 C268.431,81.000 276.469,88.975 276.469,98.813 C276.469,108.650 268.431,116.625 258.516,116.625 C248.600,116.625 240.562,108.650 240.562,98.813 C240.562,88.975 248.600,81.000 258.516,81.000 Z" class="cls-11"/>
      <circle cx="97.141" cy="99.19" r="17.953" class="cls-12"/>
      <circle cx="150.328" cy="99.19" r="17.953" class="cls-13"/>
      <circle cx="205.328" cy="99.19" r="17.953" class="cls-14"/>
      <circle cx="43.953" cy="251.175" r="17.953" class="cls-8"/>
      <circle cx="312.955" cy="251.175" r="17.955" class="cls-15"/>
      <circle cx="367.955" cy="251.175" r="17.955" class="cls-16"/>
      <path d="M258.516,233.000 C268.431,233.000 276.469,240.975 276.469,250.813 C276.469,260.650 268.431,268.625 258.516,268.625 C248.600,268.625 240.562,260.650 240.562,250.813 C240.562,240.975 248.600,233.000 258.516,233.000 Z" class="cls-17"/>
      <circle cx="97.141" cy="251.19" r="17.953" class="cls-18"/>
      <circle cx="150.328" cy="251.19" r="17.953" class="cls-19"/>
      <circle cx="205.328" cy="251.19" r="17.953" class="cls-20"/>
      <circle cx="43.953" cy="150.175" r="17.953" class="cls-21"/>
      <circle cx="312.955" cy="150.175" r="17.955" class="cls-22"/>
      <circle cx="367.955" cy="150.175" r="17.955" class="cls-23"/>
      <path d="M258.516,132.000 C268.431,132.000 276.469,139.975 276.469,149.813 C276.469,159.650 268.431,167.625 258.516,167.625 C248.600,167.625 240.562,159.650 240.562,149.813 C240.562,139.975 248.600,132.000 258.516,132.000 Z" class="cls-24"/>
      <circle cx="97.141" cy="150.19" r="17.953" class="cls-25"/>
      <circle cx="150.328" cy="150.19" r="17.953" class="cls-26"/>
      <circle cx="205.328" cy="150.19" r="17.953" class="cls-27"/>
      <circle cx="43.953" cy="201.175" r="17.953" class="cls-28"/>
      <circle cx="312.955" cy="201.175" r="17.955" class="cls-29"/>
      <circle cx="367.955" cy="201.175" r="17.955" class="cls-30"/>
      <path d="M258.516,183.000 C268.431,183.000 276.469,190.975 276.469,200.813 C276.469,210.650 268.431,218.625 258.516,218.625 C248.600,218.625 240.562,210.650 240.562,200.813 C240.562,190.975 248.600,183.000 258.516,183.000 Z" class="cls-31"/>
      <circle cx="97.141" cy="201.19" r="17.953" class="cls-32"/>
      <circle cx="150.328" cy="201.19" r="17.953" class="cls-33"/>
      <circle cx="205.328" cy="201.19" r="17.953" class="cls-34"/>
      <circle cx="204" cy="48" r="20" class="cls-35"/>
      <path d="M204.000,63.000 C195.716,63.000 189.000,56.284 189.000,48.000 C189.000,39.716 195.716,33.000 204.000,33.000 C212.284,33.000 219.000,39.716 219.000,48.000 C219.000,56.284 212.284,63.000 204.000,63.000 ZM210.559,44.399 C209.969,43.852 209.013,43.852 208.423,44.399 L203.084,49.357 C202.935,49.496 202.693,49.496 202.544,49.357 L200.573,47.526 C199.983,46.978 199.027,46.978 198.437,47.526 C197.847,48.074 197.847,48.962 198.437,49.510 L201.746,52.583 C202.336,53.130 203.292,53.130 203.882,52.583 L210.559,46.383 C210.842,46.119 211.001,45.763 211.001,45.391 C211.001,45.019 210.842,44.663 210.559,44.399 Z" class="cls-36"/>
    </g>
    <g>
      <rect x="253" y="91" width="231" height="237" rx="10" ry="10" class="cls-37"/>
      <path d="M385.598,122.160 L384.998,122.220 C384.051,122.313 383.348,122.653 382.888,123.240 C382.428,123.827 382.198,124.513 382.198,125.300 L382.198,130.480 C382.198,130.680 382.145,130.833 382.038,130.940 C381.931,131.047 381.785,131.100 381.598,131.100 C381.411,131.100 381.261,131.047 381.148,130.940 C381.035,130.833 380.978,130.680 380.978,130.480 L380.978,121.720 C380.978,121.520 381.035,121.367 381.148,121.260 C381.261,121.153 381.411,121.100 381.598,121.100 C381.771,121.100 381.911,121.153 382.018,121.260 C382.125,121.367 382.178,121.513 382.178,121.700 L382.178,123.000 C382.725,121.853 383.738,121.227 385.218,121.120 L385.498,121.100 C385.751,121.087 385.931,121.120 386.038,121.200 C386.145,121.280 386.198,121.413 386.198,121.600 C386.198,121.933 385.998,122.120 385.598,122.160 ZM377.198,131.080 C377.012,131.080 376.865,131.023 376.758,130.910 C376.652,130.797 376.598,130.647 376.598,130.460 L376.598,129.260 C376.318,129.860 375.912,130.323 375.378,130.650 C374.845,130.977 374.232,131.140 373.538,131.140 C372.912,131.140 372.338,131.013 371.818,130.760 C371.298,130.507 370.888,130.153 370.588,129.700 C370.288,129.247 370.138,128.747 370.138,128.200 C370.138,127.480 370.325,126.920 370.698,126.520 C371.072,126.120 371.692,125.833 372.558,125.660 C373.425,125.487 374.632,125.400 376.178,125.400 L376.598,125.400 L376.598,124.660 C376.598,123.780 376.418,123.137 376.058,122.730 C375.698,122.323 375.132,122.120 374.358,122.120 C373.372,122.120 372.432,122.380 371.538,122.900 C371.498,122.927 371.395,122.997 371.228,123.110 C371.062,123.223 370.918,123.280 370.798,123.280 C370.665,123.280 370.555,123.230 370.468,123.130 C370.382,123.030 370.338,122.907 370.338,122.760 C370.338,122.467 370.572,122.180 371.038,121.900 C371.505,121.633 372.025,121.427 372.598,121.280 C373.172,121.133 373.738,121.060 374.298,121.060 C375.472,121.060 376.348,121.367 376.928,121.980 C377.508,122.593 377.798,123.520 377.798,124.760 L377.798,130.460 C377.798,130.647 377.745,130.797 377.638,130.910 C377.532,131.023 377.385,131.080 377.198,131.080 ZM376.598,126.300 L376.218,126.300 C374.938,126.300 373.958,126.353 373.278,126.460 C372.598,126.567 372.118,126.750 371.838,127.010 C371.558,127.270 371.418,127.647 371.418,128.140 C371.418,128.700 371.632,129.163 372.058,129.530 C372.485,129.897 373.012,130.080 373.638,130.080 C374.505,130.080 375.215,129.787 375.768,129.200 C376.322,128.613 376.598,127.867 376.598,126.960 L376.598,126.300 ZM366.639,131.100 C366.452,131.100 366.302,131.047 366.189,130.940 C366.075,130.833 366.019,130.680 366.019,130.480 L366.019,117.420 C366.019,117.220 366.075,117.067 366.189,116.960 C366.302,116.853 366.452,116.800 366.639,116.800 C366.812,116.800 366.955,116.853 367.069,116.960 C367.182,117.067 367.239,117.220 367.239,117.420 L367.239,130.480 C367.239,130.680 367.182,130.833 367.069,130.940 C366.955,131.047 366.812,131.100 366.639,131.100 ZM362.199,131.100 C362.025,131.100 361.885,131.043 361.779,130.930 C361.672,130.817 361.619,130.667 361.619,130.480 L361.619,129.260 C361.312,129.873 360.875,130.340 360.309,130.660 C359.742,130.980 359.099,131.140 358.379,131.140 C357.232,131.140 356.369,130.823 355.789,130.190 C355.209,129.557 354.919,128.620 354.919,127.380 L354.919,121.720 C354.919,121.533 354.975,121.383 355.089,121.270 C355.202,121.157 355.352,121.100 355.539,121.100 C355.725,121.100 355.872,121.157 355.979,121.270 C356.085,121.383 356.139,121.533 356.139,121.720 L356.139,127.300 C356.139,128.247 356.329,128.943 356.709,129.390 C357.089,129.837 357.685,130.060 358.499,130.060 C359.432,130.060 360.182,129.763 360.749,129.170 C361.315,128.577 361.599,127.787 361.599,126.800 L361.599,121.720 C361.599,121.533 361.652,121.383 361.759,121.270 C361.865,121.157 362.012,121.100 362.199,121.100 C362.385,121.100 362.535,121.157 362.649,121.270 C362.762,121.383 362.819,121.533 362.819,121.720 L362.819,130.480 C362.819,130.667 362.762,130.817 362.649,130.930 C362.535,131.043 362.385,131.100 362.199,131.100 ZM347.599,134.740 C346.879,134.740 346.235,134.670 345.669,134.530 C345.102,134.390 344.572,134.173 344.079,133.880 C343.599,133.587 343.359,133.300 343.359,133.020 C343.359,132.873 343.402,132.753 343.489,132.660 C343.575,132.567 343.685,132.520 343.819,132.520 C343.899,132.520 344.009,132.557 344.149,132.630 C344.289,132.703 344.385,132.753 344.439,132.780 C344.892,133.033 345.359,133.243 345.839,133.410 C346.319,133.577 346.912,133.660 347.619,133.660 C348.592,133.660 349.325,133.400 349.819,132.880 C350.312,132.360 350.559,131.587 350.559,130.560 L350.559,128.660 C350.279,129.313 349.849,129.817 349.269,130.170 C348.689,130.523 347.985,130.700 347.159,130.700 C346.305,130.700 345.549,130.500 344.889,130.100 C344.229,129.700 343.715,129.133 343.349,128.400 C342.982,127.667 342.799,126.827 342.799,125.880 C342.799,124.933 342.982,124.093 343.349,123.360 C343.715,122.627 344.229,122.060 344.889,121.660 C345.549,121.260 346.305,121.060 347.159,121.060 C347.972,121.060 348.665,121.230 349.239,121.570 C349.812,121.910 350.245,122.407 350.539,123.060 L350.539,121.720 C350.539,121.533 350.592,121.383 350.699,121.270 C350.805,121.157 350.952,121.100 351.139,121.100 C351.325,121.100 351.475,121.157 351.589,121.270 C351.702,121.383 351.759,121.533 351.759,121.720 L351.759,130.440 C351.759,131.853 351.409,132.923 350.709,133.650 C350.009,134.377 348.972,134.740 347.599,134.740 ZM349.679,123.130 C349.105,122.457 348.319,122.120 347.319,122.120 C346.305,122.120 345.512,122.453 344.939,123.120 C344.365,123.787 344.079,124.707 344.079,125.880 C344.079,127.053 344.365,127.970 344.939,128.630 C345.512,129.290 346.305,129.620 347.319,129.620 C348.332,129.620 349.122,129.287 349.689,128.620 C350.255,127.953 350.539,127.040 350.539,125.880 C350.539,124.720 350.252,123.803 349.679,123.130 ZM340.199,126.300 L333.539,126.300 C333.579,127.527 333.899,128.460 334.499,129.100 C335.099,129.740 335.946,130.060 337.039,130.060 C337.612,130.060 338.092,129.983 338.479,129.830 C338.866,129.677 339.279,129.473 339.719,129.220 C340.012,129.020 340.219,128.920 340.339,128.920 C340.459,128.920 340.562,128.970 340.649,129.070 C340.736,129.170 340.779,129.287 340.779,129.420 C340.779,129.713 340.552,130.000 340.099,130.280 C339.139,130.853 338.126,131.140 337.059,131.140 C335.579,131.140 334.412,130.693 333.559,129.800 C332.706,128.907 332.279,127.680 332.279,126.120 C332.279,125.120 332.469,124.237 332.849,123.470 C333.229,122.703 333.762,122.110 334.449,121.690 C335.136,121.270 335.926,121.060 336.819,121.060 C338.072,121.060 339.062,121.463 339.789,122.270 C340.516,123.077 340.879,124.187 340.879,125.600 C340.879,125.840 340.826,126.017 340.719,126.130 C340.612,126.243 340.439,126.300 340.199,126.300 ZM338.959,122.930 C338.452,122.350 337.739,122.060 336.819,122.060 C335.886,122.060 335.139,122.353 334.579,122.940 C334.019,123.527 333.686,124.347 333.579,125.400 L339.759,125.400 C339.732,124.333 339.466,123.510 338.959,122.930 ZM329.579,131.120 C329.352,131.120 329.172,131.013 329.039,130.800 L326.339,126.480 C325.952,125.867 325.556,125.447 325.149,125.220 C324.742,124.993 324.179,124.880 323.459,124.880 L320.719,124.880 L320.719,130.460 C320.719,130.660 320.662,130.817 320.549,130.930 C320.436,131.043 320.286,131.100 320.099,131.100 C319.912,131.100 319.762,131.043 319.649,130.930 C319.536,130.817 319.479,130.660 319.479,130.460 L319.479,117.520 C319.479,117.347 319.542,117.200 319.669,117.080 C319.796,116.960 319.952,116.900 320.139,116.900 L325.119,116.900 C326.599,116.900 327.739,117.237 328.539,117.910 C329.339,118.583 329.739,119.567 329.739,120.860 C329.739,121.993 329.399,122.893 328.719,123.560 C328.039,124.227 327.079,124.613 325.839,124.720 C326.159,124.827 326.452,125.003 326.719,125.250 C326.986,125.497 327.259,125.840 327.539,126.280 L330.019,130.260 C330.099,130.380 330.139,130.493 330.139,130.600 C330.139,130.747 330.082,130.870 329.969,130.970 C329.856,131.070 329.726,131.120 329.579,131.120 ZM328.519,120.840 C328.519,119.867 328.232,119.143 327.659,118.670 C327.086,118.197 326.212,117.960 325.039,117.960 L320.699,117.960 L320.699,123.820 L325.039,123.820 C327.359,123.820 328.519,122.827 328.519,120.840 ZM309.519,130.520 C308.839,130.933 308.059,131.140 307.179,131.140 C306.286,131.140 305.503,130.933 304.829,130.520 C304.156,130.107 303.633,129.520 303.259,128.760 C302.886,128.000 302.699,127.113 302.699,126.100 C302.699,125.087 302.886,124.200 303.259,123.440 C303.633,122.680 304.156,122.093 304.829,121.680 C305.503,121.267 306.286,121.060 307.179,121.060 C308.059,121.060 308.839,121.267 309.519,121.680 C310.199,122.093 310.723,122.680 311.089,123.440 C311.456,124.200 311.639,125.087 311.639,126.100 C311.639,127.113 311.456,128.000 311.089,128.760 C310.723,129.520 310.199,130.107 309.519,130.520 ZM309.529,123.170 C308.963,122.470 308.179,122.120 307.179,122.120 C306.166,122.120 305.379,122.470 304.819,123.170 C304.259,123.870 303.979,124.847 303.979,126.100 C303.979,127.380 304.253,128.360 304.799,129.040 C305.346,129.720 306.133,130.060 307.159,130.060 C308.186,130.060 308.979,129.720 309.539,129.040 C310.099,128.360 310.379,127.380 310.379,126.100 C310.379,124.847 310.096,123.870 309.529,123.170 ZM298.960,129.430 C299.280,129.783 299.780,129.987 300.460,130.040 L301.000,130.080 C301.373,130.120 301.560,130.293 301.560,130.600 C301.560,130.760 301.500,130.887 301.380,130.980 C301.260,131.073 301.066,131.113 300.800,131.100 L300.240,131.060 C299.226,130.993 298.476,130.683 297.990,130.130 C297.503,129.577 297.260,128.733 297.260,127.600 L297.260,122.280 L295.740,122.280 C295.580,122.280 295.453,122.237 295.360,122.150 C295.266,122.063 295.220,121.947 295.220,121.800 C295.220,121.653 295.266,121.533 295.360,121.440 C295.453,121.347 295.580,121.300 295.740,121.300 L297.260,121.300 L297.260,118.820 C297.260,118.620 297.313,118.467 297.420,118.360 C297.526,118.253 297.673,118.200 297.860,118.200 C298.046,118.200 298.196,118.253 298.310,118.360 C298.423,118.467 298.480,118.620 298.480,118.820 L298.480,121.300 L300.900,121.300 C301.073,121.300 301.206,121.347 301.300,121.440 C301.393,121.533 301.440,121.653 301.440,121.800 C301.440,121.947 301.393,122.063 301.300,122.150 C301.206,122.237 301.073,122.280 300.900,122.280 L298.480,122.280 L298.480,127.660 C298.480,128.487 298.640,129.077 298.960,129.430 ZM293.000,131.080 C292.813,131.080 292.666,131.023 292.560,130.910 C292.453,130.797 292.400,130.647 292.400,130.460 L292.400,129.260 C292.120,129.860 291.713,130.323 291.180,130.650 C290.646,130.977 290.033,131.140 289.340,131.140 C288.713,131.140 288.140,131.013 287.620,130.760 C287.100,130.507 286.690,130.153 286.390,129.700 C286.090,129.247 285.940,128.747 285.940,128.200 C285.940,127.480 286.126,126.920 286.500,126.520 C286.873,126.120 287.493,125.833 288.360,125.660 C289.226,125.487 290.433,125.400 291.980,125.400 L292.400,125.400 L292.400,124.660 C292.400,123.780 292.220,123.137 291.860,122.730 C291.500,122.323 290.933,122.120 290.160,122.120 C289.173,122.120 288.233,122.380 287.340,122.900 C287.300,122.927 287.196,122.997 287.030,123.110 C286.863,123.223 286.720,123.280 286.600,123.280 C286.466,123.280 286.356,123.230 286.270,123.130 C286.183,123.030 286.140,122.907 286.140,122.760 C286.140,122.467 286.373,122.180 286.840,121.900 C287.306,121.633 287.826,121.427 288.400,121.280 C288.973,121.133 289.540,121.060 290.100,121.060 C291.273,121.060 292.150,121.367 292.730,121.980 C293.310,122.593 293.600,123.520 293.600,124.760 L293.600,130.460 C293.600,130.647 293.546,130.797 293.440,130.910 C293.333,131.023 293.186,131.080 293.000,131.080 ZM292.400,126.300 L292.020,126.300 C290.740,126.300 289.760,126.353 289.080,126.460 C288.400,126.567 287.920,126.750 287.640,127.010 C287.360,127.270 287.220,127.647 287.220,128.140 C287.220,128.700 287.433,129.163 287.860,129.530 C288.286,129.897 288.813,130.080 289.440,130.080 C290.306,130.080 291.016,129.787 291.570,129.200 C292.123,128.613 292.400,127.867 292.400,126.960 L292.400,126.300 ZM283.900,131.000 L276.460,131.000 C276.287,131.000 276.137,130.947 276.010,130.840 C275.883,130.733 275.820,130.600 275.820,130.440 L275.820,117.440 C275.820,117.253 275.877,117.100 275.990,116.980 C276.103,116.860 276.253,116.800 276.440,116.800 C276.640,116.800 276.793,116.857 276.900,116.970 C277.007,117.083 277.060,117.240 277.060,117.440 L277.060,129.920 L283.900,129.920 C284.073,129.920 284.210,129.967 284.310,130.060 C284.410,130.153 284.460,130.287 284.460,130.460 C284.460,130.633 284.410,130.767 284.310,130.860 C284.210,130.953 284.073,131.000 283.900,131.000 Z" class="cls-38"/>
      <rect x="252" y="140" width="232" height="38" class="cls-39"/>
      <path d="M386.994,157.680 C385.653,157.641 384.605,157.621 383.850,157.621 C383.811,158.760 383.791,160.102 383.791,161.645 C383.791,163.337 383.975,164.397 384.343,164.823 C384.711,165.250 385.233,165.463 385.910,165.463 C386.099,165.463 386.294,165.445 386.496,165.409 C386.698,165.373 386.949,165.316 387.248,165.238 L387.170,165.941 C386.604,166.111 386.118,166.195 385.715,166.195 C384.575,166.195 383.840,165.878 383.508,165.243 C383.176,164.608 383.010,163.588 383.010,162.182 C383.010,160.476 383.016,158.956 383.029,157.621 C382.639,157.621 382.033,157.641 381.213,157.680 L381.252,156.879 C381.975,156.918 382.596,156.937 383.117,156.937 C383.117,156.228 383.156,155.287 383.234,154.115 L384.094,154.057 C383.970,155.561 383.908,156.521 383.908,156.937 C384.475,156.937 385.523,156.905 387.053,156.840 L386.994,157.680 ZM378.410,166.000 C378.540,164.307 378.605,162.234 378.605,159.779 C378.605,158.861 378.382,158.202 377.937,157.802 C377.491,157.401 376.848,157.201 376.008,157.201 C374.895,157.201 373.775,157.621 372.648,158.461 C372.648,162.471 372.674,164.984 372.727,166.000 L371.789,166.000 C371.841,164.047 371.867,161.612 371.867,158.695 C371.867,155.863 371.776,153.712 371.594,152.240 L372.746,152.201 L372.717,153.295 C372.671,155.574 372.648,157.068 372.648,157.777 L372.668,157.777 C373.195,157.328 373.760,156.986 374.362,156.752 C374.964,156.518 375.545,156.400 376.105,156.400 C377.128,156.400 377.930,156.649 378.513,157.147 C379.095,157.646 379.387,158.510 379.387,159.740 L379.387,160.443 C379.374,160.665 379.367,161.029 379.367,161.537 C379.367,163.074 379.374,164.561 379.387,166.000 L378.410,166.000 ZM368.015,156.664 C367.640,156.840 367.447,157.071 367.434,157.357 L367.434,157.416 C367.688,157.716 367.878,158.013 368.005,158.310 C368.132,158.606 368.195,158.949 368.195,159.340 C368.195,160.004 368.041,160.601 367.731,161.132 C367.422,161.663 366.958,162.066 366.340,162.343 C365.721,162.620 365.080,162.758 364.416,162.758 C364.071,162.758 363.747,162.738 363.444,162.699 C363.142,162.660 362.919,162.608 362.775,162.543 C362.385,162.830 362.189,163.214 362.189,163.695 C362.189,164.099 362.434,164.377 362.922,164.530 C363.410,164.683 364.426,164.760 365.969,164.760 C368.332,164.760 369.514,165.505 369.514,166.996 C369.514,168.129 369.071,169.086 368.186,169.867 C367.300,170.648 366.076,171.039 364.514,171.039 C363.290,171.039 362.313,170.783 361.584,170.272 C360.855,169.761 360.490,168.998 360.490,167.982 C360.490,167.383 360.633,166.840 360.920,166.352 C361.206,165.863 361.643,165.499 362.229,165.258 L362.229,165.219 C362.014,165.134 361.838,164.983 361.701,164.765 C361.564,164.547 361.496,164.265 361.496,163.920 C361.496,163.334 361.783,162.807 362.355,162.338 L362.355,162.318 C362.062,162.201 361.761,161.920 361.452,161.474 C361.143,161.028 360.988,160.496 360.988,159.877 C360.988,158.920 361.312,158.104 361.960,157.431 C362.608,156.757 363.491,156.420 364.611,156.420 C365.640,156.420 366.434,156.648 366.994,157.104 L367.072,157.104 C367.202,156.563 367.395,156.164 367.648,155.907 C367.902,155.650 368.225,155.521 368.615,155.521 C369.149,155.521 369.514,155.541 369.709,155.580 L369.631,156.400 C368.928,156.400 368.389,156.488 368.015,156.664 ZM361.604,166.293 C361.343,166.664 361.213,167.107 361.213,167.621 C361.213,168.487 361.522,169.149 362.141,169.608 C362.759,170.067 363.670,170.297 364.875,170.297 C366.138,170.297 367.113,170.035 367.800,169.511 C368.487,168.987 368.830,168.357 368.830,167.621 C368.830,166.905 368.576,166.386 368.068,166.063 C367.561,165.741 366.548,165.580 365.031,165.580 C364.217,165.580 363.439,165.535 362.697,165.443 C362.229,165.639 361.864,165.922 361.604,166.293 ZM366.550,157.787 C366.039,157.331 365.340,157.104 364.455,157.104 C363.635,157.104 362.979,157.322 362.487,157.758 C361.996,158.194 361.750,158.787 361.750,159.535 C361.750,160.355 362.010,160.982 362.531,161.415 C363.052,161.848 363.745,162.064 364.611,162.064 C365.399,162.064 366.047,161.850 366.555,161.420 C367.063,160.990 367.316,160.411 367.316,159.682 C367.316,158.874 367.061,158.243 366.550,157.787 ZM357.678,154.682 C357.476,154.682 357.315,154.607 357.194,154.457 C357.074,154.307 357.014,154.128 357.014,153.920 C357.014,153.699 357.084,153.500 357.224,153.324 C357.364,153.148 357.554,153.061 357.795,153.061 C357.971,153.061 358.114,153.137 358.225,153.290 C358.335,153.443 358.391,153.621 358.391,153.822 C358.391,154.057 358.332,154.259 358.215,154.428 C358.098,154.597 357.919,154.682 357.678,154.682 ZM358.059,156.537 C357.987,158.054 357.951,159.770 357.951,161.684 C357.951,163.272 358.000,164.711 358.098,166.000 L357.072,166.000 C357.170,164.425 357.219,162.986 357.219,161.684 C357.219,159.848 357.131,158.220 356.955,156.801 L358.059,156.537 ZM355.334,166.000 L348.068,166.000 C348.120,164.047 348.146,161.814 348.146,159.301 C348.146,158.122 348.143,157.030 348.137,156.024 C348.130,155.019 348.107,154.102 348.068,153.275 L349.074,153.275 C348.963,154.740 348.908,156.749 348.908,159.301 C348.908,160.023 348.915,160.951 348.928,162.084 L348.938,164.066 C348.938,164.633 348.934,165.043 348.928,165.297 C351.324,165.297 353.472,165.264 355.373,165.199 L355.334,166.000 ZM339.230,166.039 C339.165,165.635 339.133,165.290 339.133,165.004 L339.074,165.004 C338.208,165.831 337.115,166.244 335.793,166.244 C334.803,166.244 334.042,166.024 333.508,165.585 C332.974,165.146 332.707,164.503 332.707,163.656 C332.707,162.595 333.164,161.778 334.079,161.205 C334.994,160.632 336.659,160.336 339.074,160.316 C339.100,160.082 339.113,159.851 339.113,159.623 C339.113,158.731 338.859,158.111 338.352,157.763 C337.844,157.414 337.150,157.240 336.271,157.240 C335.230,157.240 334.182,157.374 333.127,157.641 L333.254,156.801 C334.250,156.534 335.269,156.400 336.311,156.400 C337.437,156.400 338.316,156.633 338.947,157.099 C339.579,157.564 339.895,158.337 339.895,159.418 C339.895,159.770 339.877,160.282 339.841,160.956 C339.805,161.630 339.787,162.299 339.787,162.963 C339.787,163.920 339.862,164.932 340.012,166.000 L339.230,166.039 ZM339.113,161.000 C337.395,161.000 336.044,161.197 335.061,161.591 C334.077,161.985 333.586,162.703 333.586,163.744 C333.586,164.903 334.354,165.482 335.891,165.482 C336.594,165.482 337.217,165.378 337.761,165.170 C338.304,164.962 338.755,164.646 339.113,164.223 L339.113,161.000 ZM330.188,157.260 C329.582,157.260 329.056,157.432 328.610,157.777 C328.164,158.122 327.837,158.624 327.629,159.281 C327.629,162.341 327.655,164.581 327.707,166.000 L326.750,166.000 C326.815,164.216 326.848,162.615 326.848,161.195 C326.848,159.717 326.721,158.233 326.467,156.742 L327.326,156.518 C327.476,157.292 327.557,157.820 327.570,158.100 L327.687,158.100 C328.091,157.527 328.500,157.100 328.913,156.820 C329.326,156.540 329.758,156.400 330.207,156.400 C330.721,156.400 331.346,156.508 332.082,156.723 L331.828,157.582 C331.307,157.367 330.760,157.260 330.188,157.260 ZM322.922,166.039 C322.857,165.635 322.824,165.290 322.824,165.004 L322.766,165.004 C321.900,165.831 320.806,166.244 319.484,166.244 C318.495,166.244 317.733,166.024 317.199,165.585 C316.665,165.146 316.398,164.503 316.398,163.656 C316.398,162.595 316.856,161.778 317.771,161.205 C318.685,160.632 320.350,160.336 322.766,160.316 C322.792,160.082 322.805,159.851 322.805,159.623 C322.805,158.731 322.551,158.111 322.043,157.763 C321.535,157.414 320.842,157.240 319.963,157.240 C318.921,157.240 317.873,157.374 316.818,157.641 L316.945,156.801 C317.941,156.534 318.960,156.400 320.002,156.400 C321.128,156.400 322.007,156.633 322.639,157.099 C323.270,157.564 323.586,158.337 323.586,159.418 C323.586,159.770 323.568,160.282 323.532,160.956 C323.496,161.630 323.479,162.299 323.479,162.963 C323.479,163.920 323.553,164.932 323.703,166.000 L322.922,166.039 ZM322.805,161.000 C321.086,161.000 319.735,161.197 318.752,161.591 C317.769,161.985 317.277,162.703 317.277,163.744 C317.277,164.903 318.045,165.482 319.582,165.482 C320.285,165.482 320.908,165.378 321.452,165.170 C321.996,164.962 322.447,164.646 322.805,164.223 L322.805,161.000 ZM313.811,158.656 C313.811,161.560 313.869,164.008 313.986,166.000 L313.166,166.020 C313.114,165.714 313.088,165.362 313.088,164.965 L312.990,164.965 C312.691,165.323 312.251,165.626 311.672,165.873 C311.092,166.120 310.438,166.244 309.709,166.244 C308.518,166.244 307.546,165.797 306.794,164.901 C306.042,164.006 305.666,162.911 305.666,161.615 C305.666,160.066 306.092,158.803 306.945,157.826 C307.798,156.850 308.937,156.361 310.363,156.361 C310.956,156.361 311.468,156.428 311.901,156.562 C312.334,156.695 312.668,156.889 312.902,157.143 L312.922,157.143 C312.922,155.971 312.896,154.343 312.844,152.260 L313.869,152.201 C313.817,152.982 313.791,153.930 313.791,155.043 C313.791,155.759 313.794,156.309 313.801,156.693 L313.811,158.656 ZM312.922,157.855 C312.642,157.589 312.294,157.390 311.877,157.260 C311.460,157.130 311.004,157.064 310.510,157.064 C309.214,157.064 308.239,157.454 307.585,158.231 C306.931,159.009 306.604,160.137 306.604,161.615 C306.604,162.781 306.914,163.710 307.536,164.403 C308.158,165.097 309.016,165.443 310.109,165.443 C310.656,165.443 311.154,165.354 311.604,165.175 C312.053,164.996 312.541,164.630 313.068,164.076 C313.068,163.744 313.072,163.246 313.078,162.582 C313.078,160.889 313.026,159.314 312.922,157.855 ZM302.941,166.000 L301.965,166.000 C302.121,164.014 302.199,161.954 302.199,159.818 C302.199,158.816 301.931,158.129 301.394,157.758 C300.856,157.387 300.165,157.201 299.318,157.201 C298.231,157.201 297.238,157.621 296.340,158.461 C296.327,158.936 296.320,159.750 296.320,160.902 C296.320,161.749 296.324,162.550 296.330,163.305 L296.350,165.375 C296.350,165.512 296.353,165.720 296.359,166.000 L295.422,166.000 C295.539,163.598 295.598,161.996 295.598,161.195 C295.598,159.893 295.467,158.402 295.207,156.723 L296.164,156.518 L296.340,157.836 L296.359,157.836 C297.427,156.879 298.488,156.400 299.543,156.400 C300.669,156.400 301.517,156.641 302.087,157.123 C302.657,157.605 302.941,158.445 302.941,159.643 L302.932,160.346 C302.932,160.456 302.928,160.622 302.922,160.844 C302.922,161.638 302.925,162.279 302.932,162.768 L302.941,166.000 ZM291.418,166.039 C291.353,165.635 291.320,165.290 291.320,165.004 L291.262,165.004 C290.396,165.831 289.302,166.244 287.980,166.244 C286.991,166.244 286.229,166.024 285.695,165.585 C285.161,165.146 284.895,164.503 284.895,163.656 C284.895,162.595 285.352,161.778 286.267,161.205 C287.181,160.632 288.846,160.336 291.262,160.316 C291.288,160.082 291.301,159.851 291.301,159.623 C291.301,158.731 291.047,158.111 290.539,157.763 C290.031,157.414 289.338,157.240 288.459,157.240 C287.417,157.240 286.369,157.374 285.314,157.641 L285.441,156.801 C286.438,156.534 287.456,156.400 288.498,156.400 C289.624,156.400 290.503,156.633 291.135,157.099 C291.766,157.564 292.082,158.337 292.082,159.418 C292.082,159.770 292.064,160.282 292.028,160.956 C291.992,161.630 291.975,162.299 291.975,162.963 C291.975,163.920 292.049,164.932 292.199,166.000 L291.418,166.039 ZM291.301,161.000 C289.582,161.000 288.231,161.197 287.248,161.591 C286.265,161.985 285.773,162.703 285.773,163.744 C285.773,164.903 286.542,165.482 288.078,165.482 C288.781,165.482 289.405,165.378 289.948,165.170 C290.492,164.962 290.943,164.646 291.301,164.223 L291.301,161.000 ZM281.037,165.561 C281.675,165.561 282.456,165.421 283.381,165.141 L283.322,165.863 C282.606,166.130 281.766,166.264 280.803,166.264 C278.752,166.264 277.129,165.704 275.935,164.584 C274.740,163.464 274.143,161.908 274.143,159.916 C274.143,158.601 274.442,157.423 275.041,156.381 C275.640,155.339 276.455,154.532 277.487,153.959 C278.519,153.386 279.624,153.100 280.803,153.100 C281.161,153.100 281.462,153.121 281.706,153.163 C281.950,153.206 282.241,153.279 282.580,153.383 L282.385,154.203 C281.636,154.001 281.034,153.900 280.578,153.900 C278.924,153.900 277.578,154.429 276.540,155.487 C275.502,156.545 274.982,157.937 274.982,159.662 C274.982,161.622 275.511,163.095 276.569,164.081 C277.627,165.067 279.116,165.561 281.037,165.561 Z" class="cls-40"/>
      <path d="M458.754,156.835 L461.059,161.417 C461.059,161.417 464.805,152.104 470.712,149.000 C470.568,151.217 469.992,153.139 471.000,155.504 C468.407,156.096 463.076,162.748 461.347,166.000 C458.898,162.896 456.017,160.530 454.000,159.791 L458.754,156.835 Z" class="cls-40"/>
      <path d="M452.453,197.783 C452.408,198.597 452.082,199.004 451.477,199.004 C450.917,199.004 450.637,198.682 450.637,198.037 C450.637,197.914 450.627,197.686 450.607,197.354 L450.578,196.533 C449.549,196.657 448.726,196.947 448.107,197.402 C447.528,197.826 447.046,198.464 446.662,199.316 L446.682,204.668 C446.682,205.325 446.359,205.654 445.715,205.654 C445.142,205.654 444.855,205.325 444.855,204.668 L444.855,197.812 C444.855,197.598 444.864,197.275 444.880,196.846 C444.896,196.416 444.904,196.094 444.904,195.879 C444.904,195.221 445.191,194.893 445.764,194.893 C446.402,194.893 446.724,195.433 446.730,196.514 C447.980,195.309 449.367,194.707 450.891,194.707 C451.418,194.707 451.812,194.906 452.072,195.303 C452.333,195.700 452.463,196.299 452.463,197.100 C452.463,197.438 452.460,197.666 452.453,197.783 ZM442.248,205.645 C442.124,205.645 441.900,205.501 441.574,205.215 C441.281,204.948 441.063,204.710 440.920,204.502 C440.295,204.841 439.745,205.096 439.270,205.269 C438.794,205.441 438.397,205.527 438.078,205.527 C436.555,205.527 435.445,205.098 434.748,204.238 C434.090,203.431 433.762,202.194 433.762,200.527 C433.762,198.952 434.304,197.604 435.388,196.484 C436.472,195.365 437.766,194.805 439.270,194.805 C439.836,194.805 440.471,194.951 441.174,195.244 C442.059,195.609 442.502,196.048 442.502,196.563 C442.502,196.738 442.437,196.895 442.307,197.031 C442.241,197.279 442.191,197.686 442.155,198.252 C442.119,198.818 442.098,199.544 442.092,200.430 C442.085,201.237 442.141,201.875 442.258,202.344 C442.323,202.630 442.528,203.203 442.873,204.062 C442.919,204.180 442.993,204.352 443.098,204.580 L443.156,204.746 C443.156,205.006 443.065,205.221 442.883,205.391 C442.700,205.560 442.489,205.645 442.248,205.645 ZM440.271,197.944 C440.306,197.616 440.360,197.266 440.432,196.895 C440.191,196.771 439.984,196.680 439.812,196.621 C439.639,196.563 439.501,196.533 439.396,196.533 C438.387,196.533 437.517,196.945 436.784,197.769 C436.052,198.592 435.686,199.541 435.686,200.615 C435.686,201.683 435.874,202.484 436.252,203.018 C436.629,203.551 437.196,203.818 437.951,203.818 C438.576,203.818 439.107,203.705 439.543,203.477 C439.777,203.353 440.106,203.105 440.529,202.734 C440.321,201.009 440.217,199.717 440.217,198.857 C440.217,198.578 440.235,198.273 440.271,197.944 ZM431.623,197.324 L431.477,202.178 C431.477,202.692 431.450,203.447 431.398,204.443 C431.333,205.094 431.014,205.420 430.441,205.420 C429.803,205.420 429.484,205.088 429.484,204.424 C429.484,203.636 429.520,202.453 429.592,200.874 C429.663,199.295 429.699,198.112 429.699,197.324 C429.699,196.296 429.715,195.119 429.748,193.794 C429.781,192.469 429.797,191.292 429.797,190.264 C429.797,189.613 430.116,189.287 430.754,189.287 C431.398,189.287 431.721,189.613 431.721,190.264 C431.721,191.292 431.704,192.469 431.672,193.794 C431.639,195.119 431.623,196.296 431.623,197.324 ZM426.721,201.406 C426.727,202.344 426.730,203.047 426.730,203.516 C426.730,203.659 426.742,203.877 426.765,204.170 C426.787,204.463 426.799,204.681 426.799,204.824 C426.799,205.104 426.704,205.334 426.516,205.513 C426.327,205.692 426.096,205.781 425.822,205.781 C425.321,205.781 425.002,205.472 424.865,204.854 C424.051,205.277 423.114,205.488 422.053,205.488 C421.200,205.488 420.493,205.299 419.934,204.922 C419.315,204.505 418.947,203.896 418.830,203.096 C418.576,201.371 418.449,199.834 418.449,198.486 C418.449,197.594 418.547,196.579 418.742,195.439 C418.833,194.873 419.143,194.590 419.670,194.590 C419.950,194.590 420.184,194.679 420.373,194.858 C420.562,195.038 420.656,195.267 420.656,195.547 C420.656,195.846 420.609,196.325 420.515,196.982 C420.420,197.640 420.373,198.141 420.373,198.486 C420.373,199.574 420.409,200.505 420.480,201.279 C420.552,202.054 420.659,202.676 420.803,203.145 C421.018,203.262 421.229,203.351 421.438,203.413 C421.646,203.475 421.851,203.506 422.053,203.506 C422.925,203.506 423.846,203.366 424.816,203.086 L424.807,201.104 L424.787,199.209 C424.787,197.803 424.849,196.582 424.973,195.547 C425.044,194.948 425.360,194.648 425.920,194.648 C426.200,194.648 426.434,194.740 426.623,194.922 C426.812,195.104 426.900,195.332 426.887,195.605 L426.711,199.297 C426.711,199.766 426.714,200.469 426.721,201.406 ZM416.164,200.791 L415.939,204.072 C415.900,205.374 415.767,206.439 415.539,207.266 C415.246,208.320 414.777,209.098 414.133,209.600 C413.352,210.205 412.222,210.508 410.744,210.508 C409.878,210.508 409.152,210.449 408.566,210.332 C407.746,210.169 407.336,209.831 407.336,209.316 C407.336,208.737 407.619,208.447 408.186,208.447 C408.420,208.447 408.811,208.504 409.357,208.618 C409.904,208.732 410.510,208.783 411.174,208.770 C412.424,208.750 413.286,208.145 413.762,206.953 C414.074,206.159 414.240,204.938 414.260,203.291 C413.908,203.942 413.490,204.430 413.005,204.756 C412.520,205.081 411.965,205.244 411.340,205.244 C410.161,205.244 409.203,204.842 408.464,204.038 C407.725,203.234 407.355,202.191 407.355,200.908 C407.355,199.150 407.860,197.734 408.869,196.660 C409.911,195.553 411.330,195.000 413.127,195.000 C413.732,195.000 414.240,195.078 414.650,195.234 C415.061,195.391 415.373,195.625 415.588,195.937 C416.284,195.957 416.633,196.344 416.633,197.100 C416.633,197.562 416.564,198.180 416.428,198.955 C416.278,199.854 416.190,200.466 416.164,200.791 ZM413.898,196.709 C413.618,196.611 413.329,196.563 413.029,196.563 C411.792,196.563 410.835,196.989 410.158,197.842 C409.553,198.610 409.250,199.587 409.250,200.771 C409.250,201.716 409.429,202.425 409.787,202.900 C410.145,203.376 410.682,203.613 411.398,203.613 C412.056,203.613 412.694,203.242 413.313,202.500 C413.872,201.816 414.191,201.139 414.270,200.469 C414.406,199.766 414.553,198.662 414.709,197.158 C414.449,196.956 414.178,196.807 413.898,196.709 ZM401.730,205.449 C400.259,205.449 399.068,205.081 398.156,204.346 C397.160,203.532 396.662,202.393 396.662,200.928 C396.662,199.235 397.072,197.816 397.893,196.670 C398.784,195.420 399.976,194.795 401.467,194.795 C402.547,194.795 403.430,194.977 404.113,195.342 C404.953,195.791 405.373,196.481 405.373,197.412 C405.373,198.063 405.005,198.656 404.270,199.189 C403.944,199.424 403.254,199.789 402.199,200.283 L398.469,202.051 C398.833,202.591 399.287,202.998 399.831,203.271 C400.375,203.545 401.008,203.682 401.730,203.682 C402.180,203.682 402.707,203.597 403.312,203.428 C404.081,203.213 404.575,202.931 404.797,202.583 C405.018,202.235 405.256,202.061 405.510,202.061 C405.738,202.061 405.941,202.147 406.120,202.319 C406.299,202.492 406.389,202.692 406.389,202.920 C406.389,203.643 405.806,204.264 404.641,204.785 C403.645,205.228 402.674,205.449 401.730,205.449 ZM401.301,198.828 C402.479,198.255 403.319,197.757 403.820,197.334 C403.260,196.813 402.476,196.553 401.467,196.553 C400.672,196.553 400.012,196.860 399.484,197.476 C398.957,198.091 398.563,199.017 398.303,200.254 L401.301,198.828 ZM394.240,205.107 C393.993,205.107 393.762,205.003 393.547,204.795 C391.392,202.666 388.996,201.234 386.359,200.498 L386.438,202.412 L386.486,204.336 C386.486,204.622 386.394,204.862 386.208,205.054 C386.022,205.246 385.790,205.342 385.510,205.342 C385.230,205.342 384.997,205.246 384.812,205.054 C384.626,204.862 384.533,204.622 384.533,204.336 C384.533,203.822 384.509,203.055 384.460,202.036 C384.411,201.017 384.387,200.251 384.387,199.736 C384.387,199.137 384.452,198.246 384.582,197.061 C384.712,195.876 384.777,194.987 384.777,194.395 C384.777,194.063 384.746,193.571 384.685,192.920 C384.623,192.269 384.592,191.777 384.592,191.445 C384.592,191.074 384.696,190.749 384.904,190.469 C385.152,190.124 385.493,189.967 385.930,190.000 L388.283,190.186 C389.175,190.296 389.927,190.514 390.539,190.840 C393.176,192.240 394.494,193.949 394.494,195.967 C394.494,196.956 394.045,197.832 393.146,198.594 C392.424,199.206 391.522,199.671 390.441,199.990 C392.466,201.078 393.980,202.223 394.982,203.428 C395.152,203.636 395.236,203.857 395.236,204.092 C395.236,204.365 395.137,204.603 394.938,204.805 C394.740,205.006 394.507,205.107 394.240,205.107 ZM390.998,197.686 C391.363,197.484 391.701,197.220 392.014,196.895 C392.359,196.530 392.531,196.221 392.531,195.967 C392.531,195.062 392.017,194.219 390.988,193.438 C390.044,192.721 389.055,192.308 388.020,192.197 L386.574,192.080 L386.672,193.262 C386.717,193.744 386.740,194.137 386.740,194.443 C386.740,194.964 386.698,195.612 386.613,196.387 L386.408,198.330 C386.499,198.330 386.641,198.333 386.833,198.340 C387.025,198.346 387.170,198.350 387.268,198.350 C388.928,198.350 390.171,198.128 390.998,197.686 ZM375.480,197.480 C375.122,197.480 374.872,197.360 374.729,197.119 C374.631,196.950 374.546,196.598 374.475,196.064 C373.986,196.188 373.234,196.416 372.219,196.748 C371.170,197.165 370.643,197.679 370.637,198.291 C370.832,198.363 371.024,198.415 371.213,198.447 C372.710,198.714 373.824,199.082 374.553,199.551 C375.614,200.234 376.145,201.224 376.145,202.520 C376.145,203.581 375.686,204.382 374.768,204.922 C374.006,205.365 373.042,205.586 371.877,205.586 C371.024,205.586 370.210,205.443 369.436,205.156 C368.433,204.792 367.932,204.284 367.932,203.633 C367.932,203.372 368.034,203.145 368.239,202.949 C368.444,202.754 368.677,202.656 368.937,202.656 C369.139,202.656 369.400,202.813 369.719,203.125 C369.875,203.275 370.227,203.398 370.773,203.496 C371.210,203.574 371.577,203.613 371.877,203.613 C372.424,203.613 372.906,203.548 373.322,203.418 C373.928,203.229 374.230,202.930 374.230,202.520 C374.230,201.634 373.612,201.035 372.375,200.723 L371.359,200.498 C370.493,200.309 369.878,200.088 369.514,199.834 C368.986,199.469 368.723,198.919 368.723,198.184 C368.723,196.823 369.364,195.853 370.646,195.273 C371.037,195.098 371.662,194.888 372.521,194.644 C373.381,194.399 373.996,194.193 374.367,194.023 C374.634,193.906 374.924,193.848 375.236,193.848 C375.516,193.848 375.746,193.939 375.925,194.121 C376.104,194.303 376.193,194.541 376.193,194.834 C376.193,195.023 376.234,195.300 376.315,195.664 C376.397,196.029 376.438,196.305 376.438,196.494 C376.438,196.787 376.348,197.025 376.169,197.207 C375.990,197.389 375.760,197.480 375.480,197.480 ZM365.910,205.693 C365.350,205.693 365.034,205.387 364.963,204.775 L364.689,202.637 C364.598,201.875 364.553,201.162 364.553,200.498 C364.553,200.316 364.564,200.007 364.587,199.570 C364.610,199.134 364.621,198.825 364.621,198.643 C364.621,197.236 364.361,196.533 363.840,196.533 C363.111,196.533 362.414,196.966 361.750,197.832 C361.151,198.620 360.682,199.616 360.344,200.820 C360.331,201.074 360.301,201.393 360.256,201.777 C360.217,202.103 360.197,202.419 360.197,202.725 C360.197,202.920 360.217,203.213 360.256,203.604 C360.295,203.994 360.314,204.287 360.314,204.482 C360.314,204.775 360.225,205.013 360.046,205.195 C359.867,205.378 359.637,205.469 359.357,205.469 C359.071,205.469 358.840,205.378 358.664,205.195 C358.488,205.013 358.400,204.775 358.400,204.482 C358.400,204.287 358.379,203.994 358.337,203.604 C358.294,203.213 358.273,202.920 358.273,202.725 C358.273,202.054 358.321,201.125 358.415,199.937 C358.509,198.748 358.557,197.819 358.557,197.148 C358.557,196.940 358.545,196.631 358.522,196.221 C358.500,195.811 358.488,195.501 358.488,195.293 C358.488,195.013 358.581,194.784 358.767,194.604 C358.952,194.426 359.182,194.336 359.455,194.336 C360.054,194.336 360.383,194.759 360.441,195.605 L360.471,196.748 C361.564,195.290 362.687,194.561 363.840,194.561 C364.881,194.561 365.607,195.020 366.018,195.937 C366.297,196.550 366.450,197.455 366.477,198.652 L366.477,199.639 L366.467,200.547 C366.467,201.087 366.537,201.786 366.677,202.642 C366.817,203.498 366.887,204.193 366.887,204.727 C366.887,205.013 366.794,205.246 366.608,205.425 C366.423,205.604 366.190,205.693 365.910,205.693 ZM355.812,205.645 C355.689,205.645 355.464,205.501 355.139,205.215 C354.846,204.948 354.628,204.710 354.484,204.502 C353.859,204.841 353.309,205.096 352.834,205.269 C352.359,205.441 351.961,205.527 351.643,205.527 C350.119,205.527 349.009,205.098 348.313,204.238 C347.655,203.431 347.326,202.194 347.326,200.527 C347.326,198.952 347.868,197.604 348.952,196.484 C350.036,195.365 351.330,194.805 352.834,194.805 C353.400,194.805 354.035,194.951 354.738,195.244 C355.624,195.609 356.066,196.048 356.066,196.563 C356.066,196.738 356.001,196.895 355.871,197.031 C355.806,197.279 355.755,197.686 355.720,198.252 C355.684,198.818 355.663,199.544 355.656,200.430 C355.650,201.237 355.705,201.875 355.822,202.344 C355.887,202.630 356.092,203.203 356.437,204.062 C356.483,204.180 356.558,204.352 356.662,204.580 L356.721,204.746 C356.721,205.006 356.629,205.221 356.447,205.391 C356.265,205.560 356.053,205.645 355.812,205.645 ZM353.835,197.944 C353.871,197.616 353.924,197.266 353.996,196.895 C353.755,196.771 353.548,196.680 353.376,196.621 C353.203,196.563 353.065,196.533 352.961,196.533 C351.952,196.533 351.081,196.945 350.349,197.769 C349.616,198.592 349.250,199.541 349.250,200.615 C349.250,201.683 349.439,202.484 349.816,203.018 C350.194,203.551 350.760,203.818 351.516,203.818 C352.141,203.818 352.671,203.705 353.107,203.477 C353.342,203.353 353.670,203.105 354.094,202.734 C353.885,201.009 353.781,199.717 353.781,198.857 C353.781,198.578 353.799,198.273 353.835,197.944 ZM341.213,196.475 C342.704,196.585 343.869,197.054 344.709,197.881 C345.477,198.636 345.861,199.557 345.861,200.645 C345.861,202.194 345.145,203.431 343.713,204.355 C342.469,205.156 341.027,205.557 339.387,205.557 C338.195,205.557 337.105,205.329 336.115,204.873 C334.904,204.313 334.289,203.545 334.270,202.568 C334.263,202.295 334.356,202.072 334.548,201.899 C334.740,201.727 334.976,201.641 335.256,201.641 C335.575,201.641 335.855,201.823 336.096,202.187 C336.428,202.682 336.724,203.018 336.984,203.193 C337.538,203.558 338.342,203.740 339.396,203.740 C340.406,203.740 341.343,203.522 342.209,203.086 C343.316,202.526 343.869,201.748 343.869,200.752 C343.869,199.932 343.404,199.284 342.473,198.809 C341.685,198.398 340.711,198.177 339.553,198.145 C338.524,198.105 337.648,197.881 336.926,197.471 C336.001,196.943 335.539,196.188 335.539,195.205 C335.539,194.046 336.197,192.988 337.512,192.031 C338.768,191.126 340.067,190.674 341.408,190.674 C342.040,190.674 342.753,190.781 343.547,190.996 C344.602,191.276 345.129,191.634 345.129,192.070 C345.129,192.643 344.836,192.930 344.250,192.930 C343.990,192.930 343.534,192.860 342.883,192.720 C342.232,192.580 341.727,192.513 341.369,192.520 C340.354,192.533 339.491,192.783 338.781,193.271 C338.052,193.773 337.687,194.382 337.687,195.098 C337.687,195.638 338.169,196.019 339.133,196.240 C339.491,196.325 340.184,196.403 341.213,196.475 ZM322.482,203.779 C322.873,203.779 323.290,203.675 323.732,203.467 L324.865,202.861 C325.061,202.757 325.200,202.705 325.285,202.705 C325.526,202.705 325.734,202.801 325.910,202.993 C326.086,203.185 326.174,203.405 326.174,203.652 C326.174,204.128 325.672,204.587 324.670,205.029 C323.791,205.420 323.062,205.615 322.482,205.615 C321.148,205.615 320.034,205.211 319.143,204.404 C318.205,203.558 317.736,202.441 317.736,201.055 C317.736,199.733 318.176,198.369 319.055,196.963 C320.031,195.400 321.131,194.619 322.355,194.619 C322.993,194.619 323.706,194.769 324.494,195.068 C325.490,195.453 325.988,195.921 325.988,196.475 C325.988,196.722 325.907,196.942 325.744,197.134 C325.581,197.326 325.379,197.422 325.139,197.422 C324.950,197.422 324.785,197.365 324.646,197.251 C324.505,197.137 324.370,197.025 324.240,196.914 C323.856,196.608 323.228,196.455 322.355,196.455 C321.691,196.455 321.034,197.048 320.383,198.232 C319.790,199.320 319.494,200.260 319.494,201.055 C319.494,201.914 319.787,202.591 320.373,203.086 C320.920,203.548 321.623,203.779 322.482,203.779 ZM314.328,192.637 C314.016,192.637 313.745,192.526 313.518,192.305 C313.290,192.083 313.176,191.816 313.176,191.504 C313.176,191.191 313.290,190.925 313.518,190.703 C313.745,190.482 314.016,190.371 314.328,190.371 C314.641,190.371 314.909,190.482 315.134,190.703 C315.358,190.925 315.471,191.191 315.471,191.504 C315.471,191.816 315.358,192.083 315.134,192.305 C314.909,192.526 314.641,192.637 314.328,192.637 ZM314.006,195.000 C314.286,195.000 314.515,195.091 314.694,195.273 C314.873,195.456 314.963,195.693 314.963,195.986 C314.963,196.598 314.930,197.362 314.865,198.276 C314.800,199.191 314.768,199.955 314.768,200.566 C314.768,200.957 314.779,201.541 314.802,202.319 C314.824,203.097 314.836,203.682 314.836,204.072 C314.836,204.359 314.748,204.593 314.572,204.775 C314.396,204.958 314.165,205.049 313.879,205.049 C313.599,205.049 313.369,204.958 313.190,204.775 C313.011,204.593 312.922,204.359 312.922,204.072 C312.922,203.682 312.910,203.097 312.888,202.319 C312.865,201.541 312.854,200.957 312.854,200.566 C312.854,199.955 312.886,199.191 312.951,198.276 C313.016,197.362 313.049,196.598 313.049,195.986 C313.049,195.693 313.138,195.456 313.317,195.273 C313.496,195.091 313.726,195.000 314.006,195.000 ZM309.328,205.811 C308.794,205.811 308.482,205.527 308.391,204.961 C308.273,204.245 308.156,203.236 308.039,201.934 L307.707,198.906 C307.642,198.457 307.531,198.018 307.375,197.588 C307.154,197.002 306.913,196.709 306.652,196.709 C306.411,196.709 305.962,196.914 305.305,197.324 C304.680,197.702 304.270,198.005 304.074,198.232 C304.068,198.844 304.084,199.456 304.123,200.068 L304.416,202.676 C304.540,203.705 304.602,204.554 304.602,205.225 C304.602,205.511 304.512,205.747 304.333,205.933 C304.154,206.118 303.924,206.211 303.645,206.211 C303.365,206.211 303.135,206.118 302.956,205.933 C302.777,205.747 302.687,205.511 302.687,205.225 C302.687,204.437 302.608,203.273 302.448,201.733 C302.289,200.194 302.209,199.030 302.209,198.242 C302.209,197.552 302.111,197.015 301.916,196.631 C301.460,196.839 300.998,197.178 300.529,197.646 L299.377,198.936 C299.273,199.092 299.107,199.297 298.879,199.551 C298.879,199.941 298.843,200.518 298.771,201.279 C298.700,202.041 298.664,202.604 298.664,202.969 C298.664,203.164 298.695,203.438 298.757,203.789 C298.819,204.141 298.850,204.395 298.850,204.551 C298.850,204.818 298.750,205.042 298.552,205.225 C298.353,205.407 298.120,205.498 297.854,205.498 C297.118,205.498 296.750,204.662 296.750,202.988 C296.750,202.598 296.786,202.015 296.857,201.240 C296.929,200.466 296.965,199.883 296.965,199.492 C296.965,199.147 296.934,198.630 296.872,197.939 C296.810,197.249 296.779,196.729 296.779,196.377 C296.779,194.899 297.111,194.160 297.775,194.160 C298.029,194.160 298.262,194.271 298.474,194.492 C298.685,194.714 298.791,194.955 298.791,195.215 C298.791,195.339 298.775,195.531 298.742,195.791 C298.710,196.051 298.693,196.250 298.693,196.387 L298.713,197.412 C299.051,196.716 299.549,196.086 300.207,195.522 C300.865,194.959 301.424,194.678 301.887,194.678 C302.909,194.678 303.612,195.186 303.996,196.201 C304.354,195.726 304.781,195.370 305.275,195.132 C305.770,194.894 306.336,194.775 306.975,194.775 C308.062,194.775 308.804,195.361 309.201,196.533 C309.279,196.768 309.413,197.682 309.602,199.277 C309.784,200.397 310.018,202.262 310.305,204.873 C310.324,205.133 310.236,205.355 310.041,205.537 C309.846,205.719 309.608,205.811 309.328,205.811 ZM290.070,205.576 C288.977,205.576 288.036,205.172 287.248,204.365 C286.369,203.467 285.907,202.259 285.861,200.742 C285.822,199.271 286.193,197.975 286.975,196.855 C287.886,195.534 289.156,194.873 290.783,194.873 C292.085,194.873 293.072,195.469 293.742,196.660 C294.276,197.624 294.533,198.783 294.514,200.137 C294.494,201.582 294.116,202.816 293.381,203.838 C292.547,204.997 291.444,205.576 290.070,205.576 ZM290.656,196.855 C289.699,196.849 288.954,197.305 288.420,198.223 C287.997,198.958 287.785,199.798 287.785,200.742 C287.785,201.686 288.042,202.422 288.557,202.949 C288.986,203.385 289.491,203.604 290.070,203.604 C290.747,203.604 291.330,203.356 291.818,202.861 C292.372,202.314 292.665,201.576 292.697,200.645 C292.788,198.125 292.108,196.862 290.656,196.855 ZM283.781,194.043 C283.365,194.043 283.052,193.799 282.844,193.311 C282.661,192.894 282.492,192.640 282.336,192.549 C282.199,192.477 281.861,192.441 281.320,192.441 C280.376,192.441 279.328,193.164 278.176,194.609 C276.613,196.550 275.832,198.389 275.832,200.127 C275.832,200.967 276.102,201.689 276.643,202.295 C277.196,202.920 277.863,203.232 278.645,203.232 C279.315,203.232 279.989,203.060 280.666,202.715 C281.044,202.520 281.623,202.135 282.404,201.562 C282.775,201.289 283.055,201.152 283.244,201.152 C283.524,201.152 283.758,201.258 283.947,201.470 C284.136,201.681 284.230,201.917 284.230,202.178 C284.230,202.471 284.107,202.728 283.859,202.949 C282.141,204.473 280.402,205.234 278.645,205.234 C277.297,205.234 276.158,204.717 275.227,203.682 C274.328,202.679 273.879,201.494 273.879,200.127 C273.879,197.920 274.803,195.658 276.652,193.340 C278.195,191.406 279.751,190.439 281.320,190.439 C281.639,190.439 281.926,190.454 282.180,190.483 C282.434,190.513 282.658,190.560 282.854,190.625 C283.081,190.293 283.378,190.127 283.742,190.127 C284.191,190.127 284.475,190.423 284.592,191.016 C284.696,191.543 284.748,192.191 284.748,192.959 C284.748,193.226 284.676,193.460 284.533,193.662 C284.357,193.916 284.107,194.043 283.781,194.043 Z" class="cls-38"/>
      <path d="M423.313,237.000 L423.313,236.648 L423.498,236.648 C423.915,236.648 424.206,236.585 424.372,236.458 C424.538,236.331 424.654,236.144 424.719,235.896 C424.745,235.799 424.758,235.493 424.758,234.979 L424.758,231.316 C424.758,230.503 424.652,229.912 424.440,229.544 C424.229,229.176 423.872,228.992 423.371,228.992 C422.596,228.992 421.825,229.415 421.057,230.262 L421.057,234.979 C421.057,235.584 421.092,235.958 421.164,236.102 C421.255,236.290 421.380,236.429 421.540,236.517 C421.699,236.604 422.023,236.648 422.512,236.648 L422.512,237.000 L418.088,237.000 L418.088,236.648 L418.283,236.648 C418.739,236.648 419.046,236.533 419.206,236.302 C419.366,236.071 419.445,235.630 419.445,234.979 L419.445,231.658 C419.445,230.584 419.421,229.930 419.372,229.695 C419.323,229.461 419.248,229.301 419.147,229.217 C419.046,229.132 418.911,229.090 418.742,229.090 C418.560,229.090 418.342,229.139 418.088,229.236 L417.941,228.885 L420.637,227.791 L421.057,227.791 L421.057,229.686 C422.105,228.423 423.104,227.791 424.055,227.791 C424.543,227.791 424.963,227.913 425.314,228.157 C425.666,228.401 425.946,228.803 426.154,229.363 C426.297,229.754 426.369,230.353 426.369,231.160 L426.369,234.979 C426.369,235.545 426.415,235.929 426.506,236.131 C426.577,236.294 426.693,236.421 426.853,236.512 C427.012,236.603 427.307,236.648 427.736,236.648 L427.736,237.000 L423.313,237.000 ZM415.695,237.176 C415.376,237.176 415.122,237.065 414.934,236.844 C414.745,236.622 414.647,236.245 414.641,235.711 C413.723,236.421 413.146,236.831 412.912,236.941 C412.561,237.104 412.186,237.186 411.789,237.186 C411.170,237.186 410.661,236.974 410.261,236.551 C409.860,236.128 409.660,235.571 409.660,234.881 C409.660,234.445 409.758,234.067 409.953,233.748 C410.220,233.305 410.684,232.889 411.345,232.498 C412.005,232.107 413.104,231.632 414.641,231.072 L414.641,230.721 C414.641,229.829 414.499,229.217 414.216,228.885 C413.933,228.553 413.521,228.387 412.980,228.387 C412.570,228.387 412.245,228.497 412.004,228.719 C411.756,228.940 411.633,229.194 411.633,229.480 L411.652,230.047 C411.652,230.346 411.576,230.578 411.423,230.740 C411.270,230.903 411.070,230.984 410.822,230.984 C410.581,230.984 410.384,230.900 410.231,230.730 C410.078,230.561 410.002,230.330 410.002,230.037 C410.002,229.477 410.288,228.963 410.861,228.494 C411.434,228.025 412.238,227.791 413.273,227.791 C414.068,227.791 414.719,227.925 415.227,228.191 C415.611,228.393 415.894,228.709 416.076,229.139 C416.193,229.419 416.252,229.992 416.252,230.857 L416.252,233.895 C416.252,234.747 416.268,235.270 416.301,235.462 C416.333,235.654 416.387,235.783 416.462,235.848 C416.537,235.913 416.623,235.945 416.721,235.945 C416.825,235.945 416.916,235.923 416.994,235.877 C417.131,235.792 417.395,235.555 417.785,235.164 L417.785,235.711 C417.056,236.688 416.359,237.176 415.695,237.176 ZM414.641,231.668 C413.658,232.059 413.023,232.335 412.736,232.498 C412.222,232.785 411.854,233.084 411.633,233.396 C411.411,233.709 411.301,234.051 411.301,234.422 C411.301,234.891 411.441,235.280 411.721,235.589 C412.001,235.898 412.323,236.053 412.688,236.053 C413.182,236.053 413.833,235.727 414.641,235.076 L414.641,231.668 ZM404.445,236.648 L404.631,236.648 C405.015,236.648 405.314,236.574 405.529,236.424 C405.679,236.320 405.786,236.154 405.852,235.926 C405.878,235.815 405.891,235.499 405.891,234.979 L405.891,231.131 C405.891,230.402 405.803,229.887 405.627,229.588 C405.373,229.171 404.966,228.963 404.406,228.963 C404.061,228.963 403.714,229.049 403.366,229.222 C403.018,229.394 402.596,229.715 402.102,230.184 L402.082,230.291 L402.102,230.711 L402.102,234.979 C402.102,235.591 402.136,235.971 402.204,236.121 C402.272,236.271 402.401,236.396 402.590,236.497 C402.779,236.598 403.101,236.648 403.557,236.648 L403.557,237.000 L399.035,237.000 L399.035,236.648 C399.530,236.648 399.870,236.590 400.056,236.473 C400.241,236.355 400.370,236.180 400.441,235.945 C400.474,235.835 400.490,235.512 400.490,234.979 L400.490,231.131 C400.490,230.402 400.383,229.878 400.168,229.559 C399.881,229.142 399.481,228.934 398.967,228.934 C398.615,228.934 398.267,229.028 397.922,229.217 C397.381,229.503 396.965,229.826 396.672,230.184 L396.672,234.979 C396.672,235.564 396.712,235.945 396.794,236.121 C396.875,236.297 396.996,236.429 397.155,236.517 C397.315,236.604 397.639,236.648 398.127,236.648 L398.127,237.000 L393.703,237.000 L393.703,236.648 C394.113,236.648 394.400,236.604 394.562,236.517 C394.725,236.429 394.849,236.289 394.934,236.097 C395.018,235.905 395.061,235.532 395.061,234.979 L395.061,231.561 C395.061,230.578 395.031,229.943 394.973,229.656 C394.927,229.441 394.855,229.293 394.758,229.212 C394.660,229.131 394.527,229.090 394.357,229.090 C394.175,229.090 393.957,229.139 393.703,229.236 L393.557,228.885 L396.252,227.791 L396.672,227.791 L396.672,229.695 C397.323,229.044 397.707,228.670 397.824,228.572 C398.117,228.325 398.433,228.133 398.771,227.996 C399.110,227.859 399.445,227.791 399.777,227.791 C400.337,227.791 400.819,227.954 401.223,228.279 C401.626,228.605 401.896,229.077 402.033,229.695 C402.704,228.914 403.270,228.401 403.732,228.157 C404.195,227.913 404.670,227.791 405.158,227.791 C405.633,227.791 406.055,227.913 406.423,228.157 C406.791,228.401 407.082,228.800 407.297,229.354 C407.440,229.731 407.512,230.324 407.512,231.131 L407.512,234.979 C407.512,235.539 407.554,235.923 407.639,236.131 C407.704,236.274 407.824,236.396 408.000,236.497 C408.176,236.598 408.462,236.648 408.859,236.648 L408.859,237.000 L404.445,237.000 L404.445,236.648 ZM390.534,236.648 C389.860,237.065 389.110,237.273 388.283,237.273 C386.936,237.273 385.865,236.736 385.070,235.662 C384.400,234.757 384.064,233.742 384.064,232.615 C384.064,231.795 384.268,230.979 384.675,230.169 C385.082,229.358 385.617,228.759 386.281,228.372 C386.945,227.985 387.648,227.791 388.391,227.791 C389.745,227.791 390.832,228.305 391.652,229.334 C392.349,230.213 392.697,231.222 392.697,232.361 C392.697,233.162 392.505,233.973 392.121,234.793 C391.737,235.613 391.208,236.232 390.534,236.648 ZM389.855,229.363 C389.393,228.738 388.804,228.426 388.088,228.426 C387.743,228.426 387.396,228.528 387.048,228.733 C386.699,228.938 386.418,229.298 386.203,229.813 C385.988,230.327 385.881,230.988 385.881,231.795 C385.881,233.097 386.140,234.220 386.657,235.164 C387.175,236.108 387.857,236.580 388.703,236.580 C389.335,236.580 389.855,236.320 390.266,235.799 C390.676,235.278 390.881,234.383 390.881,233.113 C390.881,231.525 390.539,230.275 389.855,229.363 ZM375.549,230.809 C375.217,230.822 374.947,230.828 374.738,230.828 C374.654,230.828 374.563,230.827 374.465,230.823 C374.367,230.820 374.266,230.815 374.162,230.809 L374.162,234.656 C374.162,235.490 374.253,236.007 374.436,236.209 C374.683,236.496 375.054,236.639 375.549,236.639 L376.066,236.639 L376.066,237.000 L370.393,237.000 L370.393,236.639 L370.891,236.639 C371.450,236.639 371.851,236.456 372.092,236.092 C372.229,235.890 372.297,235.412 372.297,234.656 L372.297,226.102 C372.297,225.268 372.206,224.751 372.023,224.549 C371.770,224.262 371.392,224.119 370.891,224.119 L370.393,224.119 L370.393,223.758 L375.217,223.758 C376.623,223.758 377.660,223.860 378.327,224.065 C378.994,224.271 379.561,224.648 380.026,225.198 C380.492,225.748 380.725,226.404 380.725,227.166 C380.725,227.980 380.459,228.686 379.929,229.285 C379.398,229.884 378.576,230.307 377.463,230.555 L380.197,234.354 C380.822,235.226 381.359,235.805 381.809,236.092 C382.258,236.378 382.844,236.561 383.566,236.639 L383.566,237.000 L380.031,237.000 L375.549,230.809 ZM377.565,229.383 C378.207,228.836 378.527,228.139 378.527,227.293 C378.527,226.466 378.269,225.794 377.751,225.276 C377.233,224.759 376.548,224.500 375.695,224.500 C375.318,224.500 374.807,224.562 374.162,224.686 L374.162,230.193 C374.286,230.193 374.393,230.195 374.484,230.198 C374.575,230.202 374.650,230.203 374.709,230.203 C375.972,230.203 376.924,229.930 377.565,229.383 ZM360.627,237.273 L360.227,237.273 L357.990,231.561 L355.383,237.273 L355.021,237.273 L352.150,229.754 C351.961,229.279 351.776,228.958 351.594,228.792 C351.411,228.626 351.125,228.501 350.734,228.416 L350.734,228.055 L354.484,228.055 L354.484,228.416 C354.139,228.442 353.913,228.504 353.806,228.602 C353.698,228.699 353.645,228.839 353.645,229.021 C353.645,229.223 353.700,229.467 353.811,229.754 L355.725,234.900 L357.648,230.711 L357.141,229.393 C356.984,229.002 356.779,228.732 356.525,228.582 C356.382,228.491 356.115,228.436 355.725,228.416 L355.725,228.055 L359.982,228.055 L359.982,228.416 C359.514,228.436 359.182,228.520 358.986,228.670 C358.856,228.774 358.791,228.940 358.791,229.168 C358.791,229.298 358.817,229.432 358.869,229.568 L360.900,234.705 L362.785,229.754 C362.915,229.402 362.980,229.122 362.980,228.914 C362.980,228.790 362.917,228.680 362.790,228.582 C362.663,228.484 362.414,228.429 362.043,228.416 L362.043,228.055 L364.865,228.055 L364.865,228.416 C364.299,228.501 363.882,228.885 363.615,229.568 L360.627,237.273 ZM347.121,235.682 C347.707,235.682 348.216,235.521 348.649,235.198 C349.082,234.876 349.445,234.324 349.738,233.543 L350.041,233.738 C349.904,234.630 349.507,235.442 348.850,236.175 C348.192,236.907 347.368,237.273 346.379,237.273 C345.305,237.273 344.385,236.855 343.620,236.019 C342.855,235.182 342.473,234.057 342.473,232.645 C342.473,231.115 342.865,229.922 343.649,229.065 C344.434,228.209 345.419,227.781 346.604,227.781 C347.606,227.781 348.430,228.112 349.074,228.772 C349.719,229.433 350.041,230.317 350.041,231.424 L343.859,231.424 C343.853,232.752 344.175,233.794 344.826,234.549 C345.477,235.304 346.242,235.682 347.121,235.682 ZM348.000,230.857 C347.967,230.285 347.899,229.881 347.795,229.646 C347.632,229.282 347.390,228.996 347.067,228.787 C346.745,228.579 346.408,228.475 346.057,228.475 C345.516,228.475 345.033,228.685 344.606,229.104 C344.180,229.524 343.931,230.109 343.859,230.857 L348.000,230.857 ZM339.787,224.627 C339.644,224.835 339.572,225.311 339.572,226.053 L339.572,237.215 L339.221,237.215 L330.490,226.551 L330.490,234.705 C330.490,235.519 330.578,236.027 330.754,236.229 C331.001,236.502 331.382,236.639 331.896,236.639 L332.365,236.639 L332.365,237.000 L327.756,237.000 L327.756,236.639 L328.215,236.639 C328.781,236.639 329.182,236.469 329.416,236.131 C329.559,235.923 329.631,235.447 329.631,234.705 L329.631,225.496 C329.247,225.047 328.955,224.751 328.757,224.607 C328.558,224.464 328.267,224.331 327.883,224.207 C327.694,224.148 327.408,224.119 327.023,224.119 L327.023,223.758 L330.617,223.758 L338.713,233.689 L338.713,226.053 C338.713,225.239 338.622,224.731 338.439,224.529 C338.199,224.256 337.818,224.119 337.297,224.119 L336.838,224.119 L336.838,223.758 L341.447,223.758 L341.447,224.119 L340.979,224.119 C340.419,224.119 340.021,224.289 339.787,224.627 ZM318.176,231.316 L319.602,232.010 C320.923,232.654 321.584,233.504 321.584,234.559 C321.584,235.372 321.276,236.028 320.661,236.526 C320.046,237.024 319.357,237.273 318.596,237.273 C318.049,237.273 317.424,237.176 316.721,236.980 C316.506,236.915 316.330,236.883 316.193,236.883 C316.044,236.883 315.926,236.967 315.842,237.137 L315.520,237.137 L315.520,233.943 L315.842,233.943 C316.024,234.855 316.372,235.542 316.887,236.004 C317.401,236.466 317.977,236.697 318.615,236.697 C319.064,236.697 319.431,236.565 319.714,236.302 C319.997,236.038 320.139,235.721 320.139,235.350 C320.139,234.900 319.981,234.523 319.665,234.217 C319.349,233.911 318.719,233.523 317.775,233.055 C316.831,232.586 316.213,232.163 315.920,231.785 C315.627,231.414 315.480,230.945 315.480,230.379 C315.480,229.643 315.733,229.028 316.237,228.533 C316.742,228.039 317.395,227.791 318.195,227.791 C318.547,227.791 318.973,227.866 319.475,228.016 C319.807,228.113 320.028,228.162 320.139,228.162 C320.243,228.162 320.324,228.139 320.383,228.094 C320.441,228.048 320.510,227.947 320.588,227.791 L320.910,227.791 L320.910,230.838 L320.588,230.838 C320.340,229.881 320.023,229.230 319.636,228.885 C319.248,228.540 318.755,228.367 318.156,228.367 C317.700,228.367 317.333,228.488 317.053,228.729 C316.773,228.969 316.633,229.236 316.633,229.529 C316.633,229.894 316.737,230.206 316.945,230.467 C317.147,230.734 317.557,231.017 318.176,231.316 ZM311.018,235.682 C311.604,235.682 312.113,235.521 312.546,235.198 C312.979,234.876 313.342,234.324 313.635,233.543 L313.937,233.738 C313.801,234.630 313.404,235.442 312.746,236.175 C312.088,236.907 311.265,237.273 310.275,237.273 C309.201,237.273 308.282,236.855 307.517,236.019 C306.752,235.182 306.369,234.057 306.369,232.645 C306.369,231.115 306.761,229.922 307.546,229.065 C308.330,228.209 309.315,227.781 310.500,227.781 C311.503,227.781 312.326,228.112 312.971,228.772 C313.615,229.433 313.937,230.317 313.937,231.424 L307.756,231.424 C307.749,232.752 308.072,233.794 308.723,234.549 C309.374,235.304 310.139,235.682 311.018,235.682 ZM311.896,230.857 C311.864,230.285 311.795,229.881 311.691,229.646 C311.529,229.282 311.286,228.996 310.964,228.787 C310.642,228.579 310.305,228.475 309.953,228.475 C309.413,228.475 308.929,228.685 308.503,229.104 C308.076,229.524 307.827,230.109 307.756,230.857 L311.896,230.857 ZM301.125,236.648 L301.311,236.648 C301.695,236.648 301.994,236.574 302.209,236.424 C302.359,236.320 302.466,236.154 302.531,235.926 C302.557,235.815 302.570,235.499 302.570,234.979 L302.570,231.131 C302.570,230.402 302.482,229.887 302.307,229.588 C302.053,229.171 301.646,228.963 301.086,228.963 C300.741,228.963 300.394,229.049 300.046,229.222 C299.698,229.394 299.276,229.715 298.781,230.184 L298.762,230.291 L298.781,230.711 L298.781,234.979 C298.781,235.591 298.815,235.971 298.884,236.121 C298.952,236.271 299.081,236.396 299.270,236.497 C299.458,236.598 299.781,236.648 300.236,236.648 L300.236,237.000 L295.715,237.000 L295.715,236.648 C296.210,236.648 296.550,236.590 296.735,236.473 C296.921,236.355 297.049,236.180 297.121,235.945 C297.154,235.835 297.170,235.512 297.170,234.979 L297.170,231.131 C297.170,230.402 297.063,229.878 296.848,229.559 C296.561,229.142 296.161,228.934 295.646,228.934 C295.295,228.934 294.947,229.028 294.602,229.217 C294.061,229.503 293.645,229.826 293.352,230.184 L293.352,234.979 C293.352,235.564 293.392,235.945 293.474,236.121 C293.555,236.297 293.675,236.429 293.835,236.517 C293.994,236.604 294.318,236.648 294.807,236.648 L294.807,237.000 L290.383,237.000 L290.383,236.648 C290.793,236.648 291.079,236.604 291.242,236.517 C291.405,236.429 291.529,236.289 291.613,236.097 C291.698,235.905 291.740,235.532 291.740,234.979 L291.740,231.561 C291.740,230.578 291.711,229.943 291.652,229.656 C291.607,229.441 291.535,229.293 291.437,229.212 C291.340,229.131 291.206,229.090 291.037,229.090 C290.855,229.090 290.637,229.139 290.383,229.236 L290.236,228.885 L292.932,227.791 L293.352,227.791 L293.352,229.695 C294.003,229.044 294.387,228.670 294.504,228.572 C294.797,228.325 295.113,228.133 295.451,227.996 C295.790,227.859 296.125,227.791 296.457,227.791 C297.017,227.791 297.499,227.954 297.902,228.279 C298.306,228.605 298.576,229.077 298.713,229.695 C299.383,228.914 299.950,228.401 300.412,228.157 C300.874,227.913 301.350,227.791 301.838,227.791 C302.313,227.791 302.735,227.913 303.103,228.157 C303.470,228.401 303.762,228.800 303.977,229.354 C304.120,229.731 304.191,230.324 304.191,231.131 L304.191,234.979 C304.191,235.539 304.234,235.923 304.318,236.131 C304.383,236.274 304.504,236.396 304.680,236.497 C304.855,236.598 305.142,236.648 305.539,236.648 L305.539,237.000 L301.125,237.000 L301.125,236.648 ZM285.236,236.648 C285.672,236.648 285.965,236.606 286.115,236.521 C286.265,236.437 286.384,236.297 286.472,236.102 C286.560,235.906 286.604,235.532 286.604,234.979 L286.604,231.531 C286.604,230.561 286.574,229.933 286.516,229.646 C286.470,229.438 286.398,229.293 286.301,229.212 C286.203,229.131 286.070,229.090 285.900,229.090 C285.718,229.090 285.497,229.139 285.236,229.236 L285.100,228.885 L287.795,227.791 L288.225,227.791 L288.225,234.979 C288.225,235.539 288.265,235.911 288.347,236.097 C288.428,236.282 288.548,236.421 288.708,236.512 C288.867,236.603 289.159,236.648 289.582,236.648 L289.582,237.000 L285.236,237.000 L285.236,236.648 ZM287.414,225.096 C287.141,225.096 286.906,224.998 286.711,224.803 C286.516,224.607 286.418,224.373 286.418,224.100 C286.418,223.826 286.514,223.593 286.706,223.401 C286.898,223.209 287.134,223.113 287.414,223.113 C287.687,223.113 287.920,223.209 288.112,223.401 C288.304,223.593 288.400,223.826 288.400,224.100 C288.400,224.373 288.304,224.607 288.112,224.803 C287.920,224.998 287.687,225.096 287.414,225.096 ZM284.055,225.691 C283.853,225.314 283.584,225.036 283.249,224.856 C282.914,224.677 282.473,224.588 281.926,224.588 L280.061,224.588 L280.061,234.705 C280.061,235.519 280.148,236.027 280.324,236.229 C280.572,236.502 280.952,236.639 281.467,236.639 L281.926,236.639 L281.926,237.000 L276.311,237.000 L276.311,236.639 L276.779,236.639 C277.339,236.639 277.736,236.469 277.971,236.131 C278.114,235.923 278.186,235.447 278.186,234.705 L278.186,224.588 L276.594,224.588 C275.975,224.588 275.536,224.634 275.275,224.725 C274.937,224.848 274.647,225.086 274.406,225.438 C274.165,225.789 274.022,226.264 273.977,226.863 L273.605,226.863 L273.762,223.758 L284.572,223.758 L284.719,226.863 L284.348,226.863 C284.276,226.316 284.178,225.926 284.055,225.691 Z" class="cls-38"/>
      <path d="M415.383,263.064 C415.246,263.025 415.101,263.001 414.948,262.991 C414.795,262.981 414.611,262.977 414.396,262.977 C413.902,262.977 413.410,263.084 412.922,263.299 C412.434,263.514 411.971,263.833 411.535,264.256 L411.535,272.000 L409.699,272.000 L409.699,261.092 L411.535,261.092 L411.535,262.713 C412.206,262.121 412.790,261.702 413.288,261.458 C413.786,261.214 414.270,261.092 414.738,261.092 C414.927,261.092 415.069,261.097 415.163,261.106 C415.257,261.116 415.363,261.131 415.480,261.150 L415.480,263.064 L415.383,263.064 ZM405.295,270.838 C405.145,270.949 404.945,271.103 404.694,271.302 C404.444,271.500 404.201,271.658 403.967,271.775 C403.641,271.945 403.327,272.075 403.024,272.166 C402.722,272.257 402.297,272.303 401.750,272.303 C401.301,272.303 400.874,272.218 400.471,272.049 C400.067,271.880 399.712,271.642 399.406,271.336 C399.113,271.037 398.879,270.667 398.703,270.228 C398.527,269.788 398.439,269.324 398.439,268.836 C398.439,268.081 398.599,267.438 398.918,266.907 C399.237,266.377 399.741,265.955 400.432,265.643 C401.044,265.363 401.766,265.169 402.600,265.062 C403.433,264.954 404.331,264.874 405.295,264.822 L405.295,264.471 C405.295,264.041 405.230,263.694 405.100,263.431 C404.969,263.167 404.787,262.964 404.553,262.820 C404.318,262.671 404.032,262.571 403.693,262.522 C403.355,262.474 403.006,262.449 402.648,262.449 C402.225,262.449 401.727,262.513 401.154,262.640 C400.581,262.767 400.008,262.951 399.436,263.191 L399.328,263.191 L399.328,261.326 C399.667,261.229 400.152,261.121 400.783,261.004 C401.415,260.887 402.040,260.828 402.658,260.828 C403.407,260.828 404.038,260.887 404.553,261.004 C405.067,261.121 405.529,261.333 405.939,261.639 C406.336,261.938 406.633,262.326 406.828,262.801 C407.023,263.276 407.121,263.855 407.121,264.539 L407.121,272.000 L405.295,272.000 L405.295,270.838 ZM405.295,266.287 C404.859,266.326 404.307,266.380 403.640,266.448 C402.972,266.517 402.434,266.613 402.023,266.736 C401.535,266.886 401.131,267.116 400.813,267.425 C400.493,267.734 400.334,268.165 400.334,268.719 C400.334,269.344 400.510,269.816 400.861,270.135 C401.213,270.454 401.727,270.613 402.404,270.613 C402.984,270.613 403.508,270.488 403.977,270.237 C404.445,269.987 404.885,269.679 405.295,269.314 L405.295,266.287 ZM394.670,256.805 L396.506,256.805 L396.506,272.000 L394.670,272.000 L394.670,256.805 ZM390.139,270.789 C389.572,271.284 389.035,271.660 388.527,271.917 C388.020,272.174 387.453,272.303 386.828,272.303 C386.353,272.303 385.905,272.225 385.485,272.068 C385.065,271.912 384.699,271.665 384.387,271.326 C384.074,270.988 383.832,270.561 383.659,270.047 C383.487,269.533 383.400,268.908 383.400,268.172 L383.400,261.092 L385.236,261.092 L385.236,267.303 C385.236,267.882 385.257,268.362 385.300,268.743 C385.342,269.124 385.438,269.458 385.588,269.744 C385.738,270.024 385.941,270.229 386.198,270.359 C386.455,270.490 386.825,270.555 387.307,270.555 C387.756,270.555 388.234,270.428 388.742,270.174 C389.250,269.920 389.715,269.607 390.139,269.236 L390.139,261.092 L391.975,261.092 L391.975,272.000 L390.139,272.000 L390.139,270.789 ZM375.910,276.131 C375.376,276.131 374.831,276.088 374.274,276.004 C373.718,275.919 373.199,275.805 372.717,275.662 L372.717,273.748 L372.814,273.748 C372.938,273.800 373.120,273.870 373.361,273.958 C373.602,274.046 373.876,274.129 374.182,274.207 C374.520,274.292 374.833,274.360 375.119,274.412 C375.406,274.464 375.718,274.490 376.057,274.490 C376.623,274.490 377.103,274.415 377.497,274.266 C377.891,274.116 378.199,273.908 378.420,273.641 C378.628,273.374 378.775,273.064 378.859,272.713 C378.944,272.361 378.986,271.961 378.986,271.512 L378.986,270.555 C378.491,270.984 378.006,271.302 377.531,271.507 C377.056,271.712 376.460,271.814 375.744,271.814 C374.501,271.814 373.511,271.352 372.775,270.428 C372.040,269.503 371.672,268.175 371.672,266.443 C371.672,265.539 371.799,264.736 372.053,264.036 C372.307,263.336 372.648,262.742 373.078,262.254 C373.488,261.785 373.973,261.424 374.533,261.170 C375.093,260.916 375.672,260.789 376.271,260.789 C376.838,260.789 377.328,260.856 377.741,260.989 C378.155,261.123 378.570,261.313 378.986,261.561 L379.094,261.092 L380.822,261.092 L380.822,270.760 C380.822,272.609 380.419,273.966 379.611,274.832 C378.804,275.698 377.570,276.131 375.910,276.131 ZM378.986,263.055 C378.531,262.833 378.109,262.676 377.722,262.581 C377.334,262.487 376.949,262.439 376.564,262.439 C375.633,262.439 374.901,262.781 374.367,263.465 C373.833,264.148 373.566,265.128 373.566,266.404 C373.566,267.615 373.770,268.537 374.177,269.168 C374.584,269.800 375.243,270.115 376.154,270.115 C376.629,270.115 377.119,270.021 377.624,269.832 C378.128,269.643 378.583,269.380 378.986,269.041 L378.986,263.055 ZM363.967,269.646 C364.605,270.317 365.487,270.652 366.613,270.652 C367.017,270.652 367.412,270.607 367.800,270.516 C368.187,270.425 368.537,270.307 368.850,270.164 C369.182,270.014 369.461,269.870 369.689,269.729 C369.917,269.590 370.106,269.458 370.256,269.334 L370.363,269.334 L370.363,271.336 C370.148,271.421 369.881,271.526 369.562,271.653 C369.243,271.780 368.957,271.880 368.703,271.951 C368.345,272.049 368.021,272.124 367.731,272.176 C367.442,272.228 367.075,272.254 366.633,272.254 C364.895,272.254 363.545,271.764 362.585,270.784 C361.625,269.804 361.145,268.413 361.145,266.609 C361.145,264.832 361.610,263.418 362.541,262.366 C363.472,261.315 364.689,260.789 366.193,260.789 C366.870,260.789 367.469,260.887 367.990,261.082 C368.511,261.277 368.967,261.583 369.357,262.000 C369.748,262.417 370.047,262.926 370.256,263.528 C370.464,264.131 370.568,264.868 370.568,265.740 L370.568,266.736 L363.010,266.736 C363.010,268.006 363.329,268.976 363.967,269.646 ZM368.781,265.330 C368.768,264.835 368.710,264.409 368.605,264.051 C368.501,263.693 368.352,263.390 368.156,263.143 C367.941,262.869 367.666,262.661 367.331,262.518 C366.996,262.374 366.581,262.303 366.086,262.303 C365.598,262.303 365.183,262.376 364.841,262.522 C364.499,262.669 364.188,262.882 363.908,263.162 C363.635,263.449 363.426,263.766 363.283,264.114 C363.140,264.463 363.049,264.868 363.010,265.330 L368.781,265.330 ZM356.076,265.672 L361.252,272.000 L358.742,272.000 L354.133,266.219 L351.926,266.219 L351.926,272.000 L349.992,272.000 L349.992,257.459 L353.742,257.459 C354.575,257.459 355.274,257.505 355.837,257.596 C356.400,257.687 356.936,257.898 357.443,258.230 C357.951,258.556 358.353,258.976 358.649,259.490 C358.946,260.005 359.094,260.643 359.094,261.404 C359.094,262.472 358.824,263.364 358.283,264.080 C357.743,264.796 357.007,265.327 356.076,265.672 ZM356.848,260.423 C356.698,260.094 356.467,259.826 356.154,259.617 C355.881,259.435 355.562,259.306 355.197,259.231 C354.833,259.157 354.380,259.119 353.840,259.119 L351.926,259.119 L351.926,264.607 L353.625,264.607 C354.178,264.607 354.676,264.559 355.119,264.461 C355.562,264.363 355.939,264.162 356.252,263.855 C356.532,263.582 356.739,263.257 356.872,262.879 C357.005,262.501 357.072,262.059 357.072,261.551 C357.072,261.128 356.997,260.752 356.848,260.423 ZM339.191,270.838 C339.042,270.949 338.841,271.103 338.591,271.302 C338.340,271.500 338.098,271.658 337.863,271.775 C337.538,271.945 337.224,272.075 336.921,272.166 C336.618,272.257 336.193,272.303 335.646,272.303 C335.197,272.303 334.771,272.218 334.367,272.049 C333.963,271.880 333.609,271.642 333.303,271.336 C333.010,271.037 332.775,270.667 332.600,270.228 C332.424,269.788 332.336,269.324 332.336,268.836 C332.336,268.081 332.495,267.438 332.814,266.907 C333.133,266.377 333.638,265.955 334.328,265.643 C334.940,265.363 335.663,265.169 336.496,265.062 C337.329,264.954 338.228,264.874 339.191,264.822 L339.191,264.471 C339.191,264.041 339.126,263.694 338.996,263.431 C338.866,263.167 338.684,262.964 338.449,262.820 C338.215,262.671 337.928,262.571 337.590,262.522 C337.251,262.474 336.903,262.449 336.545,262.449 C336.122,262.449 335.624,262.513 335.051,262.640 C334.478,262.767 333.905,262.951 333.332,263.191 L333.225,263.191 L333.225,261.326 C333.563,261.229 334.048,261.121 334.680,261.004 C335.311,260.887 335.936,260.828 336.555,260.828 C337.303,260.828 337.935,260.887 338.449,261.004 C338.963,261.121 339.426,261.333 339.836,261.639 C340.233,261.938 340.529,262.326 340.725,262.801 C340.920,263.276 341.018,263.855 341.018,264.539 L341.018,272.000 L339.191,272.000 L339.191,270.838 ZM339.191,266.287 C338.755,266.326 338.203,266.380 337.536,266.448 C336.869,266.517 336.330,266.613 335.920,266.736 C335.432,266.886 335.028,267.116 334.709,267.425 C334.390,267.734 334.230,268.165 334.230,268.719 C334.230,269.344 334.406,269.816 334.758,270.135 C335.109,270.454 335.624,270.613 336.301,270.613 C336.880,270.613 337.404,270.488 337.873,270.237 C338.342,269.987 338.781,269.679 339.191,269.314 L339.191,266.287 ZM328.684,265.691 C328.684,265.190 328.664,264.726 328.625,264.300 C328.586,263.873 328.504,263.540 328.381,263.299 C328.251,263.039 328.065,262.846 327.824,262.723 C327.583,262.599 327.258,262.537 326.848,262.537 C326.470,262.537 326.065,262.653 325.632,262.884 C325.199,263.115 324.751,263.449 324.289,263.885 C324.295,263.996 324.304,264.127 324.313,264.280 C324.323,264.433 324.328,264.614 324.328,264.822 L324.328,272.000 L322.492,272.000 L322.492,265.691 C322.492,265.190 322.473,264.726 322.434,264.300 C322.395,263.873 322.313,263.540 322.189,263.299 C322.059,263.039 321.874,262.846 321.633,262.723 C321.392,262.599 321.066,262.537 320.656,262.537 C320.259,262.537 319.842,262.661 319.406,262.908 C318.970,263.156 318.547,263.471 318.137,263.855 L318.137,272.000 L316.301,272.000 L316.301,261.092 L318.137,261.092 L318.137,262.303 C318.618,261.821 319.095,261.448 319.567,261.185 C320.039,260.921 320.559,260.789 321.125,260.789 C321.770,260.789 322.341,260.936 322.839,261.229 C323.337,261.521 323.716,262.003 323.977,262.674 C324.530,262.055 325.070,261.587 325.598,261.268 C326.125,260.949 326.698,260.789 327.316,260.789 C327.785,260.789 328.211,260.862 328.596,261.009 C328.980,261.155 329.315,261.391 329.602,261.717 C329.895,262.049 330.121,262.462 330.280,262.957 C330.440,263.452 330.520,264.074 330.520,264.822 L330.520,272.000 L328.684,272.000 L328.684,265.691 ZM309.553,272.303 C308.036,272.303 306.843,271.787 305.974,270.755 C305.104,269.723 304.670,268.322 304.670,266.551 C304.670,264.728 305.117,263.312 306.013,262.303 C306.908,261.294 308.088,260.789 309.553,260.789 C311.024,260.789 312.202,261.292 313.088,262.298 C313.973,263.304 314.416,264.721 314.416,266.551 C314.416,268.387 313.973,269.804 313.088,270.804 C312.202,271.803 311.024,272.303 309.553,272.303 ZM311.750,263.401 C311.236,262.715 310.503,262.371 309.553,262.371 C308.596,262.371 307.858,262.715 307.341,263.401 C306.823,264.088 306.564,265.138 306.564,266.551 C306.564,267.918 306.823,268.955 307.341,269.661 C307.858,270.368 308.596,270.721 309.553,270.721 C310.497,270.721 311.228,270.374 311.745,269.681 C312.263,268.987 312.521,267.944 312.521,266.551 C312.521,265.138 312.264,264.088 311.750,263.401 ZM301.027,265.789 C301.027,265.288 301.003,264.821 300.954,264.388 C300.905,263.955 300.812,263.608 300.676,263.348 C300.526,263.074 300.318,262.871 300.051,262.737 C299.784,262.604 299.419,262.537 298.957,262.537 C298.501,262.537 298.031,262.659 297.546,262.903 C297.061,263.147 296.587,263.465 296.125,263.855 L296.125,272.000 L294.289,272.000 L294.289,256.805 L296.125,256.805 L296.125,262.303 C296.672,261.814 297.212,261.440 297.746,261.180 C298.280,260.919 298.843,260.789 299.436,260.789 C300.510,260.789 301.350,261.142 301.955,261.849 C302.561,262.555 302.863,263.579 302.863,264.920 L302.863,272.000 L301.027,272.000 L301.027,265.789 ZM289.885,270.838 C289.735,270.949 289.535,271.103 289.284,271.302 C289.033,271.500 288.791,271.658 288.557,271.775 C288.231,271.945 287.917,272.075 287.614,272.166 C287.312,272.257 286.887,272.303 286.340,272.303 C285.891,272.303 285.464,272.218 285.061,272.049 C284.657,271.880 284.302,271.642 283.996,271.336 C283.703,271.037 283.469,270.667 283.293,270.228 C283.117,269.788 283.029,269.324 283.029,268.836 C283.029,268.081 283.189,267.438 283.508,266.907 C283.827,266.377 284.331,265.955 285.021,265.643 C285.633,265.363 286.356,265.169 287.189,265.062 C288.023,264.954 288.921,264.874 289.885,264.822 L289.885,264.471 C289.885,264.041 289.820,263.694 289.689,263.431 C289.559,263.167 289.377,262.964 289.143,262.820 C288.908,262.671 288.622,262.571 288.283,262.522 C287.945,262.474 287.596,262.449 287.238,262.449 C286.815,262.449 286.317,262.513 285.744,262.640 C285.171,262.767 284.598,262.951 284.025,263.191 L283.918,263.191 L283.918,261.326 C284.256,261.229 284.741,261.121 285.373,261.004 C286.004,260.887 286.629,260.828 287.248,260.828 C287.997,260.828 288.628,260.887 289.143,261.004 C289.657,261.121 290.119,261.333 290.529,261.639 C290.926,261.938 291.223,262.326 291.418,262.801 C291.613,263.276 291.711,263.855 291.711,264.539 L291.711,272.000 L289.885,272.000 L289.885,270.838 ZM289.885,266.287 C289.449,266.326 288.897,266.380 288.229,266.448 C287.562,266.517 287.023,266.613 286.613,266.736 C286.125,266.886 285.721,267.116 285.402,267.425 C285.083,267.734 284.924,268.165 284.924,268.719 C284.924,269.344 285.100,269.816 285.451,270.135 C285.803,270.454 286.317,270.613 286.994,270.613 C287.574,270.613 288.098,270.488 288.566,270.237 C289.035,269.987 289.475,269.679 289.885,269.314 L289.885,266.287 ZM279.807,272.000 L277.873,272.000 L277.873,259.178 L272.990,259.178 L272.990,257.459 L284.689,257.459 L284.689,259.178 L279.807,259.178 L279.807,272.000 Z" class="cls-38"/>
      <path d="M413.225,297.369 C412.958,297.311 412.736,297.281 412.561,297.281 C411.187,297.281 410.500,298.076 410.500,299.664 L410.500,304.000 L406.340,304.000 L406.340,294.000 L410.500,294.000 L410.500,295.758 L410.539,295.758 C410.793,295.126 411.154,294.646 411.623,294.317 C412.092,293.989 412.639,293.824 413.264,293.824 C413.491,293.824 413.690,293.863 413.859,293.941 L413.859,297.564 C413.703,297.493 413.491,297.428 413.225,297.369 ZM400.666,302.477 L400.627,302.477 C399.963,303.655 398.947,304.244 397.580,304.244 C396.636,304.244 395.897,303.964 395.363,303.404 C394.829,302.844 394.563,302.096 394.563,301.158 C394.563,299.192 395.770,298.053 398.186,297.740 L400.666,297.418 C400.666,297.092 400.520,296.826 400.227,296.617 C399.934,296.409 399.540,296.305 399.045,296.305 C397.925,296.305 396.743,296.624 395.500,297.262 L395.500,294.557 C396.040,294.322 396.717,294.130 397.531,293.980 C398.345,293.831 399.042,293.756 399.621,293.756 C401.320,293.756 402.552,294.119 403.317,294.845 C404.082,295.571 404.465,296.783 404.465,298.482 L404.465,304.000 L400.666,304.000 L400.666,302.477 ZM400.666,299.420 L399.260,299.615 C398.557,299.732 398.205,300.061 398.205,300.602 C398.205,300.875 398.291,301.100 398.464,301.275 C398.636,301.451 398.882,301.539 399.201,301.539 C399.637,301.539 399.991,301.376 400.261,301.051 C400.531,300.725 400.666,300.309 400.666,299.801 L400.666,299.420 ZM388.957,289.195 L393.117,289.195 L393.117,304.000 L388.957,304.000 L388.957,289.195 ZM382.805,302.457 L382.766,302.457 C382.420,302.932 382.110,303.281 381.833,303.502 C381.556,303.723 381.244,303.902 380.896,304.039 C380.547,304.176 380.142,304.244 379.680,304.244 C378.586,304.244 377.753,303.889 377.180,303.180 C376.607,302.470 376.320,301.422 376.320,300.035 L376.320,294.000 L380.480,294.000 L380.480,299.723 C380.480,300.706 380.848,301.197 381.584,301.197 C381.988,301.197 382.292,301.064 382.497,300.797 C382.702,300.530 382.805,300.152 382.805,299.664 L382.805,294.000 L386.965,294.000 L386.965,304.000 L382.805,304.000 L382.805,302.457 ZM367.336,308.697 C366.711,308.697 366.105,308.648 365.520,308.551 C364.934,308.453 364.514,308.342 364.260,308.219 L364.260,304.957 C364.676,305.217 365.165,305.426 365.725,305.582 C366.284,305.738 366.783,305.816 367.219,305.816 C368.150,305.816 368.895,305.592 369.455,305.143 C370.015,304.693 370.295,304.098 370.295,303.355 L370.295,302.740 L370.256,302.740 C369.956,303.196 369.544,303.561 369.021,303.834 C368.496,304.107 367.935,304.244 367.336,304.244 C366.047,304.244 365.028,303.797 364.279,302.901 C363.531,302.006 363.156,300.771 363.156,299.195 C363.156,298.115 363.352,297.161 363.742,296.334 C364.133,295.507 364.676,294.871 365.373,294.425 C366.070,293.979 366.838,293.756 367.678,293.756 C368.830,293.756 369.689,294.182 370.256,295.035 L370.295,295.035 L370.295,294.000 L374.436,294.000 L374.436,302.604 C374.436,304.524 373.832,306.020 372.624,307.091 C371.416,308.162 369.654,308.697 367.336,308.697 ZM370.363,298.717 C370.363,298.131 370.231,297.665 369.968,297.320 C369.704,296.975 369.354,296.803 368.918,296.803 C368.449,296.803 368.075,297.011 367.795,297.428 C367.515,297.844 367.375,298.401 367.375,299.098 C367.375,299.742 367.492,300.253 367.727,300.631 C367.961,301.009 368.332,301.197 368.840,301.197 C369.315,301.197 369.688,301.004 369.958,300.616 C370.228,300.229 370.363,299.710 370.363,299.059 L370.363,298.717 ZM356.721,301.192 C357.144,301.437 357.704,301.559 358.400,301.559 C359.370,301.559 360.288,301.373 361.154,301.002 L361.154,303.639 C360.145,304.042 358.921,304.244 357.482,304.244 C355.738,304.244 354.380,303.798 353.410,302.906 C352.440,302.014 351.955,300.787 351.955,299.225 C351.955,298.150 352.168,297.203 352.595,296.383 C353.021,295.562 353.653,294.920 354.489,294.454 C355.326,293.989 356.249,293.756 357.258,293.756 C358.293,293.756 359.178,293.958 359.914,294.361 C360.650,294.765 361.208,295.331 361.589,296.061 C361.970,296.790 362.160,297.643 362.160,298.619 L362.160,300.182 L355.979,300.182 C356.050,300.611 356.297,300.948 356.721,301.192 ZM358.479,298.004 C358.479,296.852 358.065,296.275 357.238,296.275 C356.893,296.275 356.604,296.433 356.369,296.749 C356.135,297.065 355.998,297.483 355.959,298.004 L358.479,298.004 ZM348.718,298.609 C349.112,299.020 349.465,299.628 349.777,300.436 L351.154,304.000 L346.398,304.000 L345.354,300.982 C345.152,300.390 344.890,299.925 344.567,299.586 C344.245,299.247 343.895,299.078 343.518,299.078 L343.352,299.078 L343.352,304.000 L339.133,304.000 L339.133,289.996 L344.738,289.996 C346.698,289.996 348.145,290.317 349.079,290.958 C350.013,291.599 350.480,292.561 350.480,293.844 C350.480,294.807 350.209,295.615 349.665,296.266 C349.121,296.917 348.313,297.389 347.238,297.682 L347.238,297.721 C347.831,297.903 348.324,298.199 348.718,298.609 ZM345.568,293.326 C345.282,293.053 344.833,292.916 344.221,292.916 L343.352,292.916 L343.352,296.119 L344.113,296.119 C344.680,296.119 345.135,295.960 345.480,295.641 C345.825,295.322 345.998,294.921 345.998,294.439 C345.998,293.971 345.855,293.600 345.568,293.326 ZM326.320,301.192 C326.743,301.437 327.303,301.559 328.000,301.559 C328.970,301.559 329.888,301.373 330.754,301.002 L330.754,303.639 C329.745,304.042 328.521,304.244 327.082,304.244 C325.337,304.244 323.980,303.798 323.010,302.906 C322.040,302.014 321.555,300.787 321.555,299.225 C321.555,298.150 321.768,297.203 322.194,296.383 C322.621,295.562 323.252,294.920 324.089,294.454 C324.925,293.989 325.848,293.756 326.857,293.756 C327.893,293.756 328.778,293.958 329.514,294.361 C330.249,294.765 330.808,295.331 331.188,296.061 C331.569,296.790 331.760,297.643 331.760,298.619 L331.760,300.182 L325.578,300.182 C325.650,300.611 325.897,300.948 326.320,301.192 ZM328.078,298.004 C328.078,296.852 327.665,296.275 326.838,296.275 C326.493,296.275 326.203,296.433 325.969,296.749 C325.734,297.065 325.598,297.483 325.559,298.004 L328.078,298.004 ZM312.893,308.697 C312.268,308.697 311.662,308.648 311.076,308.551 C310.490,308.453 310.070,308.342 309.816,308.219 L309.816,304.957 C310.233,305.217 310.721,305.426 311.281,305.582 C311.841,305.738 312.339,305.816 312.775,305.816 C313.706,305.816 314.452,305.592 315.012,305.143 C315.572,304.693 315.852,304.098 315.852,303.355 L315.852,302.740 L315.813,302.740 C315.513,303.196 315.101,303.561 314.577,303.834 C314.053,304.107 313.491,304.244 312.893,304.244 C311.604,304.244 310.585,303.797 309.836,302.901 C309.087,302.006 308.713,300.771 308.713,299.195 C308.713,298.115 308.908,297.161 309.299,296.334 C309.689,295.507 310.233,294.871 310.930,294.425 C311.626,293.979 312.395,293.756 313.234,293.756 C314.387,293.756 315.246,294.182 315.813,295.035 L315.852,295.035 L315.852,294.000 L319.992,294.000 L319.992,302.604 C319.992,304.524 319.388,306.020 318.181,307.091 C316.973,308.162 315.210,308.697 312.893,308.697 ZM315.920,298.717 C315.920,298.131 315.788,297.665 315.524,297.320 C315.261,296.975 314.911,296.803 314.475,296.803 C314.006,296.803 313.631,297.011 313.352,297.428 C313.072,297.844 312.932,298.401 312.932,299.098 C312.932,299.742 313.049,300.253 313.283,300.631 C313.518,301.009 313.889,301.197 314.396,301.197 C314.872,301.197 315.244,301.004 315.515,300.616 C315.785,300.229 315.920,299.710 315.920,299.059 L315.920,298.717 ZM303.000,302.457 L302.961,302.457 C302.616,302.932 302.305,303.281 302.028,303.502 C301.752,303.723 301.439,303.902 301.091,304.039 C300.742,304.176 300.337,304.244 299.875,304.244 C298.781,304.244 297.948,303.889 297.375,303.180 C296.802,302.470 296.516,301.422 296.516,300.035 L296.516,294.000 L300.676,294.000 L300.676,299.723 C300.676,300.706 301.044,301.197 301.779,301.197 C302.183,301.197 302.487,301.064 302.692,300.797 C302.897,300.530 303.000,300.152 303.000,299.664 L303.000,294.000 L307.160,294.000 L307.160,304.000 L303.000,304.000 L303.000,302.457 ZM289.758,301.192 C290.181,301.437 290.741,301.559 291.437,301.559 C292.408,301.559 293.325,301.373 294.191,301.002 L294.191,303.639 C293.182,304.042 291.958,304.244 290.520,304.244 C288.775,304.244 287.417,303.798 286.447,302.906 C285.477,302.014 284.992,300.787 284.992,299.225 C284.992,298.150 285.205,297.203 285.632,296.383 C286.058,295.562 286.690,294.920 287.526,294.454 C288.363,293.989 289.286,293.756 290.295,293.756 C291.330,293.756 292.215,293.958 292.951,294.361 C293.687,294.765 294.245,295.331 294.626,296.061 C295.007,296.790 295.197,297.643 295.197,298.619 L295.197,300.182 L289.016,300.182 C289.087,300.611 289.335,300.948 289.758,301.192 ZM291.516,298.004 C291.516,296.852 291.102,296.275 290.275,296.275 C289.930,296.275 289.641,296.433 289.406,296.749 C289.172,297.065 289.035,297.483 288.996,298.004 L291.516,298.004 ZM280.119,295.357 C281.571,295.943 282.598,296.585 283.200,297.281 C283.802,297.978 284.104,298.805 284.104,299.762 C284.104,300.693 283.854,301.503 283.356,302.193 C282.858,302.884 282.160,303.398 281.262,303.736 C280.363,304.075 279.283,304.244 278.020,304.244 C276.555,304.244 275.213,303.997 273.996,303.502 L273.996,299.664 C274.582,300.094 275.230,300.440 275.939,300.704 C276.649,300.968 277.310,301.100 277.922,301.100 C278.384,301.100 278.742,301.017 278.996,300.851 C279.250,300.685 279.377,300.442 279.377,300.123 C279.377,299.895 279.313,299.695 279.187,299.522 C279.060,299.350 278.867,299.189 278.610,299.039 C278.353,298.889 277.876,298.684 277.180,298.424 C274.927,297.558 273.801,296.158 273.801,294.225 C273.801,292.871 274.315,291.788 275.344,290.978 C276.372,290.167 277.753,289.762 279.484,289.762 C279.973,289.762 280.422,289.781 280.832,289.820 C281.242,289.859 281.615,289.908 281.950,289.967 C282.285,290.025 282.756,290.136 283.361,290.299 L283.361,293.863 C282.183,293.219 281.024,292.896 279.885,292.896 C279.416,292.896 279.038,292.984 278.752,293.160 C278.465,293.336 278.322,293.577 278.322,293.883 C278.322,294.176 278.438,294.418 278.669,294.610 C278.900,294.802 279.383,295.051 280.119,295.357 Z" class="cls-38"/>
    </g>
  </g>
</svg>
