<svg xmlns="http://www.w3.org/2000/svg" xmlns:xlink="http://www.w3.org/1999/xlink" preserveAspectRatio="xMidYMid" width="421" height="359" viewBox="0 0 421 359">
  <defs>
    <style>
      .cls-1, .cls-4 {
        fill: #fff;
      }

      .cls-2 {
        stroke: #a1a1a1;
        stroke-dasharray: 4,2;
      }

      .cls-10, .cls-2 {
        stroke-width: 1px;
        fill: none;
      }

      .cls-3 {
        fill: #593072;
      }

      .cls-10, .cls-4, .cls-6, .cls-8 {
        fill-rule: evenodd;
      }

      .cls-5 {
        fill: #163844;
      }

      .cls-6 {
        fill: #93c832;
      }

      .cls-7 {
        fill: #1d3163;
      }

      .cls-8 {
        fill: #4288ae;
      }

      .cls-9 {
        fill: #490632;
      }

      .cls-10 {
        stroke: #fff;
      }
    </style>
  </defs>
  <g>
    <rect width="421" height="359" rx="20" ry="20" class="cls-1"/>
    <g>
      <rect x="219" y="25" width="177" height="140" rx="10" ry="10" class="cls-2"/>
      <g>
        <rect x="25" y="183.563" width="176.906" height="140.437" rx="10" ry="10" class="cls-3"/>
        <g>
          <path d="M155.526,268.836 C154.960,268.836 154.507,268.948 154.167,269.171 C153.827,269.394 153.657,269.696 153.657,270.077 C153.657,270.300 153.721,270.486 153.848,270.635 C153.976,270.783 154.190,270.916 154.492,271.032 C154.794,271.149 155.224,271.262 155.781,271.374 C157.074,271.653 158.005,272.015 158.577,272.461 C159.148,272.907 159.433,273.516 159.433,274.287 C159.433,275.217 159.065,275.953 158.329,276.497 C157.593,277.040 156.569,277.312 155.257,277.312 C154.492,277.312 153.759,277.212 153.055,277.013 C152.352,276.812 151.769,276.532 151.307,276.169 L152.015,274.607 C152.987,275.277 154.072,275.611 155.271,275.611 C155.913,275.611 156.406,275.512 156.750,275.311 C157.095,275.112 157.267,274.831 157.267,274.468 C157.267,274.152 157.109,273.903 156.793,273.723 C156.477,273.541 155.922,273.367 155.129,273.200 C154.242,273.024 153.537,272.807 153.013,272.552 C152.489,272.296 152.107,271.985 151.866,271.617 C151.626,271.250 151.505,270.793 151.505,270.244 C151.505,269.650 151.673,269.115 152.008,268.641 C152.343,268.167 152.812,267.798 153.416,267.533 C154.020,267.268 154.719,267.136 155.512,267.136 C156.229,267.136 156.918,267.238 157.579,267.443 C158.239,267.647 158.768,267.926 159.164,268.279 L158.456,269.840 C157.569,269.171 156.592,268.836 155.526,268.836 ZM142.827,267.261 L149.778,267.261 L149.778,268.948 L144.979,268.948 L144.979,271.290 L149.481,271.290 L149.481,272.991 L144.979,272.991 L144.979,275.500 L149.778,275.500 L149.778,277.186 L142.827,277.186 L142.827,267.261 ZM138.269,271.764 L135.947,277.186 L134.517,277.186 L132.181,271.834 L132.181,277.186 L130.242,277.186 L130.242,267.261 L131.997,267.261 L135.253,274.580 L138.481,267.261 L140.222,267.261 L140.222,277.186 L138.269,277.186 L138.269,271.764 ZM125.627,276.692 C124.891,277.105 124.022,277.312 123.022,277.312 C122.021,277.312 121.151,277.105 120.410,276.692 C119.669,276.278 119.098,275.686 118.697,274.914 C118.296,274.143 118.095,273.242 118.095,272.210 C118.095,271.179 118.296,270.282 118.697,269.520 C119.098,268.757 119.669,268.170 120.410,267.756 C121.151,267.343 122.021,267.136 123.022,267.136 C124.022,267.136 124.891,267.343 125.627,267.756 C126.363,268.170 126.929,268.757 127.326,269.520 C127.722,270.282 127.920,271.179 127.920,272.210 C127.920,273.242 127.722,274.143 127.326,274.914 C126.929,275.686 126.363,276.278 125.627,276.692 ZM125.011,269.701 C124.534,269.124 123.871,268.836 123.022,268.836 C122.173,268.836 121.509,269.124 121.033,269.701 C120.556,270.278 120.318,271.114 120.318,272.210 C120.318,273.316 120.556,274.159 121.033,274.740 C121.509,275.321 122.173,275.611 123.022,275.611 C123.871,275.611 124.534,275.318 125.011,274.733 C125.487,274.148 125.726,273.307 125.726,272.210 C125.726,271.114 125.487,270.278 125.011,269.701 ZM113.636,273.019 L108.964,273.019 L108.964,277.186 L106.798,277.186 L106.798,267.261 L108.964,267.261 L108.964,271.276 L113.636,271.276 L113.636,267.261 L115.802,267.261 L115.802,277.186 L113.636,277.186 L113.636,273.019 ZM93.208,267.261 L100.159,267.261 L100.159,268.948 L95.360,268.948 L95.360,271.290 L99.862,271.290 L99.862,272.991 L95.360,272.991 L95.360,275.500 L100.159,275.500 L100.159,277.186 L93.208,277.186 L93.208,267.261 ZM83.950,270.858 L83.950,277.186 L81.883,277.186 L81.883,267.261 L83.511,267.261 L88.536,273.576 L88.536,267.261 L90.617,267.261 L90.617,277.186 L88.975,277.186 L83.950,270.858 ZM77.084,267.261 L79.292,267.261 L79.292,277.186 L77.084,277.186 L77.084,267.261 ZM70.515,271.276 L74.847,271.276 L74.847,273.005 L70.515,273.005 L70.515,277.186 L68.335,277.186 L68.335,267.261 L75.130,267.261 L75.130,268.976 L70.515,268.976 L70.515,271.276 Z" class="cls-4"/>
          <path d="M158.247,282.700 C157.998,282.479 157.647,282.368 157.194,282.368 C156.773,282.368 156.445,282.460 156.210,282.642 C155.974,282.825 155.856,283.078 155.856,283.403 C155.856,283.663 155.968,283.882 156.192,284.063 C156.416,284.242 156.796,284.407 157.334,284.555 C157.872,284.705 158.292,284.869 158.596,285.049 C158.900,285.228 159.125,285.437 159.271,285.676 C159.418,285.915 159.491,286.198 159.491,286.521 C159.491,287.037 159.287,287.450 158.878,287.761 C158.469,288.072 157.923,288.227 157.239,288.227 C156.794,288.227 156.379,288.144 155.994,287.976 C155.609,287.808 155.312,287.578 155.103,287.287 C154.894,286.995 154.790,286.664 154.790,286.293 L155.648,286.293 C155.648,286.678 155.792,286.983 156.081,287.206 C156.370,287.429 156.756,287.540 157.239,287.540 C157.689,287.540 158.034,287.450 158.274,287.269 C158.514,287.088 158.634,286.842 158.634,286.530 C158.634,286.218 158.523,285.976 158.301,285.806 C158.078,285.635 157.675,285.466 157.092,285.300 C156.360,285.093 155.828,284.838 155.494,284.537 C155.161,284.234 154.994,283.862 154.994,283.418 C154.994,282.917 155.198,282.502 155.605,282.173 C156.013,281.845 156.542,281.681 157.194,281.681 C157.638,281.681 158.035,281.766 158.383,281.935 C158.731,282.104 159.000,282.337 159.192,282.635 C159.383,282.933 159.478,283.258 159.478,283.611 L158.621,283.611 C158.621,283.225 158.496,282.921 158.247,282.700 ZM147.917,283.230 L147.917,288.140 L147.060,288.140 L147.060,281.769 L147.917,281.769 L151.183,286.700 L151.183,281.769 L152.032,281.769 L152.032,288.140 L151.174,288.140 L147.917,283.230 ZM142.915,287.860 C142.524,288.105 142.068,288.227 141.546,288.227 C141.037,288.227 140.585,288.104 140.191,287.858 C139.797,287.612 139.491,287.260 139.274,286.803 C139.056,286.347 138.944,285.818 138.938,285.217 L138.938,284.757 C138.938,284.145 139.046,283.604 139.262,283.134 C139.479,282.665 139.784,282.304 140.180,282.056 C140.575,281.806 141.028,281.681 141.538,281.681 C142.056,281.681 142.513,281.805 142.908,282.051 C143.304,282.297 143.608,282.655 143.822,283.123 C144.035,283.591 144.142,284.136 144.142,284.757 L144.142,285.160 C144.142,285.784 144.035,286.329 143.822,286.794 C143.608,287.260 143.306,287.615 142.915,287.860 ZM143.293,284.749 C143.293,283.994 143.139,283.414 142.831,283.009 C142.523,282.605 142.091,282.403 141.538,282.403 C140.998,282.403 140.574,282.605 140.264,283.009 C139.955,283.414 139.796,283.974 139.787,284.692 L139.787,285.160 C139.787,285.892 139.943,286.468 140.256,286.886 C140.568,287.305 140.998,287.514 141.546,287.514 C142.097,287.514 142.524,287.317 142.826,286.921 C143.128,286.526 143.284,285.959 143.293,285.221 L143.293,284.749 ZM135.114,281.769 L135.967,281.769 L135.967,288.140 L135.114,288.140 L135.114,281.769 ZM130.374,288.140 L129.525,288.140 L129.525,282.456 L127.450,282.456 L127.450,281.769 L132.453,281.769 L132.453,282.456 L130.374,282.456 L130.374,288.140 ZM121.626,286.928 C121.919,287.336 122.329,287.540 122.856,287.540 C123.330,287.540 123.694,287.435 123.947,287.224 C124.201,287.012 124.369,286.644 124.452,286.118 L125.309,286.118 C125.229,286.792 124.977,287.313 124.552,287.678 C124.127,288.045 123.561,288.227 122.856,288.227 C122.092,288.227 121.480,287.958 121.019,287.418 C120.558,286.878 120.328,286.157 120.328,285.252 L120.328,284.640 C120.328,284.047 120.435,283.527 120.650,283.077 C120.865,282.628 121.169,282.283 121.563,282.042 C121.957,281.801 122.413,281.681 122.932,281.681 C123.619,281.681 124.170,281.870 124.585,282.248 C125.000,282.625 125.241,283.148 125.309,283.817 L124.452,283.817 C124.378,283.308 124.217,282.939 123.970,282.710 C123.722,282.483 123.376,282.368 122.932,282.368 C122.387,282.368 121.959,282.567 121.650,282.964 C121.340,283.361 121.186,283.926 121.186,284.659 L121.186,285.276 C121.186,285.968 121.332,286.519 121.626,286.928 ZM115.441,288.219 L115.215,288.227 C114.507,288.227 113.942,288.039 113.522,287.663 C113.101,287.287 112.888,286.769 112.882,286.110 L112.882,281.769 L113.726,281.769 L113.726,286.083 C113.726,286.544 113.855,286.903 114.113,287.157 C114.371,287.413 114.738,287.540 115.215,287.540 C115.698,287.540 116.067,287.413 116.323,287.159 C116.580,286.906 116.708,286.549 116.708,286.087 L116.708,281.769 L117.566,281.769 L117.566,286.101 C117.563,286.702 117.371,287.193 116.990,287.575 C116.609,287.958 116.093,288.172 115.441,288.219 ZM108.142,285.563 L106.622,285.563 L106.622,288.140 L105.765,288.140 L105.765,281.769 L107.906,281.769 C108.635,281.769 109.196,281.932 109.588,282.259 C109.981,282.585 110.177,283.061 110.177,283.685 C110.177,284.082 110.068,284.428 109.851,284.723 C109.633,285.017 109.330,285.237 108.942,285.383 L110.462,288.087 L110.462,288.140 L109.546,288.140 L108.142,285.563 ZM108.944,284.551 C109.194,284.335 109.320,284.045 109.320,283.683 C109.320,283.289 109.200,282.986 108.962,282.776 C108.723,282.565 108.379,282.459 107.929,282.456 L106.622,282.456 L106.622,284.875 L107.933,284.875 C108.357,284.875 108.694,284.768 108.944,284.551 ZM101.091,288.140 L100.243,288.140 L100.243,282.456 L98.167,282.456 L98.167,281.769 L103.171,281.769 L103.171,282.456 L101.091,282.456 L101.091,288.140 ZM93.812,284.555 C94.350,284.705 94.770,284.869 95.074,285.049 C95.378,285.228 95.603,285.437 95.749,285.676 C95.896,285.915 95.969,286.198 95.969,286.521 C95.969,287.037 95.765,287.450 95.356,287.761 C94.947,288.072 94.401,288.227 93.716,288.227 C93.272,288.227 92.857,288.144 92.472,287.976 C92.087,287.808 91.790,287.578 91.581,287.287 C91.372,286.995 91.268,286.664 91.268,286.293 L92.125,286.293 C92.125,286.678 92.270,286.983 92.559,287.206 C92.848,287.429 93.233,287.540 93.716,287.540 C94.167,287.540 94.512,287.450 94.752,287.269 C94.992,287.088 95.112,286.842 95.112,286.530 C95.112,286.218 95.001,285.976 94.778,285.806 C94.556,285.635 94.153,285.466 93.570,285.300 C92.838,285.093 92.305,284.838 91.972,284.537 C91.639,284.234 91.472,283.862 91.472,283.418 C91.472,282.917 91.676,282.502 92.083,282.173 C92.491,281.845 93.020,281.681 93.672,281.681 C94.116,281.681 94.512,281.766 94.861,281.935 C95.209,282.104 95.478,282.337 95.669,282.635 C95.860,282.933 95.956,283.258 95.956,283.611 L95.098,283.611 C95.098,283.225 94.974,282.921 94.725,282.700 C94.476,282.479 94.125,282.368 93.672,282.368 C93.251,282.368 92.923,282.460 92.688,282.642 C92.452,282.825 92.334,283.078 92.334,283.403 C92.334,283.663 92.446,283.882 92.670,284.063 C92.894,284.242 93.274,284.407 93.812,284.555 ZM84.395,283.230 L84.395,288.140 L83.537,288.140 L83.537,281.769 L84.395,281.769 L87.661,286.700 L87.661,281.769 L88.510,281.769 L88.510,288.140 L87.652,288.140 L84.395,283.230 ZM79.393,287.860 C79.002,288.105 78.546,288.227 78.024,288.227 C77.515,288.227 77.063,288.104 76.669,287.858 C76.275,287.612 75.969,287.260 75.751,286.803 C75.534,286.347 75.422,285.818 75.416,285.217 L75.416,284.757 C75.416,284.145 75.524,283.604 75.740,283.134 C75.956,282.665 76.262,282.304 76.658,282.056 C77.053,281.806 77.506,281.681 78.015,281.681 C78.534,281.681 78.991,281.805 79.386,282.051 C79.782,282.297 80.086,282.655 80.299,283.123 C80.513,283.591 80.619,284.136 80.619,284.757 L80.619,285.160 C80.619,285.784 80.513,286.329 80.299,286.794 C80.086,287.260 79.784,287.615 79.393,287.860 ZM79.771,284.749 C79.771,283.994 79.617,283.414 79.309,283.009 C79.000,282.605 78.569,282.403 78.015,282.403 C77.476,282.403 77.052,282.605 76.742,283.009 C76.433,283.414 76.273,283.974 76.265,284.692 L76.265,285.160 C76.265,285.892 76.421,286.468 76.733,286.886 C77.046,287.305 77.476,287.514 78.024,287.514 C78.575,287.514 79.002,287.317 79.304,286.921 C79.606,286.526 79.762,285.959 79.771,285.221 L79.771,284.749 ZM69.156,286.928 C69.450,287.336 69.860,287.540 70.387,287.540 C70.861,287.540 71.225,287.435 71.478,287.224 C71.731,287.012 71.899,286.644 71.982,286.118 L72.840,286.118 C72.760,286.792 72.507,287.313 72.082,287.678 C71.657,288.045 71.092,288.227 70.387,288.227 C69.623,288.227 69.010,287.958 68.550,287.418 C68.089,286.878 67.859,286.157 67.859,285.252 L67.859,284.640 C67.859,284.047 67.966,283.527 68.181,283.077 C68.396,282.628 68.700,282.283 69.094,282.042 C69.488,281.801 69.944,281.681 70.463,281.681 C71.150,281.681 71.701,281.870 72.116,282.248 C72.531,282.625 72.772,283.148 72.840,283.817 L71.982,283.817 C71.908,283.308 71.748,282.939 71.500,282.710 C71.253,282.483 70.907,282.368 70.463,282.368 C69.918,282.368 69.490,282.567 69.181,282.964 C68.871,283.361 68.716,283.926 68.716,284.659 L68.716,285.276 C68.716,285.968 68.863,286.519 69.156,286.928 Z" class="cls-4"/>
          <path d="M130.288,249.267 L123.711,249.267 L117.134,249.267 L105.692,249.267 L99.115,249.267 L92.539,249.267 C92.082,249.267 91.712,248.897 91.712,248.440 L91.712,240.088 C91.712,239.828 91.834,239.584 92.041,239.428 L98.289,234.715 L98.289,232.823 C98.289,232.563 98.411,232.319 98.618,232.163 L110.915,222.887 C111.210,222.664 111.616,222.664 111.911,222.887 L124.209,232.163 C124.416,232.319 124.537,232.563 124.537,232.823 L124.537,234.715 L130.785,239.428 C130.992,239.584 131.114,239.828 131.114,240.088 L131.114,248.440 C131.114,248.897 130.744,249.267 130.288,249.267 ZM98.289,236.786 L93.365,240.500 L93.365,247.613 L98.289,247.613 L98.289,236.786 ZM110.519,247.613 L112.307,247.613 L112.307,243.446 L110.519,243.446 L110.519,247.613 ZM122.884,233.235 L111.413,224.582 L99.942,233.235 L99.942,247.613 L104.866,247.613 L108.866,247.613 L108.866,242.619 C108.866,242.163 109.237,241.793 109.693,241.793 L113.133,241.793 C113.590,241.793 113.960,242.163 113.960,242.619 L113.960,247.613 L117.961,247.613 L122.884,247.613 L122.884,233.235 ZM129.461,240.500 L124.537,236.786 L124.537,247.613 L129.461,247.613 L129.461,240.500 ZM130.287,234.280 C130.114,234.280 129.939,234.225 129.790,234.113 L111.413,220.252 L93.036,234.113 C92.672,234.387 92.154,234.315 91.879,233.951 C91.604,233.586 91.677,233.068 92.041,232.794 L110.915,218.556 C111.210,218.334 111.616,218.334 111.911,218.556 L130.785,232.794 C131.150,233.068 131.222,233.586 130.948,233.951 C130.785,234.167 130.537,234.280 130.287,234.280 Z" class="cls-4"/>
          <rect x="67.438" y="260.219" width="92" height="1" class="cls-1"/>
        </g>
      </g>
      <g>
        <rect x="219.094" y="183.563" width="176.906" height="140.437" rx="10" ry="10" class="cls-5"/>
        <g>
          <path d="M351.157,268.070 C349.981,268.070 349.393,268.452 349.393,269.217 C349.393,269.557 349.539,269.817 349.830,269.997 C350.122,270.178 350.804,270.438 351.877,270.778 C352.950,271.118 353.702,271.503 354.134,271.933 C354.565,272.363 354.781,273.025 354.781,273.916 C354.781,275.054 354.430,275.914 353.729,276.497 C353.028,277.082 352.112,277.374 350.979,277.374 C350.138,277.374 349.108,277.247 347.889,276.991 L347.306,276.880 L347.533,275.175 C348.978,275.366 350.084,275.462 350.850,275.462 C351.993,275.462 352.565,274.994 352.565,274.060 C352.565,273.720 352.432,273.454 352.168,273.264 C351.904,273.072 351.378,272.865 350.591,272.642 C349.339,272.291 348.458,271.875 347.945,271.392 C347.433,270.908 347.177,270.236 347.177,269.376 C347.177,268.292 347.511,267.485 348.180,266.955 C348.849,266.423 349.766,266.158 350.930,266.158 C351.729,266.158 352.742,266.264 353.972,266.476 L354.555,266.588 L354.377,268.324 C352.856,268.155 351.782,268.070 351.157,268.070 ZM338.165,266.349 L345.284,266.349 L345.284,268.261 L340.398,268.261 L340.398,270.794 L344.313,270.794 L344.313,272.674 L340.398,272.674 L340.398,275.270 L345.284,275.270 L345.284,277.182 L338.165,277.182 L338.165,266.349 ZM332.891,268.802 L332.649,268.802 L330.497,276.705 L328.264,276.705 L326.112,268.802 L325.869,268.802 L325.869,277.182 L323.637,277.182 L323.637,266.349 L327.439,266.349 L329.380,274.251 L331.322,266.349 L335.124,266.349 L335.124,277.182 L332.891,277.182 L332.891,268.802 ZM316.518,277.374 C314.846,277.374 313.668,276.925 312.983,276.027 C312.298,275.130 311.956,273.725 311.956,271.814 C311.956,269.902 312.298,268.481 312.983,267.552 C313.668,266.623 314.846,266.158 316.518,266.158 C318.190,266.158 319.368,266.623 320.053,267.552 C320.738,268.481 321.081,269.902 321.081,271.814 C321.081,273.725 320.738,275.130 320.053,276.027 C319.368,276.925 318.190,277.374 316.518,277.374 ZM318.298,268.962 C317.974,268.367 317.381,268.070 316.518,268.070 C315.655,268.070 315.062,268.367 314.738,268.962 C314.415,269.557 314.253,270.510 314.253,271.821 C314.253,273.133 314.412,274.068 314.730,274.625 C315.048,275.183 315.644,275.462 316.518,275.462 C317.392,275.462 317.988,275.183 318.306,274.625 C318.624,274.068 318.783,273.133 318.783,271.821 C318.783,270.510 318.621,269.557 318.298,268.962 ZM307.167,272.690 L303.073,272.690 L303.073,277.182 L300.841,277.182 L300.841,266.349 L303.073,266.349 L303.073,270.778 L307.167,270.778 L307.167,266.349 L309.399,266.349 L309.399,277.182 L307.167,277.182 L307.167,272.690 ZM287.024,266.349 L294.143,266.349 L294.143,268.261 L289.257,268.261 L289.257,270.794 L293.172,270.794 L293.172,272.674 L289.257,272.674 L289.257,275.270 L294.143,275.270 L294.143,277.182 L287.024,277.182 L287.024,266.349 ZM277.559,268.261 L277.398,268.261 L277.398,277.182 L275.165,277.182 L275.165,266.349 L278.935,266.349 L281.588,275.270 L281.750,275.270 L281.750,266.349 L283.983,266.349 L283.983,277.182 L280.310,277.182 L277.559,268.261 ZM269.891,266.349 L272.123,266.349 L272.123,277.182 L269.891,277.182 L269.891,266.349 ZM262.885,271.447 L266.800,271.447 L266.800,273.359 L262.885,273.359 L262.885,277.182 L260.652,277.182 L260.652,266.349 L267.674,266.349 L267.674,268.261 L262.885,268.261 L262.885,271.447 Z" class="cls-6"/>
          <path d="M352.931,284.296 C352.709,284.099 352.397,284.001 351.994,284.001 C351.620,284.001 351.329,284.082 351.119,284.245 C350.910,284.407 350.805,284.632 350.805,284.920 C350.805,285.152 350.905,285.347 351.104,285.507 C351.302,285.667 351.641,285.813 352.119,285.946 C352.597,286.078 352.971,286.224 353.241,286.383 C353.510,286.543 353.711,286.729 353.841,286.942 C353.971,287.154 354.036,287.404 354.036,287.693 C354.036,288.151 353.855,288.519 353.491,288.795 C353.128,289.071 352.642,289.209 352.034,289.209 C351.639,289.209 351.270,289.135 350.928,288.985 C350.586,288.837 350.322,288.632 350.136,288.373 C349.950,288.114 349.857,287.820 349.857,287.490 L350.620,287.490 C350.620,287.832 350.748,288.103 351.005,288.301 C351.262,288.499 351.605,288.599 352.034,288.599 C352.434,288.599 352.741,288.518 352.954,288.358 C353.168,288.196 353.274,287.978 353.274,287.700 C353.274,287.423 353.175,287.208 352.978,287.056 C352.780,286.905 352.422,286.755 351.903,286.607 C351.253,286.423 350.780,286.197 350.484,285.928 C350.187,285.660 350.039,285.328 350.039,284.934 C350.039,284.489 350.220,284.120 350.582,283.828 C350.944,283.537 351.415,283.390 351.994,283.390 C352.389,283.390 352.742,283.465 353.051,283.616 C353.360,283.766 353.600,283.974 353.770,284.238 C353.940,284.503 354.025,284.792 354.025,285.106 L353.262,285.106 C353.262,284.762 353.152,284.492 352.931,284.296 ZM342.777,284.767 L342.777,289.132 L342.015,289.132 L342.015,283.468 L342.777,283.468 L345.681,287.852 L345.681,283.468 L346.435,283.468 L346.435,289.132 L345.673,289.132 L342.777,284.767 ZM337.360,288.882 C337.013,289.101 336.607,289.209 336.144,289.209 C335.691,289.209 335.289,289.100 334.939,288.881 C334.589,288.661 334.317,288.349 334.123,287.944 C333.930,287.537 333.830,287.068 333.825,286.533 L333.825,286.125 C333.825,285.580 333.921,285.099 334.114,284.682 C334.306,284.265 334.578,283.945 334.929,283.723 C335.281,283.501 335.683,283.390 336.136,283.390 C336.597,283.390 337.003,283.499 337.355,283.719 C337.706,283.938 337.977,284.256 338.166,284.672 C338.356,285.088 338.451,285.573 338.451,286.125 L338.451,286.483 C338.451,287.037 338.356,287.522 338.166,287.935 C337.977,288.349 337.708,288.664 337.360,288.882 ZM337.696,286.117 C337.696,285.446 337.559,284.930 337.285,284.571 C337.012,284.211 336.628,284.032 336.136,284.032 C335.657,284.032 335.279,284.211 335.004,284.571 C334.729,284.930 334.588,285.429 334.580,286.066 L334.580,286.483 C334.580,287.133 334.719,287.645 334.996,288.017 C335.274,288.390 335.657,288.575 336.144,288.575 C336.634,288.575 337.013,288.400 337.281,288.048 C337.550,287.697 337.688,287.193 337.696,286.537 L337.696,286.117 ZM329.455,283.468 L330.213,283.468 L330.213,289.132 L329.455,289.132 L329.455,283.468 ZM324.271,289.132 L323.517,289.132 L323.517,284.079 L321.672,284.079 L321.672,283.468 L326.120,283.468 L326.120,284.079 L324.271,284.079 L324.271,289.132 ZM315.524,288.054 C315.785,288.417 316.150,288.599 316.618,288.599 C317.040,288.599 317.363,288.505 317.588,288.317 C317.813,288.129 317.962,287.801 318.036,287.334 L318.799,287.334 C318.728,287.933 318.503,288.396 318.125,288.721 C317.747,289.047 317.245,289.209 316.618,289.209 C315.939,289.209 315.394,288.969 314.985,288.490 C314.575,288.010 314.371,287.368 314.371,286.564 L314.371,286.020 C314.371,285.493 314.466,285.031 314.657,284.631 C314.848,284.232 315.119,283.925 315.469,283.711 C315.819,283.497 316.225,283.390 316.685,283.390 C317.296,283.390 317.786,283.558 318.155,283.894 C318.524,284.230 318.738,284.695 318.799,285.288 L318.036,285.288 C317.971,284.836 317.828,284.508 317.608,284.305 C317.388,284.102 317.080,284.001 316.685,284.001 C316.201,284.001 315.821,284.177 315.546,284.531 C315.271,284.883 315.133,285.386 315.133,286.037 L315.133,286.586 C315.133,287.201 315.263,287.691 315.524,288.054 ZM309.056,289.201 L308.855,289.209 C308.226,289.209 307.724,289.042 307.350,288.708 C306.976,288.373 306.786,287.912 306.781,287.327 L306.781,283.468 L307.532,283.468 L307.532,287.304 C307.532,287.713 307.646,288.031 307.875,288.258 C308.105,288.485 308.431,288.599 308.855,288.599 C309.284,288.599 309.613,288.486 309.841,288.260 C310.068,288.035 310.182,287.717 310.182,287.307 L310.182,283.468 L310.945,283.468 L310.945,287.319 C310.942,287.853 310.771,288.290 310.433,288.630 C310.095,288.969 309.636,289.160 309.056,289.201 ZM301.597,286.840 L300.246,286.840 L300.246,289.132 L299.484,289.132 L299.484,283.468 L301.388,283.468 C302.036,283.468 302.534,283.614 302.883,283.904 C303.232,284.194 303.406,284.617 303.406,285.172 C303.406,285.525 303.310,285.832 303.116,286.093 C302.923,286.356 302.653,286.551 302.308,286.681 L303.659,289.085 L303.659,289.132 L302.845,289.132 L301.597,286.840 ZM302.310,285.942 C302.533,285.749 302.644,285.492 302.644,285.170 C302.644,284.819 302.538,284.550 302.326,284.364 C302.114,284.176 301.808,284.081 301.408,284.079 L300.246,284.079 L300.246,286.230 L301.412,286.230 C301.788,286.230 302.088,286.134 302.310,285.942 ZM294.359,289.132 L293.605,289.132 L293.605,284.079 L291.760,284.079 L291.760,283.468 L296.208,283.468 L296.208,284.079 L294.359,284.079 L294.359,289.132 ZM286.918,285.946 C287.396,286.078 287.770,286.224 288.040,286.383 C288.310,286.543 288.510,286.729 288.640,286.942 C288.771,287.154 288.836,287.404 288.836,287.693 C288.836,288.151 288.654,288.519 288.290,288.795 C287.927,289.071 287.441,289.209 286.833,289.209 C286.438,289.209 286.069,289.135 285.727,288.985 C285.385,288.837 285.121,288.632 284.935,288.373 C284.749,288.114 284.657,287.820 284.657,287.490 L285.419,287.490 C285.419,287.832 285.547,288.103 285.804,288.301 C286.061,288.499 286.404,288.599 286.833,288.599 C287.233,288.599 287.540,288.518 287.753,288.358 C287.967,288.196 288.073,287.978 288.073,287.700 C288.073,287.423 287.975,287.208 287.777,287.056 C287.579,286.905 287.221,286.755 286.703,286.607 C286.052,286.423 285.579,286.197 285.283,285.928 C284.986,285.660 284.838,285.328 284.838,284.934 C284.838,284.489 285.019,284.120 285.381,283.828 C285.743,283.537 286.214,283.390 286.794,283.390 C287.189,283.390 287.541,283.465 287.850,283.616 C288.160,283.766 288.399,283.974 288.569,284.238 C288.739,284.503 288.824,284.792 288.824,285.106 L288.061,285.106 C288.061,284.762 287.951,284.492 287.730,284.296 C287.508,284.099 287.196,284.001 286.794,284.001 C286.420,284.001 286.128,284.082 285.919,284.245 C285.709,284.407 285.605,284.632 285.605,284.920 C285.605,285.152 285.704,285.347 285.903,285.507 C286.102,285.667 286.440,285.813 286.918,285.946 ZM277.577,284.767 L277.577,289.132 L276.814,289.132 L276.814,283.468 L277.577,283.468 L280.480,287.852 L280.480,283.468 L281.234,283.468 L281.234,289.132 L280.472,289.132 L277.577,284.767 ZM272.160,288.882 C271.812,289.101 271.406,289.209 270.943,289.209 C270.490,289.209 270.089,289.100 269.738,288.881 C269.388,288.661 269.116,288.349 268.923,287.944 C268.729,287.537 268.630,287.068 268.624,286.533 L268.624,286.125 C268.624,285.580 268.720,285.099 268.913,284.682 C269.105,284.265 269.377,283.945 269.728,283.723 C270.080,283.501 270.482,283.390 270.935,283.390 C271.396,283.390 271.802,283.499 272.154,283.719 C272.505,283.938 272.776,284.256 272.965,284.672 C273.155,285.088 273.250,285.573 273.250,286.125 L273.250,286.483 C273.250,287.037 273.155,287.522 272.965,287.935 C272.776,288.349 272.507,288.664 272.160,288.882 ZM272.495,286.117 C272.495,285.446 272.358,284.930 272.085,284.571 C271.811,284.211 271.427,284.032 270.935,284.032 C270.456,284.032 270.079,284.211 269.803,284.571 C269.528,284.930 269.387,285.429 269.379,286.066 L269.379,286.483 C269.379,287.133 269.518,287.645 269.795,288.017 C270.073,288.390 270.456,288.575 270.943,288.575 C271.433,288.575 271.812,288.400 272.081,288.048 C272.349,287.697 272.487,287.193 272.495,286.537 L272.495,286.117 ZM262.090,288.054 C262.350,288.417 262.715,288.599 263.184,288.599 C263.605,288.599 263.928,288.505 264.153,288.317 C264.378,288.129 264.528,287.801 264.602,287.334 L265.364,287.334 C265.293,287.933 265.068,288.396 264.691,288.721 C264.313,289.047 263.810,289.209 263.184,289.209 C262.504,289.209 261.960,288.969 261.550,288.490 C261.141,288.010 260.936,287.368 260.936,286.564 L260.936,286.020 C260.936,285.493 261.031,285.031 261.223,284.631 C261.413,284.232 261.684,283.925 262.034,283.711 C262.384,283.497 262.790,283.390 263.251,283.390 C263.862,283.390 264.351,283.558 264.720,283.894 C265.089,284.230 265.303,284.695 265.364,285.288 L264.602,285.288 C264.536,284.836 264.393,284.508 264.173,284.305 C263.953,284.102 263.646,284.001 263.251,284.001 C262.766,284.001 262.386,284.177 262.111,284.531 C261.836,284.883 261.698,285.386 261.698,286.037 L261.698,286.586 C261.698,287.201 261.829,287.691 262.090,288.054 Z" class="cls-4"/>
          <path d="M318.288,253.245 L305.722,253.245 C305.217,253.245 304.809,252.853 304.809,252.369 L304.809,227.931 C304.809,227.670 304.929,227.423 305.137,227.257 L311.421,222.233 C311.759,221.962 312.251,221.962 312.589,222.233 L318.873,227.257 C319.081,227.423 319.201,227.670 319.201,227.931 L319.201,252.369 C319.201,252.853 318.792,253.245 318.288,253.245 ZM317.375,228.341 L312.005,224.047 L306.635,228.341 L306.635,251.492 L317.375,251.492 L317.375,228.341 ZM311.184,237.065 C311.637,236.630 312.373,236.630 312.826,237.065 L314.625,238.793 C314.981,239.135 314.981,239.691 314.625,240.032 C314.447,240.203 314.213,240.289 313.979,240.289 C313.746,240.289 313.512,240.203 313.334,240.032 L312.918,239.633 L312.918,246.133 C312.918,246.616 312.509,247.009 312.005,247.009 C311.501,247.009 311.092,246.616 311.092,246.133 L311.092,239.633 L310.676,240.032 C310.320,240.374 309.742,240.374 309.385,240.032 C309.028,239.690 309.028,239.135 309.385,238.792 L311.184,237.065 ZM317.704,224.961 L312.005,220.404 L306.306,224.961 C306.135,225.097 305.928,225.164 305.722,225.164 C305.461,225.164 305.201,225.057 305.020,224.848 C304.698,224.477 304.750,223.924 305.137,223.614 L311.421,218.590 C311.759,218.320 312.251,218.320 312.589,218.590 L318.873,223.614 C319.260,223.924 319.312,224.477 318.990,224.849 C318.667,225.221 318.092,225.271 317.704,224.961 ZM302.385,253.245 L289.819,253.245 C289.315,253.245 288.906,252.853 288.906,252.369 L288.906,238.013 C288.906,237.752 289.027,237.505 289.235,237.338 L295.518,232.315 C295.857,232.044 296.348,232.044 296.686,232.315 L302.970,237.338 C303.178,237.505 303.298,237.752 303.298,238.013 L303.298,252.369 C303.298,252.853 302.890,253.245 302.385,253.245 ZM301.472,238.423 L296.102,234.129 L290.732,238.423 L290.732,251.492 L301.472,251.492 L301.472,238.423 ZM294.773,245.325 L295.189,245.724 L295.189,239.224 C295.189,238.741 295.598,238.348 296.102,238.348 C296.607,238.348 297.015,238.741 297.015,239.224 L297.015,245.724 L297.431,245.325 C297.788,244.983 298.366,244.983 298.722,245.325 C299.079,245.667 299.079,246.222 298.722,246.564 L296.924,248.292 C296.697,248.509 296.399,248.618 296.102,248.618 C295.805,248.618 295.507,248.509 295.281,248.292 L293.482,246.564 C293.126,246.222 293.126,245.667 293.482,245.325 C293.839,244.983 294.417,244.983 294.773,245.325 ZM302.385,235.246 C302.179,235.247 301.972,235.180 301.801,235.043 L296.102,230.487 L290.403,235.043 C290.016,235.353 289.440,235.303 289.117,234.931 C288.795,234.558 288.847,234.006 289.235,233.696 L295.518,228.673 C295.857,228.402 296.348,228.402 296.686,228.673 L302.970,233.696 C303.357,234.006 303.410,234.558 303.087,234.931 C302.907,235.139 302.647,235.246 302.385,235.246 Z" class="cls-4"/>
        </g>
      </g>
      <g>
        <rect x="229.094" y="14" width="176.906" height="140.438" rx="10" ry="10" class="cls-7"/>
        <g>
          <path d="M279.581,91.679 L274.887,97.241 C274.887,97.242 274.887,97.242 274.887,97.242 L272.251,100.365 C272.074,100.574 271.808,100.697 271.527,100.697 C271.246,100.697 270.979,100.574 270.803,100.365 L268.440,97.566 L249.240,97.566 C248.726,97.566 248.309,97.167 248.309,96.674 L248.309,81.519 C248.309,81.238 248.446,80.974 248.680,80.806 L261.144,71.804 C261.476,71.564 261.933,71.564 262.265,71.804 L274.729,80.806 C274.963,80.974 275.100,81.238 275.100,81.519 L275.100,84.308 C275.372,84.267 275.651,84.242 275.935,84.242 C276.027,84.242 276.119,84.245 276.210,84.249 C277.988,84.336 279.488,85.327 280.223,86.903 C280.968,88.498 280.722,90.328 279.581,91.679 ZM273.237,81.963 L261.704,73.633 L250.171,81.963 L250.171,95.783 L266.935,95.783 L263.472,91.679 C262.332,90.328 262.086,88.498 262.830,86.903 C263.565,85.327 265.065,84.336 266.844,84.249 C266.935,84.245 267.026,84.243 267.118,84.243 C268.947,84.243 270.564,85.127 271.527,86.475 C271.971,85.853 272.557,85.331 273.237,84.947 L273.237,81.963 ZM278.523,87.630 C278.080,86.681 277.180,86.082 276.115,86.031 C276.056,86.028 275.996,86.027 275.936,86.027 C274.018,86.027 272.458,87.521 272.458,89.357 C272.458,89.849 272.041,90.249 271.527,90.249 C271.013,90.249 270.596,89.849 270.596,89.357 C270.596,87.521 269.036,86.027 267.118,86.027 C267.058,86.027 266.998,86.028 266.939,86.031 C265.874,86.082 264.973,86.681 264.530,87.630 C264.073,88.609 264.223,89.732 264.920,90.558 L271.527,98.386 L278.134,90.558 C278.831,89.732 278.980,88.610 278.523,87.630 ZM274.168,78.613 C273.973,78.613 273.776,78.554 273.608,78.433 L261.704,69.836 L249.801,78.433 C249.390,78.729 248.806,78.651 248.497,78.258 C248.187,77.865 248.269,77.305 248.680,77.009 L261.144,68.007 C261.476,67.767 261.933,67.767 262.265,68.007 L274.729,77.009 C275.140,77.305 275.221,77.865 274.912,78.258 C274.729,78.490 274.450,78.613 274.168,78.613 Z" class="cls-8"/>
          <path d="M385.657,76.791 C385.604,76.791 385.578,76.770 385.578,76.729 L385.254,74.940 C385.254,74.909 385.230,74.883 385.183,74.862 C384.720,74.660 384.219,74.558 383.682,74.558 C383.124,74.558 382.650,74.704 382.260,74.994 C381.828,75.316 381.612,75.744 381.612,76.278 C381.612,76.791 381.805,77.227 382.189,77.585 C382.447,77.824 382.868,78.075 383.453,78.339 L384.504,78.814 C385.325,79.187 385.923,79.566 386.297,79.950 C386.766,80.432 387.000,81.031 387.000,81.746 C387.000,82.815 386.584,83.645 385.752,84.236 C385.009,84.765 384.077,85.029 382.955,85.029 C382.381,85.029 381.720,84.946 380.972,84.780 C380.762,84.734 380.570,84.677 380.396,84.609 C380.343,84.589 380.317,84.563 380.317,84.531 L380.317,82.127 C380.317,82.076 380.343,82.050 380.396,82.050 L381.059,82.050 C381.112,82.066 381.138,82.086 381.138,82.112 L381.462,83.909 C381.467,83.925 381.478,83.938 381.494,83.948 L381.533,83.994 C381.912,84.182 382.439,84.275 383.113,84.275 C383.777,84.275 384.333,84.122 384.780,83.816 C385.291,83.468 385.547,82.981 385.547,82.353 C385.547,81.482 384.957,80.774 383.777,80.230 L382.710,79.740 C381.931,79.382 381.352,79.016 380.972,78.643 C380.472,78.150 380.222,77.569 380.222,76.900 C380.222,76.231 380.430,75.637 380.846,75.118 C381.252,74.616 381.783,74.258 382.442,74.045 C382.863,73.910 383.308,73.843 383.777,73.843 C384.404,73.843 385.046,73.918 385.705,74.068 C385.884,74.110 386.078,74.162 386.289,74.224 C386.342,74.234 386.368,74.261 386.368,74.302 L386.368,76.714 C386.368,76.765 386.342,76.791 386.289,76.791 L385.657,76.791 ZM370.221,84.804 C370.168,84.804 370.142,84.777 370.142,84.726 L370.142,84.314 C370.142,84.257 370.168,84.228 370.221,84.228 L371.596,84.104 C371.648,84.104 371.675,84.078 371.675,84.026 L371.675,74.831 C371.654,74.800 371.627,74.784 371.596,74.784 L370.221,74.652 C370.168,74.652 370.142,74.626 370.142,74.574 L370.142,74.162 C370.142,74.110 370.168,74.084 370.221,74.084 L377.955,74.084 C378.008,74.084 378.034,74.110 378.034,74.162 L378.034,76.659 C378.034,76.716 378.008,76.745 377.955,76.745 L377.355,76.745 C377.302,76.745 377.276,76.724 377.276,76.682 L376.952,74.878 C376.952,74.836 376.926,74.815 376.873,74.815 L373.168,74.815 C373.115,74.815 373.089,74.841 373.089,74.893 L373.089,78.829 C373.089,78.881 373.115,78.907 373.168,78.907 L375.396,78.907 C375.454,78.907 375.483,78.886 375.483,78.845 L375.641,77.553 C375.641,77.512 375.667,77.492 375.720,77.492 L376.162,77.492 C376.215,77.492 376.241,77.517 376.241,77.569 L376.241,81.031 C376.241,81.082 376.215,81.109 376.162,81.109 L375.720,81.109 C375.667,81.109 375.641,81.088 375.641,81.046 L375.483,79.677 C375.483,79.630 375.454,79.607 375.396,79.607 L373.168,79.607 C373.115,79.607 373.089,79.635 373.089,79.693 L373.089,83.994 C373.089,84.046 373.115,84.073 373.168,84.073 L377.094,84.073 C377.152,84.073 377.181,84.052 377.181,84.010 L377.505,82.237 C377.505,82.195 377.531,82.174 377.584,82.174 L378.184,82.174 C378.237,82.174 378.263,82.200 378.263,82.252 L378.263,84.726 C378.263,84.777 378.237,84.804 378.184,84.804 L370.221,84.804 ZM363.878,84.804 C363.825,84.804 363.799,84.777 363.799,84.726 L363.799,84.314 C363.799,84.262 363.825,84.234 363.878,84.228 L365.403,84.104 C365.455,84.099 365.482,84.073 365.482,84.026 L365.482,75.180 L365.419,75.180 L361.421,84.913 C361.411,84.934 361.384,84.944 361.342,84.944 L361.176,84.944 C361.134,84.944 361.108,84.934 361.097,84.913 L357.100,75.290 L357.037,75.290 L357.037,84.026 C357.037,84.078 357.063,84.104 357.116,84.104 L358.459,84.228 C358.517,84.228 358.546,84.257 358.546,84.314 L358.546,84.726 C358.546,84.777 358.517,84.804 358.459,84.804 L354.754,84.804 C354.701,84.804 354.675,84.777 354.675,84.726 L354.675,84.314 C354.675,84.262 354.701,84.234 354.754,84.228 L356.199,84.104 C356.252,84.099 356.278,84.073 356.278,84.026 L356.278,74.862 C356.278,74.810 356.252,74.784 356.199,74.784 L354.825,74.652 C354.767,74.652 354.738,74.626 354.738,74.574 L354.738,74.162 C354.738,74.110 354.767,74.084 354.825,74.084 L358.087,74.084 C358.114,74.089 358.135,74.105 358.151,74.131 L361.603,82.509 L365.063,74.131 C365.074,74.099 365.095,74.084 365.126,74.084 L368.350,74.084 C368.402,74.084 368.428,74.110 368.428,74.162 L368.428,74.574 C368.428,74.626 368.402,74.652 368.350,74.652 L366.975,74.784 C366.917,74.784 366.888,74.810 366.888,74.862 L366.888,84.026 C366.888,84.073 366.917,84.099 366.975,84.104 L368.428,84.228 C368.481,84.234 368.508,84.262 368.508,84.314 L368.508,84.726 C368.508,84.777 368.481,84.804 368.428,84.804 L363.878,84.804 ZM347.589,85.029 C345.967,85.029 344.634,84.503 343.592,83.450 C342.549,82.398 342.027,81.070 342.027,79.467 C342.027,77.849 342.541,76.511 343.568,75.453 C344.616,74.380 345.956,73.843 347.589,73.843 C349.222,73.843 350.541,74.372 351.547,75.429 C352.532,76.462 353.024,77.787 353.024,79.405 C353.024,81.013 352.529,82.343 351.539,83.396 C350.522,84.485 349.206,85.029 347.589,85.029 ZM350.394,76.138 C349.630,75.085 348.632,74.558 347.400,74.558 C346.188,74.558 345.232,75.028 344.532,75.967 C343.905,76.812 343.592,77.852 343.592,79.086 C343.592,79.973 343.744,80.795 344.050,81.552 C344.392,82.392 344.892,83.063 345.551,83.563 C346.209,84.064 346.960,84.314 347.802,84.314 C349.019,84.314 349.956,83.831 350.615,82.866 C351.178,82.032 351.460,80.984 351.460,79.724 C351.460,78.313 351.105,77.118 350.394,76.138 ZM335.842,84.804 C335.790,84.804 335.763,84.777 335.763,84.726 L335.763,84.314 C335.763,84.257 335.790,84.228 335.842,84.228 L337.138,84.104 C337.191,84.104 337.217,84.078 337.217,84.026 L337.217,79.576 C337.217,79.524 337.191,79.498 337.138,79.498 L332.058,79.498 C332.006,79.498 331.979,79.524 331.979,79.576 L331.979,84.026 C331.979,84.078 332.006,84.104 332.058,84.104 L333.354,84.228 C333.407,84.228 333.433,84.257 333.433,84.314 L333.433,84.726 C333.433,84.777 333.407,84.804 333.354,84.804 L329.112,84.804 C329.059,84.804 329.033,84.777 329.033,84.726 L329.033,84.314 C329.033,84.257 329.059,84.228 329.112,84.228 L330.486,84.104 C330.539,84.104 330.565,84.078 330.565,84.026 L330.565,74.862 C330.565,74.810 330.539,74.784 330.486,74.784 L329.112,74.652 C329.059,74.652 329.033,74.626 329.033,74.574 L329.033,74.162 C329.033,74.110 329.059,74.084 329.112,74.084 L333.354,74.084 C333.407,74.084 333.433,74.110 333.433,74.162 L333.433,74.574 C333.433,74.626 333.407,74.652 333.354,74.652 L332.058,74.784 C332.006,74.784 331.979,74.810 331.979,74.862 L331.979,78.720 C331.979,78.751 331.987,78.767 332.003,78.767 L337.201,78.767 C337.212,78.757 337.217,78.741 337.217,78.720 L337.217,74.862 C337.217,74.810 337.191,74.784 337.138,74.784 L335.842,74.652 C335.790,74.652 335.763,74.626 335.763,74.574 L335.763,74.162 C335.763,74.110 335.790,74.084 335.842,74.084 L340.085,74.084 C340.137,74.084 340.164,74.110 340.164,74.162 L340.164,74.574 C340.164,74.626 340.137,74.652 340.085,74.652 L338.702,74.784 C338.650,74.784 338.623,74.810 338.623,74.862 L338.623,84.026 C338.623,84.078 338.650,84.104 338.702,84.104 L340.085,84.228 C340.137,84.228 340.164,84.257 340.164,84.314 L340.164,84.726 C340.164,84.777 340.137,84.804 340.085,84.804 L335.842,84.804 ZM314.324,84.804 C314.271,84.804 314.245,84.777 314.245,84.726 L314.245,84.314 C314.245,84.257 314.271,84.228 314.324,84.228 L315.699,84.104 C315.751,84.104 315.778,84.078 315.778,84.026 L315.778,74.831 C315.757,74.800 315.730,74.784 315.699,74.784 L314.324,74.652 C314.271,74.652 314.245,74.626 314.245,74.574 L314.245,74.162 C314.245,74.110 314.271,74.084 314.324,74.084 L322.058,74.084 C322.111,74.084 322.137,74.110 322.137,74.162 L322.137,76.659 C322.137,76.716 322.111,76.745 322.058,76.745 L321.458,76.745 C321.405,76.745 321.379,76.724 321.379,76.682 L321.055,74.878 C321.055,74.836 321.029,74.815 320.976,74.815 L317.271,74.815 C317.218,74.815 317.192,74.841 317.192,74.893 L317.192,78.829 C317.192,78.881 317.218,78.907 317.271,78.907 L319.499,78.907 C319.556,78.907 319.585,78.886 319.585,78.845 L319.743,77.553 C319.743,77.512 319.770,77.492 319.823,77.492 L320.265,77.492 C320.317,77.492 320.344,77.517 320.344,77.569 L320.344,81.031 C320.344,81.082 320.317,81.109 320.265,81.109 L319.823,81.109 C319.770,81.109 319.743,81.088 319.743,81.046 L319.585,79.677 C319.585,79.630 319.556,79.607 319.499,79.607 L317.271,79.607 C317.218,79.607 317.192,79.635 317.192,79.693 L317.192,83.994 C317.192,84.046 317.218,84.073 317.271,84.073 L321.197,84.073 C321.255,84.073 321.284,84.052 321.284,84.010 L321.608,82.237 C321.608,82.195 321.634,82.174 321.687,82.174 L322.287,82.174 C322.340,82.174 322.366,82.200 322.366,82.252 L322.366,84.726 C322.366,84.777 322.340,84.804 322.287,84.804 L314.324,84.804 ZM311.457,74.846 C311.404,74.846 311.378,74.873 311.378,74.925 L311.378,84.851 C311.378,84.902 311.347,84.928 311.283,84.928 L310.975,84.928 C310.949,84.923 310.922,84.907 310.896,84.882 L303.920,75.788 L303.920,83.956 C303.920,84.013 303.941,84.041 303.984,84.041 L305.169,84.166 C305.221,84.166 305.248,84.192 305.248,84.244 L305.248,84.726 C305.248,84.777 305.221,84.804 305.169,84.804 L301.803,84.804 C301.745,84.804 301.716,84.777 301.716,84.726 L301.716,84.244 C301.716,84.192 301.745,84.166 301.803,84.166 L303.028,84.041 C303.086,84.041 303.115,84.013 303.115,83.956 L303.115,74.925 C303.115,74.873 303.086,74.846 303.028,74.846 L301.653,74.722 C301.600,74.722 301.574,74.693 301.574,74.636 L301.574,74.162 C301.574,74.110 301.600,74.084 301.653,74.084 L304.505,74.084 C304.531,74.089 304.553,74.099 304.568,74.115 L310.572,81.933 L310.572,74.925 C310.572,74.873 310.549,74.846 310.501,74.846 L309.308,74.722 C309.256,74.722 309.229,74.693 309.229,74.636 L309.229,74.162 C309.229,74.110 309.256,74.084 309.308,74.084 L312.674,74.084 C312.726,74.084 312.753,74.110 312.753,74.162 L312.753,74.636 C312.753,74.693 312.726,74.722 312.674,74.722 L311.457,74.846 ZM295.571,84.804 C295.518,84.804 295.492,84.777 295.492,84.726 L295.492,84.314 C295.492,84.257 295.518,84.228 295.571,84.228 L296.945,84.104 C296.998,84.104 297.024,84.078 297.024,84.026 L297.024,74.862 C297.024,74.810 296.998,74.784 296.945,74.784 L295.571,74.652 C295.518,74.652 295.492,74.626 295.492,74.574 L295.492,74.162 C295.492,74.110 295.518,74.084 295.571,74.084 L299.924,74.084 C299.976,74.084 300.003,74.110 300.003,74.162 L300.003,74.574 C300.003,74.626 299.976,74.652 299.924,74.652 L298.549,74.784 C298.496,74.784 298.470,74.810 298.470,74.862 L298.470,84.026 C298.470,84.078 298.496,84.104 298.549,84.104 L299.924,84.228 C299.976,84.228 300.003,84.257 300.003,84.314 L300.003,84.726 C300.003,84.777 299.976,84.804 299.924,84.804 L295.571,84.804 ZM293.241,76.745 C293.183,76.745 293.154,76.724 293.154,76.682 L292.838,74.878 C292.838,74.836 292.809,74.815 292.751,74.815 L289.212,74.815 C289.159,74.815 289.133,74.841 289.133,74.893 L289.133,79.071 C289.133,79.112 289.159,79.133 289.212,79.133 L291.345,79.133 C291.398,79.133 291.424,79.112 291.424,79.071 L291.590,77.779 C291.590,77.738 291.616,77.716 291.669,77.716 L292.103,77.716 C292.161,77.716 292.190,77.743 292.190,77.794 L292.190,81.187 C292.190,81.239 292.161,81.264 292.103,81.264 L291.669,81.264 C291.616,81.264 291.590,81.243 291.590,81.202 L291.424,79.895 C291.424,79.854 291.398,79.833 291.345,79.833 L289.212,79.833 C289.159,79.833 289.133,79.854 289.133,79.895 L289.133,84.026 C289.133,84.078 289.159,84.104 289.212,84.104 L290.587,84.228 C290.639,84.228 290.666,84.257 290.666,84.314 L290.666,84.726 C290.666,84.777 290.639,84.804 290.587,84.804 L286.265,84.804 C286.213,84.804 286.186,84.777 286.186,84.726 L286.186,84.314 C286.186,84.257 286.213,84.228 286.265,84.228 L287.640,84.104 C287.692,84.104 287.719,84.078 287.719,84.026 L287.719,74.831 C287.708,74.800 287.692,74.784 287.672,74.784 L287.640,74.784 L286.265,74.652 C286.213,74.652 286.186,74.626 286.186,74.574 L286.186,74.162 C286.186,74.110 286.207,74.084 286.250,74.084 L293.834,74.084 C293.891,74.084 293.920,74.110 293.920,74.162 L293.920,76.659 C293.920,76.716 293.891,76.745 293.834,76.745 L293.241,76.745 Z" class="cls-4"/>
          <path d="M384.886,91.917 C384.665,91.720 384.353,91.622 383.950,91.622 C383.576,91.622 383.284,91.704 383.075,91.866 C382.865,92.028 382.761,92.254 382.761,92.542 C382.761,92.773 382.860,92.969 383.059,93.128 C383.258,93.289 383.596,93.434 384.074,93.567 C384.552,93.699 384.926,93.845 385.196,94.004 C385.466,94.164 385.666,94.350 385.796,94.563 C385.927,94.776 385.992,95.026 385.992,95.314 C385.992,95.772 385.810,96.140 385.447,96.416 C385.083,96.693 384.597,96.830 383.989,96.830 C383.594,96.830 383.225,96.756 382.883,96.607 C382.541,96.458 382.277,96.254 382.091,95.995 C381.905,95.735 381.813,95.441 381.813,95.111 L382.575,95.111 C382.575,95.454 382.703,95.724 382.960,95.922 C383.217,96.120 383.560,96.219 383.989,96.219 C384.389,96.219 384.696,96.139 384.909,95.979 C385.123,95.818 385.229,95.599 385.229,95.322 C385.229,95.044 385.131,94.830 384.933,94.677 C384.736,94.526 384.378,94.376 383.859,94.228 C383.208,94.044 382.735,93.818 382.439,93.549 C382.143,93.281 381.994,92.950 381.994,92.556 C381.994,92.110 382.175,91.741 382.538,91.450 C382.900,91.158 383.370,91.011 383.950,91.011 C384.345,91.011 384.697,91.087 385.006,91.237 C385.316,91.387 385.555,91.595 385.725,91.860 C385.895,92.124 385.980,92.413 385.980,92.727 L385.218,92.727 C385.218,92.383 385.107,92.113 384.886,91.917 ZM374.247,92.388 L374.247,96.753 L373.485,96.753 L373.485,91.090 L374.247,91.090 L377.151,95.473 L377.151,91.090 L377.905,91.090 L377.905,96.753 L377.143,96.753 L374.247,92.388 ZM368.345,96.504 C367.997,96.722 367.592,96.830 367.128,96.830 C366.675,96.830 366.274,96.721 365.924,96.502 C365.573,96.283 365.301,95.970 365.108,95.565 C364.914,95.159 364.815,94.689 364.810,94.155 L364.810,93.746 C364.810,93.201 364.906,92.720 365.098,92.303 C365.290,91.885 365.562,91.566 365.914,91.344 C366.265,91.123 366.668,91.011 367.121,91.011 C367.581,91.011 367.988,91.121 368.339,91.340 C368.691,91.559 368.961,91.877 369.151,92.293 C369.340,92.710 369.435,93.194 369.435,93.746 L369.435,94.104 C369.435,94.659 369.340,95.143 369.151,95.557 C368.961,95.970 368.693,96.286 368.345,96.504 ZM368.681,93.738 C368.681,93.067 368.544,92.551 368.270,92.192 C367.996,91.833 367.613,91.653 367.121,91.653 C366.641,91.653 366.264,91.833 365.989,92.192 C365.714,92.551 365.572,93.050 365.564,93.688 L365.564,94.104 C365.564,94.754 365.703,95.266 365.981,95.638 C366.259,96.010 366.641,96.197 367.128,96.197 C367.618,96.197 367.997,96.021 368.266,95.669 C368.535,95.318 368.673,94.815 368.681,94.158 L368.681,93.738 ZM359.954,91.090 L360.713,91.090 L360.713,96.753 L359.954,96.753 L359.954,91.090 ZM354.285,96.753 L353.530,96.753 L353.530,91.700 L351.686,91.700 L351.686,91.090 L356.133,91.090 L356.133,91.700 L354.285,91.700 L354.285,96.753 ZM345.052,95.675 C345.313,96.038 345.678,96.219 346.147,96.219 C346.568,96.219 346.891,96.126 347.116,95.938 C347.342,95.749 347.491,95.422 347.565,94.956 L348.327,94.956 C348.256,95.555 348.031,96.017 347.654,96.342 C347.276,96.668 346.773,96.830 346.147,96.830 C345.467,96.830 344.923,96.590 344.513,96.111 C344.104,95.631 343.899,94.990 343.899,94.186 L343.899,93.641 C343.899,93.115 343.995,92.652 344.185,92.253 C344.376,91.853 344.647,91.547 344.997,91.332 C345.347,91.119 345.753,91.011 346.214,91.011 C346.825,91.011 347.315,91.179 347.683,91.515 C348.052,91.851 348.266,92.316 348.327,92.910 L347.565,92.910 C347.499,92.457 347.356,92.130 347.136,91.926 C346.916,91.723 346.609,91.622 346.214,91.622 C345.729,91.622 345.349,91.799 345.074,92.152 C344.799,92.505 344.661,93.007 344.661,93.659 L344.661,94.207 C344.661,94.823 344.792,95.311 345.052,95.675 ZM338.099,96.823 L337.898,96.830 C337.269,96.830 336.767,96.663 336.393,96.329 C336.019,95.995 335.829,95.534 335.824,94.948 L335.824,91.090 L336.575,91.090 L336.575,94.924 C336.575,95.334 336.689,95.653 336.918,95.880 C337.147,96.106 337.474,96.219 337.898,96.219 C338.327,96.219 338.656,96.107 338.884,95.882 C339.111,95.656 339.225,95.338 339.225,94.928 L339.225,91.090 L339.988,91.090 L339.988,94.940 C339.985,95.474 339.814,95.912 339.476,96.251 C339.138,96.590 338.679,96.781 338.099,96.823 ZM330.155,94.462 L328.804,94.462 L328.804,96.753 L328.042,96.753 L328.042,91.090 L329.946,91.090 C330.593,91.090 331.092,91.235 331.441,91.525 C331.789,91.816 331.964,92.238 331.964,92.793 C331.964,93.146 331.867,93.453 331.674,93.715 C331.480,93.977 331.211,94.173 330.866,94.302 L332.217,96.706 L332.217,96.753 L331.403,96.753 L330.155,94.462 ZM330.868,93.563 C331.090,93.371 331.202,93.113 331.202,92.791 C331.202,92.440 331.096,92.172 330.884,91.985 C330.672,91.798 330.366,91.703 329.965,91.700 L328.804,91.700 L328.804,93.851 L329.969,93.851 C330.346,93.851 330.645,93.755 330.868,93.563 ZM322.432,96.753 L321.677,96.753 L321.677,91.700 L319.833,91.700 L319.833,91.090 L324.280,91.090 L324.280,91.700 L322.432,91.700 L322.432,96.753 ZM314.505,93.567 C314.983,93.699 315.357,93.845 315.627,94.004 C315.897,94.164 316.097,94.350 316.227,94.563 C316.357,94.776 316.423,95.026 316.423,95.314 C316.423,95.772 316.241,96.140 315.877,96.416 C315.514,96.693 315.028,96.830 314.420,96.830 C314.025,96.830 313.656,96.756 313.314,96.607 C312.972,96.458 312.708,96.254 312.522,95.995 C312.336,95.735 312.244,95.441 312.244,95.111 L313.006,95.111 C313.006,95.454 313.134,95.724 313.391,95.922 C313.648,96.120 313.991,96.219 314.420,96.219 C314.820,96.219 315.127,96.139 315.340,95.979 C315.554,95.818 315.660,95.599 315.660,95.322 C315.660,95.044 315.561,94.830 315.364,94.677 C315.166,94.526 314.808,94.376 314.290,94.228 C313.639,94.044 313.166,93.818 312.870,93.549 C312.573,93.281 312.425,92.950 312.425,92.556 C312.425,92.110 312.606,91.741 312.968,91.450 C313.330,91.158 313.801,91.011 314.380,91.011 C314.775,91.011 315.128,91.087 315.437,91.237 C315.746,91.387 315.986,91.595 316.156,91.860 C316.326,92.124 316.411,92.413 316.411,92.727 L315.648,92.727 C315.648,92.383 315.538,92.113 315.317,91.917 C315.095,91.720 314.783,91.622 314.380,91.622 C314.006,91.622 313.715,91.704 313.505,91.866 C313.296,92.028 313.191,92.254 313.191,92.542 C313.191,92.773 313.291,92.969 313.490,93.128 C313.688,93.289 314.027,93.434 314.505,93.567 ZM304.678,92.388 L304.678,96.753 L303.916,96.753 L303.916,91.090 L304.678,91.090 L307.581,95.473 L307.581,91.090 L308.336,91.090 L308.336,96.753 L307.574,96.753 L304.678,92.388 ZM298.776,96.504 C298.428,96.722 298.023,96.830 297.559,96.830 C297.106,96.830 296.705,96.721 296.354,96.502 C296.004,96.283 295.732,95.970 295.539,95.565 C295.345,95.159 295.246,94.689 295.241,94.155 L295.241,93.746 C295.241,93.201 295.337,92.720 295.529,92.303 C295.721,91.885 295.993,91.566 296.345,91.344 C296.696,91.123 297.098,91.011 297.551,91.011 C298.012,91.011 298.418,91.121 298.770,91.340 C299.121,91.559 299.392,91.877 299.582,92.293 C299.771,92.710 299.866,93.194 299.866,93.746 L299.866,94.104 C299.866,94.659 299.771,95.143 299.582,95.557 C299.392,95.970 299.123,96.286 298.776,96.504 ZM299.112,93.738 C299.112,93.067 298.975,92.551 298.701,92.192 C298.427,91.833 298.044,91.653 297.551,91.653 C297.072,91.653 296.695,91.833 296.420,92.192 C296.144,92.551 296.003,93.050 295.995,93.688 L295.995,94.104 C295.995,94.754 296.134,95.266 296.412,95.638 C296.689,96.010 297.072,96.197 297.559,96.197 C298.049,96.197 298.428,96.021 298.697,95.669 C298.965,95.318 299.104,94.815 299.112,94.158 L299.112,93.738 ZM288.220,95.675 C288.481,96.038 288.846,96.219 289.314,96.219 C289.736,96.219 290.059,96.126 290.284,95.938 C290.509,95.749 290.659,95.422 290.732,94.956 L291.495,94.956 C291.424,95.555 291.199,96.017 290.821,96.342 C290.443,96.668 289.941,96.830 289.314,96.830 C288.635,96.830 288.091,96.590 287.681,96.111 C287.272,95.631 287.067,94.990 287.067,94.186 L287.067,93.641 C287.067,93.115 287.162,92.652 287.353,92.253 C287.544,91.853 287.815,91.547 288.165,91.332 C288.515,91.119 288.921,91.011 289.382,91.011 C289.992,91.011 290.482,91.179 290.851,91.515 C291.220,91.851 291.434,92.316 291.495,92.910 L290.732,92.910 C290.667,92.457 290.524,92.130 290.304,91.926 C290.084,91.723 289.777,91.622 289.382,91.622 C288.897,91.622 288.517,91.799 288.242,92.152 C287.967,92.505 287.829,93.007 287.829,93.659 L287.829,94.207 C287.829,94.823 287.960,95.311 288.220,95.675 Z" class="cls-4"/>
        </g>
        <path d="M379.766,52.875 C374.182,52.875 369.656,48.419 369.656,42.922 C369.656,37.425 374.182,32.969 379.766,32.969 C385.349,32.969 389.875,37.425 389.875,42.922 C389.875,48.419 385.349,52.875 379.766,52.875 ZM385.459,39.272 C384.953,38.786 384.133,38.786 383.627,39.272 L379.049,43.674 C378.921,43.797 378.714,43.797 378.587,43.674 L376.896,42.048 C376.390,41.561 375.570,41.561 375.065,42.048 C374.559,42.534 374.559,43.323 375.065,43.809 L377.902,46.538 C378.408,47.023 379.228,47.023 379.734,46.538 L385.459,41.033 C385.702,40.799 385.838,40.482 385.838,40.152 C385.838,39.822 385.702,39.506 385.459,39.272 Z" class="cls-4"/>
      </g>
      <g>
        <rect x="25" y="25" width="177" height="142.313" rx="10" ry="10" class="cls-9"/>
        <g>
          <path d="M183.280,96.509 L153.947,141.416 L75.052,141.416 L45.719,96.509 L75.052,51.601 L153.947,51.601 L183.280,96.509 Z" class="cls-10"/>
          <path d="M135.831,82.761 C135.042,81.621 133.453,81.319 132.290,82.088 L126.996,85.571 L126.981,74.730 L128.820,76.424 C129.211,76.784 129.721,76.981 130.256,76.981 C130.257,76.981 130.259,76.981 130.260,76.981 C130.838,76.981 131.396,76.743 131.791,76.329 C132.175,75.925 132.376,75.400 132.358,74.849 C132.339,74.297 132.104,73.786 131.694,73.408 L128.207,70.197 C127.968,69.978 127.593,69.989 127.370,70.224 C127.147,70.458 127.159,70.827 127.397,71.047 L130.884,74.258 C131.063,74.422 131.166,74.645 131.174,74.887 C131.182,75.127 131.094,75.357 130.926,75.532 C130.751,75.716 130.514,75.817 130.258,75.818 C130.257,75.818 130.257,75.818 130.256,75.818 C130.023,75.818 129.801,75.732 129.630,75.574 C129.629,75.574 129.629,75.574 129.629,75.574 L115.784,62.825 C115.556,62.614 115.201,62.615 114.973,62.826 L101.164,75.614 C100.985,75.778 100.752,75.865 100.507,75.858 C100.262,75.851 100.035,75.750 99.867,75.575 C99.698,75.399 99.610,75.170 99.617,74.929 C99.625,74.689 99.727,74.466 99.905,74.300 L114.747,60.557 C115.099,60.231 115.651,60.230 116.003,60.555 L124.686,68.550 C124.925,68.770 125.300,68.759 125.524,68.524 C125.747,68.289 125.735,67.921 125.496,67.701 L116.813,59.705 C116.005,58.961 114.741,58.963 113.935,59.709 L109.184,64.109 L109.182,63.324 C109.182,63.077 109.084,62.844 108.906,62.669 C108.728,62.495 108.492,62.399 108.240,62.399 C108.240,62.399 108.239,62.399 108.239,62.399 L104.840,62.404 C104.589,62.405 104.352,62.501 104.175,62.676 C103.997,62.852 103.899,63.084 103.900,63.332 L103.909,68.993 L99.093,73.453 C98.684,73.831 98.450,74.343 98.434,74.895 C98.417,75.447 98.620,75.971 99.005,76.374 C99.389,76.775 99.910,77.005 100.472,77.022 C100.493,77.022 100.514,77.023 100.536,77.023 C101.074,77.023 101.583,76.824 101.976,76.461 L103.811,74.761 L103.818,79.881 C103.224,79.797 102.624,79.752 102.020,79.752 L101.007,79.752 L101.007,79.403 C101.007,78.232 100.037,77.278 98.845,77.278 L96.950,77.278 C95.758,77.278 94.789,78.231 94.789,79.403 L94.789,88.524 C94.789,88.845 95.054,89.105 95.381,89.105 C95.708,89.105 95.973,88.845 95.973,88.524 L95.973,79.403 C95.973,78.873 96.411,78.443 96.950,78.443 L98.845,78.443 C99.384,78.443 99.823,78.873 99.823,79.403 L99.823,80.334 L99.823,92.264 L99.823,93.187 C99.823,93.716 99.384,94.147 98.845,94.147 L96.950,94.147 C96.411,94.147 95.973,93.716 95.973,93.187 L95.973,92.168 C95.973,91.846 95.708,91.586 95.381,91.586 C95.054,91.586 94.789,91.846 94.789,92.168 L94.789,93.187 C94.789,94.358 95.758,95.311 96.950,95.311 L98.845,95.311 C100.037,95.311 101.007,94.358 101.007,93.187 L101.007,93.107 L109.678,96.335 C109.694,96.341 109.711,96.347 109.727,96.351 C110.104,96.455 110.481,96.508 110.853,96.508 C111.054,96.508 111.254,96.493 111.452,96.462 L124.196,94.656 C124.199,94.656 124.202,94.655 124.205,94.655 C125.288,94.485 126.310,94.035 127.160,93.353 C127.168,93.347 127.175,93.341 127.182,93.335 L135.415,86.056 C136.374,85.220 136.553,83.803 135.831,82.761 ZM107.999,63.564 L108.001,65.204 L105.092,67.898 L105.084,63.568 L107.999,63.564 ZM115.380,64.047 L125.795,73.638 L125.813,86.349 L124.136,87.452 L122.361,87.353 L122.314,86.890 C122.149,85.258 120.923,83.944 119.302,83.631 L119.291,76.069 C119.290,75.489 118.810,75.017 118.219,75.017 C118.219,75.017 118.218,75.017 118.218,75.017 L112.574,75.025 C112.288,75.026 112.019,75.135 111.817,75.335 C111.615,75.534 111.504,75.798 111.504,76.080 L111.514,82.673 C110.396,82.422 109.328,82.007 108.330,81.433 C108.206,81.361 108.080,81.292 107.953,81.225 C107.904,81.199 107.854,81.174 107.804,81.149 C107.727,81.110 107.650,81.070 107.571,81.031 C107.510,81.001 107.447,80.972 107.384,80.943 C107.318,80.912 107.251,80.881 107.185,80.851 C107.117,80.821 107.048,80.792 106.979,80.763 C106.917,80.736 106.854,80.709 106.791,80.683 C106.721,80.655 106.650,80.628 106.579,80.600 C106.516,80.576 106.453,80.552 106.390,80.529 C106.319,80.503 106.249,80.478 106.178,80.454 C106.112,80.431 106.045,80.409 105.978,80.387 C105.911,80.364 105.843,80.342 105.774,80.321 C105.702,80.299 105.629,80.277 105.556,80.255 C105.493,80.238 105.430,80.219 105.367,80.202 C105.285,80.180 105.202,80.159 105.119,80.137 C105.080,80.128 105.042,80.118 105.003,80.107 L104.993,73.666 L115.380,64.047 ZM118.117,83.485 L113.165,82.925 L112.698,82.872 L112.689,76.189 L118.107,76.181 L118.117,83.485 ZM134.626,85.189 L126.401,92.460 C125.716,93.006 124.894,93.367 124.022,93.504 L111.284,95.310 C111.282,95.310 111.279,95.311 111.276,95.311 L111.267,95.312 C110.881,95.372 110.480,95.347 110.073,95.238 L101.007,91.863 L101.007,80.916 L102.020,80.916 C102.883,80.916 103.739,81.014 104.573,81.204 C104.605,81.211 104.636,81.218 104.666,81.226 C104.769,81.250 104.871,81.275 104.973,81.302 C104.982,81.305 104.991,81.307 105.000,81.309 C105.102,81.336 105.203,81.366 105.305,81.396 C105.323,81.402 105.341,81.406 105.359,81.412 C105.467,81.445 105.574,81.479 105.681,81.515 C105.692,81.519 105.703,81.523 105.714,81.527 C105.936,81.602 106.156,81.684 106.373,81.773 C106.385,81.778 106.397,81.783 106.409,81.787 C106.517,81.832 106.625,81.879 106.732,81.927 C106.734,81.928 106.738,81.930 106.740,81.931 C106.844,81.978 106.946,82.026 107.049,82.076 C107.060,82.081 107.073,82.087 107.084,82.093 C107.184,82.142 107.283,82.193 107.381,82.245 C107.400,82.255 107.418,82.265 107.437,82.275 C107.536,82.327 107.635,82.382 107.732,82.438 C109.141,83.248 110.675,83.773 112.291,83.998 C112.297,83.998 112.302,83.999 112.307,83.999 L118.941,84.751 C118.978,84.756 119.014,84.761 119.051,84.768 C120.027,84.948 120.798,85.658 121.056,86.582 C121.094,86.719 121.121,86.860 121.136,87.005 L121.162,87.266 L108.728,86.195 C108.403,86.167 108.115,86.404 108.087,86.724 C108.058,87.045 108.299,87.326 108.625,87.355 L121.770,88.486 C121.774,88.487 121.777,88.487 121.780,88.487 C121.783,88.487 121.786,88.488 121.789,88.488 L124.268,88.625 C124.279,88.625 124.290,88.625 124.301,88.625 C124.313,88.625 124.324,88.624 124.336,88.623 C124.349,88.623 124.363,88.623 124.376,88.620 C124.393,88.618 124.411,88.614 124.428,88.611 C124.440,88.608 124.453,88.606 124.465,88.602 C124.484,88.598 124.502,88.590 124.521,88.583 C124.530,88.579 124.541,88.576 124.550,88.572 C124.578,88.559 124.605,88.545 124.630,88.528 L126.735,87.144 C126.735,87.144 126.735,87.143 126.735,87.143 L132.950,83.055 C133.575,82.642 134.429,82.803 134.852,83.415 C135.240,83.976 135.144,84.736 134.626,85.189 Z" class="cls-4"/>
          <path d="M148.906,108.569 C148.624,108.315 148.220,108.188 147.694,108.188 C147.204,108.188 146.824,108.292 146.553,108.502 C146.282,108.710 146.147,109.002 146.147,109.377 C146.147,109.692 146.293,109.955 146.586,110.166 C146.878,110.376 147.360,110.582 148.032,110.781 C148.704,110.980 149.243,111.206 149.650,111.460 C150.057,111.715 150.356,112.006 150.545,112.335 C150.735,112.665 150.830,113.050 150.830,113.491 C150.830,114.209 150.554,114.780 150.003,115.203 C149.452,115.627 148.704,115.839 147.759,115.839 C147.135,115.839 146.561,115.724 146.037,115.493 C145.514,115.262 145.106,114.944 144.816,114.538 C144.526,114.132 144.380,113.659 144.380,113.119 L145.880,113.119 C145.880,113.608 146.042,113.987 146.366,114.254 C146.690,114.523 147.155,114.656 147.759,114.656 C148.281,114.656 148.673,114.551 148.936,114.340 C149.199,114.129 149.330,113.850 149.330,113.503 C149.330,113.125 149.197,112.833 148.930,112.628 C148.663,112.423 148.182,112.216 147.487,112.007 C146.791,111.799 146.238,111.566 145.827,111.310 C145.040,110.817 144.647,110.174 144.647,109.382 C144.647,108.688 144.931,108.117 145.498,107.668 C146.065,107.218 146.801,106.994 147.706,106.994 C148.307,106.994 148.842,107.104 149.313,107.325 C149.783,107.546 150.152,107.860 150.421,108.268 C150.690,108.676 150.824,109.127 150.824,109.625 L149.330,109.625 C149.330,109.175 149.189,108.824 148.906,108.569 ZM137.468,107.112 L143.071,107.112 L143.071,108.318 L138.968,108.318 L138.968,110.695 L142.513,110.695 L142.513,111.877 L138.968,111.877 L138.968,114.526 L143.112,114.526 L143.112,115.721 L137.468,115.721 L137.468,107.112 ZM133.717,112.883 L133.865,109.086 L131.316,115.721 L130.243,115.721 L127.699,109.092 L127.848,112.883 L127.848,115.721 L126.354,115.721 L126.354,107.112 L128.298,107.112 L130.788,113.710 L133.272,107.112 L135.210,107.112 L135.210,115.721 L133.717,115.721 L133.717,112.883 ZM122.682,115.327 C122.138,115.668 121.513,115.839 120.806,115.839 C120.106,115.839 119.482,115.668 118.935,115.327 C118.388,114.987 117.965,114.501 117.667,113.870 C117.368,113.240 117.217,112.512 117.213,111.688 L117.213,111.204 C117.213,110.364 117.362,109.623 117.661,108.980 C117.959,108.338 118.380,107.846 118.923,107.505 C119.467,107.164 120.090,106.994 120.794,106.994 C121.497,106.994 122.121,107.162 122.664,107.499 C123.207,107.836 123.627,108.321 123.924,108.954 C124.220,109.586 124.370,110.323 124.374,111.162 L124.374,111.641 C124.374,112.485 124.228,113.225 123.936,113.861 C123.643,114.498 123.225,114.987 122.682,115.327 ZM122.874,111.191 C122.874,110.238 122.694,109.506 122.332,108.998 C121.970,108.490 121.458,108.235 120.794,108.235 C120.146,108.235 119.639,108.489 119.273,108.995 C118.908,109.502 118.721,110.218 118.713,111.144 L118.713,111.641 C118.713,112.587 118.898,113.318 119.267,113.834 C119.637,114.351 120.149,114.609 120.806,114.609 C121.470,114.609 121.980,114.357 122.338,113.852 C122.696,113.348 122.874,112.611 122.874,111.641 L122.874,111.191 ZM113.734,111.901 L109.875,111.901 L109.875,115.721 L108.375,115.721 L108.375,107.112 L109.875,107.112 L109.875,110.695 L113.734,110.695 L113.734,107.112 L115.228,107.112 L115.228,115.721 L113.734,115.721 L113.734,111.901 ZM97.515,107.112 L103.117,107.112 L103.117,108.318 L99.015,108.318 L99.015,110.695 L102.560,110.695 L102.560,111.877 L99.015,111.877 L99.015,114.526 L103.159,114.526 L103.159,115.721 L97.515,115.721 L97.515,107.112 ZM89.910,109.613 L89.910,115.721 L88.410,115.721 L88.410,107.112 L89.910,107.112 L93.769,113.243 L93.769,107.112 L95.257,107.112 L95.257,115.721 L93.757,115.721 L89.910,109.613 ZM84.587,107.112 L86.081,107.112 L86.081,115.721 L84.587,115.721 L84.587,107.112 ZM78.843,110.878 L82.317,110.878 L82.317,112.072 L78.843,112.072 L78.843,115.721 L77.343,115.721 L77.343,107.112 L82.827,107.112 L82.827,108.318 L78.843,108.318 L78.843,110.878 Z" class="cls-4"/>
          <path d="M149.554,120.911 C149.333,120.712 149.021,120.613 148.618,120.613 C148.243,120.613 147.952,120.695 147.742,120.859 C147.533,121.024 147.428,121.252 147.428,121.544 C147.428,121.779 147.527,121.976 147.726,122.139 C147.925,122.301 148.264,122.449 148.742,122.583 C149.220,122.717 149.594,122.865 149.864,123.027 C150.135,123.188 150.335,123.377 150.465,123.592 C150.596,123.808 150.661,124.061 150.661,124.353 C150.661,124.818 150.479,125.191 150.115,125.471 C149.752,125.751 149.266,125.890 148.657,125.890 C148.262,125.890 147.893,125.815 147.551,125.664 C147.208,125.513 146.944,125.305 146.758,125.043 C146.572,124.780 146.480,124.482 146.480,124.148 L147.242,124.148 C147.242,124.495 147.371,124.769 147.628,124.970 C147.884,125.171 148.228,125.272 148.657,125.272 C149.058,125.272 149.365,125.190 149.578,125.027 C149.791,124.864 149.898,124.642 149.898,124.361 C149.898,124.080 149.799,123.862 149.602,123.709 C149.404,123.555 149.046,123.403 148.527,123.254 C147.876,123.067 147.402,122.838 147.106,122.566 C146.809,122.294 146.661,121.958 146.661,121.558 C146.661,121.106 146.842,120.733 147.205,120.437 C147.567,120.141 148.038,119.994 148.618,119.994 C149.013,119.994 149.365,120.070 149.675,120.223 C149.984,120.375 150.224,120.585 150.394,120.853 C150.564,121.121 150.649,121.414 150.649,121.732 L149.886,121.732 C149.886,121.384 149.776,121.110 149.554,120.911 ZM141.014,121.389 L141.014,125.812 L140.252,125.812 L140.252,120.072 L141.014,120.072 L143.919,124.515 L143.919,120.072 L144.674,120.072 L144.674,125.812 L143.911,125.812 L141.014,121.389 ZM137.213,125.559 C136.866,125.780 136.460,125.890 135.996,125.890 C135.543,125.890 135.141,125.780 134.791,125.557 C134.441,125.335 134.168,125.019 133.975,124.607 C133.781,124.196 133.682,123.720 133.676,123.179 L133.676,122.764 C133.676,122.213 133.773,121.725 133.965,121.302 C134.157,120.879 134.429,120.555 134.781,120.331 C135.133,120.106 135.535,119.994 135.988,119.994 C136.449,119.994 136.856,120.104 137.208,120.327 C137.559,120.549 137.830,120.871 138.020,121.292 C138.209,121.714 138.304,122.205 138.304,122.764 L138.304,123.127 C138.304,123.690 138.209,124.180 138.020,124.599 C137.830,125.019 137.561,125.338 137.213,125.559 ZM137.549,122.757 C137.549,122.077 137.412,121.554 137.138,121.190 C136.864,120.826 136.481,120.644 135.988,120.644 C135.509,120.644 135.131,120.826 134.856,121.190 C134.581,121.554 134.439,122.059 134.431,122.705 L134.431,123.127 C134.431,123.787 134.570,124.305 134.848,124.682 C135.126,125.060 135.509,125.248 135.996,125.248 C136.486,125.248 136.866,125.070 137.135,124.714 C137.403,124.358 137.542,123.847 137.549,123.183 L137.549,122.757 ZM130.923,120.072 L131.681,120.072 L131.681,125.812 L130.923,125.812 L130.923,120.072 ZM127.355,125.812 L126.600,125.812 L126.600,120.691 L124.754,120.691 L124.754,120.072 L129.204,120.072 L129.204,120.691 L127.355,120.691 L127.355,125.812 ZM120.222,124.719 C120.483,125.087 120.848,125.272 121.317,125.272 C121.738,125.272 122.062,125.176 122.287,124.986 C122.512,124.795 122.662,124.463 122.735,123.991 L123.498,123.991 C123.427,124.597 123.202,125.066 122.824,125.396 C122.446,125.726 121.944,125.890 121.317,125.890 C120.637,125.890 120.092,125.647 119.682,125.162 C119.273,124.675 119.068,124.025 119.068,123.211 L119.068,122.658 C119.068,122.125 119.163,121.656 119.354,121.251 C119.545,120.846 119.816,120.535 120.167,120.319 C120.517,120.102 120.923,119.994 121.384,119.994 C121.995,119.994 122.485,120.163 122.854,120.504 C123.223,120.844 123.438,121.316 123.498,121.917 L122.735,121.917 C122.670,121.459 122.527,121.127 122.307,120.921 C122.087,120.716 121.779,120.613 121.384,120.613 C120.899,120.613 120.519,120.791 120.244,121.149 C119.968,121.507 119.831,122.015 119.831,122.675 L119.831,123.232 C119.831,123.855 119.961,124.351 120.222,124.719 ZM115.370,125.882 L115.168,125.890 C114.538,125.890 114.036,125.721 113.662,125.382 C113.288,125.043 113.098,124.576 113.093,123.983 L113.093,120.072 L113.844,120.072 L113.844,123.959 C113.844,124.374 113.959,124.697 114.188,124.926 C114.417,125.157 114.744,125.272 115.168,125.272 C115.597,125.272 115.926,125.157 116.154,124.928 C116.382,124.700 116.496,124.378 116.496,123.963 L116.496,120.072 L117.259,120.072 L117.259,123.975 C117.256,124.516 117.085,124.959 116.747,125.303 C116.408,125.647 115.949,125.840 115.370,125.882 ZM109.525,123.490 L108.174,123.490 L108.174,125.812 L107.411,125.812 L107.411,120.072 L109.316,120.072 C109.964,120.072 110.462,120.220 110.812,120.514 C111.161,120.808 111.335,121.236 111.335,121.799 C111.335,122.156 111.238,122.468 111.045,122.733 C110.851,122.999 110.582,123.197 110.237,123.328 L111.588,125.764 L111.588,125.812 L110.774,125.812 L109.525,123.490 ZM110.238,122.579 C110.461,122.384 110.572,122.124 110.572,121.797 C110.572,121.442 110.466,121.169 110.254,120.980 C110.042,120.790 109.736,120.694 109.335,120.691 L108.174,120.691 L108.174,122.871 L109.339,122.871 C109.716,122.871 110.016,122.774 110.238,122.579 ZM103.902,125.812 L103.147,125.812 L103.147,120.691 L101.302,120.691 L101.302,120.072 L105.752,120.072 L105.752,120.691 L103.902,120.691 L103.902,125.812 ZM98.076,122.583 C98.554,122.717 98.928,122.865 99.198,123.027 C99.468,123.188 99.668,123.377 99.799,123.592 C99.929,123.808 99.994,124.061 99.994,124.353 C99.994,124.818 99.813,125.191 99.449,125.471 C99.085,125.751 98.599,125.890 97.991,125.890 C97.595,125.890 97.227,125.815 96.884,125.664 C96.542,125.513 96.277,125.305 96.092,125.043 C95.906,124.780 95.813,124.482 95.813,124.148 L96.576,124.148 C96.576,124.495 96.704,124.769 96.961,124.970 C97.218,125.171 97.561,125.272 97.991,125.272 C98.391,125.272 98.698,125.190 98.911,125.027 C99.125,124.864 99.232,124.642 99.232,124.361 C99.232,124.080 99.133,123.862 98.935,123.709 C98.738,123.555 98.379,123.403 97.860,123.254 C97.210,123.067 96.736,122.838 96.439,122.566 C96.143,122.294 95.995,121.958 95.995,121.558 C95.995,121.106 96.176,120.733 96.538,120.437 C96.901,120.141 97.371,119.994 97.951,119.994 C98.346,119.994 98.699,120.070 99.008,120.223 C99.318,120.375 99.558,120.585 99.728,120.853 C99.898,121.121 99.982,121.414 99.982,121.732 L99.220,121.732 C99.220,121.384 99.109,121.110 98.888,120.911 C98.666,120.712 98.354,120.613 97.951,120.613 C97.577,120.613 97.285,120.695 97.076,120.859 C96.866,121.024 96.762,121.252 96.762,121.544 C96.762,121.779 96.861,121.976 97.060,122.139 C97.259,122.301 97.597,122.449 98.076,122.583 ZM90.348,121.389 L90.348,125.812 L89.585,125.812 L89.585,120.072 L90.348,120.072 L93.253,124.515 L93.253,120.072 L94.008,120.072 L94.008,125.812 L93.245,125.812 L90.348,121.389 ZM86.547,125.559 C86.199,125.780 85.793,125.890 85.330,125.890 C84.877,125.890 84.475,125.780 84.124,125.557 C83.774,125.335 83.502,125.019 83.308,124.607 C83.115,124.196 83.015,123.720 83.010,123.179 L83.010,122.764 C83.010,122.213 83.106,121.725 83.298,121.302 C83.491,120.879 83.763,120.555 84.115,120.331 C84.466,120.106 84.869,119.994 85.322,119.994 C85.783,119.994 86.189,120.104 86.541,120.327 C86.893,120.549 87.164,120.871 87.353,121.292 C87.543,121.714 87.638,122.205 87.638,122.764 L87.638,123.127 C87.638,123.690 87.543,124.180 87.353,124.599 C87.164,125.019 86.895,125.338 86.547,125.559 ZM86.883,122.757 C86.883,122.077 86.746,121.554 86.472,121.190 C86.198,120.826 85.815,120.644 85.322,120.644 C84.842,120.644 84.465,120.826 84.190,121.190 C83.914,121.554 83.773,122.059 83.765,122.705 L83.765,123.127 C83.765,123.787 83.904,124.305 84.182,124.682 C84.460,125.060 84.842,125.248 85.330,125.248 C85.820,125.248 86.199,125.070 86.468,124.714 C86.737,124.358 86.875,123.847 86.883,123.183 L86.883,122.757 ZM78.090,124.719 C78.351,125.087 78.716,125.272 79.185,125.272 C79.607,125.272 79.930,125.176 80.155,124.986 C80.381,124.795 80.530,124.463 80.604,123.991 L81.367,123.991 C81.295,124.597 81.071,125.066 80.693,125.396 C80.315,125.726 79.812,125.890 79.185,125.890 C78.505,125.890 77.961,125.647 77.551,125.162 C77.141,124.675 76.936,124.025 76.936,123.211 L76.936,122.658 C76.936,122.125 77.032,121.656 77.223,121.251 C77.414,120.846 77.685,120.535 78.035,120.319 C78.385,120.102 78.791,119.994 79.252,119.994 C79.864,119.994 80.353,120.163 80.722,120.504 C81.091,120.844 81.306,121.316 81.367,121.917 L80.604,121.917 C80.538,121.459 80.395,121.127 80.175,120.921 C79.955,120.716 79.647,120.613 79.252,120.613 C78.767,120.613 78.387,120.791 78.112,121.149 C77.837,121.507 77.699,122.015 77.699,122.675 L77.699,123.232 C77.699,123.855 77.830,124.351 78.090,124.719 Z" class="cls-4"/>
        </g>
      </g>
    </g>
  </g>
</svg>
