<svg xmlns="http://www.w3.org/2000/svg" xmlns:xlink="http://www.w3.org/1999/xlink" preserveAspectRatio="xMidYMid" width="412" height="353" viewBox="0 0 412 353">
  <defs>
    <style>
      .cls-1, .cls-2, .cls-7 {
        fill: #fff;
      }

      .cls-2 {
        stroke: #e1e1e1;
        stroke-width: 1px;
      }

      .cls-3 {
        fill: #bababa;
      }

      .cls-3, .cls-5, .cls-7, .cls-9 {
        fill-rule: evenodd;
      }

      .cls-4 {
        fill: #eaeaea;
      }

      .cls-5 {
        fill: #000;
      }

      .cls-6 {
        fill: #59c3c3;
      }

      .cls-8, .cls-9 {
        fill: #f27059;
      }
    </style>
  </defs>
  <g>
    <rect width="412" height="353" rx="20" ry="20" class="cls-1"/>
    <rect x="25" y="26" width="362" height="40" rx="5" ry="5" class="cls-2"/>
    <path d="M172.062,44.982 C171.975,44.982 171.841,44.913 171.659,44.774 C171.425,44.609 171.193,44.477 170.963,44.378 C170.734,44.278 170.441,44.228 170.086,44.228 C169.635,44.228 169.276,44.330 169.007,44.533 C168.738,44.737 168.604,45.012 168.604,45.359 C168.604,45.558 168.649,45.723 168.740,45.853 C168.831,45.983 168.987,46.098 169.208,46.197 C169.429,46.297 169.748,46.395 170.164,46.490 C170.762,46.629 171.221,46.776 171.542,46.932 C171.863,47.088 172.092,47.274 172.231,47.491 C172.370,47.708 172.439,47.985 172.439,48.323 C172.439,48.852 172.216,49.278 171.769,49.603 C171.323,49.928 170.732,50.091 169.995,50.091 C169.631,50.091 169.273,50.041 168.922,49.942 C168.571,49.842 168.262,49.705 167.993,49.532 C167.828,49.419 167.713,49.322 167.648,49.239 C167.583,49.157 167.551,49.064 167.551,48.960 C167.551,48.873 167.579,48.800 167.635,48.739 C167.692,48.678 167.759,48.648 167.837,48.648 C167.915,48.648 168.049,48.713 168.240,48.843 C168.491,49.008 168.749,49.142 169.013,49.246 C169.278,49.350 169.609,49.402 170.008,49.402 C170.519,49.402 170.918,49.309 171.204,49.123 C171.490,48.936 171.633,48.670 171.633,48.323 C171.633,48.115 171.581,47.944 171.477,47.809 C171.373,47.675 171.200,47.558 170.957,47.458 C170.714,47.359 170.368,47.261 169.917,47.166 C169.146,46.993 168.597,46.770 168.272,46.497 C167.947,46.224 167.785,45.857 167.785,45.398 C167.785,44.843 168.002,44.395 168.435,44.052 C168.868,43.710 169.432,43.539 170.125,43.539 C170.463,43.539 170.786,43.582 171.093,43.669 C171.401,43.756 171.668,43.881 171.893,44.046 C172.196,44.254 172.348,44.458 172.348,44.657 C172.348,44.744 172.320,44.819 172.263,44.885 C172.207,44.950 172.140,44.982 172.062,44.982 ZM165.497,50.065 C165.376,50.065 165.278,50.028 165.205,49.955 C165.131,49.881 165.094,49.783 165.094,49.662 L165.094,46.035 C165.094,45.411 164.968,44.956 164.717,44.670 C164.466,44.384 164.067,44.241 163.521,44.241 C162.897,44.241 162.397,44.432 162.020,44.813 C161.643,45.194 161.454,45.706 161.454,46.347 L161.454,49.662 C161.454,49.783 161.419,49.881 161.350,49.955 C161.281,50.028 161.185,50.065 161.064,50.065 C160.943,50.065 160.845,50.028 160.772,49.955 C160.698,49.881 160.661,49.783 160.661,49.662 L160.661,43.968 C160.661,43.847 160.698,43.749 160.772,43.675 C160.845,43.602 160.943,43.565 161.064,43.565 C161.177,43.565 161.268,43.600 161.337,43.669 C161.406,43.738 161.441,43.834 161.441,43.955 L161.441,44.774 C161.640,44.375 161.929,44.070 162.306,43.858 C162.683,43.645 163.118,43.539 163.612,43.539 C165.129,43.539 165.887,44.354 165.887,45.983 L165.887,49.662 C165.887,49.783 165.852,49.881 165.783,49.955 C165.714,50.028 165.618,50.065 165.497,50.065 ZM157.606,49.688 C157.164,49.957 156.657,50.091 156.085,50.091 C155.504,50.091 154.995,49.957 154.558,49.688 C154.120,49.419 153.780,49.038 153.537,48.544 C153.294,48.050 153.173,47.474 153.173,46.815 C153.173,46.156 153.294,45.580 153.537,45.086 C153.780,44.592 154.120,44.211 154.558,43.942 C154.995,43.673 155.504,43.539 156.085,43.539 C156.657,43.539 157.164,43.673 157.606,43.942 C158.048,44.211 158.388,44.592 158.627,45.086 C158.865,45.580 158.984,46.156 158.984,46.815 C158.984,47.474 158.865,48.050 158.627,48.544 C158.388,49.038 158.048,49.419 157.606,49.688 ZM157.613,44.911 C157.244,44.455 156.735,44.228 156.085,44.228 C155.426,44.228 154.915,44.455 154.551,44.911 C154.187,45.365 154.005,46.000 154.005,46.815 C154.005,47.647 154.183,48.284 154.538,48.726 C154.893,49.168 155.405,49.389 156.072,49.389 C156.739,49.389 157.255,49.168 157.619,48.726 C157.983,48.284 158.165,47.647 158.165,46.815 C158.165,46.000 157.981,45.365 157.613,44.911 ZM149.975,49.389 C150.305,49.389 150.580,49.341 150.801,49.246 C151.022,49.151 151.262,49.021 151.522,48.856 C151.600,48.804 151.676,48.756 151.750,48.713 C151.823,48.670 151.882,48.648 151.925,48.648 C152.012,48.648 152.081,48.678 152.133,48.739 C152.185,48.800 152.211,48.873 152.211,48.960 C152.211,49.064 152.181,49.155 152.120,49.233 C152.060,49.311 151.943,49.411 151.769,49.532 C151.535,49.705 151.251,49.842 150.918,49.942 C150.584,50.041 150.253,50.091 149.923,50.091 C149.343,50.091 148.831,49.957 148.389,49.688 C147.947,49.419 147.605,49.038 147.362,48.544 C147.120,48.050 146.998,47.482 146.998,46.841 C146.998,46.191 147.122,45.617 147.369,45.118 C147.616,44.620 147.962,44.232 148.409,43.955 C148.855,43.678 149.369,43.539 149.949,43.539 C150.279,43.539 150.599,43.582 150.911,43.669 C151.223,43.756 151.501,43.886 151.743,44.059 C151.899,44.172 152.010,44.273 152.075,44.365 C152.140,44.455 152.172,44.553 152.172,44.657 C152.172,44.752 152.146,44.830 152.094,44.891 C152.042,44.952 151.977,44.982 151.899,44.982 C151.813,44.982 151.674,44.908 151.483,44.761 C151.258,44.596 151.033,44.466 150.807,44.371 C150.582,44.276 150.309,44.228 149.988,44.228 C149.312,44.228 148.784,44.460 148.402,44.924 C148.021,45.387 147.830,46.026 147.830,46.841 C147.830,47.647 148.019,48.273 148.396,48.719 C148.773,49.166 149.299,49.389 149.975,49.389 ZM144.775,50.065 C144.654,50.065 144.556,50.026 144.483,49.948 C144.409,49.870 144.372,49.770 144.372,49.649 L144.372,41.186 C144.372,41.065 144.409,40.965 144.483,40.887 C144.556,40.809 144.654,40.770 144.775,40.770 C144.897,40.770 144.994,40.809 145.068,40.887 C145.141,40.965 145.178,41.065 145.178,41.186 L145.178,49.649 C145.178,49.770 145.141,49.870 145.068,49.948 C144.994,50.026 144.897,50.065 144.775,50.065 ZM139.420,50.104 C139.324,50.104 139.242,50.065 139.173,49.987 L137.912,48.635 C137.530,49.112 137.090,49.474 136.592,49.720 C136.094,49.968 135.559,50.091 134.987,50.091 C134.441,50.091 133.951,49.996 133.518,49.805 C133.084,49.614 132.746,49.341 132.504,48.986 C132.261,48.631 132.140,48.219 132.140,47.751 C132.140,47.179 132.319,46.670 132.679,46.224 C133.039,45.777 133.591,45.324 134.337,44.865 L134.376,44.839 C133.986,44.414 133.697,44.044 133.511,43.727 C133.325,43.411 133.232,43.062 133.232,42.681 C133.232,42.066 133.433,41.589 133.836,41.251 C134.239,40.913 134.748,40.744 135.364,40.744 C135.953,40.744 136.425,40.902 136.781,41.219 C137.136,41.535 137.314,41.970 137.314,42.525 C137.314,42.993 137.168,43.405 136.878,43.760 C136.588,44.115 136.113,44.510 135.455,44.943 L137.808,47.504 C138.128,46.837 138.315,46.013 138.367,45.034 C138.375,44.904 138.419,44.804 138.497,44.735 C138.575,44.666 138.661,44.631 138.757,44.631 C138.861,44.631 138.945,44.666 139.010,44.735 C139.075,44.804 139.103,44.904 139.095,45.034 C139.034,46.213 138.770,47.214 138.302,48.037 L139.680,49.519 C139.749,49.606 139.784,49.684 139.784,49.753 C139.784,49.848 139.747,49.931 139.673,50.000 C139.599,50.069 139.515,50.104 139.420,50.104 ZM136.222,43.461 C136.456,43.192 136.573,42.898 136.573,42.577 C136.573,42.230 136.464,41.949 136.248,41.732 C136.031,41.515 135.736,41.407 135.364,41.407 C134.965,41.407 134.642,41.522 134.395,41.752 C134.148,41.981 134.025,42.291 134.025,42.681 C134.025,42.984 134.098,43.257 134.246,43.500 C134.393,43.743 134.640,44.059 134.987,44.449 C135.576,44.059 135.988,43.730 136.222,43.461 ZM134.831,45.333 L134.779,45.372 C134.077,45.823 133.593,46.219 133.329,46.561 C133.065,46.904 132.933,47.296 132.933,47.738 C132.933,48.267 133.123,48.678 133.505,48.973 C133.886,49.268 134.393,49.415 135.026,49.415 C135.494,49.415 135.936,49.309 136.352,49.096 C136.768,48.884 137.132,48.561 137.444,48.128 L134.831,45.333 ZM124.190,46.197 C124.411,46.297 124.730,46.395 125.146,46.490 C125.744,46.629 126.203,46.776 126.524,46.932 C126.844,47.088 127.074,47.274 127.213,47.491 C127.351,47.708 127.421,47.985 127.421,48.323 C127.421,48.852 127.197,49.278 126.751,49.603 C126.305,49.928 125.713,50.091 124.977,50.091 C124.613,50.091 124.255,50.041 123.904,49.942 C123.553,49.842 123.243,49.705 122.975,49.532 C122.810,49.419 122.695,49.322 122.630,49.239 C122.565,49.157 122.533,49.064 122.533,48.960 C122.533,48.873 122.561,48.800 122.617,48.739 C122.673,48.678 122.741,48.648 122.819,48.648 C122.897,48.648 123.031,48.713 123.222,48.843 C123.473,49.008 123.731,49.142 123.995,49.246 C124.259,49.350 124.591,49.402 124.990,49.402 C125.501,49.402 125.900,49.309 126.186,49.123 C126.472,48.936 126.615,48.670 126.615,48.323 C126.615,48.115 126.563,47.944 126.459,47.809 C126.355,47.675 126.181,47.558 125.939,47.458 C125.696,47.359 125.349,47.261 124.899,47.166 C124.127,46.993 123.579,46.770 123.254,46.497 C122.929,46.224 122.767,45.857 122.767,45.398 C122.767,44.843 122.983,44.395 123.417,44.052 C123.850,43.710 124.413,43.539 125.107,43.539 C125.445,43.539 125.767,43.582 126.075,43.669 C126.383,43.756 126.649,43.881 126.875,44.046 C127.178,44.254 127.330,44.458 127.330,44.657 C127.330,44.744 127.301,44.819 127.245,44.885 C127.189,44.950 127.122,44.982 127.044,44.982 C126.957,44.982 126.823,44.913 126.641,44.774 C126.407,44.609 126.175,44.477 125.945,44.378 C125.715,44.278 125.423,44.228 125.068,44.228 C124.617,44.228 124.257,44.330 123.989,44.533 C123.720,44.737 123.586,45.012 123.586,45.359 C123.586,45.558 123.631,45.723 123.722,45.853 C123.813,45.983 123.969,46.098 124.190,46.197 ZM120.843,46.945 L116.514,46.945 C116.540,47.742 116.748,48.349 117.138,48.765 C117.528,49.181 118.078,49.389 118.789,49.389 C119.161,49.389 119.473,49.339 119.725,49.239 C119.976,49.140 120.245,49.008 120.531,48.843 C120.721,48.713 120.856,48.648 120.934,48.648 C121.012,48.648 121.079,48.681 121.135,48.745 C121.192,48.811 121.220,48.886 121.220,48.973 C121.220,49.164 121.072,49.350 120.778,49.532 C120.154,49.905 119.495,50.091 118.802,50.091 C117.840,50.091 117.081,49.801 116.527,49.220 C115.972,48.639 115.695,47.842 115.695,46.828 C115.695,46.178 115.818,45.604 116.065,45.105 C116.312,44.607 116.659,44.221 117.105,43.948 C117.552,43.675 118.065,43.539 118.646,43.539 C119.460,43.539 120.104,43.801 120.576,44.326 C121.049,44.850 121.285,45.571 121.285,46.490 C121.285,46.646 121.250,46.761 121.181,46.834 C121.111,46.908 120.999,46.945 120.843,46.945 ZM120.037,44.754 C119.707,44.378 119.244,44.189 118.646,44.189 C118.039,44.189 117.554,44.380 117.190,44.761 C116.826,45.142 116.609,45.675 116.540,46.360 L120.557,46.360 C120.539,45.667 120.366,45.131 120.037,44.754 ZM113.082,49.688 C112.657,49.957 112.167,50.091 111.613,50.091 C111.101,50.091 110.659,49.980 110.287,49.759 C109.914,49.538 109.632,49.216 109.442,48.791 L109.442,52.002 C109.442,52.123 109.407,52.221 109.338,52.295 C109.268,52.368 109.173,52.405 109.052,52.405 C108.930,52.405 108.833,52.368 108.759,52.295 C108.686,52.221 108.649,52.123 108.649,52.002 L108.649,43.968 C108.649,43.847 108.686,43.749 108.759,43.675 C108.833,43.602 108.930,43.565 109.052,43.565 C109.173,43.565 109.268,43.602 109.338,43.675 C109.407,43.749 109.442,43.847 109.442,43.968 L109.442,44.839 C109.632,44.414 109.914,44.091 110.287,43.871 C110.659,43.649 111.101,43.539 111.613,43.539 C112.167,43.539 112.657,43.675 113.082,43.948 C113.506,44.221 113.836,44.607 114.070,45.105 C114.304,45.604 114.421,46.182 114.421,46.841 C114.421,47.491 114.304,48.061 114.070,48.550 C113.836,49.040 113.506,49.419 113.082,49.688 ZM113.049,44.917 C112.681,44.458 112.167,44.228 111.509,44.228 C110.850,44.228 110.341,44.453 109.981,44.904 C109.622,45.355 109.442,45.992 109.442,46.815 C109.442,47.638 109.619,48.273 109.975,48.719 C110.330,49.166 110.837,49.389 111.496,49.389 C112.163,49.389 112.681,49.166 113.049,48.719 C113.418,48.273 113.602,47.647 113.602,46.841 C113.602,46.018 113.418,45.376 113.049,44.917 ZM106.192,50.052 C106.071,50.052 105.975,50.015 105.906,49.942 C105.837,49.868 105.802,49.770 105.802,49.649 L105.802,48.869 C105.620,49.259 105.356,49.560 105.009,49.772 C104.662,49.985 104.264,50.091 103.813,50.091 C103.406,50.091 103.033,50.009 102.695,49.844 C102.357,49.679 102.091,49.450 101.896,49.155 C101.701,48.860 101.603,48.535 101.603,48.180 C101.603,47.712 101.724,47.348 101.967,47.088 C102.210,46.828 102.613,46.642 103.176,46.529 C103.739,46.416 104.524,46.360 105.529,46.360 L105.802,46.360 L105.802,45.879 C105.802,45.307 105.685,44.889 105.451,44.624 C105.217,44.360 104.849,44.228 104.346,44.228 C103.705,44.228 103.094,44.397 102.513,44.735 C102.487,44.752 102.420,44.798 102.312,44.872 C102.203,44.945 102.110,44.982 102.032,44.982 C101.945,44.982 101.874,44.950 101.818,44.885 C101.761,44.819 101.733,44.739 101.733,44.644 C101.733,44.453 101.885,44.267 102.188,44.085 C102.491,43.912 102.829,43.777 103.202,43.682 C103.575,43.587 103.943,43.539 104.307,43.539 C105.070,43.539 105.640,43.738 106.017,44.137 C106.394,44.536 106.582,45.138 106.582,45.944 L106.582,49.649 C106.582,49.770 106.547,49.868 106.478,49.942 C106.409,50.015 106.313,50.052 106.192,50.052 ZM105.802,46.945 L105.555,46.945 C104.723,46.945 104.086,46.980 103.644,47.049 C103.202,47.118 102.890,47.237 102.708,47.406 C102.526,47.576 102.435,47.820 102.435,48.141 C102.435,48.505 102.574,48.806 102.851,49.044 C103.128,49.283 103.471,49.402 103.878,49.402 C104.441,49.402 104.903,49.211 105.263,48.830 C105.622,48.449 105.802,47.963 105.802,47.374 L105.802,46.945 ZM99.354,50.065 C99.233,50.065 99.135,50.028 99.062,49.955 C98.988,49.881 98.951,49.783 98.951,49.662 L98.951,46.035 C98.951,45.411 98.825,44.956 98.574,44.670 C98.323,44.384 97.924,44.241 97.378,44.241 C96.754,44.241 96.254,44.432 95.877,44.813 C95.500,45.194 95.311,45.706 95.311,46.347 L95.311,49.662 C95.311,49.783 95.276,49.881 95.207,49.955 C95.138,50.028 95.042,50.065 94.921,50.065 C94.800,50.065 94.702,50.028 94.629,49.955 C94.555,49.881 94.518,49.783 94.518,49.662 L94.518,41.173 C94.518,41.052 94.555,40.954 94.629,40.880 C94.702,40.807 94.800,40.770 94.921,40.770 C95.042,40.770 95.138,40.807 95.207,40.880 C95.276,40.954 95.311,41.052 95.311,41.173 L95.311,44.748 C95.510,44.358 95.799,44.059 96.176,43.851 C96.553,43.643 96.984,43.539 97.469,43.539 C98.986,43.539 99.744,44.354 99.744,45.983 L99.744,49.662 C99.744,49.783 99.709,49.881 99.640,49.955 C99.571,50.028 99.475,50.065 99.354,50.065 ZM88.220,44.709 C88.527,44.839 88.924,44.965 89.409,45.086 L89.747,45.164 C90.449,45.337 91.004,45.498 91.411,45.645 C91.818,45.792 92.163,46.020 92.445,46.327 C92.726,46.635 92.867,47.049 92.867,47.569 C92.867,48.063 92.731,48.503 92.458,48.888 C92.185,49.274 91.799,49.573 91.301,49.785 C90.802,49.998 90.232,50.104 89.591,50.104 C88.950,50.104 88.332,50.002 87.739,49.799 C87.145,49.595 86.679,49.320 86.341,48.973 C86.228,48.878 86.172,48.752 86.172,48.596 C86.172,48.501 86.200,48.418 86.257,48.349 C86.313,48.280 86.376,48.245 86.445,48.245 C86.532,48.245 86.631,48.288 86.744,48.375 C87.559,49.051 88.508,49.389 89.591,49.389 C90.380,49.389 90.989,49.231 91.418,48.914 C91.847,48.598 92.061,48.150 92.061,47.569 C92.061,47.231 91.957,46.958 91.749,46.750 C91.541,46.542 91.277,46.379 90.956,46.262 C90.635,46.145 90.206,46.026 89.669,45.905 C88.958,45.749 88.384,45.589 87.947,45.424 C87.509,45.259 87.138,45.010 86.835,44.676 C86.532,44.343 86.380,43.894 86.380,43.331 C86.380,42.820 86.517,42.367 86.790,41.972 C87.063,41.578 87.446,41.273 87.940,41.056 C88.434,40.839 89.002,40.731 89.643,40.731 C90.241,40.731 90.804,40.828 91.333,41.023 C91.862,41.219 92.299,41.498 92.646,41.862 C92.759,41.975 92.815,42.100 92.815,42.239 C92.815,42.334 92.787,42.417 92.731,42.486 C92.674,42.555 92.611,42.590 92.542,42.590 C92.455,42.590 92.356,42.547 92.243,42.460 C91.775,42.079 91.353,41.814 90.976,41.667 C90.599,41.520 90.154,41.446 89.643,41.446 C88.872,41.446 88.269,41.611 87.836,41.940 C87.403,42.269 87.186,42.729 87.186,43.318 C87.186,43.673 87.281,43.961 87.472,44.182 C87.663,44.404 87.912,44.579 88.220,44.709 ZM80.894,50.065 C80.773,50.065 80.675,50.028 80.602,49.955 C80.528,49.881 80.491,49.783 80.491,49.662 L80.491,46.035 C80.491,45.411 80.366,44.956 80.114,44.670 C79.863,44.384 79.464,44.241 78.918,44.241 C78.294,44.241 77.794,44.432 77.417,44.813 C77.040,45.194 76.851,45.706 76.851,46.347 L76.851,49.662 C76.851,49.783 76.817,49.881 76.747,49.955 C76.678,50.028 76.583,50.065 76.461,50.065 C76.340,50.065 76.242,50.028 76.169,49.955 C76.095,49.881 76.058,49.783 76.058,49.662 L76.058,41.173 C76.058,41.052 76.095,40.954 76.169,40.880 C76.242,40.807 76.340,40.770 76.461,40.770 C76.583,40.770 76.678,40.807 76.747,40.880 C76.817,40.954 76.851,41.052 76.851,41.173 L76.851,44.748 C77.051,44.358 77.339,44.059 77.716,43.851 C78.093,43.643 78.524,43.539 79.009,43.539 C80.526,43.539 81.284,44.354 81.284,45.983 L81.284,49.662 C81.284,49.783 81.250,49.881 81.180,49.955 C81.111,50.028 81.016,50.065 80.894,50.065 ZM72.457,49.389 C72.787,49.389 73.062,49.341 73.283,49.246 C73.504,49.151 73.744,49.021 74.004,48.856 C74.082,48.804 74.158,48.756 74.232,48.713 C74.306,48.670 74.364,48.648 74.407,48.648 C74.494,48.648 74.563,48.678 74.615,48.739 C74.667,48.800 74.693,48.873 74.693,48.960 C74.693,49.064 74.663,49.155 74.602,49.233 C74.542,49.311 74.425,49.411 74.251,49.532 C74.017,49.705 73.734,49.842 73.400,49.942 C73.066,50.041 72.735,50.091 72.405,50.091 C71.825,50.091 71.313,49.957 70.871,49.688 C70.429,49.419 70.087,49.038 69.844,48.544 C69.602,48.050 69.480,47.482 69.480,46.841 C69.480,46.191 69.604,45.617 69.851,45.118 C70.098,44.620 70.445,44.232 70.891,43.955 C71.337,43.678 71.851,43.539 72.431,43.539 C72.761,43.539 73.081,43.582 73.393,43.669 C73.705,43.756 73.983,43.886 74.225,44.059 C74.381,44.172 74.492,44.273 74.557,44.365 C74.622,44.455 74.654,44.553 74.654,44.657 C74.654,44.752 74.628,44.830 74.576,44.891 C74.524,44.952 74.459,44.982 74.381,44.982 C74.295,44.982 74.156,44.908 73.965,44.761 C73.740,44.596 73.515,44.466 73.289,44.371 C73.064,44.276 72.791,44.228 72.470,44.228 C71.794,44.228 71.266,44.460 70.884,44.924 C70.503,45.387 70.312,46.026 70.312,46.841 C70.312,47.647 70.501,48.273 70.878,48.719 C71.255,49.166 71.781,49.389 72.457,49.389 ZM68.220,44.293 C67.604,44.354 67.147,44.575 66.848,44.956 C66.549,45.337 66.400,45.784 66.400,46.295 L66.400,49.662 C66.400,49.792 66.365,49.892 66.296,49.961 C66.226,50.030 66.131,50.065 66.010,50.065 C65.888,50.065 65.791,50.030 65.717,49.961 C65.643,49.892 65.607,49.792 65.607,49.662 L65.607,43.968 C65.607,43.838 65.643,43.738 65.717,43.669 C65.791,43.600 65.888,43.565 66.010,43.565 C66.122,43.565 66.213,43.600 66.283,43.669 C66.352,43.738 66.387,43.834 66.387,43.955 L66.387,44.800 C66.742,44.055 67.401,43.647 68.363,43.578 L68.545,43.565 C68.709,43.556 68.826,43.578 68.896,43.630 C68.965,43.682 69.000,43.769 69.000,43.890 C69.000,44.107 68.870,44.228 68.610,44.254 L68.220,44.293 ZM63.150,50.052 C63.028,50.052 62.933,50.015 62.864,49.942 C62.794,49.868 62.760,49.770 62.760,49.649 L62.760,48.869 C62.578,49.259 62.313,49.560 61.967,49.772 C61.620,49.985 61.221,50.091 60.771,50.091 C60.363,50.091 59.991,50.009 59.653,49.844 C59.315,49.679 59.048,49.450 58.853,49.155 C58.658,48.860 58.561,48.535 58.561,48.180 C58.561,47.712 58.682,47.348 58.925,47.088 C59.167,46.828 59.570,46.642 60.134,46.529 C60.697,46.416 61.481,46.360 62.487,46.360 L62.760,46.360 L62.760,45.879 C62.760,45.307 62.643,44.889 62.409,44.624 C62.175,44.360 61.806,44.228 61.304,44.228 C60.662,44.228 60.051,44.397 59.471,44.735 C59.445,44.752 59.378,44.798 59.269,44.872 C59.161,44.945 59.068,44.982 58.990,44.982 C58.903,44.982 58.832,44.950 58.775,44.885 C58.719,44.819 58.691,44.739 58.691,44.644 C58.691,44.453 58.842,44.267 59.146,44.085 C59.449,43.912 59.787,43.777 60.160,43.682 C60.532,43.587 60.901,43.539 61.265,43.539 C62.027,43.539 62.597,43.738 62.974,44.137 C63.351,44.536 63.540,45.138 63.540,45.944 L63.540,49.649 C63.540,49.770 63.505,49.868 63.436,49.942 C63.366,50.015 63.271,50.052 63.150,50.052 ZM62.760,46.945 L62.513,46.945 C61.681,46.945 61.044,46.980 60.602,47.049 C60.160,47.118 59.848,47.237 59.666,47.406 C59.484,47.576 59.393,47.820 59.393,48.141 C59.393,48.505 59.531,48.806 59.809,49.044 C60.086,49.283 60.428,49.402 60.836,49.402 C61.399,49.402 61.861,49.211 62.220,48.830 C62.580,48.449 62.760,47.963 62.760,47.374 L62.760,46.945 ZM56.676,46.945 L52.347,46.945 C52.373,47.742 52.581,48.349 52.971,48.765 C53.361,49.181 53.911,49.389 54.622,49.389 C54.994,49.389 55.306,49.339 55.558,49.239 C55.809,49.140 56.078,49.008 56.364,48.843 C56.554,48.713 56.689,48.648 56.767,48.648 C56.845,48.648 56.912,48.681 56.968,48.745 C57.025,48.811 57.053,48.886 57.053,48.973 C57.053,49.164 56.905,49.350 56.611,49.532 C55.987,49.905 55.328,50.091 54.635,50.091 C53.673,50.091 52.914,49.801 52.360,49.220 C51.805,48.639 51.528,47.842 51.528,46.828 C51.528,46.178 51.651,45.604 51.898,45.105 C52.145,44.607 52.492,44.221 52.938,43.948 C53.385,43.675 53.898,43.539 54.479,43.539 C55.293,43.539 55.937,43.801 56.409,44.326 C56.882,44.850 57.118,45.571 57.118,46.490 C57.118,46.646 57.083,46.761 57.014,46.834 C56.944,46.908 56.832,46.945 56.676,46.945 ZM55.870,44.754 C55.540,44.378 55.077,44.189 54.479,44.189 C53.872,44.189 53.387,44.380 53.023,44.761 C52.659,45.142 52.442,45.675 52.373,46.360 L56.390,46.360 C56.372,45.667 56.199,45.131 55.870,44.754 ZM45.633,44.709 C45.940,44.839 46.337,44.965 46.822,45.086 L47.160,45.164 C47.862,45.337 48.417,45.498 48.824,45.645 C49.231,45.792 49.576,46.020 49.857,46.327 C50.139,46.635 50.280,47.049 50.280,47.569 C50.280,48.063 50.144,48.503 49.871,48.888 C49.598,49.274 49.212,49.573 48.714,49.785 C48.215,49.998 47.645,50.104 47.004,50.104 C46.363,50.104 45.745,50.002 45.151,49.799 C44.558,49.595 44.092,49.320 43.754,48.973 C43.641,48.878 43.585,48.752 43.585,48.596 C43.585,48.501 43.613,48.418 43.669,48.349 C43.726,48.280 43.789,48.245 43.858,48.245 C43.945,48.245 44.044,48.288 44.157,48.375 C44.972,49.051 45.921,49.389 47.004,49.389 C47.793,49.389 48.402,49.231 48.830,48.914 C49.259,48.598 49.474,48.150 49.474,47.569 C49.474,47.231 49.370,46.958 49.162,46.750 C48.954,46.542 48.690,46.379 48.369,46.262 C48.048,46.145 47.619,46.026 47.082,45.905 C46.371,45.749 45.797,45.589 45.359,45.424 C44.922,45.259 44.551,45.010 44.248,44.676 C43.945,44.343 43.793,43.894 43.793,43.331 C43.793,42.820 43.930,42.367 44.202,41.972 C44.475,41.578 44.859,41.273 45.353,41.056 C45.847,40.839 46.415,40.731 47.056,40.731 C47.654,40.731 48.217,40.828 48.746,41.023 C49.275,41.219 49.712,41.498 50.059,41.862 C50.172,41.975 50.228,42.100 50.228,42.239 C50.228,42.334 50.200,42.417 50.144,42.486 C50.087,42.555 50.024,42.590 49.955,42.590 C49.868,42.590 49.769,42.547 49.656,42.460 C49.188,42.079 48.766,41.814 48.389,41.667 C48.011,41.520 47.567,41.446 47.056,41.446 C46.285,41.446 45.682,41.611 45.249,41.940 C44.816,42.269 44.599,42.729 44.599,43.318 C44.599,43.673 44.694,43.961 44.885,44.182 C45.076,44.404 45.325,44.579 45.633,44.709 Z" class="cls-3"/>
    <g>
      <g>
        <rect x="25" y="170" width="78.75" height="69" rx="10" ry="10" class="cls-4"/>
        <path d="M84.579,209.376 C83.798,208.246 82.227,207.947 81.077,208.709 L75.843,212.160 L75.828,201.417 L77.646,203.096 C78.033,203.453 78.537,203.649 79.067,203.649 C79.068,203.649 79.069,203.649 79.070,203.649 C79.641,203.648 80.193,203.412 80.584,203.001 C80.963,202.602 81.162,202.081 81.144,201.535 C81.126,200.988 80.893,200.482 80.488,200.107 L77.040,196.925 C76.804,196.708 76.434,196.719 76.213,196.952 C75.992,197.184 76.004,197.549 76.240,197.767 L79.687,200.949 C79.864,201.112 79.966,201.334 79.974,201.573 C79.982,201.811 79.895,202.038 79.729,202.212 C79.556,202.394 79.321,202.495 79.068,202.495 C79.068,202.495 79.067,202.495 79.067,202.495 C78.836,202.495 78.616,202.410 78.447,202.254 C78.447,202.254 78.447,202.254 78.447,202.254 L64.758,189.619 C64.532,189.411 64.181,189.411 63.956,189.620 L50.303,202.293 C50.126,202.456 49.896,202.542 49.653,202.535 C49.411,202.528 49.186,202.428 49.020,202.254 C48.854,202.081 48.766,201.854 48.774,201.615 C48.781,201.377 48.882,201.155 49.059,200.991 L63.733,187.372 C64.080,187.049 64.626,187.048 64.975,187.370 L73.560,195.294 C73.796,195.511 74.166,195.500 74.387,195.267 C74.608,195.034 74.596,194.669 74.360,194.452 L65.775,186.528 C64.976,185.791 63.727,185.793 62.930,186.532 L58.232,190.892 L58.231,190.115 C58.231,189.869 58.133,189.639 57.957,189.466 C57.781,189.293 57.548,189.197 57.299,189.197 C57.299,189.197 57.299,189.197 57.298,189.197 L53.938,189.202 C53.689,189.203 53.455,189.299 53.280,189.472 C53.104,189.646 53.007,189.876 53.008,190.122 L53.017,195.732 L48.256,200.152 C47.852,200.527 47.620,201.034 47.603,201.581 C47.587,202.128 47.787,202.648 48.168,203.046 C48.548,203.444 49.064,203.672 49.619,203.689 C49.640,203.689 49.661,203.690 49.682,203.690 C50.214,203.690 50.717,203.493 51.105,203.132 L52.920,201.449 L52.927,206.522 C52.340,206.438 51.746,206.394 51.149,206.394 L50.148,206.394 L50.148,206.048 C50.148,204.887 49.189,203.942 48.010,203.942 L46.137,203.942 C44.959,203.942 44.000,204.887 44.000,206.048 L44.000,215.087 C44.000,215.405 44.262,215.663 44.585,215.663 C44.908,215.663 45.171,215.405 45.171,215.087 L45.171,206.048 C45.171,205.523 45.604,205.096 46.137,205.096 L48.010,205.096 C48.543,205.096 48.977,205.523 48.977,206.048 L48.977,206.971 L48.977,218.794 L48.977,219.708 C48.977,220.233 48.543,220.659 48.010,220.659 L46.137,220.659 C45.604,220.659 45.171,220.233 45.171,219.708 L45.171,218.698 C45.171,218.380 44.908,218.121 44.585,218.121 C44.262,218.121 44.000,218.380 44.000,218.698 L44.000,219.708 C44.000,220.869 44.959,221.813 46.137,221.813 L48.010,221.813 C49.189,221.813 50.148,220.869 50.148,219.708 L50.148,219.629 L58.721,222.828 C58.737,222.834 58.753,222.839 58.770,222.843 C59.142,222.947 59.515,222.999 59.883,222.999 C60.082,222.999 60.279,222.984 60.475,222.954 L73.074,221.164 C73.077,221.164 73.080,221.163 73.083,221.163 C74.154,220.994 75.165,220.548 76.006,219.873 C76.013,219.867 76.020,219.861 76.027,219.855 L84.167,212.641 C85.115,211.813 85.292,210.408 84.579,209.376 ZM57.060,190.352 L57.063,191.977 L54.186,194.647 L54.179,190.356 L57.060,190.352 ZM64.358,190.831 L74.655,200.335 L74.673,212.931 L73.016,214.024 L71.261,213.927 L71.214,213.468 C71.051,211.850 69.839,210.548 68.236,210.238 L68.225,202.745 C68.224,202.170 67.749,201.702 67.166,201.702 C67.165,201.702 67.165,201.702 67.164,201.702 L61.584,201.710 C61.301,201.710 61.035,201.819 60.836,202.016 C60.636,202.214 60.526,202.476 60.526,202.755 L60.536,209.289 C59.430,209.040 58.375,208.629 57.388,208.060 C57.265,207.989 57.141,207.920 57.015,207.854 C56.967,207.828 56.917,207.804 56.868,207.779 C56.791,207.739 56.715,207.700 56.638,207.662 C56.577,207.632 56.515,207.603 56.453,207.574 C56.387,207.544 56.322,207.513 56.256,207.483 C56.188,207.453 56.120,207.424 56.053,207.396 C55.991,207.370 55.929,207.343 55.867,207.317 C55.797,207.289 55.727,207.262 55.657,207.235 C55.594,207.211 55.532,207.187 55.470,207.164 C55.400,207.138 55.330,207.113 55.260,207.089 C55.195,207.067 55.129,207.044 55.063,207.023 C54.996,207.001 54.929,206.979 54.861,206.958 C54.790,206.936 54.717,206.915 54.645,206.893 C54.583,206.875 54.521,206.857 54.459,206.840 C54.377,206.818 54.295,206.797 54.213,206.776 C54.175,206.767 54.137,206.756 54.098,206.746 L54.089,200.363 L64.358,190.831 ZM67.065,210.093 L62.168,209.538 L61.707,209.486 L61.697,202.863 L67.054,202.856 L67.065,210.093 ZM83.387,211.781 L75.255,218.987 C74.577,219.529 73.764,219.886 72.903,220.023 L60.309,221.812 C60.306,221.812 60.304,221.812 60.301,221.813 L60.292,221.814 C59.911,221.873 59.513,221.848 59.111,221.740 L50.148,218.395 L50.148,207.548 L51.149,207.548 C52.002,207.548 52.849,207.645 53.674,207.833 C53.705,207.840 53.735,207.847 53.766,207.855 C53.867,207.879 53.968,207.903 54.069,207.930 C54.078,207.933 54.086,207.935 54.095,207.937 C54.196,207.964 54.297,207.993 54.397,208.023 C54.415,208.029 54.433,208.034 54.451,208.039 C54.557,208.072 54.663,208.106 54.769,208.141 C54.780,208.145 54.790,208.149 54.801,208.152 C55.021,208.227 55.239,208.309 55.454,208.397 C55.465,208.402 55.477,208.406 55.489,208.411 C55.596,208.456 55.702,208.501 55.808,208.550 C55.811,208.551 55.814,208.552 55.816,208.553 C55.919,208.600 56.020,208.647 56.121,208.697 C56.133,208.703 56.145,208.709 56.156,208.714 C56.255,208.763 56.353,208.813 56.450,208.864 C56.468,208.874 56.487,208.885 56.505,208.894 C56.603,208.946 56.701,209.000 56.797,209.056 C58.190,209.859 59.707,210.379 61.305,210.602 C61.310,210.602 61.315,210.603 61.320,210.603 L67.879,211.348 C67.915,211.353 67.952,211.359 67.987,211.365 C68.953,211.544 69.715,212.247 69.970,213.162 C70.008,213.298 70.034,213.438 70.049,213.582 L70.075,213.840 L57.782,212.779 C57.460,212.751 57.176,212.986 57.147,213.303 C57.119,213.621 57.357,213.900 57.680,213.928 L70.676,215.050 C70.680,215.050 70.683,215.050 70.686,215.050 C70.689,215.051 70.692,215.051 70.695,215.051 L73.146,215.187 C73.157,215.187 73.168,215.187 73.179,215.187 C73.190,215.187 73.202,215.186 73.213,215.185 C73.226,215.184 73.239,215.184 73.252,215.182 C73.270,215.180 73.287,215.177 73.304,215.173 C73.316,215.170 73.329,215.169 73.341,215.165 C73.359,215.160 73.377,215.152 73.396,215.145 C73.405,215.142 73.415,215.139 73.425,215.134 C73.452,215.121 73.479,215.107 73.504,215.091 L75.585,213.719 C75.585,213.719 75.585,213.718 75.585,213.718 L81.730,209.667 C82.348,209.258 83.192,209.418 83.611,210.024 C83.994,210.580 83.899,211.333 83.387,211.781 Z" class="cls-5"/>
      </g>
      <g>
        <rect x="118.969" y="170" width="78.781" height="69" rx="10" ry="10" class="cls-4"/>
        <path d="M178.337,222.999 L137.666,222.999 C137.304,222.999 137.010,222.706 137.010,222.345 L137.010,219.726 C137.010,219.720 137.014,219.714 137.014,219.708 C137.015,219.688 137.023,219.671 137.026,219.651 C137.036,219.561 137.064,219.479 137.107,219.404 C137.114,219.391 137.112,219.376 137.121,219.364 L143.680,209.545 C143.692,209.528 143.710,209.519 143.723,209.503 C143.752,209.467 143.784,209.435 143.820,209.406 C143.852,209.381 143.883,209.359 143.919,209.340 C143.956,209.320 143.994,209.305 144.035,209.292 C144.077,209.279 144.118,209.271 144.162,209.266 C144.184,209.264 144.203,209.254 144.226,209.254 L152.337,209.254 C149.889,206.006 147.506,201.751 147.506,197.472 C147.506,191.697 152.215,186.999 158.001,186.999 C163.788,186.999 168.497,191.697 168.497,197.472 C168.497,201.751 166.114,206.006 163.666,209.254 L171.777,209.254 C171.799,209.254 171.817,209.264 171.838,209.266 C171.883,209.270 171.925,209.279 171.969,209.292 C172.009,209.305 172.047,209.320 172.084,209.340 C172.119,209.359 172.151,209.380 172.182,209.406 C172.219,209.435 172.250,209.466 172.280,209.503 C172.293,209.519 172.311,209.528 172.323,209.545 L178.882,219.363 C178.891,219.375 178.889,219.392 178.896,219.405 C178.940,219.480 178.967,219.561 178.978,219.651 C178.980,219.671 178.988,219.688 178.989,219.707 C178.989,219.714 178.993,219.719 178.993,219.726 L178.993,222.345 C178.993,222.706 178.699,222.999 178.337,222.999 ZM142.828,213.181 L138.892,219.072 L143.057,219.072 L145.871,213.181 L142.828,213.181 ZM167.185,197.472 C167.185,192.419 163.066,188.308 158.001,188.308 C152.937,188.308 148.818,192.419 148.818,197.472 C148.818,203.563 154.308,209.882 156.990,212.608 C157.110,212.671 157.205,212.766 157.267,212.886 C157.555,213.173 157.812,213.422 158.001,213.601 C159.875,211.836 167.185,204.498 167.185,197.472 ZM156.352,213.835 L151.652,213.835 L151.087,215.799 L164.916,215.799 L164.351,213.835 L159.651,213.835 C158.979,214.498 158.516,214.910 158.434,214.982 C158.310,215.090 158.156,215.144 158.001,215.144 C157.847,215.144 157.693,215.090 157.569,214.982 C157.487,214.910 157.024,214.498 156.352,213.835 ZM171.426,210.563 L168.881,210.563 L170.444,213.835 L173.612,213.835 L171.426,210.563 ZM174.487,215.144 L170.030,215.144 C169.913,215.144 169.809,215.106 169.715,215.053 C169.693,215.041 169.675,215.027 169.655,215.012 C169.573,214.954 169.506,214.882 169.458,214.794 C169.453,214.784 169.441,214.780 169.436,214.769 L167.427,210.563 L162.638,210.563 C162.038,211.292 161.454,211.954 160.921,212.526 L164.846,212.526 C164.860,212.526 164.872,212.533 164.886,212.534 C164.929,212.537 164.968,212.548 165.009,212.559 C165.052,212.570 165.095,212.580 165.134,212.599 C165.166,212.616 165.193,212.638 165.223,212.659 C165.262,212.687 165.300,212.714 165.332,212.750 C165.355,212.776 165.371,212.806 165.390,212.836 C165.417,212.879 165.442,212.921 165.459,212.970 C165.463,212.981 165.472,212.989 165.476,213.001 L166.416,216.273 C166.425,216.303 166.419,216.333 166.423,216.363 C166.428,216.394 166.442,216.421 166.442,216.454 C166.442,216.467 166.435,216.479 166.434,216.493 C166.431,216.538 166.420,216.579 166.408,216.623 C166.397,216.663 166.388,216.702 166.370,216.739 C166.352,216.775 166.327,216.805 166.303,216.838 C166.277,216.873 166.252,216.908 166.219,216.937 C166.192,216.962 166.159,216.980 166.126,217.000 C166.085,217.025 166.046,217.049 165.999,217.065 C165.987,217.070 165.979,217.079 165.966,217.083 C165.907,217.099 165.847,217.108 165.788,217.108 C165.787,217.108 165.787,217.108 165.786,217.108 L150.217,217.108 C150.216,217.108 150.216,217.108 150.215,217.108 C150.156,217.108 150.096,217.100 150.037,217.083 C150.024,217.079 150.016,217.070 150.004,217.065 C149.957,217.049 149.917,217.025 149.876,216.999 C149.844,216.979 149.812,216.962 149.784,216.938 C149.750,216.908 149.725,216.872 149.699,216.836 C149.675,216.804 149.651,216.775 149.633,216.740 C149.615,216.702 149.606,216.663 149.595,216.622 C149.583,216.579 149.572,216.538 149.569,216.493 C149.568,216.479 149.561,216.467 149.561,216.454 C149.561,216.421 149.575,216.394 149.579,216.363 C149.584,216.333 149.578,216.303 149.587,216.273 L150.527,213.001 C150.531,212.989 150.540,212.981 150.544,212.969 C150.561,212.921 150.586,212.879 150.613,212.837 C150.632,212.807 150.648,212.776 150.671,212.750 C150.703,212.714 150.741,212.687 150.781,212.659 C150.810,212.638 150.836,212.616 150.868,212.600 C150.908,212.580 150.951,212.570 150.996,212.559 C151.036,212.548 151.075,212.537 151.117,212.534 C151.131,212.533 151.143,212.526 151.157,212.526 L155.081,212.526 C154.549,211.954 153.965,211.292 153.365,210.563 L144.577,210.563 L143.703,211.872 L146.912,211.872 C146.916,211.872 146.919,211.874 146.924,211.874 C146.964,211.875 147.004,211.890 147.044,211.899 C147.091,211.908 147.139,211.914 147.182,211.933 C147.185,211.935 147.189,211.934 147.193,211.936 C147.218,211.948 147.234,211.969 147.257,211.983 C147.303,212.013 147.350,212.041 147.388,212.081 C147.413,212.108 147.427,212.139 147.447,212.169 C147.474,212.210 147.503,212.247 147.521,212.294 C147.535,212.331 147.537,212.371 147.544,212.410 C147.552,212.449 147.568,212.485 147.568,212.526 C147.568,212.532 147.564,212.537 147.564,212.544 C147.563,212.577 147.550,212.609 147.544,212.642 C147.534,212.696 147.527,212.749 147.505,212.798 C147.504,212.801 147.504,212.804 147.503,212.808 L144.511,219.072 L171.492,219.072 L170.688,217.389 C170.686,217.384 170.687,217.379 170.685,217.375 C170.669,217.340 170.666,217.300 170.656,217.262 C170.644,217.214 170.628,217.167 170.627,217.119 C170.627,217.115 170.625,217.112 170.625,217.108 C170.625,217.083 170.637,217.062 170.639,217.037 C170.646,216.979 170.652,216.922 170.673,216.868 C170.686,216.837 170.707,216.812 170.724,216.783 C170.749,216.739 170.773,216.696 170.808,216.658 C170.836,216.630 170.870,216.611 170.903,216.588 C170.935,216.564 170.960,216.534 170.998,216.517 C171.003,216.514 171.009,216.515 171.014,216.512 C171.048,216.497 171.087,216.495 171.123,216.485 C171.172,216.473 171.220,216.457 171.269,216.456 C171.273,216.456 171.277,216.454 171.281,216.454 L175.362,216.454 L174.487,215.144 ZM176.236,217.762 L172.320,217.762 L172.945,219.072 L177.111,219.072 L176.236,217.762 ZM177.681,220.381 L138.322,220.381 L138.322,221.690 L177.681,221.690 L177.681,220.381 ZM154.066,202.708 C153.703,202.708 153.410,202.415 153.410,202.054 C153.410,201.692 153.703,201.399 154.066,201.399 L154.066,197.809 L153.791,198.005 C153.675,198.086 153.542,198.126 153.410,198.126 C153.205,198.126 153.004,198.031 152.876,197.852 C152.666,197.558 152.734,197.149 153.029,196.939 L154.066,196.200 L154.066,194.199 C154.066,193.837 154.359,193.544 154.722,193.544 C155.084,193.544 155.378,193.837 155.378,194.199 L155.378,195.265 L157.620,193.667 C157.627,193.662 157.635,193.662 157.642,193.657 C157.680,193.632 157.723,193.618 157.765,193.602 C157.803,193.587 157.839,193.567 157.878,193.560 C157.917,193.552 157.957,193.557 157.997,193.557 C158.041,193.556 158.084,193.552 158.127,193.560 C158.164,193.567 158.197,193.586 158.233,193.600 C158.277,193.617 158.322,193.631 158.362,193.657 C158.369,193.662 158.377,193.662 158.383,193.667 L162.975,196.939 C163.270,197.149 163.338,197.558 163.127,197.852 C162.999,198.031 162.798,198.126 162.593,198.126 C162.461,198.126 162.328,198.086 162.212,198.005 L161.937,197.809 L161.937,201.399 C162.300,201.399 162.593,201.692 162.593,202.054 C162.593,202.415 162.300,202.708 161.937,202.708 L154.066,202.708 ZM160.625,196.874 L158.002,195.004 L155.378,196.874 L155.378,201.399 L157.346,201.399 L157.346,200.090 C157.346,199.729 157.639,199.436 158.001,199.436 C158.364,199.436 158.657,199.729 158.657,200.090 L158.657,201.399 L160.625,201.399 L160.625,196.874 Z" class="cls-5"/>
      </g>
      <g>
        <rect x="212.906" y="170" width="78.782" height="69" rx="10" ry="10" class="cls-4"/>
        <path d="M271.601,200.261 L258.172,190.202 C257.814,189.934 257.321,189.934 256.964,190.202 L254.756,191.856 L252.549,190.202 C252.191,189.934 251.698,189.934 251.341,190.202 L249.188,191.815 L247.036,190.202 C246.678,189.934 246.185,189.934 245.827,190.202 L232.399,200.261 C232.148,200.449 232.000,200.744 232.000,201.057 L232.000,217.992 C232.000,218.543 232.449,218.989 233.003,218.989 L238.516,218.989 L244.139,218.989 L259.861,218.989 L265.374,218.989 L270.997,218.989 C271.551,218.989 272.000,218.543 272.000,217.992 L272.000,201.057 C272.000,200.744 271.852,200.449 271.601,200.261 ZM269.994,216.996 L266.377,216.996 L266.377,201.057 C266.377,200.744 266.229,200.449 265.978,200.261 L256.422,193.104 L257.568,192.246 L269.994,201.553 L269.994,216.996 ZM260.864,216.996 L260.864,201.057 C260.864,200.744 260.716,200.449 260.465,200.261 L250.854,193.063 L251.945,192.246 L264.371,201.553 L264.371,216.996 L260.864,216.996 L260.864,216.996 ZM248.074,216.996 L245.142,216.996 L244.789,216.996 L244.789,209.770 L248.074,209.770 L248.074,216.996 ZM250.081,216.996 L250.081,208.774 C250.081,208.224 249.632,207.778 249.078,207.778 L243.786,207.778 C243.232,207.778 242.783,208.224 242.783,208.774 L242.783,216.996 L239.519,216.996 L234.006,216.996 L234.006,201.553 L246.432,192.246 L258.858,201.553 L258.858,216.996 L250.081,216.996 Z" class="cls-5"/>
      </g>
      <g>
        <rect x="308.25" y="170" width="78.75" height="69" rx="10" ry="10" class="cls-6"/>
        <path d="M362.945,211.944 L358.301,217.529 C358.301,217.529 358.301,217.529 358.300,217.530 L355.693,220.666 C355.518,220.877 355.255,220.999 354.977,220.999 C354.699,220.999 354.435,220.877 354.260,220.666 L351.923,217.856 L332.930,217.856 C332.422,217.856 332.009,217.455 332.009,216.960 L332.009,201.739 C332.009,201.458 332.145,201.193 332.376,201.024 L344.706,191.983 C345.034,191.742 345.487,191.742 345.815,191.983 L358.144,201.024 C358.375,201.193 358.511,201.458 358.511,201.739 L358.511,204.540 C358.781,204.499 359.056,204.475 359.338,204.475 C359.429,204.475 359.519,204.478 359.609,204.482 C361.368,204.569 362.853,205.565 363.579,207.147 C364.316,208.749 364.072,210.586 362.945,211.944 ZM356.669,202.185 L345.260,193.820 L333.851,202.185 L333.851,216.065 L350.435,216.065 L347.009,211.944 C345.881,210.586 345.638,208.749 346.374,207.147 C347.100,205.565 348.585,204.569 350.344,204.482 C350.434,204.478 350.524,204.475 350.615,204.475 C352.425,204.475 354.024,205.364 354.977,206.716 C355.416,206.092 355.996,205.568 356.669,205.183 L356.669,202.185 ZM361.898,207.877 C361.459,206.923 360.569,206.323 359.516,206.271 C359.457,206.268 359.397,206.267 359.338,206.267 C357.441,206.267 355.898,207.767 355.898,209.611 C355.898,210.106 355.485,210.507 354.977,210.507 C354.468,210.507 354.056,210.106 354.056,209.611 C354.056,207.767 352.512,206.267 350.615,206.267 C350.556,206.267 350.497,206.268 350.438,206.271 C349.384,206.323 348.494,206.923 348.056,207.877 C347.603,208.861 347.751,209.987 348.441,210.817 L354.977,218.679 L361.512,210.818 C362.202,209.988 362.350,208.861 361.898,207.877 ZM357.589,198.821 C357.396,198.821 357.202,198.762 357.036,198.641 L345.260,190.007 L333.485,198.641 C333.079,198.938 332.501,198.860 332.195,198.465 C331.889,198.070 331.970,197.508 332.376,197.210 L344.706,188.170 C345.034,187.929 345.487,187.929 345.815,188.170 L358.144,197.210 C358.551,197.508 358.632,198.070 358.325,198.465 C358.144,198.698 357.868,198.821 357.589,198.821 Z" class="cls-7"/>
      </g>
      <g>
        <rect x="25" y="255" width="78.75" height="69" rx="10" ry="10" class="cls-4"/>
        <path d="M83.163,304.999 L76.658,304.999 L70.152,304.999 L58.833,304.999 L52.327,304.999 L45.821,304.999 C45.370,304.999 45.004,304.627 45.004,304.169 L45.004,295.781 C45.004,295.520 45.124,295.275 45.329,295.119 L51.510,290.386 L51.510,288.485 C51.510,288.224 51.630,287.979 51.835,287.822 L64.000,278.506 C64.292,278.283 64.693,278.283 64.985,278.506 L77.150,287.822 C77.355,287.979 77.475,288.224 77.475,288.485 L77.475,290.386 L83.656,295.119 C83.860,295.275 83.981,295.520 83.981,295.781 L83.981,304.169 C83.981,304.627 83.615,304.999 83.163,304.999 ZM51.510,292.465 L46.639,296.195 L46.639,303.338 L51.510,303.338 L51.510,292.465 ZM63.608,303.338 L65.376,303.338 L65.376,299.154 L63.608,299.154 L63.608,303.338 ZM75.840,288.899 L64.492,280.209 L53.145,288.899 L53.145,303.338 L58.015,303.338 L61.973,303.338 L61.973,298.323 C61.973,297.865 62.339,297.493 62.791,297.493 L66.194,297.493 C66.645,297.493 67.012,297.865 67.012,298.323 L67.012,303.338 L70.969,303.338 L75.840,303.338 L75.840,288.899 ZM82.346,296.195 L77.475,292.465 L77.475,303.338 L82.346,303.338 L82.346,296.195 ZM83.163,289.948 C82.991,289.948 82.819,289.893 82.671,289.781 L64.492,275.860 L46.314,289.780 C45.953,290.057 45.440,289.984 45.169,289.618 C44.897,289.251 44.969,288.731 45.329,288.455 L64.000,274.157 C64.292,273.934 64.693,273.934 64.985,274.157 L83.656,288.455 C84.016,288.731 84.088,289.251 83.816,289.618 C83.655,289.834 83.410,289.948 83.163,289.948 Z" class="cls-5"/>
      </g>
      <g>
        <rect x="118.969" y="255" width="78.781" height="69" rx="10" ry="10" class="cls-4"/>
        <path d="M171.954,306.999 L144.046,306.999 C143.471,306.999 143.004,306.543 143.004,305.979 L143.004,288.649 C143.004,288.329 143.158,288.028 143.419,287.834 L157.373,277.542 C157.744,277.267 158.256,277.267 158.628,277.542 L172.582,287.834 C172.843,288.028 172.996,288.329 172.996,288.649 L172.996,305.979 C172.996,306.543 172.530,306.999 171.954,306.999 ZM170.911,289.157 L158.000,279.633 L145.089,289.157 L145.089,304.960 L170.911,304.960 L170.911,289.157 ZM153.994,291.618 L153.994,288.875 C153.994,286.714 155.791,284.957 158.000,284.957 C160.209,284.957 162.006,286.714 162.006,288.875 L162.006,290.010 C162.006,290.573 161.539,291.029 160.963,291.029 C160.388,291.029 159.921,290.573 159.921,290.010 L159.921,288.875 C159.921,287.839 159.059,286.996 158.000,286.996 C156.941,286.996 156.079,287.839 156.079,288.875 L156.079,291.592 L161.681,291.592 C162.901,291.592 163.893,292.563 163.893,293.756 L163.893,300.812 C163.893,302.005 162.901,302.977 161.681,302.977 L154.319,302.977 C153.099,302.977 152.107,302.005 152.107,300.812 L152.107,293.756 C152.107,292.671 152.928,291.773 153.994,291.618 ZM154.192,300.812 C154.192,300.881 154.249,300.937 154.319,300.937 L161.681,300.937 C161.751,300.937 161.808,300.881 161.808,300.812 L161.808,293.756 C161.808,293.687 161.751,293.631 161.681,293.631 L154.319,293.631 C154.249,293.631 154.192,293.687 154.192,293.756 L154.192,300.812 ZM171.953,285.327 C171.735,285.327 171.514,285.259 171.326,285.121 L158.000,275.290 L144.674,285.121 C144.214,285.460 143.561,285.370 143.214,284.920 C142.868,284.472 142.959,283.832 143.419,283.493 L157.373,273.199 C157.744,272.925 158.256,272.925 158.628,273.199 L172.581,283.493 C173.041,283.832 173.133,284.472 172.786,284.920 C172.581,285.187 172.269,285.327 171.953,285.327 Z" class="cls-5"/>
      </g>
      <g>
        <rect x="212.906" y="255" width="78.782" height="69" rx="10" ry="10" class="cls-4"/>
        <path d="M268.996,305.117 C268.996,306.155 268.141,306.999 267.089,306.999 L253.997,306.999 C252.946,306.999 252.091,306.155 252.091,305.117 L252.091,303.934 L236.961,303.934 C236.425,303.934 235.991,303.505 235.991,302.975 L235.991,286.693 C235.991,286.393 236.133,286.110 236.377,285.929 L249.372,276.258 C249.718,276.001 250.195,276.001 250.541,276.258 L263.535,285.929 C263.779,286.110 263.922,286.393 263.922,286.693 L263.922,292.011 L267.089,292.011 C268.141,292.011 268.996,292.855 268.996,293.893 L268.996,296.403 C268.996,296.738 268.905,297.053 268.748,297.326 C268.905,297.600 268.996,297.914 268.996,298.250 L268.996,300.760 C268.996,301.096 268.905,301.411 268.748,301.684 C268.905,301.957 268.996,302.272 268.996,302.608 L268.996,305.117 ZM254.032,305.083 L267.054,305.083 L267.054,302.642 L254.032,302.642 L254.032,305.083 ZM261.980,287.171 L249.956,278.223 L237.932,287.171 L237.932,302.018 L252.188,302.018 C252.227,301.901 252.278,301.789 252.338,301.684 C252.181,301.411 252.091,301.096 252.091,300.761 L252.091,298.250 C252.091,297.914 252.181,297.600 252.338,297.327 C252.181,297.053 252.091,296.739 252.091,296.403 L252.091,293.893 C252.091,292.855 252.946,292.011 253.997,292.011 L261.980,292.011 L261.980,287.171 ZM267.055,293.927 L254.032,293.927 L254.032,296.369 L267.055,296.369 L267.055,293.927 ZM267.055,298.284 L254.032,298.284 L254.032,300.726 L267.055,300.726 L267.055,298.284 ZM262.950,283.573 C262.747,283.573 262.542,283.509 262.366,283.379 L249.956,274.144 L237.546,283.379 C237.118,283.697 236.509,283.614 236.186,283.191 C235.863,282.769 235.949,282.168 236.377,281.849 L249.372,272.179 C249.718,271.921 250.195,271.921 250.541,272.179 L263.535,281.849 C263.964,282.168 264.049,282.769 263.726,283.191 C263.535,283.441 263.244,283.573 262.950,283.573 Z" class="cls-5"/>
      </g>
      <g>
        <rect x="308.25" y="255" width="78.75" height="69" rx="10" ry="10" class="cls-4"/>
        <path d="M364.691,307.636 L362.580,309.693 C362.371,309.897 362.097,309.999 361.822,309.999 C361.548,309.999 361.274,309.897 361.065,309.693 L356.060,304.816 L332.078,304.816 C331.486,304.816 331.006,304.348 331.006,303.772 L331.006,286.019 C331.006,285.692 331.164,285.383 331.432,285.185 L345.779,274.641 C346.161,274.361 346.687,274.361 347.069,274.641 L361.416,285.185 C361.685,285.383 361.843,285.692 361.843,286.019 L361.843,303.383 L364.691,306.159 C365.110,306.566 365.110,307.228 364.691,307.636 ZM359.699,286.540 L346.424,276.784 L333.149,286.540 L333.149,302.727 L353.917,302.727 L351.537,300.407 C350.285,301.057 348.880,301.403 347.421,301.403 C345.080,301.403 342.879,300.515 341.224,298.901 C337.806,295.571 337.806,290.152 341.224,286.822 C342.879,285.208 345.080,284.320 347.421,284.320 C349.762,284.320 351.963,285.208 353.618,286.822 C356.405,289.537 356.918,293.641 355.160,296.870 L359.699,301.294 L359.699,286.540 ZM352.102,297.425 C354.684,294.908 354.684,290.814 352.102,288.298 C350.852,287.079 349.189,286.408 347.421,286.408 C345.652,286.408 343.990,287.079 342.739,288.298 C340.158,290.814 340.158,294.908 342.739,297.425 C343.990,298.643 345.652,299.314 347.421,299.314 C349.189,299.314 350.852,298.643 352.102,297.425 ZM353.908,298.604 C353.814,298.705 353.718,298.804 353.618,298.901 C353.519,298.999 353.417,299.093 353.313,299.184 L361.823,307.478 L362.418,306.897 L353.908,298.604 ZM343.320,295.381 C343.738,294.974 344.417,294.974 344.835,295.381 C346.261,296.771 348.581,296.771 350.006,295.381 C350.425,294.974 351.104,294.974 351.522,295.381 C351.941,295.790 351.941,296.450 351.522,296.858 C350.392,297.961 348.906,298.512 347.421,298.512 C345.936,298.512 344.451,297.961 343.320,296.858 C342.901,296.450 342.901,295.790 343.320,295.381 ZM360.770,282.616 C360.545,282.616 360.319,282.547 360.125,282.406 L346.424,272.336 L332.723,282.406 C332.250,282.753 331.578,282.661 331.222,282.201 C330.865,281.740 330.960,281.086 331.432,280.738 L345.779,270.194 C346.161,269.913 346.687,269.913 347.069,270.194 L361.416,280.738 C361.889,281.086 361.983,281.740 361.626,282.201 C361.416,282.473 361.095,282.616 360.770,282.616 Z" class="cls-5"/>
      </g>
    </g>
    <g>
      <g>
        <rect x="25" y="82" width="78.75" height="69" rx="10" ry="10" class="cls-4"/>
        <circle cx="64" cy="117" r="19" class="cls-8"/>
      </g>
      <g>
        <rect x="119" y="82" width="78.75" height="69" rx="10" ry="10" class="cls-4"/>
        <path d="M168.836,134.895 L148.334,134.994 L137.998,117.099 L148.164,99.105 L168.666,99.006 L179.002,116.901 L168.836,134.895 Z" class="cls-9"/>
      </g>
      <g>
        <rect x="214" y="82" width="78.75" height="69" rx="10" ry="10" class="cls-4"/>
        <path d="M267.146,122.859 L273.004,117.000 L267.146,111.141 L267.146,102.855 L258.859,102.855 L253.000,96.995 L247.141,102.855 L238.855,102.855 L238.855,111.141 L232.996,117.000 L238.855,122.859 L238.855,131.145 L247.141,131.145 L253.000,137.005 L258.859,131.145 L267.146,131.145 L267.146,122.859 Z" class="cls-9"/>
      </g>
      <g>
        <rect x="308" y="82" width="78.75" height="69" rx="10" ry="10" class="cls-4"/>
        <path d="M349.490,108.083 C343.924,95.253 328.102,98.246 327.998,113.137 C327.940,121.315 335.532,124.372 340.586,127.642 C345.488,130.813 348.976,135.150 349.523,136.996 C349.991,135.187 353.876,130.727 358.414,127.553 C363.375,124.083 371.060,121.226 371.002,113.048 C370.898,98.120 354.800,95.764 349.490,108.083 Z" class="cls-9"/>
      </g>
    </g>
  </g>
</svg>
