<svg xmlns="http://www.w3.org/2000/svg" xmlns:xlink="http://www.w3.org/1999/xlink" preserveAspectRatio="xMidYMid" width="430" height="308" viewBox="0 0 430 308">
  <defs>
    <style>
      .cls-1, .cls-5, .cls-6 {
        fill: #fff;
      }

      .cls-2 {
        fill: #eaeaea;
      }

      .cls-3 {
        fill: #000;
      }

      .cls-13, .cls-3, .cls-5, .cls-6, .cls-7, .cls-8 {
        fill-rule: evenodd;
      }

      .cls-13, .cls-4 {
        fill: #f27059;
      }

      .cls-6, .cls-8 {
        stroke: #59c3c3;
        stroke-width: 1px;
      }

      .cls-7 {
        fill: #c7c7c7;
      }

      .cls-8 {
        fill: #59c3c3;
      }

      .cls-9 {
        fill: #db8f61;
      }

      .cls-10 {
        fill: #59c386;
      }

      .cls-11 {
        fill: #6a61db;
      }

      .cls-12 {
        stroke: #f27059;
        stroke-width: 2px;
        fill: none;
      }

      .cls-14 {
        fill: #d982bf;
      }
    </style>
  </defs>
  <g>
    <rect width="430" height="308" rx="20" ry="20" class="cls-1"/>
    <g>
      <g>
        <rect x="19" y="86" width="83.969" height="69" rx="10" ry="10" class="cls-2"/>
        <path d="M81.579,125.375 C80.798,124.246 79.227,123.947 78.077,124.708 L72.843,128.160 L72.828,117.417 L74.646,119.095 C75.033,119.452 75.537,119.648 76.067,119.648 C76.067,119.648 76.069,119.648 76.070,119.648 C76.641,119.647 77.193,119.412 77.584,119.001 C77.963,118.602 78.162,118.081 78.144,117.534 C78.126,116.987 77.893,116.481 77.488,116.106 L74.040,112.925 C73.804,112.707 73.434,112.719 73.213,112.951 C72.992,113.184 73.004,113.549 73.240,113.767 L76.687,116.949 C76.864,117.112 76.966,117.333 76.974,117.572 C76.981,117.810 76.895,118.038 76.729,118.212 C76.556,118.394 76.321,118.494 76.068,118.495 C76.067,118.495 76.067,118.495 76.067,118.495 C75.836,118.495 75.616,118.409 75.447,118.254 C75.447,118.254 75.447,118.254 75.447,118.254 L61.758,105.618 C61.532,105.410 61.181,105.411 60.956,105.620 L47.303,118.292 C47.126,118.456 46.896,118.541 46.653,118.534 C46.411,118.527 46.186,118.428 46.020,118.254 C45.854,118.080 45.766,117.853 45.774,117.615 C45.781,117.376 45.882,117.155 46.058,116.990 L60.732,103.371 C61.080,103.049 61.626,103.047 61.975,103.369 L70.560,111.293 C70.795,111.511 71.166,111.499 71.387,111.267 C71.608,111.034 71.596,110.669 71.360,110.452 L62.775,102.528 C61.976,101.790 60.726,101.792 59.929,102.532 L55.232,106.891 L55.231,106.114 C55.230,105.869 55.133,105.638 54.957,105.465 C54.781,105.293 54.548,105.197 54.299,105.197 C54.299,105.197 54.299,105.197 54.298,105.197 L50.938,105.202 C50.689,105.202 50.455,105.299 50.280,105.471 C50.104,105.645 50.007,105.876 50.008,106.122 L50.017,111.732 L45.256,116.151 C44.851,116.526 44.620,117.033 44.603,117.581 C44.587,118.127 44.787,118.647 45.168,119.046 C45.548,119.444 46.064,119.672 46.618,119.688 C46.640,119.689 46.661,119.689 46.682,119.689 C47.214,119.689 47.717,119.492 48.105,119.132 L49.920,117.448 L49.927,122.522 C49.340,122.438 48.746,122.393 48.149,122.393 L47.148,122.393 L47.148,122.047 C47.148,120.887 46.189,119.942 45.010,119.942 L43.137,119.942 C41.958,119.942 41.000,120.886 41.000,122.047 L41.000,131.086 C41.000,131.404 41.262,131.663 41.585,131.663 C41.908,131.663 42.170,131.404 42.170,131.086 L42.170,122.047 C42.170,121.523 42.604,121.096 43.137,121.096 L45.010,121.096 C45.543,121.096 45.977,121.523 45.977,122.047 L45.977,122.970 L45.977,134.794 L45.977,135.707 C45.977,136.232 45.543,136.659 45.010,136.659 L43.137,136.659 C42.604,136.659 42.170,136.232 42.170,135.707 L42.170,134.697 C42.170,134.379 41.908,134.121 41.585,134.121 C41.262,134.121 41.000,134.379 41.000,134.697 L41.000,135.707 C41.000,136.868 41.958,137.813 43.137,137.813 L45.010,137.813 C46.189,137.813 47.147,136.868 47.147,135.707 L47.147,135.629 L55.721,138.827 C55.737,138.833 55.753,138.838 55.769,138.843 C56.142,138.947 56.515,138.999 56.883,138.999 C57.082,138.999 57.279,138.984 57.475,138.953 L70.074,137.163 C70.077,137.163 70.080,137.163 70.083,137.162 C71.154,136.994 72.165,136.547 73.005,135.872 C73.013,135.866 73.020,135.860 73.027,135.854 L81.167,128.641 C82.115,127.812 82.292,126.408 81.579,125.375 ZM54.060,106.351 L54.063,107.977 L51.186,110.646 L51.179,106.355 L54.060,106.351 ZM61.358,106.831 L71.655,116.334 L71.673,128.931 L70.016,130.024 L68.260,129.927 L68.214,129.467 C68.051,127.850 66.839,126.548 65.236,126.238 L65.225,118.744 C65.224,118.169 64.749,117.701 64.165,117.701 C64.165,117.701 64.165,117.701 64.164,117.701 L58.584,117.709 C58.301,117.710 58.035,117.818 57.835,118.016 C57.636,118.214 57.526,118.475 57.526,118.754 L57.535,125.288 C56.430,125.039 55.375,124.628 54.388,124.059 C54.265,123.988 54.141,123.919 54.015,123.853 C53.966,123.828 53.917,123.803 53.867,123.778 C53.791,123.739 53.715,123.699 53.638,123.661 C53.577,123.631 53.515,123.603 53.453,123.574 C53.387,123.543 53.322,123.512 53.256,123.483 C53.188,123.453 53.120,123.424 53.053,123.395 C52.991,123.369 52.929,123.342 52.866,123.317 C52.797,123.289 52.727,123.262 52.657,123.234 C52.594,123.210 52.532,123.186 52.469,123.164 C52.400,123.138 52.330,123.113 52.260,123.088 C52.195,123.066 52.129,123.044 52.063,123.023 C51.996,123.001 51.929,122.979 51.861,122.957 C51.790,122.935 51.717,122.914 51.645,122.893 C51.583,122.875 51.521,122.857 51.459,122.839 C51.377,122.817 51.295,122.796 51.213,122.776 C51.175,122.766 51.137,122.755 51.098,122.746 L51.089,116.363 L61.358,106.831 ZM64.065,126.093 L59.168,125.537 L58.707,125.486 L58.697,118.863 L64.054,118.855 L64.065,126.093 ZM80.387,127.781 L72.255,134.987 C71.577,135.528 70.764,135.885 69.903,136.022 L57.309,137.811 C57.306,137.811 57.303,137.812 57.301,137.812 L57.292,137.814 C56.911,137.873 56.513,137.848 56.111,137.740 L47.148,134.395 L47.148,123.547 L48.149,123.547 C49.002,123.547 49.849,123.644 50.674,123.833 C50.705,123.839 50.735,123.847 50.766,123.854 C50.867,123.878 50.968,123.903 51.069,123.930 C51.078,123.932 51.086,123.934 51.095,123.937 C51.196,123.964 51.296,123.993 51.397,124.023 C51.415,124.028 51.433,124.033 51.450,124.039 C51.557,124.071 51.663,124.105 51.768,124.140 C51.780,124.144 51.790,124.148 51.801,124.152 C52.021,124.227 52.239,124.308 52.453,124.396 C52.465,124.401 52.477,124.406 52.489,124.411 C52.596,124.455 52.702,124.501 52.808,124.549 C52.810,124.550 52.813,124.551 52.816,124.552 C52.919,124.599 53.020,124.647 53.121,124.696 C53.133,124.702 53.145,124.708 53.156,124.713 C53.255,124.762 53.353,124.812 53.450,124.864 C53.468,124.874 53.487,124.884 53.505,124.894 C53.603,124.946 53.700,125.000 53.797,125.056 C55.190,125.858 56.707,126.378 58.305,126.601 C58.310,126.602 58.315,126.602 58.320,126.603 L64.879,127.347 C64.915,127.352 64.951,127.358 64.987,127.365 C65.953,127.543 66.715,128.246 66.970,129.162 C67.008,129.298 67.034,129.438 67.049,129.581 L67.075,129.839 L54.782,128.778 C54.460,128.751 54.176,128.986 54.147,129.303 C54.119,129.620 54.357,129.900 54.679,129.928 L67.676,131.049 C67.679,131.050 67.682,131.050 67.686,131.050 C67.688,131.050 67.692,131.051 67.695,131.051 L70.146,131.187 C70.157,131.187 70.168,131.187 70.178,131.187 C70.190,131.187 70.201,131.186 70.213,131.185 C70.226,131.184 70.239,131.184 70.252,131.182 C70.270,131.180 70.287,131.176 70.304,131.173 C70.316,131.170 70.329,131.168 70.341,131.164 C70.359,131.159 70.377,131.152 70.395,131.145 C70.405,131.141 70.415,131.138 70.425,131.134 C70.452,131.121 70.479,131.107 70.504,131.090 L72.585,129.718 C72.585,129.718 72.585,129.718 72.585,129.718 L78.729,125.666 C79.348,125.257 80.191,125.417 80.610,126.024 C80.994,126.579 80.898,127.332 80.387,127.781 Z" class="cls-3"/>
      </g>
      <g>
        <rect x="119.188" y="86" width="84" height="69" rx="10" ry="10" class="cls-2"/>
        <path d="M181.336,138.999 L140.666,138.999 C140.303,138.999 140.010,138.706 140.010,138.344 L140.010,135.725 C140.010,135.719 140.014,135.713 140.014,135.707 C140.015,135.687 140.023,135.670 140.025,135.651 C140.036,135.561 140.063,135.479 140.107,135.404 C140.114,135.391 140.112,135.375 140.120,135.363 L146.680,125.545 C146.692,125.528 146.710,125.518 146.723,125.502 C146.752,125.466 146.784,125.435 146.820,125.405 C146.852,125.380 146.883,125.358 146.918,125.340 C146.956,125.319 146.994,125.304 147.036,125.291 C147.077,125.279 147.118,125.270 147.161,125.266 C147.184,125.264 147.203,125.253 147.226,125.253 L155.336,125.253 C152.889,122.005 150.506,117.751 150.506,113.471 C150.506,107.697 155.214,102.998 161.001,102.998 C166.788,102.998 171.497,107.697 171.497,113.471 C171.497,117.751 169.114,122.005 166.666,125.253 L174.777,125.253 C174.799,125.253 174.818,125.264 174.840,125.266 C174.884,125.270 174.925,125.278 174.967,125.291 C175.009,125.304 175.047,125.319 175.084,125.340 C175.119,125.358 175.150,125.380 175.182,125.405 C175.219,125.434 175.250,125.466 175.280,125.503 C175.293,125.518 175.311,125.528 175.323,125.545 L181.882,135.362 C181.891,135.375 181.889,135.391 181.896,135.404 C181.939,135.479 181.967,135.561 181.977,135.650 C181.980,135.670 181.988,135.687 181.989,135.707 C181.989,135.713 181.993,135.719 181.993,135.725 L181.993,138.344 C181.993,138.706 181.699,138.999 181.336,138.999 ZM145.828,129.181 L141.892,135.071 L146.057,135.071 L148.871,129.181 L145.828,129.181 ZM170.185,113.471 C170.185,108.418 166.065,104.307 161.001,104.307 C155.937,104.307 151.818,108.418 151.818,113.471 C151.818,119.563 157.309,125.883 159.991,128.608 C160.110,128.671 160.205,128.766 160.266,128.885 C160.554,129.172 160.812,129.422 161.001,129.600 C162.875,127.835 170.185,120.497 170.185,113.471 ZM159.352,129.835 L154.652,129.835 L154.087,131.799 L167.916,131.799 L167.351,129.835 L162.650,129.835 C161.979,130.498 161.516,130.910 161.434,130.981 C161.310,131.089 161.156,131.144 161.001,131.144 C160.847,131.144 160.692,131.089 160.569,130.981 C160.487,130.910 160.024,130.498 159.352,129.835 ZM174.426,126.562 L171.881,126.562 L173.444,129.835 L176.612,129.835 L174.426,126.562 ZM177.487,131.144 L173.030,131.144 C172.913,131.144 172.809,131.105 172.714,131.052 C172.692,131.040 172.675,131.027 172.655,131.013 C172.574,130.954 172.506,130.882 172.458,130.794 C172.453,130.783 172.441,130.780 172.436,130.769 L170.427,126.562 L165.638,126.562 C165.038,127.292 164.454,127.953 163.921,128.526 L167.846,128.526 C167.860,128.526 167.871,128.533 167.885,128.534 C167.929,128.537 167.968,128.548 168.010,128.559 C168.053,128.570 168.094,128.580 168.133,128.599 C168.167,128.615 168.194,128.638 168.224,128.660 C168.262,128.688 168.300,128.714 168.331,128.749 C168.355,128.776 168.371,128.807 168.391,128.837 C168.417,128.879 168.442,128.920 168.459,128.968 C168.463,128.980 168.472,128.988 168.475,129.000 L169.416,132.273 C169.425,132.303 169.419,132.332 169.423,132.362 C169.428,132.393 169.442,132.421 169.442,132.453 C169.442,132.467 169.435,132.478 169.434,132.492 C169.431,132.538 169.419,132.579 169.407,132.622 C169.397,132.662 169.388,132.702 169.370,132.738 C169.352,132.775 169.327,132.806 169.302,132.838 C169.276,132.873 169.252,132.907 169.220,132.936 C169.191,132.962 169.158,132.980 169.124,133.001 C169.084,133.025 169.045,133.049 169.000,133.065 C168.988,133.069 168.979,133.079 168.966,133.082 C168.907,133.099 168.847,133.107 168.788,133.107 C168.787,133.107 168.786,133.108 168.786,133.108 L153.217,133.108 C153.216,133.108 153.216,133.107 153.215,133.107 C153.156,133.107 153.095,133.099 153.037,133.082 C153.024,133.079 153.015,133.069 153.003,133.065 C152.957,133.049 152.918,133.025 152.878,133.000 C152.845,132.980 152.812,132.962 152.783,132.937 C152.750,132.907 152.726,132.872 152.699,132.837 C152.675,132.805 152.651,132.775 152.633,132.739 C152.615,132.702 152.606,132.662 152.595,132.621 C152.583,132.578 152.572,132.537 152.569,132.492 C152.568,132.479 152.561,132.467 152.561,132.453 C152.561,132.421 152.575,132.393 152.579,132.362 C152.584,132.332 152.578,132.303 152.587,132.273 L153.527,129.000 C153.531,128.988 153.540,128.980 153.544,128.968 C153.560,128.921 153.585,128.880 153.612,128.838 C153.631,128.807 153.647,128.776 153.671,128.750 C153.703,128.714 153.741,128.687 153.780,128.659 C153.809,128.638 153.836,128.615 153.869,128.599 C153.908,128.580 153.951,128.570 153.994,128.559 C154.035,128.548 154.075,128.537 154.117,128.534 C154.131,128.533 154.143,128.526 154.157,128.526 L158.082,128.526 C157.549,127.953 156.965,127.292 156.365,126.562 L147.577,126.562 L146.703,127.871 L149.911,127.871 C149.916,127.871 149.920,127.874 149.924,127.874 C149.963,127.875 150.002,127.889 150.041,127.897 C150.089,127.907 150.138,127.913 150.182,127.932 C150.185,127.934 150.189,127.933 150.193,127.935 C150.218,127.947 150.233,127.968 150.256,127.982 C150.303,128.012 150.350,128.041 150.388,128.081 C150.412,128.107 150.427,128.138 150.446,128.168 C150.474,128.208 150.503,128.247 150.521,128.293 C150.535,128.330 150.537,128.370 150.544,128.409 C150.551,128.448 150.568,128.484 150.568,128.526 C150.568,128.532 150.564,128.537 150.564,128.543 C150.563,128.576 150.550,128.607 150.545,128.640 C150.535,128.694 150.527,128.749 150.505,128.797 C150.504,128.801 150.504,128.804 150.503,128.807 L147.510,135.071 L174.492,135.071 L173.688,133.388 C173.686,133.384 173.686,133.379 173.684,133.375 C173.669,133.339 173.666,133.300 173.656,133.262 C173.644,133.214 173.628,133.167 173.627,133.118 C173.627,133.114 173.625,133.111 173.625,133.108 C173.625,133.083 173.637,133.061 173.639,133.037 C173.646,132.979 173.652,132.922 173.673,132.868 C173.686,132.836 173.707,132.811 173.724,132.782 C173.749,132.739 173.772,132.695 173.808,132.658 C173.837,132.628 173.873,132.608 173.907,132.584 C173.938,132.562 173.962,132.533 173.998,132.516 C174.003,132.514 174.008,132.515 174.013,132.512 C174.050,132.496 174.091,132.493 174.131,132.483 C174.177,132.472 174.222,132.456 174.269,132.455 C174.273,132.455 174.277,132.453 174.281,132.453 L178.362,132.453 L177.487,131.144 ZM179.236,133.762 L175.320,133.762 L175.945,135.071 L180.111,135.071 L179.236,133.762 ZM180.680,136.380 L141.322,136.380 L141.322,137.690 L180.680,137.690 L180.680,136.380 ZM157.066,118.708 C156.703,118.708 156.409,118.414 156.409,118.053 C156.409,117.692 156.703,117.398 157.066,117.398 L157.066,113.809 L156.791,114.004 C156.675,114.086 156.542,114.126 156.410,114.126 C156.205,114.126 156.004,114.030 155.876,113.852 C155.666,113.558 155.734,113.149 156.029,112.939 L157.066,112.200 L157.066,110.199 C157.066,109.837 157.359,109.544 157.722,109.544 C158.084,109.544 158.377,109.837 158.377,110.199 L158.377,111.265 L160.620,109.666 C160.627,109.661 160.635,109.661 160.642,109.656 C160.680,109.631 160.721,109.619 160.762,109.603 C160.801,109.587 160.838,109.567 160.878,109.559 C160.917,109.552 160.957,109.556 160.996,109.556 C161.040,109.556 161.083,109.551 161.126,109.559 C161.164,109.567 161.199,109.586 161.235,109.600 C161.279,109.617 161.322,109.630 161.361,109.656 C161.368,109.661 161.376,109.661 161.383,109.666 L165.975,112.939 C166.269,113.149 166.338,113.558 166.127,113.852 C165.999,114.030 165.798,114.126 165.593,114.126 C165.461,114.126 165.328,114.086 165.212,114.004 L164.937,113.808 L164.937,117.398 C165.300,117.398 165.593,117.692 165.593,118.053 C165.593,118.414 165.300,118.708 164.937,118.708 L157.066,118.708 ZM163.625,112.873 L161.002,111.003 L158.377,112.874 L158.377,117.398 L160.345,117.398 L160.345,116.089 C160.345,115.729 160.639,115.436 161.001,115.436 C161.364,115.436 161.657,115.729 161.657,116.089 L161.657,117.398 L163.625,117.398 L163.625,112.873 Z" class="cls-3"/>
      </g>
      <g>
        <rect x="219.375" y="86" width="84" height="69" rx="10" ry="10" class="cls-2"/>
        <path d="M280.601,116.261 L267.172,106.202 C266.814,105.934 266.321,105.934 265.964,106.202 L263.756,107.855 L261.549,106.202 C261.191,105.934 260.698,105.934 260.341,106.202 L258.188,107.814 L256.035,106.202 C255.678,105.934 255.185,105.934 254.827,106.202 L241.399,116.261 C241.147,116.449 241.000,116.744 241.000,117.056 L241.000,133.992 C241.000,134.542 241.449,134.988 242.003,134.988 L247.516,134.988 L253.139,134.988 L268.861,134.988 L274.374,134.988 L279.996,134.988 C280.551,134.988 281.000,134.542 281.000,133.992 L281.000,117.056 C281.000,116.744 280.852,116.449 280.601,116.261 ZM278.993,132.996 L275.377,132.996 L275.377,117.056 C275.377,116.744 275.229,116.449 274.978,116.261 L265.422,109.103 L266.568,108.246 L278.993,117.553 L278.993,132.996 ZM269.864,132.996 L269.864,117.056 C269.864,116.744 269.716,116.449 269.465,116.261 L259.854,109.063 L260.945,108.246 L273.371,117.553 L273.371,132.996 L269.864,132.996 L269.864,132.996 ZM257.074,132.996 L254.142,132.996 L253.789,132.996 L253.789,125.770 L257.074,125.770 L257.074,132.996 ZM259.081,132.996 L259.081,124.774 C259.081,124.223 258.631,123.778 258.078,123.778 L252.786,123.778 C252.232,123.778 251.783,124.223 251.783,124.774 L251.783,132.996 L248.519,132.996 L243.006,132.996 L243.006,117.553 L255.432,108.246 L267.857,117.553 L267.857,132.996 L259.081,132.996 Z" class="cls-3"/>
      </g>
      <g>
        <rect x="321.031" y="86" width="83.969" height="69" rx="10" ry="10" class="cls-4"/>
        <path d="M380.944,127.943 L376.301,133.528 C376.301,133.529 376.301,133.529 376.300,133.529 L373.693,136.666 C373.518,136.876 373.255,136.999 372.977,136.999 C372.698,136.999 372.435,136.876 372.260,136.666 L369.923,133.855 L350.930,133.855 C350.422,133.855 350.009,133.454 350.009,132.959 L350.009,117.738 C350.009,117.457 350.145,117.192 350.376,117.023 L362.706,107.983 C363.034,107.742 363.486,107.742 363.815,107.983 L376.144,117.023 C376.375,117.192 376.511,117.457 376.511,117.738 L376.511,120.540 C376.781,120.499 377.056,120.475 377.338,120.475 C377.429,120.475 377.519,120.477 377.609,120.481 C379.368,120.568 380.852,121.564 381.579,123.146 C382.316,124.748 382.072,126.586 380.944,127.943 ZM374.669,118.184 L363.260,109.820 L351.851,118.184 L351.851,132.064 L368.434,132.064 L365.009,127.943 C363.881,126.586 363.637,124.748 364.374,123.146 C365.100,121.564 366.585,120.568 368.344,120.481 C368.434,120.477 368.524,120.475 368.615,120.475 C370.425,120.475 372.024,121.363 372.977,122.716 C373.416,122.091 373.996,121.568 374.669,121.182 L374.669,118.184 ZM379.897,123.876 C379.459,122.922 378.569,122.322 377.516,122.271 C377.457,122.268 377.397,122.266 377.338,122.266 C375.441,122.266 373.898,123.767 373.898,125.611 C373.898,126.105 373.485,126.506 372.977,126.506 C372.468,126.506 372.056,126.105 372.056,125.611 C372.056,123.767 370.512,122.266 368.615,122.266 C368.556,122.266 368.497,122.268 368.438,122.271 C367.384,122.322 366.494,122.922 366.056,123.876 C365.603,124.860 365.751,125.987 366.441,126.817 L372.977,134.679 L379.512,126.817 C380.202,125.988 380.350,124.861 379.897,123.876 ZM375.589,114.820 C375.396,114.820 375.201,114.762 375.035,114.640 L363.260,106.006 L351.485,114.640 C351.079,114.938 350.501,114.859 350.195,114.464 C349.889,114.069 349.970,113.508 350.376,113.210 L362.706,104.170 C363.034,103.928 363.486,103.928 363.815,104.170 L376.144,113.210 C376.550,113.508 376.632,114.069 376.325,114.464 C376.144,114.697 375.868,114.820 375.589,114.820 Z" class="cls-5"/>
      </g>
      <g>
        <rect x="19" y="171" width="83.969" height="69" rx="10" ry="10" class="cls-2"/>
        <path d="M79.163,220.998 L72.657,220.998 L66.151,220.998 L54.833,220.998 L48.327,220.998 L41.821,220.998 C41.370,220.998 41.004,220.626 41.004,220.168 L41.004,211.780 C41.004,211.520 41.124,211.274 41.329,211.118 L47.509,206.385 L47.509,204.485 C47.509,204.224 47.630,203.978 47.835,203.822 L60.000,194.506 C60.291,194.283 60.693,194.283 60.984,194.506 L73.150,203.822 C73.355,203.978 73.475,204.224 73.475,204.485 L73.475,206.385 L79.655,211.118 C79.860,211.274 79.981,211.520 79.981,211.780 L79.981,220.168 C79.981,220.626 79.615,220.998 79.163,220.998 ZM47.509,208.464 L42.639,212.194 L42.639,219.338 L47.509,219.338 L47.509,208.464 ZM59.608,219.338 L61.376,219.338 L61.376,215.153 L59.608,215.153 L59.608,219.338 ZM71.840,204.898 L60.492,196.208 L49.145,204.898 L49.145,219.338 L54.015,219.338 L57.973,219.338 L57.973,214.323 C57.973,213.865 58.339,213.493 58.791,213.493 L62.194,213.493 C62.645,213.493 63.011,213.865 63.011,214.323 L63.011,219.338 L66.969,219.338 L71.840,219.338 L71.840,204.898 ZM78.346,212.194 L73.475,208.464 L73.475,219.338 L78.346,219.338 L78.346,212.194 ZM79.163,205.948 C78.991,205.948 78.818,205.893 78.671,205.781 L60.492,191.860 L42.313,205.780 C41.953,206.056 41.440,205.983 41.168,205.617 C40.897,205.251 40.968,204.731 41.329,204.454 L60.000,190.157 C60.291,189.934 60.693,189.934 60.984,190.157 L79.655,204.454 C80.016,204.731 80.088,205.251 79.816,205.617 C79.655,205.833 79.410,205.948 79.163,205.948 Z" class="cls-3"/>
      </g>
      <g>
        <rect x="119.188" y="171" width="84" height="69" rx="10" ry="10" class="cls-2"/>
        <path d="M174.954,222.999 L147.046,222.999 C146.471,222.999 146.004,222.542 146.004,221.979 L146.004,204.648 C146.004,204.328 146.157,204.027 146.419,203.834 L160.372,193.541 C160.744,193.267 161.256,193.267 161.627,193.541 L175.582,203.834 C175.842,204.027 175.996,204.328 175.996,204.648 L175.996,221.979 C175.996,222.542 175.529,222.999 174.954,222.999 ZM173.911,205.157 L161.000,195.633 L148.089,205.157 L148.089,220.959 L173.911,220.959 L173.911,205.157 ZM156.994,207.617 L156.994,204.875 C156.994,202.714 158.791,200.957 161.000,200.957 C163.208,200.957 165.006,202.714 165.006,204.875 L165.006,206.009 C165.006,206.572 164.539,207.029 163.963,207.029 C163.388,207.029 162.921,206.572 162.921,206.009 L162.921,204.875 C162.921,203.838 162.059,202.996 161.000,202.996 C159.941,202.996 159.079,203.838 159.079,204.875 L159.079,207.592 L164.681,207.592 C165.901,207.592 166.893,208.563 166.893,209.755 L166.893,216.812 C166.893,218.005 165.901,218.976 164.681,218.976 L157.319,218.976 C156.099,218.976 155.107,218.005 155.107,216.812 L155.107,209.755 C155.107,208.671 155.928,207.772 156.994,207.617 ZM157.192,216.812 C157.192,216.880 157.249,216.936 157.319,216.936 L164.681,216.936 C164.751,216.936 164.808,216.880 164.808,216.812 L164.808,209.755 C164.808,209.687 164.751,209.631 164.681,209.631 L157.319,209.631 C157.249,209.631 157.192,209.687 157.192,209.755 L157.192,216.812 ZM174.953,201.326 C174.734,201.326 174.514,201.259 174.326,201.120 L161.000,191.290 L147.674,201.120 C147.214,201.459 146.560,201.370 146.214,200.920 C145.868,200.471 145.959,199.832 146.419,199.492 L160.372,189.199 C160.744,188.924 161.256,188.924 161.627,189.199 L175.581,199.492 C176.041,199.832 176.133,200.471 175.786,200.920 C175.581,201.186 175.269,201.326 174.953,201.326 Z" class="cls-3"/>
      </g>
      <g>
        <rect x="219.375" y="171" width="84" height="69" rx="10" ry="10" class="cls-2"/>
        <path d="M277.996,221.117 C277.996,222.155 277.140,222.999 276.089,222.999 L262.997,222.999 C261.946,222.999 261.091,222.155 261.091,221.117 L261.091,219.933 L245.961,219.933 C245.425,219.933 244.991,219.504 244.991,218.975 L244.991,202.693 C244.991,202.392 245.133,202.109 245.377,201.929 L258.372,192.258 C258.718,192.001 259.194,192.001 259.541,192.258 L272.535,201.929 C272.779,202.109 272.922,202.392 272.922,202.693 L272.922,208.010 L276.089,208.010 C277.140,208.010 277.996,208.855 277.996,209.892 L277.996,212.402 C277.996,212.738 277.905,213.053 277.748,213.326 C277.905,213.599 277.996,213.914 277.996,214.250 L277.996,216.760 C277.996,217.095 277.905,217.411 277.748,217.683 C277.905,217.956 277.996,218.271 277.996,218.607 L277.996,221.117 ZM263.032,221.083 L276.054,221.083 L276.054,218.641 L263.032,218.641 L263.032,221.083 ZM270.980,203.171 L258.956,194.223 L246.932,203.171 L246.932,218.017 L261.188,218.017 C261.227,217.901 261.277,217.789 261.338,217.683 C261.181,217.411 261.091,217.096 261.091,216.760 L261.091,214.250 C261.091,213.914 261.181,213.599 261.338,213.326 C261.181,213.053 261.091,212.738 261.091,212.402 L261.091,209.892 C261.091,208.855 261.946,208.010 262.997,208.010 L270.980,208.010 L270.980,203.171 ZM276.054,209.927 L263.032,209.927 L263.032,212.368 L276.054,212.368 L276.054,209.927 ZM276.054,214.284 L263.032,214.284 L263.032,216.725 L276.054,216.725 L276.054,214.284 ZM271.950,199.572 C271.747,199.572 271.542,199.509 271.366,199.379 L258.956,190.143 L246.546,199.379 C246.118,199.697 245.509,199.613 245.186,199.190 C244.863,198.769 244.949,198.168 245.377,197.849 L258.372,188.178 C258.718,187.921 259.194,187.921 259.541,188.178 L272.535,197.849 C272.964,198.168 273.049,198.769 272.726,199.190 C272.535,199.440 272.244,199.572 271.950,199.572 Z" class="cls-3"/>
      </g>
      <g>
        <rect x="321.031" y="171" width="83.969" height="69" rx="10" ry="10" class="cls-2"/>
        <path d="M379.691,223.635 L377.580,225.693 C377.371,225.897 377.096,225.998 376.822,225.998 C376.548,225.998 376.274,225.897 376.064,225.693 L371.060,220.816 L347.077,220.816 C346.486,220.816 346.006,220.348 346.006,219.771 L346.006,202.019 C346.006,201.691 346.164,201.382 346.432,201.185 L360.779,190.641 C361.161,190.360 361.687,190.360 362.069,190.641 L376.416,201.185 C376.685,201.382 376.842,201.691 376.842,202.019 L376.842,219.382 L379.691,222.158 C380.109,222.566 380.109,223.227 379.691,223.635 ZM374.699,202.540 L361.424,192.783 L348.149,202.540 L348.149,218.726 L368.917,218.726 L366.537,216.407 C365.285,217.057 363.880,217.403 362.421,217.403 C360.080,217.403 357.879,216.514 356.224,214.901 C352.806,211.570 352.806,206.151 356.223,202.821 C357.879,201.208 360.080,200.319 362.421,200.319 C364.762,200.319 366.963,201.208 368.618,202.821 C371.404,205.536 371.918,209.641 370.160,212.869 L374.699,217.293 L374.699,202.540 ZM367.102,213.425 C369.684,210.908 369.684,206.814 367.102,204.298 C365.852,203.079 364.189,202.408 362.421,202.408 C360.652,202.408 358.990,203.079 357.739,204.298 C355.158,206.814 355.158,210.908 357.739,213.425 C358.990,214.642 360.652,215.314 362.421,215.314 C364.189,215.314 365.852,214.643 367.102,213.425 ZM368.908,214.603 C368.814,214.704 368.718,214.803 368.618,214.901 C368.518,214.998 368.417,215.092 368.313,215.184 L376.823,223.477 L377.418,222.897 L368.908,214.603 ZM358.320,211.381 C358.738,210.973 359.417,210.973 359.835,211.381 C361.261,212.770 363.581,212.770 365.006,211.381 C365.425,210.973 366.104,210.973 366.522,211.381 C366.941,211.789 366.941,212.450 366.522,212.857 C365.391,213.960 363.906,214.511 362.421,214.511 C360.936,214.511 359.450,213.960 358.320,212.857 C357.901,212.450 357.901,211.789 358.320,211.381 ZM375.770,198.615 C375.545,198.615 375.319,198.547 375.125,198.405 L361.424,188.335 L347.723,198.405 C347.250,198.752 346.578,198.661 346.222,198.200 C345.865,197.739 345.960,197.085 346.432,196.738 L360.779,186.193 C361.161,185.913 361.687,185.913 362.069,186.193 L376.416,196.738 C376.888,197.085 376.983,197.739 376.626,198.200 C376.416,198.472 376.095,198.615 375.770,198.615 Z" class="cls-3"/>
      </g>
    </g>
    <g>
      <path d="M25.500,25.500 L321.500,25.500 L321.500,65.500 L25.500,65.500 C22.739,65.500 20.500,63.261 20.500,60.500 L20.500,30.500 C20.500,27.739 22.739,25.500 25.500,25.500 Z" class="cls-6"/>
      <path d="M173.498,47.639 C173.424,47.723 173.302,47.765 173.134,47.765 L168.626,47.765 C168.710,49.371 169.471,50.173 170.908,50.173 C171.272,50.173 171.585,50.124 171.846,50.027 C172.107,49.928 172.387,49.795 172.686,49.628 C172.929,49.488 173.092,49.417 173.176,49.417 C173.279,49.417 173.368,49.459 173.442,49.543 C173.517,49.628 173.554,49.735 173.554,49.865 C173.554,50.099 173.391,50.313 173.064,50.510 C172.728,50.705 172.373,50.853 172.000,50.950 C171.627,51.048 171.263,51.098 170.908,51.098 C169.854,51.098 169.020,50.785 168.409,50.159 C167.798,49.534 167.492,48.671 167.492,47.570 C167.492,46.870 167.627,46.251 167.898,45.714 C168.169,45.177 168.549,44.760 169.039,44.461 C169.529,44.163 170.087,44.013 170.712,44.013 C171.599,44.013 172.304,44.303 172.826,44.881 C173.349,45.460 173.610,46.244 173.610,47.234 C173.610,47.420 173.573,47.555 173.498,47.639 ZM172.098,45.448 C171.771,45.080 171.314,44.896 170.726,44.896 C170.129,44.896 169.651,45.082 169.291,45.456 C168.932,45.829 168.719,46.356 168.654,47.037 L172.616,47.037 C172.597,46.347 172.425,45.817 172.098,45.448 ZM165.266,51.069 C165.098,51.069 164.961,51.021 164.853,50.922 C164.746,50.824 164.692,50.687 164.692,50.510 L164.692,46.744 C164.692,46.118 164.580,45.666 164.356,45.385 C164.132,45.105 163.782,44.965 163.306,44.965 C162.737,44.965 162.289,45.157 161.962,45.539 C161.636,45.922 161.472,46.440 161.472,47.093 L161.472,50.510 C161.472,50.687 161.419,50.824 161.311,50.922 C161.204,51.021 161.066,51.069 160.898,51.069 C160.730,51.069 160.595,51.021 160.492,50.922 C160.390,50.824 160.338,50.687 160.338,50.510 L160.338,46.744 C160.338,46.118 160.227,45.666 160.002,45.385 C159.778,45.105 159.424,44.965 158.938,44.965 C158.378,44.965 157.933,45.157 157.601,45.539 C157.270,45.922 157.104,46.440 157.104,47.093 L157.104,50.510 C157.104,50.687 157.053,50.824 156.950,50.922 C156.848,51.021 156.713,51.069 156.544,51.069 C156.376,51.069 156.239,51.021 156.131,50.922 C156.024,50.824 155.970,50.687 155.970,50.510 L155.970,44.601 C155.970,44.433 156.024,44.298 156.131,44.196 C156.239,44.093 156.376,44.041 156.544,44.041 C156.703,44.041 156.834,44.090 156.936,44.189 C157.039,44.287 157.090,44.419 157.090,44.587 L157.090,45.259 C157.296,44.859 157.580,44.550 157.944,44.336 C158.308,44.121 158.728,44.013 159.204,44.013 C160.268,44.013 160.964,44.461 161.290,45.357 C161.486,44.947 161.785,44.620 162.186,44.377 C162.588,44.135 163.045,44.013 163.558,44.013 C165.070,44.013 165.826,44.915 165.826,46.716 L165.826,50.510 C165.826,50.687 165.775,50.824 165.672,50.922 C165.570,51.021 165.434,51.069 165.266,51.069 ZM153.352,51.069 C153.184,51.069 153.049,51.018 152.946,50.915 C152.844,50.813 152.792,50.677 152.792,50.510 L152.792,49.837 C152.615,50.238 152.344,50.549 151.980,50.769 C151.616,50.988 151.196,51.098 150.720,51.098 C150.282,51.098 149.878,51.008 149.509,50.831 C149.141,50.654 148.849,50.407 148.634,50.090 C148.420,49.772 148.312,49.422 148.312,49.039 C148.312,48.527 148.443,48.127 148.704,47.843 C148.966,47.558 149.395,47.352 149.992,47.226 C150.590,47.101 151.420,47.037 152.484,47.037 L152.792,47.037 L152.792,46.576 C152.792,46.015 152.678,45.605 152.449,45.343 C152.221,45.082 151.850,44.952 151.336,44.952 C150.702,44.952 150.058,45.124 149.404,45.469 C149.152,45.628 148.975,45.707 148.872,45.707 C148.760,45.707 148.667,45.666 148.592,45.582 C148.518,45.497 148.480,45.390 148.480,45.259 C148.480,45.128 148.520,45.014 148.599,44.917 C148.679,44.818 148.807,44.718 148.984,44.616 C149.311,44.428 149.682,44.282 150.097,44.174 C150.513,44.067 150.926,44.013 151.336,44.013 C153.045,44.013 153.898,44.910 153.898,46.702 L153.898,50.510 C153.898,50.677 153.849,50.813 153.751,50.915 C153.653,51.018 153.520,51.069 153.352,51.069 ZM152.792,47.765 L152.540,47.765 C151.719,47.765 151.094,47.801 150.664,47.870 C150.235,47.941 149.929,48.057 149.747,48.221 C149.565,48.384 149.474,48.624 149.474,48.942 C149.474,49.306 149.607,49.606 149.873,49.844 C150.139,50.082 150.473,50.201 150.874,50.201 C151.434,50.201 151.894,50.013 152.253,49.635 C152.613,49.257 152.792,48.769 152.792,48.172 L152.792,47.765 ZM145.722,51.069 C145.545,51.069 145.391,50.990 145.260,50.831 L139.450,43.061 L139.450,50.482 C139.450,50.658 139.402,50.801 139.303,50.908 C139.205,51.016 139.072,51.069 138.904,51.069 C138.736,51.069 138.606,51.016 138.512,50.908 C138.419,50.801 138.373,50.658 138.373,50.482 L138.373,41.647 C138.373,41.470 138.421,41.328 138.519,41.220 C138.617,41.113 138.755,41.059 138.932,41.059 C139.119,41.059 139.278,41.138 139.408,41.298 L145.204,49.068 L145.204,41.647 C145.204,41.470 145.253,41.328 145.351,41.220 C145.449,41.113 145.583,41.059 145.751,41.059 C145.919,41.059 146.049,41.113 146.143,41.220 C146.236,41.328 146.282,41.470 146.282,41.647 L146.282,50.482 C146.282,50.658 146.234,50.801 146.135,50.908 C146.037,51.016 145.900,51.069 145.722,51.069 ZM129.357,53.253 C129.310,53.356 129.242,53.436 129.154,53.491 C129.065,53.547 128.974,53.575 128.881,53.575 C128.741,53.575 128.617,53.531 128.510,53.442 C128.402,53.354 128.349,53.239 128.349,53.100 C128.349,53.024 128.367,52.950 128.405,52.875 L129.385,50.762 L126.613,44.769 C126.575,44.704 126.557,44.634 126.557,44.559 C126.557,44.419 126.620,44.298 126.746,44.196 C126.872,44.093 127.009,44.041 127.159,44.041 C127.252,44.041 127.343,44.069 127.432,44.126 C127.520,44.181 127.588,44.261 127.635,44.363 L129.973,49.614 L132.311,44.391 C132.413,44.168 132.577,44.055 132.801,44.055 C132.941,44.055 133.067,44.102 133.179,44.196 C133.291,44.289 133.347,44.405 133.347,44.545 C133.347,44.629 133.328,44.704 133.291,44.769 L129.357,53.253 ZM124.765,51.069 C124.587,51.069 124.447,51.021 124.345,50.922 C124.242,50.824 124.191,50.687 124.191,50.510 L124.191,46.786 C124.191,46.151 124.067,45.689 123.820,45.399 C123.572,45.110 123.178,44.965 122.637,44.965 C122.011,44.965 121.512,45.157 121.139,45.539 C120.765,45.922 120.579,46.440 120.579,47.093 L120.579,50.510 C120.579,50.687 120.530,50.824 120.432,50.922 C120.334,51.021 120.196,51.069 120.019,51.069 C119.841,51.069 119.701,51.021 119.599,50.922 C119.496,50.824 119.445,50.687 119.445,50.510 L119.445,44.601 C119.445,44.433 119.496,44.298 119.599,44.196 C119.701,44.093 119.841,44.041 120.019,44.041 C120.187,44.041 120.320,44.093 120.418,44.196 C120.516,44.298 120.565,44.428 120.565,44.587 L120.565,45.301 C120.789,44.881 121.101,44.562 121.503,44.342 C121.904,44.124 122.361,44.013 122.875,44.013 C124.508,44.013 125.325,44.915 125.325,46.716 L125.325,50.510 C125.325,50.687 125.276,50.824 125.178,50.922 C125.080,51.021 124.942,51.069 124.765,51.069 ZM116.827,51.069 C116.659,51.069 116.523,51.018 116.421,50.915 C116.318,50.813 116.267,50.677 116.267,50.510 L116.267,49.837 C116.089,50.238 115.819,50.549 115.455,50.769 C115.091,50.988 114.671,51.098 114.195,51.098 C113.756,51.098 113.352,51.008 112.984,50.831 C112.615,50.654 112.323,50.407 112.109,50.090 C111.894,49.772 111.787,49.422 111.787,49.039 C111.787,48.527 111.917,48.127 112.179,47.843 C112.440,47.558 112.869,47.352 113.467,47.226 C114.064,47.101 114.895,47.037 115.959,47.037 L116.267,47.037 L116.267,46.576 C116.267,46.015 116.152,45.605 115.924,45.343 C115.695,45.082 115.324,44.952 114.811,44.952 C114.176,44.952 113.532,45.124 112.879,45.469 C112.627,45.628 112.449,45.707 112.347,45.707 C112.235,45.707 112.141,45.666 112.067,45.582 C111.992,45.497 111.955,45.390 111.955,45.259 C111.955,45.128 111.994,45.014 112.074,44.917 C112.153,44.818 112.281,44.718 112.459,44.616 C112.785,44.428 113.156,44.282 113.572,44.174 C113.987,44.067 114.400,44.013 114.811,44.013 C116.519,44.013 117.373,44.910 117.373,46.702 L117.373,50.510 C117.373,50.677 117.324,50.813 117.226,50.915 C117.128,51.018 116.995,51.069 116.827,51.069 ZM116.267,47.765 L116.015,47.765 C115.193,47.765 114.568,47.801 114.139,47.870 C113.709,47.941 113.404,48.057 113.222,48.221 C113.040,48.384 112.949,48.624 112.949,48.942 C112.949,49.306 113.082,49.606 113.348,49.844 C113.614,50.082 113.947,50.201 114.349,50.201 C114.909,50.201 115.368,50.013 115.728,49.635 C116.087,49.257 116.267,48.769 116.267,48.172 L116.267,47.765 ZM108.896,50.663 C108.443,50.953 107.914,51.098 107.307,51.098 C106.775,51.098 106.311,50.981 105.914,50.748 C105.517,50.514 105.216,50.183 105.011,49.753 L105.011,53.044 C105.011,53.211 104.962,53.345 104.864,53.442 C104.766,53.540 104.628,53.589 104.451,53.589 C104.273,53.589 104.134,53.538 104.031,53.436 C103.928,53.333 103.877,53.202 103.877,53.044 L103.877,44.601 C103.877,44.433 103.928,44.298 104.031,44.196 C104.134,44.093 104.273,44.041 104.451,44.041 C104.628,44.041 104.766,44.093 104.864,44.196 C104.962,44.298 105.011,44.433 105.011,44.601 L105.011,45.357 C105.216,44.928 105.517,44.597 105.914,44.363 C106.311,44.130 106.775,44.013 107.307,44.013 C107.904,44.013 108.432,44.163 108.889,44.461 C109.346,44.760 109.701,45.177 109.953,45.714 C110.205,46.251 110.331,46.874 110.331,47.583 C110.331,48.293 110.205,48.911 109.953,49.439 C109.701,49.966 109.349,50.374 108.896,50.663 ZM108.623,45.659 C108.259,45.197 107.746,44.965 107.083,44.965 C106.420,44.965 105.909,45.190 105.550,45.638 C105.191,46.085 105.011,46.725 105.011,47.555 C105.011,48.386 105.191,49.028 105.550,49.480 C105.909,49.933 106.420,50.159 107.083,50.159 C107.746,50.159 108.259,49.935 108.623,49.488 C108.987,49.039 109.169,48.405 109.169,47.583 C109.169,46.762 108.987,46.121 108.623,45.659 ZM101.245,51.069 C101.077,51.069 100.939,51.021 100.832,50.922 C100.725,50.824 100.671,50.687 100.671,50.510 L100.671,46.744 C100.671,46.118 100.559,45.666 100.335,45.385 C100.111,45.105 99.761,44.965 99.285,44.965 C98.716,44.965 98.268,45.157 97.941,45.539 C97.614,45.922 97.451,46.440 97.451,47.093 L97.451,50.510 C97.451,50.687 97.397,50.824 97.290,50.922 C97.183,51.021 97.045,51.069 96.877,51.069 C96.709,51.069 96.574,51.021 96.471,50.922 C96.368,50.824 96.317,50.687 96.317,50.510 L96.317,46.744 C96.317,46.118 96.205,45.666 95.981,45.385 C95.757,45.105 95.402,44.965 94.917,44.965 C94.357,44.965 93.911,45.157 93.580,45.539 C93.249,45.922 93.083,46.440 93.083,47.093 L93.083,50.510 C93.083,50.687 93.032,50.824 92.929,50.922 C92.826,51.021 92.691,51.069 92.523,51.069 C92.355,51.069 92.217,51.021 92.110,50.922 C92.003,50.824 91.949,50.687 91.949,50.510 L91.949,44.601 C91.949,44.433 92.003,44.298 92.110,44.196 C92.217,44.093 92.355,44.041 92.523,44.041 C92.682,44.041 92.812,44.090 92.915,44.189 C93.018,44.287 93.069,44.419 93.069,44.587 L93.069,45.259 C93.274,44.859 93.559,44.550 93.923,44.336 C94.287,44.121 94.707,44.013 95.183,44.013 C96.247,44.013 96.942,44.461 97.269,45.357 C97.465,44.947 97.764,44.620 98.165,44.377 C98.566,44.135 99.024,44.013 99.537,44.013 C101.049,44.013 101.805,44.915 101.805,46.716 L101.805,50.510 C101.805,50.687 101.754,50.824 101.651,50.922 C101.548,51.021 101.413,51.069 101.245,51.069 ZM88.715,50.663 C88.220,50.953 87.651,51.098 87.007,51.098 C86.363,51.098 85.796,50.953 85.306,50.663 C84.816,50.374 84.438,49.961 84.172,49.424 C83.906,48.888 83.773,48.265 83.773,47.555 C83.773,46.846 83.906,46.223 84.172,45.686 C84.438,45.150 84.816,44.737 85.306,44.447 C85.796,44.158 86.363,44.013 87.007,44.013 C87.651,44.013 88.220,44.158 88.715,44.447 C89.210,44.737 89.590,45.150 89.856,45.686 C90.122,46.223 90.255,46.846 90.255,47.555 C90.255,48.265 90.122,48.888 89.856,49.424 C89.590,49.961 89.210,50.374 88.715,50.663 ZM88.547,45.630 C88.183,45.177 87.670,44.952 87.007,44.952 C86.344,44.952 85.831,45.177 85.467,45.630 C85.103,46.083 84.921,46.725 84.921,47.555 C84.921,48.395 85.101,49.039 85.460,49.488 C85.819,49.935 86.335,50.159 87.007,50.159 C87.679,50.159 88.195,49.938 88.554,49.494 C88.913,49.051 89.093,48.405 89.093,47.555 C89.093,46.725 88.911,46.083 88.547,45.630 ZM79.223,50.131 C79.718,50.131 80.161,50.057 80.553,49.907 C80.945,49.758 81.379,49.497 81.855,49.123 C82.014,49.021 82.149,48.970 82.261,48.970 C82.364,48.970 82.453,49.016 82.527,49.110 C82.602,49.203 82.639,49.320 82.639,49.459 C82.639,49.647 82.565,49.809 82.415,49.949 C82.005,50.322 81.521,50.610 80.966,50.811 C80.411,51.011 79.820,51.111 79.195,51.111 C78.262,51.111 77.455,50.908 76.773,50.502 C76.092,50.097 75.567,49.513 75.198,48.752 C74.829,47.992 74.645,47.093 74.645,46.058 C74.645,45.031 74.829,44.137 75.198,43.377 C75.567,42.616 76.092,42.032 76.773,41.627 C77.455,41.220 78.262,41.017 79.195,41.017 C79.820,41.017 80.411,41.118 80.966,41.318 C81.521,41.519 82.005,41.806 82.415,42.179 C82.565,42.320 82.639,42.483 82.639,42.670 C82.639,42.800 82.602,42.914 82.527,43.012 C82.453,43.111 82.364,43.159 82.261,43.159 C82.149,43.159 82.014,43.108 81.855,43.006 C81.379,42.632 80.947,42.371 80.560,42.221 C80.173,42.072 79.727,41.998 79.223,41.998 C78.140,41.998 77.308,42.350 76.724,43.054 C76.141,43.759 75.849,44.760 75.849,46.058 C75.849,47.364 76.141,48.370 76.724,49.074 C77.308,49.779 78.140,50.131 79.223,50.131 ZM69.689,45.036 L69.269,45.077 C68.644,45.133 68.180,45.355 67.876,45.743 C67.573,46.130 67.421,46.585 67.421,47.108 L67.421,50.510 C67.421,50.696 67.370,50.836 67.267,50.930 C67.165,51.023 67.029,51.069 66.861,51.069 C66.693,51.069 66.556,51.021 66.448,50.922 C66.341,50.824 66.287,50.687 66.287,50.510 L66.287,44.601 C66.287,44.424 66.343,44.287 66.455,44.189 C66.567,44.090 66.703,44.041 66.861,44.041 C67.011,44.041 67.137,44.090 67.239,44.189 C67.342,44.287 67.393,44.419 67.393,44.587 L67.393,45.372 C67.589,44.961 67.867,44.648 68.226,44.433 C68.586,44.219 68.999,44.093 69.465,44.055 L69.661,44.041 C70.053,44.013 70.249,44.172 70.249,44.518 C70.249,44.667 70.207,44.786 70.123,44.875 C70.039,44.963 69.895,45.017 69.689,45.036 ZM64.145,47.765 L59.638,47.765 C59.721,49.371 60.482,50.173 61.920,50.173 C62.283,50.173 62.596,50.124 62.857,50.027 C63.119,49.928 63.399,49.795 63.698,49.628 C63.940,49.488 64.104,49.417 64.188,49.417 C64.290,49.417 64.379,49.459 64.454,49.543 C64.528,49.628 64.566,49.735 64.566,49.865 C64.566,50.099 64.402,50.313 64.076,50.510 C63.740,50.705 63.385,50.853 63.012,50.950 C62.638,51.048 62.274,51.098 61.920,51.098 C60.865,51.098 60.032,50.785 59.421,50.159 C58.809,49.534 58.504,48.671 58.504,47.570 C58.504,46.870 58.639,46.251 58.909,45.714 C59.180,45.177 59.561,44.760 60.050,44.461 C60.540,44.163 61.098,44.013 61.723,44.013 C62.610,44.013 63.315,44.303 63.838,44.881 C64.360,45.460 64.622,46.244 64.622,47.234 C64.622,47.420 64.584,47.555 64.510,47.639 C64.435,47.723 64.314,47.765 64.145,47.765 ZM63.110,45.448 C62.783,45.080 62.326,44.896 61.738,44.896 C61.140,44.896 60.662,45.082 60.303,45.456 C59.943,45.829 59.731,46.356 59.665,47.037 L63.628,47.037 C63.609,46.347 63.436,45.817 63.110,45.448 ZM55.977,49.761 C56.187,49.989 56.502,50.117 56.922,50.146 L57.300,50.173 C57.626,50.201 57.790,50.351 57.790,50.621 C57.790,50.780 57.731,50.899 57.615,50.978 C57.498,51.058 57.323,51.088 57.090,51.069 L56.712,51.041 C55.965,50.985 55.414,50.762 55.060,50.369 C54.705,49.977 54.528,49.385 54.528,48.592 L54.528,45.077 L53.590,45.077 C53.431,45.077 53.307,45.038 53.219,44.959 C53.130,44.879 53.086,44.774 53.086,44.643 C53.086,44.503 53.130,44.391 53.219,44.307 C53.307,44.223 53.431,44.181 53.590,44.181 L54.528,44.181 L54.528,42.599 C54.528,42.423 54.579,42.285 54.682,42.186 C54.784,42.089 54.924,42.040 55.102,42.040 C55.270,42.040 55.405,42.089 55.508,42.186 C55.610,42.285 55.662,42.423 55.662,42.599 L55.662,44.181 L57.216,44.181 C57.365,44.181 57.484,44.223 57.573,44.307 C57.661,44.391 57.706,44.503 57.706,44.643 C57.706,44.774 57.661,44.879 57.573,44.959 C57.484,45.038 57.365,45.077 57.216,45.077 L55.662,45.077 L55.662,48.648 C55.662,49.160 55.767,49.531 55.977,49.761 ZM51.518,51.069 C51.340,51.069 51.200,51.021 51.098,50.922 C50.995,50.824 50.944,50.687 50.944,50.510 L50.944,46.786 C50.944,46.151 50.820,45.689 50.573,45.399 C50.325,45.110 49.931,44.965 49.390,44.965 C48.764,44.965 48.265,45.157 47.892,45.539 C47.518,45.922 47.332,46.440 47.332,47.093 L47.332,50.510 C47.332,50.687 47.283,50.824 47.185,50.922 C47.087,51.021 46.949,51.069 46.772,51.069 C46.594,51.069 46.454,51.021 46.352,50.922 C46.249,50.824 46.198,50.687 46.198,50.510 L46.198,44.601 C46.198,44.433 46.249,44.298 46.352,44.196 C46.454,44.093 46.594,44.041 46.772,44.041 C46.940,44.041 47.073,44.093 47.171,44.196 C47.269,44.298 47.318,44.428 47.318,44.587 L47.318,45.301 C47.542,44.881 47.854,44.562 48.256,44.342 C48.657,44.124 49.114,44.013 49.628,44.013 C51.261,44.013 52.078,44.915 52.078,46.716 L52.078,50.510 C52.078,50.687 52.029,50.824 51.931,50.922 C51.833,51.021 51.695,51.069 51.518,51.069 ZM44.042,50.048 C44.210,50.048 44.340,50.087 44.434,50.166 C44.527,50.246 44.574,50.365 44.574,50.524 C44.574,50.673 44.527,50.789 44.434,50.873 C44.340,50.957 44.210,50.999 44.042,50.999 L38.806,50.999 C38.628,50.999 38.486,50.948 38.379,50.846 C38.271,50.743 38.218,50.608 38.218,50.440 L38.218,41.689 C38.218,41.522 38.271,41.386 38.379,41.283 C38.486,41.181 38.628,41.129 38.806,41.129 L44.042,41.129 C44.210,41.129 44.340,41.172 44.434,41.256 C44.527,41.340 44.574,41.456 44.574,41.605 C44.574,41.755 44.527,41.872 44.434,41.956 C44.340,42.040 44.210,42.082 44.042,42.082 L39.352,42.082 L39.352,45.511 L43.762,45.511 C43.930,45.511 44.060,45.553 44.154,45.638 C44.247,45.721 44.294,45.838 44.294,45.988 C44.294,46.137 44.247,46.253 44.154,46.337 C44.060,46.421 43.930,46.463 43.762,46.463 L39.352,46.463 L39.352,50.048 L44.042,50.048 Z" class="cls-7"/>
      <path d="M321.500,25.500 L400.500,25.500 C403.261,25.500 405.500,27.739 405.500,30.500 L405.500,60.500 C405.500,63.261 403.261,65.500 400.500,65.500 L321.500,65.500 L321.500,25.500 Z" class="cls-8"/>
    </g>
    <g>
      <circle cx="104.953" cy="287.172" r="17.953" class="cls-9"/>
      <ellipse cx="319.516" cy="286.813" rx="17.953" ry="17.813" class="cls-10"/>
      <circle cx="158.141" cy="287.188" r="17.953" class="cls-11"/>
      <circle cx="265" cy="287" r="20" class="cls-12"/>
      <path d="M265.000,302.000 C256.716,302.000 250.000,295.284 250.000,287.000 C250.000,278.716 256.716,272.000 265.000,272.000 C273.284,272.000 280.000,278.716 280.000,287.000 C280.000,295.284 273.284,302.000 265.000,302.000 ZM271.559,283.399 C270.969,282.851 270.012,282.851 269.423,283.399 L264.084,288.356 C263.935,288.495 263.693,288.495 263.544,288.356 L261.573,286.526 C260.983,285.978 260.027,285.978 259.437,286.526 C258.847,287.073 258.847,287.962 259.437,288.509 L262.746,291.583 C263.336,292.130 264.292,292.130 264.882,291.583 L271.559,285.383 C271.842,285.119 272.001,284.763 272.001,284.391 C272.001,284.019 271.842,283.662 271.559,283.399 Z" class="cls-13"/>
      <circle cx="211.328" cy="287.188" r="17.953" class="cls-14"/>
    </g>
  </g>
</svg>
