<svg xmlns="http://www.w3.org/2000/svg" width="9.998" height="12.009" viewBox="0 0 9.998 12.009">
  <path id="undo" d="M46,120.486A4.678,4.678,0,0,1,41.183,125h-1.7a.5.5,0,0,1-.511-.479v-.16a.5.5,0,0,1,.511-.479h1.7a3.4,3.4,0,1,0,0-6.792H38.038L40.2,119.12a.535.535,0,0,1,0,.791.641.641,0,0,1-.844,0l-3.184-2.985a.535.535,0,0,1,0-.791l3.185-2.986a.641.641,0,0,1,.844,0,.535.535,0,0,1,0,.791l-2.166,2.031h3.145A4.678,4.678,0,0,1,46,120.486Z" transform="translate(-36.001 -112.991)" fill="#666"/>
</svg>
