<svg xmlns="http://www.w3.org/2000/svg" xmlns:xlink="http://www.w3.org/1999/xlink" preserveAspectRatio="xMidYMid" width="125" height="125.126" viewBox="0 0 125 125.126">
  <defs>
    <style>
      .cls-1 {
        fill: #000;
        fill-rule: evenodd;
      }
    </style>
  </defs>
  <path d="M108.754,119.409 C104.788,123.184 99.519,125.071 92.948,125.071 L21.740,125.071 C15.168,125.071 9.899,123.184 5.933,119.409 C1.969,115.634 -0.014,110.487 -0.014,103.971 C-0.014,101.091 0.080,98.281 0.270,95.537 C0.461,92.793 0.841,89.834 1.411,86.656 C1.982,83.479 2.701,80.532 3.571,77.817 C4.440,75.102 5.608,72.453 7.074,69.873 C8.539,67.293 10.223,65.093 12.124,63.274 C14.026,61.454 16.347,60.001 19.091,58.915 C21.833,57.829 24.862,57.285 28.175,57.285 C28.663,57.285 29.803,57.869 31.597,59.037 C33.388,60.205 35.411,61.509 37.665,62.948 C39.920,64.387 42.853,65.692 46.465,66.858 C50.076,68.026 53.701,68.610 57.341,68.610 C60.981,68.610 64.606,68.026 68.218,66.858 C71.829,65.692 74.762,64.387 77.016,62.948 C79.270,61.509 81.294,60.205 83.086,59.037 C84.878,57.869 86.018,57.285 86.508,57.285 C89.821,57.285 92.848,57.829 95.593,58.915 C98.335,60.001 100.655,61.453 102.557,63.274 C104.460,65.093 106.143,67.293 107.610,69.873 C109.077,72.453 110.245,75.102 111.114,77.817 C111.983,80.532 112.704,83.479 113.274,86.656 C113.844,89.834 114.223,92.794 114.415,95.537 C114.606,98.280 114.702,101.091 114.702,103.971 C114.702,110.489 112.720,115.634 108.754,119.409 ZM57.344,62.500 C48.707,62.500 41.335,59.444 35.223,53.334 C29.113,47.224 26.057,39.851 26.057,31.214 C26.057,22.578 29.113,15.205 35.223,9.094 C41.333,2.984 48.707,-0.071 57.344,-0.071 C65.979,-0.071 73.353,2.984 79.464,9.094 C85.575,15.205 88.630,22.578 88.630,31.214 C88.630,39.851 85.575,47.224 79.464,53.334 C73.354,59.444 65.981,62.500 57.344,62.500 Z" transform="translate(5.16 0.06)" class="cls-1"/>
</svg>
