<svg width="78" height="13" xmlns="http://www.w3.org/2000/svg"><path d="M6.36 12.33c-.045 0-.105-.12-.105-.12 0-.03-.045-.21-.045-.24-.075-.225-.18-.405-.255-.615v-.105c-.135-.39-.6-1.08-.57-1.515l-.18-.18v-.03l.075-.075h-.075c-.105-.105-.255-.645-.315-.78l-.045-.075-.105-.105c0-.045-.105-.3-.105-.33 0-.03-.15-.135-.15-.18-.06-.105-.105-.21-.18-.315V7.62h.045c.03-.255-.225-.465-.285-.675-.075-.15-.045-.285-.12-.465-.03-.12-.18-.225-.21-.36 0-.045-.03-.255-.03-.285L3.66 5.76c-.135-.18-.24-.51-.315-.72L3.3 4.965c0-.03-.105-.135-.105-.18V4.53c-.075-.24-.495-.525-.21-.78-.075-.045-.15-.045-.225-.045-.105-.315-.24-.705-.465-.93l-.03-.075-.03-.105c-.075-.18-.18-.39-.33-.57l-.15-.15c-.315-.24-.75-.6-1.215-.42-.075-.285-.465-.18-.21-.69l.03-.03L.435.69h.54c.18.12.21-.135.36-.105.03 0 .54.18.54.18l.06-.075c.225-.06.36 0 .585-.03l.075-.03.06.06c.255.075.33-.135.585 0 .24.15.345-.06.57-.06h.615c.105.18.285-.045.42-.045.15 0 .405.18.465-.03.045.03.075.135.105.105V.585c.36-.06.255.36.51 0 .03-.03.72-.03.57.105.15-.03.105.225.285.075.045.075.075.225.045.285-.045.225-.33.18-.435.12-.075-.045-.39.105-.36.24.045-.105-.135-.105-.18-.03 0 .03-.135.18-.135.21l-.045.045c-.255.105 0 0-.075.18-.135.36 0 .24.075.54 0 .03.045.21.045.24 0 .045.06.18.06.225.12.24-.105.54.18.675H6c.135.18 0 .18.03.36 0 .105.225.57.285.645.18.18.105.21.15.465 0 .105.18.33.21.435.075.135.045.36.105.495.255.465.435.615.48 1.185.315.255.315 1.005.57 1.11.03 0 .18.045.21.045.33.105.045-.105.075-.18h.075c-.045-.255.135-.285.18-.51v-.18c.03-.135.135-.315.18-.465.03-.21.18-.315.24-.54.045-.135 0-.24.075-.39 0-.03.105-.135.105-.18.045-.105 0-.21.075-.315l.045-.045c.105-.18.03-.315.105-.495.03-.105.105-.15.18-.225.06-.105.06-.285.135-.39l.075-.03c.105-.105.03-.33.105-.465.045-.075.225-.255.18-.36-.075-.225.15-.51.225-.72.03-.105-.15-.645-.15-.75v-.18l-.18-.075c-.105-.075-.15-.18-.285-.21h-.15c-.03-.045-.105-.15-.105-.18-.075-.045-.105.06-.21.03-.15-.075.105-.285.135-.33.105-.135.045-.315.225-.36.03 0 .18-.06.21-.06.18-.045.15.105.255.06.03 0 .255-.06.285-.06h.03l-.03.06c.03.045.135-.105.21-.06.075.03.69 0 .69.03h.42c.15-.18.48-.03.645 0h.18l.15-.075h.18l.105.075c.075.03.435.075.435.18 0 .075-.045.21-.045.21-.03.075-.57.33-.675.36-.15.075-.795.465-.825.54l-.03.15s-.12.135-.15.18l-.03.03c-.12.075-.36.255-.405.36-.03.075-.24.54-.285.51-.075.18-.135.345-.255.495l-.06.075v.21l-.045.075c0 .03-.18.255-.18.285 0 .045-.06.18-.06.21l-.12.12v.18l-.105.135-.03.18c-.045.045-.18.18-.225.255v.03l.045.075c.03.075-.105.075-.105.15-.045.135-.12.315-.225.42.225.12-.42.975-.495 1.05v.03c.075.255-.33.51-.18.72-.225.075-.255.975-.465.9.03.135-.075.075-.105.135-.045.045.03.12.03.18-.03.15-.105.225-.15.36-.03.15-.285.36-.285.405-.03.135-.03.285-.075.42l-.03.075c-.15.18 0 .15-.03.255 0 0-.045.075-.075.075-.21.18 0 .24-.045.42-.03.105-.21.33-.24.435H7.14c0 .03-.06.57-.21.465v.03l.03.15c-.06.21-.42.255-.6.15zm.21-.255v.105h.075V12l-.075.075zm-.255-.9l.075.075c.105-.105.105-.15-.03-.255h-.045v.18zm.615-.36l-.03.075c.03.03.285-.18.24-.21-.03 0-.18.105-.21.135zm-.03-.36l.03.045c.03-.045.18-.12.21-.15l.075-.03.045-.045c.03.045.105.075.105 0 .03-.105.105-.495.105-.57-.105-.075-.18.255-.21.03-.045.255-.585.285-.36.72zm-.825-.135c.06.03.135.18.21-.075v-.105a1.56 1.56 0 0 0-.21-.285C6 9.78 5.82 9.63 5.82 9.63h-.15v.045c.045.06.075.315.075.315.03.03.15.18.18.18H6v.18l.075-.03zm.525-.585l.075.075c.285.045.72-.18.75-.495V9.06l-.21-.105c.045-.105 0-.075-.03-.15-.045-.075.105-.135.075-.18-.12-.135-.18-.03-.33.045-.105.03-.285.06-.36.18-.075.105-.105.06-.21.18-.045.03-.075.165-.15.21-.075.03-.075-.045-.105.03-.105.255.18.225.36.225 0-.045.18-.12.21-.18.045-.045.54-.465.585-.255-.15.39-.84.255-.66.675zm1.185-.705v.03l.12-.03c-.045-.045-.075-.045-.12 0zM5.46 8.88l.105.105c.075.075.255-.285.03-.495-.03-.045-.06-.18-.105-.18-.03 0-.18-.075-.21-.075-.18-.075-.03.135-.03.285.03.21.03.21.21.36zm.795-.285c.105.18.39.03.495-.045.075-.03.21-.21.21-.21v-.18c-.06 0-.135-.135-.285-.18.15-.21.15-.315.045-.54-.3-.135-.405.18-.615.33-.15.075-.03-.075-.105.03-.075.075-.105.18-.18.225h-.075c-.03 0-.105.03-.105.03-.105.075.435.36.495.285l.045-.075h.105l.075-.03c.06.105-.225.135-.105.36zm-.795-.69c0 .045.075.12.105.12h.03c.15-.18.33-.255.51-.405l.39-.39c.045-.105.045-.285.045-.39l-.075-.045-.075-.075c-.135-.06-.315.33-.39.3-.54.39-.225.6-.54.885zm-.57-.39c0 .03.105.105.135.105.15-.075.105-.135.15-.315.03-.36-.75-.615-.69-.36.075.21.285.285.36.42l.045.15zm.675-.54c.075.045.075.075.15.045.135-.075.57-.48.6-.585.045-.075-.135-.285-.135-.36l.03-.105v-.03c-.03-.045-.135.18-.18.21-.135.075-.36.255-.465.39a.664.664 0 0 0-.075.225c0-.105-.18-.075-.21 0 .135.105.075.135.285.21zm-.675-.36c.06.045.285.075.315.045l.075-.18.075-.045V6.33c.06 0 .57-.255.6-.285L6 5.94l.03-.045V5.61c0-.075-.36-.18-.39-.135-.225.06-.75.78-.87.96-.03.075.075.15.12.18zm-.54-.495v.03c.075.045.24-.135.285-.18H4.53c.03-.21-.15-.495-.285-.645-.045-.03-.075.15-.15.15v.39c0 .18.33.075.255.255zm.6-.51c.18.15.3-.075.405-.135l.18-.045c.135-.105.36-.36.18-.54-.12.045-.18 0-.3.075-.06.045-.465.39-.495.465-.03.045.03.18.03.18zm-.42-.315c.24.135.6-.285.75-.405l.105-.03.18-.18c.03-.15-.105-.315-.105-.465-.075-.03-.18.15-.255.03-.075.225-.615.435-.75.72-.075.15-.33.075.075.33zm1.725-.225c0 .045.03.12.03.12h.135c.045-.12-.165-.075-.105-.18-.03-.045-.06.03-.06.06zM3.48 4.395c.045.03.18.18.225.21.675.105-.15-.96-.36-.78L3.3 3.93l-.06.105c.03 0 .135.105.135.15 0 .03.105.18.105.21zm.975.075c.255.135.435-.045.615-.225 0-.03.18-.135.18-.18v-.24c-.045-.255-.435.03-.51.105l-.255.255c-.06.105-.135.21-.03.285zm-.435-.51l.045.045h.39l.03-.045.18-.135c.105-.15.045-.12.225-.225.03-.03.135-.105.135-.105V3.42c0-.03-.03-.18-.03-.21-.075-.255-.33-.03-.435.03l-.075.045c-.18.135-.36.285-.495.465.03.03 0 .135-.075.135l.105.075zm6.105-.285v.075c.21.075.03-.225 0-.075zm-6.495 0c.105.075.435-.21.54-.285l.105-.03c.03-.045 0-.15.075-.18.18-.12.54-.225.465-.51l-.075-.075c.105 0 0-.21-.255-.105-.06.075-.39.33-.465.39-.105.12-.075.225-.255.3-.03.06.045.135.045.21h-.15c-.03.075.255.18-.075.255l.045.03zm1.83-.105c0 .03.075.03.105.03 0-.03-.075-.03-.105-.03zm.105-.105l.105.03h.045c0-.075-.12-.03-.15-.03zm4.41-.225v.12h.045v-.12h-.045zM2.88 2.955l.21.225c.15.135.255-.18.21-.255-.105-.225-.36-.36-.54-.465-.03.105.12.21.075.315-.03 0-.105-.075-.135-.075-.105.225.24.075.18.255zm7.17.105l-.03.045h.105V3.06h-.075zM3.66 2.7c.225.18.435-.135.54-.24.15-.105.36-.225.465-.405.045-.06-.03-.24-.03-.315l-.075.03c-.135.105-.255.105-.39.225-.075.06-.54.495-.54.495 0 .03.03.18.03.21zm-1.035-.24v.03l.105-.075c-.03 0-.075 0-.105.045zm.435-.15c.105.075.315.045.42.045.075-.075.105-.18.15-.255.075-.15.255-.15.36-.225.21-.135.285-.24.465-.42.105-.105.495-.18.435-.435-.045-.03-.225-.03-.18.105-.225-.105-.615.075-.795.18-.105.075-.21.255-.36.33-.03 0-.18.06-.21.06l-.15.15-.105.075c-.03.03-.15.105-.15.105-.03.075.075.255.12.285zm7.275-.21c.075.255.51-.54.585-.615.06-.075.165-.135.24-.21.045-.045.045-.105.045-.15-.075-.255-.645.405-.615.435-.36.135-.36.18-.255.54zM2.19 1.74c.36.075.435-.15.15-.36-.045-.03-.285-.15-.33-.18v-.075c-.18.18-.315 0-.39.045-.075.18.135.18.21.21.18.075.225.315.36.36zm.795-.105l.075.03c.21-.075.21-.135.36-.255.03-.03.285-.18.315-.21.075-.18-.03-.39-.18-.15-.075.045-.36.15-.435.15h-.105v.285c-.075.045-.105.105-.03.15zm7.065 0l.045.03c.105-.03-.045-.105 0-.135l.135-.12c.105.225.465-.54.255-.39-.045 0-.18.15-.225.15-.105.06-.105 0-.135.105-.03.105-.15.255-.075.36zM2.595 1.23l.03.045c.39-.36-.18-.435-.03-.045zm3.36-.495V.84c.075.075.075-.105.075-.15-.03 0-.075 0-.075.045zM13.65 12c-.15-.03-.285-.36-.255-.465.18.045.21-.105.36-.18.03-.03.135.045.18.045.39.03.465-.12.675-.405.045-.03.075-.105.075-.105v-.15l.075-.06c.075-.105.21-.825.18-.87l-.105-.135V9.63c.105-.315-.045-.39.18-.675.03-.075-.225-.255-.15-.39l.075-.075c.03-.075-.045-.105-.045-.15 0-.075.045-.18.045-.21 0-.105-.045-.15-.045-.285-.03-.225.18-.54.045-.72V5.94c-.075-.36 0-.72 0-1.08 0-.18-.075-.57-.045-.75.075-.57.15-2.295-.135-2.73-.15-.21-.465-.255-.69-.315h-.03c-.315.03-.675.06-.645-.36.03-.18.21-.225.36-.225.36 0 .72 0 1.08.075h.105c.03 0 .18-.075.21-.075.33 0 .645.105.975.075.03 0 .255-.03.285-.03.255-.045.495.03.75 0 .045 0 .15-.045.18-.045.33-.075.69.045 1.005 0 .045 0 .285-.075.33-.075.18-.03.6.18.54.435 0 0-.075.075-.12.105-.36.3-.78-.06-1.11.33l-.03.135-.105.12c0 .105.135.21.105.36l-.045.105c-.03.075-.06.285-.06.285 0 .03.03.36.03.39v.045c-.075.21-.105.135-.075.36.045.165 0 .345-.075.495-.03.075.12.15.075.255-.075.42.075.75-.03 1.215 0 .075.075.21.075.285v.045c-.12.285 0 .54-.045.825 0 .03-.03.18-.03.21v.9c0 .075.03.435.03.495.045.255 0 .435 0 .72-.105.075.045.225.045.33.03.39-.045.825-.045 1.215.075.105 0 .39.045.54 0 .03-.12.135-.075.18.105.105.105.21.18.36.075.105.36.21.465.255.075 0 .39.03.465.03.105 0 .105.285.105.315-.075.045-.18.075-.255.15h-.525c-.15-.105-.54-.03-.72 0-.225.03-.15-.075-.33-.075h-.675c-.36 0-.87 0-1.23.105-.03 0-.285-.06-.36-.06-.57-.045-.645.36-1.245.135zm2.58-.645c0 .075.675-.03.615-.435.03 0 .06 0 .06-.03.075-.18-.345-.03-.42-.03-.045.21-.18.315-.255.495zm-1.08-.18c.33.285.15-.39.075-.435h-.03c-.045.045-.12.255-.15.3-.03.06.105.135.105.135zm.825-.255c.045.225.33-.105.465-.135l.33-.33c.105-.105.255-.675-.075-.465-.135.105-.18.18-.315.285l-.045.045v.075s-.075.06-.105.105c-.075.075-.15.135-.255.135v.285zm-.105-.645l.03.045h.075l.255-.255c.105-.105.105-.03.285-.15 0 0 .075-.03.075-.06.03-.045.21-.255.255-.285v-.045c-.045-.21.105-.135.03-.285-.105-.255-.615.285-.675.39-.075.15.03.255 0 .33-.075.105-.435.255-.465.315h.135zm-.57-.75l.075.075c-.045-.18.105-.39.24-.465V9.09c-.03-.105-.18-.03-.24-.03l-.075-.075h-.045c-.03.075 0 .075.045.15.03.075-.225.135 0 .39zm.825-.36l.075.075c.06.03.705-.435.675-.645-.03-.105-.075-.075 0-.21-.105 0-.255-.075-.315 0-.045.03-.585.705-.54.75l.105.03zm-.285-.495l.03.075c.255-.3 1.155-.615.93-1.125-.285-.21-.72.51-.855.72.075.045.03.105 0 .15h-.21c-.15.03.105.18.105.18zm-.225-.33s.18.18.18 0c0-.075-.18-.03-.18-.03v.03zm-.36-.435c.045 0 .18.075.225.075-.045-.135 0-.105.03-.21.045-.15-.075-.39-.135-.51-.075-.18-.255-.03-.225.12 0 .03.075.18.075.21.03.075-.03.285.03.315zm.825-.285c.12.18 1.005-.54.765-.93 0-.03-.045-.03-.075-.03-.105.03-.105.135-.21.21-.225.15-.69.435-.48.75zm-.39-.6c0 .03.045.06.045.06h.21l.315-.21s.045-.03.045-.075c.105-.24.42-.315.495-.645.075-.465-.21-.24-.39-.075-.03.045-.255.255-.285.3 0 0-.15.21-.18.285-.075.135-.285.18-.255.36zm-.36-.87c0 .105.255 0 .18-.105l-.075-.075v-.18c-.03-.135-.24.075-.105.12v.24zm.72-.24c.075.21 1.08-.48.795-.9-.045-.045-.075-.075-.12-.045-.21.105-.285.285-.465.435-.21.18-.315.18-.21.51zm-.315-.51c0 .105.105.105.165.075.36-.405.9-.57 1.005-1.155.045-.24-.345-.075-.24-.315.03-.075.21-.105.21-.18v-.33s-.03-.075-.075-.075c-.18-.06-.315.255-.315.255l-.33-.03c.105-.105.285-.285.435-.36l.39-.39c.045-.045-.255-.36-.465-.075-.03.075-.135.075-.21.105-.225.15-.045.465-.075.495l-.18.18h-.03l-.075-.06-.36.18s.03.06.03.105c.12.21.405-.105.51.075-.045.03-.15.03-.15.105 0 0-.03.18.045.18-.075.03-.12.06-.18.06.18.225.315.045.57.075v.075s-.105.15-.18.18c-.105.105-.15 0-.18.18 0 .03-.03.18-.03.21-.045.105-.225.075-.285.18V5.4zm-.405-.75c.285.18.15-.285.15-.405l-.18-.165h-.045c-.06.105-.03.495.075.57zm-.105-1.365v.03h.105c.045-.075-.075-.105-.105-.03zm0-.33l.15.225h.06c.045-.105-.105-.105-.06-.225h-.15zm.105-.21v.105h.105c.045-.075-.03-.135-.105-.105zm.72 0c.18.255.615-.435.795-.57-.045-.105.105-.18.06-.255-.315-.03-.495.285-.75.435l-.135.03v.105c-.075.225-.18 0 .03.255zm-.435-.435l.045.075h.18s.24-.21.315-.315c.15-.15.36-.255.435-.48v-.105c0-.03.465-.36.39-.36l-.315-.03-.36.21c-.045.045-.18.15-.18.18 0 .045-.045.225-.045.255-.135.03-.06.075-.135.21 0 .045-.18.15-.18.18-.03.045-.15.18-.15.18zm-.42-.57c-.045.105.135.15.21.105v-.21c-.075-.045-.21.03-.21.105zm.645-.465c.06.21.39 0 .36-.255-.15-.075-.465.045-.36.255zm.39-.36v.03c.03 0 .15-.03.105-.06h-.03l-.075.03zM29.4 5.25c-.135-.03-.135-.315-.135-.39v-.72c-.12-.255.105-.54-.075-.795v-.78c0-.045-.045-.285-.045-.36-.03-.33-.57-.93-.885-1.005-.3-.075-.825-.045-.795-.465.105-.12.255-.045.285-.225.105 0 .435-.03.54.075.075 0 .39-.03.465-.03.105 0 .21.03.36.03.075 0 .285-.105.36-.03h1.08s.06-.045.105-.045c.105-.06.495-.03.57.075 0-.03.045-.03.075-.03.105.105.105.285.03.42-.135.225-.645.15-.855.3-.15.105-.36.525-.465.675l-.105.105c-.075.15-.045.435-.15.615v.57c-.105.045.03.18 0 .255 0 .03-.075.18-.075.21-.03.285 0 .435.075.69 0 .03-.075.315-.075.39v.39l-.03.045c-.075.06.105.495 0 .54 0 .135 0 .285.03.42v.945c-.03.165-.03.285 0 .465 0 .105-.03.18-.075.285-.03.135.075.24.075.39v.72c0 .495-.03.465.225.855.03.045-.075.15-.12.225-.03.105-.105.105-.06.24.135.51.21.975.18 1.515.105.03 0 .39-.12.435-.18.06-.18 0-.315-.075a1.066 1.066 0 0 1-.36-.255l-.03-.075c-.075-.18-.645-.855-.51-.93-.075-.105-.105.03-.135 0-.12-.105-.225-.285-.3-.435 0-.03-.39-.285-.24-.36h-.12v-.03l.045-.075-.045-.03c-.18-.075-.21-.255-.39-.36v-.255c-.255.045-.18-.18-.315-.285-.045-.03-.15-.135-.15-.135l.075-.12c-.045 0-.105 0-.15.045-.075-.285-.42-.435-.54-.69a2.56 2.56 0 0 0-.105-.21h-.03c-.045-.03-.15-.15-.18-.18-.18-.15-.75-.855-.69-1.08-.06-.03-.285-.135-.315-.21-.075-.105-.18-.225-.255-.33-.03-.03-.18-.36-.21-.39-.18-.21-.33-.255-.465-.435-.075-.075-.045-.135-.075-.21l-.045-.03a2.1 2.1 0 0 1-.42-.48c-.045-.03-.105-.24-.18-.315-.18-.18-.435-.33-.465-.57-.36-.435-.72-.825-1.08-1.26-.105-.045-.18.105-.18.18v.255c.03.24.03.42-.03.675v.03l.105.12c0 .03-.075.285-.075.315l.03.105a.59.59 0 0 1 .045.36l-.075.105.03.075c.075.18.045 1.05.075 1.08v.495c-.105.12 0 .3 0 .405v.39c.105.15.045.75-.075.72.075.075 0 .21.045.285.03.105.18.075.105.21l-.075.045c-.03.18.045.285 0 .465-.03.255.045.18.105.315.045.075-.03.075-.03.15.075.36.075.825.255 1.155.06.18.54.645.675.705h.045c.03 0 .165.045.165.045l.045.03c-.045 0-.045.045-.045.075.15 0 .69.21.69.39 0 .255-.435.33-.615.36-.21.045-.135 0-.285-.03h-.03c-.285.03-.285.03-.54-.075-.045 0-.645.075-.87.03-.105-.03-.24-.06-.345 0h-.405c-.075.075-.105.045-.18.045-.36.075-.675.18-.75-.33 0-.105.105-.285.21-.315h.15l.03-.075c.15-.105.33-.15.465-.255.15-.105.54-.93.585-.93 0-.21.06-.39.06-.615 0-.06-.06-.315-.03-.42.03-.225.075-.435.105-.645V8.19c-.03-.315 0-.6 0-.93 0-.075-.03-.285-.03-.315-.045-.225.03-.48.03-.72l-.03-.105.03-.045c0-.21.045-.36.045-.54-.045-.39-.045-.495-.045-.855l-.03-.075V4.11c.03-.075.03-.615 0-.72V2.7c0-.105-.045-.105-.105-.18-.045-.03.03-.285.03-.36-.03-.135-.39-.6-.54-.675H20.4c-.075-.03-.12-.18-.18-.21a.12.12 0 0 1-.225 0c-.03-.18-.06-.435 0-.615 0 0 .405-.105.465-.105.12.03.36.135.48.03h.39l.075.03c.495 0 .78 0 1.245.075.15.045.225-.075.33-.105.03-.03.21.075.255.075.135.03.105-.075.285-.075.285 0 .465.03.645.255-.075.18.18.315.255.435v.06c.03.075.21.075.24.15l.045.105c.06.21.21.33.36.51v.03c.03.03.135.18.18.21.105.105.57.69.57.765.075.06.315.42.39.495.075.105.465.435.51.51l-.045.06c.045.12.225.285.285.36l.255.255c-.255 0 .39.435.39.435 0 .03 0 .21.045.24 0 .045.18.18.21.225l.045.075.315.315.075.18c.075.21.285.39.435.57.06.075.495.975.6.69 0-.105.075-.33 0-.465V5.43c0-.075-.105-.21.074-.18h.001zm-8.685 6.36l.045.03c0-.03.06-.105.06-.15v-.03c-.06-.03-.105.105-.105.15zm.36-.15c.615.21.69-.51.285-.255l-.03.045c-.15.06-.15.03-.255.18v.03zm1.98-.075c0-.03-.12-.03-.12 0 0 .045.12.045.12 0zm5.91-.315c0 .135.12.135.12 0h-.12zm-8.025-.075c0 .03-.045.105-.045.135.075.045.36-.24.435-.315-.075-.03-.045-.18-.105-.15-.15.045-.225.225-.285.33zm8.28.03v.045c.045 0 .105 0 .105-.045-.03-.03-.06-.03-.105 0zm.105-.54l.045.075h.03v-.135h-.075v.06zm-7.635-.03l-.045.03h.18v-.03h-.135zm6.495-.33c.105.18.36-.21.255-.285l-.33-.21c-.03-.255-.39.18-.36.285.15-.105.36.105.435.21zm.825-.285v.105h.03c0-.03 0-.105-.03-.105zm0-.315l.105.03h.03c.045-.075-.06-.105-.03-.135.075-.225.33-.435.075-.645-.045-.045-.15-.045-.18-.045-.075.33-.825.69 0 .795zm-7.5-.15c.18.105.135-.03.105-.135-.03 0-.105.06-.105.105v.03zm6.744-.722c-.163-.068.351-.54.351-.673 0-.075-.21-.21-.24-.255h-.045c.075.105-.18.18-.21.255-.03.03-.03.255-.15.18l-.105.21c.105-.135.105.105.105.105.045.075.18 0 .15.15h-.03v.03l.105.12c.075.105-.255.39-.18.465 0 0 .21.105.255.06l.6-.6.075-.105.03-.045c.075-.18-.285-.315-.39-.21-.03.03-.075.18-.135.21h-.075c-.037 0-.085.052-.1.086l-.01.017zm-.999.362c.06.045.21.045.285.045.18-.225-.405-.72-.465-.645-.075.06 0 .06-.045.135-.03.105-.075.045-.03.18.03.045.135.18.18.225 0 .03.075.06.075.06zm-5.67-.105l.03.075V8.88l-.03.03zm5.67-.75c.345.135.645-.21.885-.39.075-.12.075-.33-.03-.435-.285-.36-.54.54-.645.315-.075.255-.57.36-.21.51zm-.945-.435v.15c.435.105.18-.36.33-.405-.105 0-.615-.495-.69-.42-.06.075-.105.135-.06.24.03.18.135.075.21.18.03.075.075.3.21.255zm.87-.285l.03.03c.33.075.255-.21.51-.285.06-.03.06.075.135.045l-.075-.105-.06-.075c0-.075.105-.18-.045-.225a.537.537 0 0 0-.54.33c-.03.075 0 .21.045.285zm-.285-.285v.105c.105.075.06-.18 0-.105zm-.12-.18c.225.15.585-.285.66-.435.105-.18-.15-.465-.33-.315-.105.06-.18.135-.21.24l-.045.12c-.135.21-.315.21-.075.39zm-.96-.22c-.033.02-.093.006-.075.07l.03.045a.366.366 0 0 0 .084-.128l-.04.013zm.315-.035c.255.105.3 0 .435-.18.075-.105.36-.39.465-.495 0-.075 0-.18-.03-.225-.225-.315-.57.18-.615.36h-.105v.18s-.03.045-.075.045c-.21.06-.315.21-.075.315zm-.525-.03l.105.03v-.03c0-.045-.075-.105-.105-.105l.105-.045v-.03l-.18-.075c.315-.255-.33-.72-.54-.75-.105-.045-.36 0-.225.18l.12.075c.03.03.21.285.24.315l.045.03.135.075c.15.105.12.225.3.33zm2.145-.435v.15c.075-.045.075-.15.15-.18-.075-.045-.15-.075-.15.03zm-.435-.21c.045.075.255 0 .18-.075-.06 0-.135 0-.18.075zm-1.245-.18c.285.105.39-.105.57-.33.03-.105-.03-.255-.105-.285-.045 0-.045.03-.045.075-.06.03-.06-.105-.135-.075-.075.03-.405.255-.405.285-.03.15-.03.255.12.33zm-1.05-.51l.075.105h.675l.075-.03c.075-.03.33-.285.36-.315.045-.3-.105-.585-.36-.3-.03.045-.18.18-.21.225v.075c-.03 0-.57.21-.615.24zm-.57-.135c.03 0 .105.06.15 0 .165-.54-.3-.33-.36-.69h-.3c-.03 0-.03.15-.03.15.15.21.285.435.54.54zm.54-.225l.03.045h.33l.135-.075.12-.03h.03c.135-.15.435-.54.105-.69-.075-.03-.21.105-.285.15-.075.03-.285.21-.285.24v.18l-.15.12c-.03 0-.03.03-.03.06zm.03-.285v.075h.045l.03-.105c-.03 0-.075 0-.075.03zm-.135-.36c.105.075.24.15.36.045.285-.225.39-.285.18-.645 0 .105-.255.135-.33.18-.075.06-.33.36-.21.42zm-.825-.135c.06.105.54-.045.6-.075 0 0 .18-.15.225-.21l.03-.075c.615-.615-.105-.54-.435-.225v.075s-.06.075-.105.105c-.075.075-.39.3-.315.405zm-.87-.36c.045.03.18.18.225.21.06 0 .18-.075.21-.135.18-.48-1.29-1.08-.435-.075zm2.445-.075c.075.15.18-.15 0-.075v.075zm-1.575-.285c.285.315.495-.045.705-.285.045-.075-.105-.33-.21-.285-.03 0-.18.06-.18.06l-.39.405s.03.06.075.105zm-.33-.39s.075.03.105.03c.15.03.585-.285.54-.39-.03-.18-.105-.36-.315-.18l-.075.105c-.045.03-.21.21-.255.255v.18zm-.645-.15c.03.105.18.105.255.075.18-.18 1.215-.825.435-.975h-.045c-.105.075-.135.225-.21.285-.105.075-.255.075-.285.225-.045.135.03.285-.15.39zm-.72-.21c.36.315.51-.15 0-.435-.18-.105-.21-.21-.465-.15 0 .075.045.12.075.18.075.075.315.33.39.405zm.57-.615c.15.255.33.075.48-.03.285-.225.39-.225.03-.585-.105-.03-.57.435-.51.615zm-.465-.21v.03c.225 0 .54-.36.69-.495V1.41l.03-.03c.075-.36-.39-.075-.495 0 0 .135-.9.42-.225.54zm-1.11-.33s.075.03.105.03h.045c.255-.24-.285-.57-.36-.345 0 .06 0 .06.03.105l.075.03.075.15.03.03zm7.905-.18v.105c.06.045.135-.135.24-.18l-.03-.03c.03-.03.135-.15.105-.21-.135-.045-.255.21-.255.315h-.06zm-7.155-.105c.075.36.795-.39.36-.33-.105.045-.18.12-.24.15l-.12.03v.15zM34.23 11.97h-.06c-.15-.045-.225-.12-.33-.255.03-.255.075-.21.21-.36l.075-.105s.51.18.57.18l.075-.045c.045 0 .285-.03.33-.03.06-.075.24-.105.285-.21.075-.225.105-.48.135-.69v-.03l-.03-.045c0-.03.03-.105.03-.135v-.72c.075-.18-.03-.645 0-.69.045-.39-.105-1.14.045-1.5l-.075-.675s.075-1.545.03-1.77c-.03-.24.075-.465.045-.75.03-.03 0-.285 0-.315 0-.045-.045-.3-.045-.33V2.7c0-.18 0-1.425-.135-1.47-.285-.06-.285.075-.57.075 0 .03-.51.465-.54.465h-.105c-.12.045-.12.285-.18.36-.15.15-.36.255-.51.435l-.03.105-.12.105v.15c-.03.075-.24.18-.315.315-.075.18-.15.33-.21.51 0 .03-.045.105-.045.105-.03.315-.18.18-.255.285-.105.18.12.18-.21.33l-.105.03h-.03c-.225-.105-.225-.255-.225-.465v-.9c.075-.075 0-.105 0-.18l.045-.105c.03-.21-.045-.93-.15-1.11-.03-.045.075-.105.075-.15.03-.36-.075-.78.255-1.035.285-.045.465.075.705-.045h.045c.285.15.675.12 1.005.075.18 0 .135.075.39.045.15 0 .255-.045.39 0h.18l.12-.12s.495.12.6.12l.15-.045.105.045c.105.03.93 0 .93-.045h.36l.15.075h.03c.075 0 .615-.075.675-.075h.255c.105 0 .825 0 .87.045h.42c.045 0 .045-.12.045-.12h.105c.21-.03.18.15.495.075.12 0 .12 0 .18.105 0-.18.225 0 .3-.03.135-.075.42-.03.465-.075h.495c.045.075.465.105.465.51v.57c0 .075.18.075.15.15h-.105c.03.105-.075.135-.075.24.03.15.075.255.105.405.03.18-.03.645-.105.825-.045.06.075.06.105.105.03.075-.03.105-.03.135 0 .225.03.435-.225.585l-.075.03c-.135.075-.105.105-.21.18 0-.255-.105-.285-.21-.465-.15-.255-.225-.51-.405-.75-.06-.105-.18-.15-.24-.225-.15-.135-.225-.315-.405-.42l-.03-.045c-.15-.255-1.65-1.725-1.98-1.08v.225l.045.075c0 .06.075.42.075.495-.075.075-.045.285-.045.33h-.03c-.075 0-.045.39.03.465v.57c0 .03.045.51.045.51 0 .03-.075.285-.075.315 0 .075.105.54.135.615.045.06-.105.39-.105.42v.18l.075.075c.03.045-.03.075-.03.105l.03.12c.075.24-.105.57.03.75l-.03.315-.075.045c-.03.03.075.03.045.18 0 .03 0 .315.03.36.03.39-.075.675.03 1.005.12.315-.315.495 0 .825v.03c-.135.315 0 .57-.03.9.105.03-.03.21 0 .285.105.315.33.54.435.825.06-.03.135.03.21.03.075 0 .33-.06.36-.06.105-.045.315-.225.465-.15.33.15.33.57 0 .675-.21.075-.465 0-.675 0-.12-.24-.225.075-.255 0L39 11.745c0-.03-.03-.03-.03 0v.15h-.975c-.105 0-.24-.075-.345-.105-.045 0-.15.06-.18.06-.045 0-.3.045-.36.045h-.255l-.105-.075c-.075-.03-.18.075-.255.075h-.72c-.075.03-1.365.135-1.545.075zm2.805-.585c0 .045.075.075.075.075.495.15.675-.72.285-.57-.075.03-.255.315-.285.36-.045.03-.12.075-.075.135zm-1.26-.135c.18.105.39 0 .36-.225-.255-1.32-.54.12-.36.225zm.93-.105l.075.03c.15-.39.795-.36.825-.825 0-.075.045-.33-.03-.435-.045 0-.18.075-.225.105l-.03.045-.075.03c-.03.075-.03.18-.105.225-.15.06-.285.285-.285.285h-.105c-.045 0-.15.105-.15.135.075.045.045.105 0 .15-.135.135 0 .03-.03.18.075-.075.135 0 .075.075h.06zm-.42-.615l.03.105.075-.03.03-.045c.15 0 .285.075.285-.18l.33-.24h.03l.075.06c-.03-.24.645-.645.39-.93-.105 0-.285 0-.36.105-.03-.105.075-.21.12-.285.105.075.54-.57.21-.675-.285.18-.51.285-.615.645-.465-.105-.21.285-.36.315.36.435.33-.135.615.075-.105.075-.18.18-.255.255-.24.255-.39.465-.72.54-.03.18.045.135.12.285zm-.435-1.005c0 .03.105.135.105.18h.075c.39-.15-.15-1.185-.21-.57v.315s.03.045.03.075zm.645-.615l.075.045h.03c.18-.225.93-.72.975-.945V7.8c.03-.18.105-.255-.225-.21-.06 0-.285.39-.39.465-.03 0-.105.075-.105.075-.03.03-.285.285-.33.315l-.03.075c-.03 0-.18.105-.21.105-.045.045-.045.15-.045.18.045.105.18.075.255.105zm1.62-.75v.075h.105V8.16h-.105zm-2.34-.36l.18.21h.105c.18-.06 0-.6-.105-.495.105.105-.285.18-.18.285zm.9 0c.105.21.255.075.36-.03l.54-.54c.03-.255-.255-.39-.405-.18v.075s-.03.03-.06.03l-.12.03c-.105.12-.42.435-.315.615zm-.36-.495c.18.24.54-.15.645-.255l.36-.36c.15-.15.105.105.21.075.12-.045 0-.15-.03-.18-.03-.105.285-.795-.075-.69-.03 0-.645.825-.75.9l-.105.045-.045.105c-.03.03-.18.135-.21.18-.03.03-.03.135 0 .18zm-.39-.945l.03.045c.435.075.045-.645-.105-.615-.03.105.15.18.105.255-.03 0-.135 0-.18.075.045.03.105.21.15.24zm.78-.18c.18.255.18-.06.405 0-.045-.315.39-.345.465-.645.03-.105.075-.42-.15-.39-.135.03-.21.18-.36.21-.03 0-.075.045-.075.045v.105c-.03.075-.495.435-.42.54l.135.135zm-.465-.645c.18.33.54 0 .615-.24.36-.18.975-.615.675-1.08-.03.075-.36.39-.39.36-.285.255-.435.6-.75.75l-.105.03c-.045.045-.075.15-.045.18zm1.65-.705c0 .03.045.105.105.06 0 0-.06-.105-.105-.06zm-1.965-.045c.03.105.135 0 .18-.03 0-.075-.045-.33.03-.435-.03-.03-.21-.255-.315-.21v.135c.03 0 .06 0 .06.045 0 .135-.03.36.045.495zm2.25-.075l.045.12h.03v-.045c0-.03-.03-.105-.03-.105h-.255v.03c.075.075.21 0 .21 0zm-1.47-.18s.075.045.12.045h.03c.03-.045.135-.15.105-.225.18-.03.54-.24.615-.42.03-.075-.105-.435-.18-.36-.105.075-.045.255-.18.285-.105.03-.075.075-.18.15-.045 0-.21.105-.21.105-.045.03-.15.39-.12.42zm1.26-.06c.03.06.15.06.18 0-.03-.045-.105-.045-.18-.045v.045zm-1.755-.435c.435.255.39-.075.645-.255.21-.135.39-.315.57-.495.075-.075.18-.045.255-.12 0 0-.105-.39-.15-.42-.18.03-.24.255-.39.315-.03 0-.15.075-.15.075-.03.03-.24.255-.315.33l-.15.18c-.105.105-.36.135-.39.285l.03.075.045.03zm-.33-.72v.075c.36-.105.12-.795.045-.72.03.075-.105.21-.075.435-.15.06.075.06.03.21zm.72-.255c.045 0 .15.045.15.045.03 0 .75-.645.78-.72.075-.105.045-.36.045-.435-.225-.03-.465.36-.585.465-.135.15-.21.105-.345.285-.045.045-.075.18-.075.225 0 .03-.045.105.03.135zm-3.69-.18l.03.045c.045-.045.045-.075 0-.105-.03 0-.03.03-.03.06zm4.95-.135v.075c.21.06.03-.225 0-.075zm3.27-.15V2.7c.105-.03.105-.135.03-.18l-.03.075zm-8.805-.075l.045.12c.285-.075.72-.72.93-.975.15-.18.615-.36.54-.645-.33-.03-.21.18-.36.315-.03.045-.21.075-.255.12-.135.105-.06.18-.18.285-.105.105-.315.105-.42.285l-.075.135c-.075.075-.15-.03-.18.12 0 0-.045.135-.045.21v.03zm3.84-.03c.075.075.12.18.255.105.225-.18.51-.36.69-.6l.03-.075c.03 0 .18-.105.21-.105.12-.12.36-.435.225-.585-.15.075-.15.15-.255.225-.03.03-.03-.075-.18-.045h-.15c-.03.105.12.225-.135.36h-.075c-.135.105-.18.33-.315.39-.075.045-.075-.105-.15-.06-.03.18.21.18-.21.285l.06.105zm4.605-.36c0 .03.03.15.03.18.15.03.465-.21.465-.36v-.36c-.18-.03-.495.36-.495.54zm-4.92-.135c.03.105.255-.15.21-.225l-.21-.36h-.03c0 .18 0 .405.03.585zm4.455-.18c.03.06.465-.15.495-.18.03-.045.21-.3.255-.33.03-.03.18-.255 0-.21l-.045.075c-.03 0-.03-.075-.03-.12-.03-.03-.18.15-.255.15l-.39.39c-.075.075.15.105-.03.225zm-7.905-.12v.045c.405.105.54-.75.045-.285 0 .105 0 .135-.045.24zm4.17-.135c.135.135.135-.15.255-.075l.21-.315c.18-.255-.57.06-.51.165h.075c.045.045-.135.12-.03.225zm3.255-.105c.045.105.18-.045.255 0 .15-.18.36-.36.585-.465V.945h-.33c-.105 0-.57.36-.51.51zm-7.02-.12c.18.255.285-.165.39-.24l-.03-.045s-.255.075-.33.12c-.105.03-.075.105-.03.165zm3.546-.253c.073-.028.129-.1.114-.167 0 0-.101-.026-.193-.03l.079.197zm2.979-.032c.03.15.39 0 .33-.105-.12-.03-.405-.105-.33.105zM32.115.66c.045.03.105.03.15 0h-.15zm15.662 7.923c.093-.09-.707-.063-.707-.063-.075 0-.54.045-.6 0l-.045-.06c-.075-.045-.54.06-.675.06 0-.03-.36-.03-.405 0-.03.045-.135.15-.135.15v.93c-.18.105-.075.435 0 .57v.045c-.045.135.03.72.255.645.21.255.315.285.6.36l.045.03c.03 0 .465.045.465.045l.21.21c-.075.03-.03.15-.075.21-.03.045-.135.15-.18.18-.39 0-.75.075-1.14.045-.18 0-.33-.12-.465-.045h-.045l-.105-.075c-.135-.03-.465.075-.6.075-.045 0-.15-.03-.18-.03-.12 0-.72.105-.765.03-.21.105-.93.285-1.14.225.03-.075-.405-.465-.18-.87.135-.285.285-.135.54-.18.18 0 .6-.105.72-.285.06-.105.285-.315.285-.315v-.15c.03-.075.315-.255.39-.39l.03-.12h.045c-.075-.21.285-.42.36-.6v-.105c0-.045.135-.15.135-.18.15-.18 0-.15.045-.225.105-.135.285-.36.24-.54.045.045.12-.135.12-.18 0-.06-.045-.135-.045-.21.105.105.33-.435.33-.465l.03-.03.075-.33c0-.075.105-.075.135-.135.12-.255.15-.255.075-.48 0-.03.18-.105.225-.21v-.075c0-.03.135-.18.135-.21.045-.105.045-.21.075-.33.03-.03.36-.525.36-.57l-.045-.075c0-.21.15-.24.18-.465v-.18l.15-.03c.075-.03.03-.105.03-.15 0-.03.075-.18.12-.21.21-.33.24-.675.345-1.035.12-.3.36-.48.48-.765-.075-.03.24-.495.21-.705l.255-.435c-.045-.105.21-.33.24-.36.18-.075.045.135.255-.045.18-.135.435.3.51.435l.03.045.075.03v.15c.03.135.18.24.255.39.03.03.18.39.21.465a.38.38 0 0 1 .03.18c.045.03.15.285.18.36 0 .03.075.18.075.21 0 .045.18.33.18.36v.255c0 .03.105.18.105.21.045.075-.075.105-.03.18.105.18.105.105.135.285l.045.045c.18.135.465.57.495.78 0 .12.075.255.045.36 0 .045.18.225.18.255.06.18.105.255.21.435l.03.03v.18l.12.105c.06.105.06.285.135.405.105.135.15.18.225.39v.135c0 .045.03.12.03.12.105.18.21.42.315.645v.03c-.06.33.225.33.3.54 0 .03.03.18.03.21.075.18.21.36.255.54v.225l.06.06c.075.12.045.285.075.405.045.135.255.285.33.42v.075c.075.15.435.39.39.51h.105c.045.03.18.18.225.21.06.03.21.18.285.03.18.045.57.12.54.36-.075.36-.15.255-.435.36-.075-.135-.18-.03-.255-.03l-.105-.075c-.075-.03-.255.255-.285.03h-.285c0 .045-.465.045-.465 0h-.435c-.03.045-.105.045-.18.045s-.39-.075-.465-.075c0 .03-.105.075-.15.075l-.06-.075h-.225l-.075.03h-.135l-.075-.06-.075.03c-.21.03-.465 0-.675.075h-.075c-.15-.045-.285.075-.435 0h-.75c-.21.21-.465-.105-.645-.045-.36-.885.975-.315 1.215-.75.045-.42.045-.825-.105-1.215l-.105-.075c-.105-.075.03-.075 0-.135l-.03-.075c-.12-.15-.255-1.11-.435-1.11-.075 0-.21.06-.285.06-.18.045-.045 0-.18-.03-.075-.03-.075 0-.15.03-.176.073-.209-.127-.478.063zm-3.902 2.892c0 .03.045.03.075.03.045-.03.18-.15.225-.18.03-.03.105-.105.165-.075v-.135h.075c.075-.435-.6.03-.54.36zm7.965-.12l.075.075c.15-.21.405-.075.285-.435l-.06-.06c-.075.105-.405.24-.3.42zm-.885-.06c.105.135.285-.075.39-.045.18-.21.39-.21.57-.39.105-.105.15-.15.285-.21-.03-.15-.105-.075-.135 0v-.12c-.225-.315-.51.12-.615.18-.075.075-.105-.03-.135.105l-.045.15s-.315 0-.21.105c-.105.075-.105-.18-.225 0v.045l.15.06c-.03 0-.075.075-.03.12zm-5.745-.15v.03c.075.045.105-.03.105-.06-.03 0-.075 0-.105.03zm-.105-.03v.03c.03 0 .03-.075.03-.105l-.03.075zm4.95-.15s.03.075.03.105c.045-.075.18-.285-.075-.21 0-.045.045-.075.045-.105h-.075s-.075.105-.075.135c-.03.105.15.075.15.075zm-6.39.03v.045c.03-.045.105-.18.18-.15v-.315c-.105-.045 0 .18-.105.21l.03.03c-.105 0-.105.15-.105.18zm7.035-.24v.06c.03 0 .105 0 .105-.03s-.075-.105-.105-.105h-.03v.03l.03.045zm-6.78-.075l.03.075c.075-.045.285-.225.255-.285h.075v-.045c-.18-.18-.36.105-.36.255zm6.915.03c.225.105.435-.21.615-.36.045 0 .225-.105.225-.105.03-.03.105-.18.105-.21-.045-.045-.18-.39-.285-.33.06.465-.66.405-.69.975l.03.03zm-.825-.21l.045.075h.03c.045-.075-.03-.105-.075-.105v.03zm.615-.159c.13-.047.29-.209.36-.306l.03-.105.15-.045c.105-.03.36-.21.39-.36.045-.06-.135-.105-.105-.18.075-.105-.03-.21-.075-.06l-.06-.045h-.045c-.105.105-.675.795-.78.72-.045.18.06.18.135.285v.096zm-5.67-.126l-.03.105c.03 0 .03-.075.03-.105zm5.28-.405l.075.075h.03l.285-.285c-.03-.18.075-.105.15-.18l.03-.105h.105l.075-.03c.075-.075.075-.18.21-.18-.06-.045 0-.18 0-.255-.06-.33-.39-.03-.465.105-.105-.075-.315.21-.315.33 0 .03 0 .135.075.18-.075.06-.33.21-.255.345zm1.395-.42v.075c.21.06.045-.225 0-.075zm-2.115-.18v.03c.03 0 .105 0 .15-.03l-.075-.18c.315-.075-.72-.795-.075.18zm.57-.285l-.075.06c.045 0 .12 0 .12-.03l-.045-.03zm.18-.045c.045.045.045.045.075.045.465-.075.15-.15.39-.285 0 .135.285-.255.255-.435-.18-.075-.18-.105-.39 0-.045.03-.435.465-.435.435-.03.06.075.18.105.24zm-.36-.42l.045.03v-.075c.135.075.885-.645.825-.825-.075-.135-.33-.18-.465-.075.135.12-.15.33-.255.36-.045.045-.255.435-.255.435l.075.03.03.12zm-3.48-.33c.285.03.69-.075.975.03h.03l.045-.06h.855c.075.105.285.06.39 0-.03-.15-.03-.255-.105-.405l-.075-.105v-.135c-.06-.225-.36-.36-.315-.615-.045-.075-.18-.51-.225-.57 0-.045-.03-.12-.03-.15-.03 0-.075.03-.105.03a.896.896 0 0 0-.15-.345v-.36c0-.12-.105-.225-.18-.3l-.03-.03c-.03-.105.18-.435-.105-.285v-.105l-.18-.18c-.105-.105.03-.075 0-.15-.045-.075-.105-.18-.105-.18h-.12c.12.105-.21.075-.105.18-.06-.03-.135.045-.18.075l-.03-.03c-.15.03.03.105.03.135.075.105 0 .465-.03.57-.03.12-.15.255-.18.36-.03.075.075.18.03.255-.03.075-.06.075-.135.15-.15.135-.225.42-.255.6 0 .045.03.12-.075.12l.045.06s-.075.12-.105.15c-.12.105-.15.255-.225.39-.03.075-.075 0-.105.075l.03.03s-.105.15-.135.225c-.075.105.03.57.255.57.21 0 .39-.03.6 0zm2.415-.435l.03.045c.255-.105.03-.69-.105-.795l-.15-.135h-.03c0 .18.03.42.105.6.075.15.105.15.15.285zm.885-.135c.15.135.15.03.285-.045l.18-.03c.045 0 .18-.075.225-.105.285-.18 0-.615-.285-.54v.105h-.045c-.075.18-.18.285-.315.435l-.045.18zm-.135-.69c.105.18.03.12.21.045.03-.045.255-.105.285-.15-.03-.135.225-.255.18-.36-.105-.285-.39 0-.495.075-.15.105-.405.15-.33.39.045.12.105-.03.15 0zm-.9-.135l.03.03a.27.27 0 0 0-.06-.135c0 .03.03.06.03.105zm.285-.105v.105c.105-.075.285-.045.33-.105.03-.045.105-.225.135-.255v.135h.045s.18-.135.21-.21l.075-.15c.03-.03.18-.03.21-.105.285-.57-.435-.285-.615-.03l-.03.105c-.15.18-.39.075-.33.435-.105-.075-.135-.045-.21.075h.18zm-.675-.51l.03.03c.15-.06.18-.39.03-.495l-.06-.03-.075-.18S48 5.37 48 5.445v.24c.15.075.255.12.225.3h.075v.135zm.75-.39c.105.135.315.105.39-.045l.045-.105c.06-.105.285-.21.21-.39-.03-.105-.18-.105-.255-.15h-.03c-.075.225-.54.435-.36.69zm-.36-.405c.36.12.315-.18.54-.285l.03-.03c.045 0 .18-.15.225-.15.06-.03.03-.21.03-.24-.03 0-.075.03-.105.03v-.18c-.18-.075-.54.36-.645.465-.045.045-.18.045-.15.105l.045.045c-.12.03-.15.105-.18.18.03 0 .18.06.21.06zm-.36-.105v.045c.075.06.105-.255.15-.285.105-.12.75-.72.75-.825 0-.045-.075-.18-.075-.225-.21-.105-.795.69-.825.645 0 .075.03.18-.03.255l-.045-.03c-.03.105-.105.105-.105.24.075.075.105.045.18-.03l.03.18-.03.03zm-.645-.465v.225c.15.06.105-.54.03-.66-.06-.105-.285-.21-.39-.24-.03.18.21.42.21.42.045.225-.06.12.12.225l.03.03zm2.085-.6l-.075.06c.03 0 .105 0 .105-.03l-.03-.03zm-.87-.765c-.06.075-.24.045-.285.045v-.18c0-.075.255-.285.225-.33-.045 0-.18-.03-.225-.03l-.075-.075-.06-.03c-.225-.045-.12.39-.36.285.06.135-.18.24-.285.285l.03.075c-.105.03-.33.18-.21.315.135.045.24.045.39.045-.045-.075.465-.405.54-.48v.045c-.075.105-.075.255-.105.285-.075.075-.12-.03-.15.15l-.03-.045v.15l-.075.135s.03.075.075.075c.21.075.57-.315.645-.465.06-.148-.072-.15-.046-.251V3.39zm.72.435v.03h.15c0-.03 0-.06-.045-.06 0 0 .105-.075.075-.12h-.075s-.06.12-.105.15zm-2.22-.51c.075.12.54-.135.105-.315h-.03c-.075.075-.12.21-.075.315zm.495-.495c.045.075.33-.03.36-.075.105-.105.15-.315.15-.435h-.045c0-.03-.06-.135-.105-.135-.03 0-.135.03-.135.075v.03h.06c.045.21-.465.33-.39.54h.045l.03-.075.03.075zm18.15 6.45c-.06 0-.135.12-.165.15-.045.105.06.54.105.645.03.075-.045.615-.045.72.045.21.15.465.105.72-.03.18-.03.21-.165.315-.36.33-.66-.285-.9-.465a14.05 14.05 0 0 1-.465-.21c-.15-.075-.33.03-.48.075-.06.03-.105-.075-.165-.045-.3.105-.585.225-.825.36-.12.045-.15.15-.255.18-.285.105-.585.18-.87.255-.57.135-1.245.105-1.83.075h-.285S59.775 12 59.73 12c-.06-.03-.24-.18-.36-.18-.285-.03-.135-.105-.39-.21-.075-.03-.255-.03-.315-.105-.51-.36-1.185-.93-1.515-1.44-.075-.105-.285-.255-.36-.39l-.03-.18c-.045-.105-.15-.18-.225-.285-.06-.12-.03-.225-.06-.36-.045-.15-.225-.255-.255-.435V7.98c-.18-.21-.03-1.035-.18-1.065 0-.33 0-.69.03-1.005 0-.045.075-.18.075-.225.045-.315.075-.645.15-1.005.03-.105.18-.6.24-.72.045-.03.12-.18.15-.21l.105-.15v-.105c.105-.18.33-.39.36-.6.39-.51.825-.945 1.185-1.44.075-.075.93-.57 1.08-.645.21-.105.57-.225.75-.33.33 0 .93.075 1.215-.135h.69c.03 0 .21.105.18.135.285-.03.72.15 1.005.18 0 0 .18.225.255.225h.39c.315.24 1.08-.075 1.29-.36h.51s.06.03.06.06c.045.045.12.18.12.225-.12.135.135.18-.045.285v1.08c0 .06-.135.285-.105.36.15.42.18.96.105 1.395-.03.18-.21.465-.435.39-.03 0-.105-.135-.135-.18-.255-.315-.57-.6-.825-.93-.18-.21-.36-.54-.615-.675l-.495-.54c-.12-.045-.15-.105-.225-.18-.18-.105-.39-.18-.57-.33l-.075-.105c-.135-.21-.54-.315-.75-.39-.21.075-.465-.15-.57-.105-.405.18-.615.285-.93.57-.075.075-.12.135-.18.21-.15.405-.36.795-.405 1.23-.03.285 0 .6-.075.885 0 .045-.06.15-.06.18v.51c-.075 0-.045.18-.045.18 0 .03-.03.255-.03.285v.645c-.15.03-.045.285-.105.39v.435c-.075.105.105.57.105.72 0 .285-.045.615-.075.9 0 .06.075.135.075.21.03.255.03.465.03.72.105.135 0 .315.225.495l-.045.045-.075.03s.3.975.33 1.005c.075.105.36.435.285.54.18.21.435.255.57.465.435-.03.87.105 1.26-.105.075-.03.39-.285.465-.36.105-.105.225-.495.285-.645.15-.36.12-.69.18-1.035 0-.075-.03-.075-.03-.15.075-.36 0-.615.03-.975.045-.285.045-.57 0-.855-.03-.33-.21-.615-.18-.93-.18.075-.135-.18-.285-.285-.03-.045-.255-.15-.285-.18h-.495c-.12 0-.51.18-.54-.075-.045-.21-.045-.33.18-.39.24-.075.495 0 .75 0l.135-.045c.18 0 .69.105.87.075l.105-.075h.03c.87.075 1.725-.03 2.625 0l.075-.03h.36c.135 0 .255-.15.39-.15 0 0 .105.045.15.045.285.06.495.24.135.495h-.315c-.69.075-.54.255-.615.795l-.03.075c0 .03-.045.285-.045.345 0 .12.045.225.045.33 0 .075-.105.72-.105.795v.24c.105.045-.045.18-.045.225-.03.075.075.21.075.24.03.12-.15.33.133.36h.002zm-3.225 1.95c.15.135.465-.225.255-.3-.15-.06-.285.255-.255.3zm1.545-.48c.33.12.645-.39.615-.705-.075-.51-.615.315-.72.465-.105.135-.045.21.105.24zm-5.67-.135c0 .03.075.105.105.105.045 0 .15-.105.15-.135.03-.075-.075-.15-.075-.18l-.03-.12c-.225-.135-.18.255-.15.33zm4.59-.075s.045.075.075.045c.33-.255.15-.9-.105-.795.075.18-.255.315-.15.495l.105.12.075.135zm-5.565-.39c.045.075.12.135.15 0h-.15zm6.36-.075c.21.18.21-.03.435-.105l.465-.465s.03-.105.03-.15v-.03c-.03-.075-.075-.225-.075-.225H64.8l-.225.225s-.135 0-.18.075v.06c-.105.12-.57.435-.315.615zm-5.7-.15c.06.15.345.12.315-.06 0-.045-.03-.225-.03-.225-.045-.135-.435.045-.285.285zm-.585-.24c.105.36.93-.285.75-.69-.03-.105-.165-.075-.24-.03-.225.18-.36.315-.465.57 0 .045-.045.15-.045.15zm5.955-.105c.33.21.36-.18.585-.3l.18-.06.06-.12c.15-.135.33-.285.465-.42-.105-.105-.06-.15-.03-.33-.03-.18-.465.18-.495.225-.045.03-.18.21-.225.24-.21-.105-.255.255-.36.285-.285.12-.39.12-.24.405l.06.075zm-5.985-.66l.03.045h.255c.15-.15.36-.285.435-.465.105-.255-.105-.435-.285-.225-.15.18-.33.3-.48.48.12.06.045.105.045.165zm5.565-.315l.03.03c.21.075.255-.36.15-.495-.33-.435-.3.105-.225.315l.075.075-.03.075zm-6-.105l.045.075c.165.06.75-.405.855-.54.18-.225.21-1.005-.15-.54l-.105.18c-.075.075-.255.135-.285.21-.075.105-.39.465-.36.615zm6.825-.045c.105.12.93-.6.96-.675 0-.285 0-.57-.315-.33l-.045.075-.03.045c-.075.03-.075-.045-.15.03-.06.075-.24.435-.42.36v.105c.03.15-.045.21 0 .39zm-7.65-.78c.03.03.15.135.18.18.105.03.18 0 .15-.105-.15-.66-.465-.255-.33-.075zm7.365.105l.03.075c.315.135.435-.225.615-.405.06-.06.525-.465.525-.495V6.51l-.03-.03c-.255-.045-.435.285-.57.435-.105.06-.75.465-.72.57.03.135.075.135.15.285zm-6.495-.15l.06.075c.045 0 .405-.03.33-.21.075-.045.315-.255.36-.285.03-.045.315-.405.315-.435 0 0 .045-.285.045-.39V6.33c0-.03-.045-.075-.045-.075-.06-.03-.135-.03-.18.045-.18.285-.39.57-.645.825-.18.18-.315.135-.24.495zm6.165-.24c0 .03.075.03.105.03v-.03h-.105zm-6.57-.36l.045.03h.24c.18-.075.12-.285.33-.315l.315-.33c.12 0 .51-.465.54-.615v-.315c-.03-.075-.21-.075-.18-.18.15-.285.255-.285.18-.645-.105-.15-.21.135-.21.18-.075.105-.36.18-.36.18v.24l-.03.045-.18.03c-.045 0-.285.15-.36.18l-.045.045v.42c0 .045.045.075.075.105.075-.06.105-.165.18-.21.21-.135.435-.36.72-.435.105.15-.105.18-.18.255l-.03.105c-.18.225-.51.405-.72.585-.105.06-.075.18-.15.24l-.105.045c-.105.075-.15.255-.075.36zm6.21-.255c0 .03.075.105.105.105.465-.39-.075-.75-.135-.57 0 .105 0 .36.03.465zm.93 0c.105.15.33-.285.405-.33.24-.18.36-.285.6-.525.18-.15-.495-.255-.645.135-.03 0-.255.075-.285.105l-.21.18.03.075v.03c-.105.045-.18-.105-.285.045.105.135.15.03.255.075.06 0 .105.18.135.21zm-7.635-.57c.21.21.315-.255.285-.36-.045-.15-.18-.225-.15-.405h-.135c.03.075.03.33.06.33-.105.075-.165.315-.06.435zm7.215-.225c.105.18.24.15.345 0 .045-.03.12-.135.12-.135l-.045-.045h-.285l-.03.045c0 .03-.105.135-.105.135zm-4.77-.154c.06-.071.105-.161.105-.161-.075-.023-.131.004-.178.049l.073.112zm-1.95-.446c.225.135.255-.12.36-.225l.15-.075c.03 0 .135-.105.18-.135.18-.15.315-.33.495-.435l.075-.03.03-.105.15-.12.135-.135c.045-.075.045-.36.045-.435h-.18c-.075.225-.435.285-.54.465-.03.045 0 .105-.075.15l-.105.03c-.285.255-.18.36-.285.615-.105.21-.72.255-.435.435zm-.21-.975c.075.075.18.105.135-.03h-.135v.03zm.72-.255c.06.225 1.11-.825 1.245-.93l.075-.03c-.075-.105 0-.225-.075-.33-.105-.135-.39.105-.465.18-.03.075-.03.18-.105.255-.105.105-.315.315-.465.39-.105.075-.255.045-.315.15 0 0 .105.285.105.315zm.315-1.29s-.075.075-.075.105c.075.045.15-.03.12-.105h-.045zm-.105-.105v.075c.03 0 .21-.045.21-.045.12-.03-.06-.54-.21-.03zm.57 0c.225.21.285-.105.405-.18.54-.39-.225-.18-.405-.18l-.03.03c-.03.045-.03.255.03.33zm6.285 0c.105.105.21-.03.285-.075.105-.075-.03-.435-.105-.36l-.255.255v.03c0 .045.075.15.075.15zm-.465-.615c0 .045.075.18.105.225.15.06.54-.33.615-.405 0-.06.03-.315.03-.39v-.075c-.03 0-.54.18-.54.18l-.03.18c-.105.15-.255.075-.18.285zm-.36-.39c.21.15.75-.21.615-.39-.045-.045-.12-.15-.18-.105-.12.135-.69.315-.435.495zm-5.025-.03v.03c.105.03.255-.075.21-.18-.06-.03-.18.105-.21.15zM72.84 11.895c-.045 0-.18-.075-.225-.075-.06 0-.465.03-.54.03-.03 0-.24-.075-.285-.075h-.21c-.18.045-.675.075-.825.045-.03 0-.15-.075-.18-.075-.21-.03-.33.105-.495.15l-.12-.045c-.72-.105-1.395.105-2.115-.03-.135-.045-.105-.285-.105-.36.15-.21.435-.15.615-.18.78-.105.885-1.26.855-1.86-.105-.12-.03-.48 0-.615l.03-1.83V5.97c0-.045.12-.15.12-.18v-.03c-.075-.18-.045-.3-.12-.435v-.75c0-.15-.21-.3-.03-.405v-.42c.03-.36.03-.405-.105-.69v-.03c.03-.18-.075-.255-.03-.36.06-.33.03-.615-.075-.93l-.045-.18c-.03-.15-.03-.045-.135-.12-.15-.105-.225-.21-.405-.21h-.39c-.03-.03-.135-.075-.135-.135V.69c0-.105.18-.18.24-.21h.105c.36.075.765.105 1.125.105.675-.03 1.365.03 2.04 0 .03 0 .105-.03.15-.03.285 0 .78-.075 1.065-.045.795.075 1.59.075 2.37.045.105 0 1.05-.075 1.155-.075.075 0 .135.075.21.075h.615c.105 0 .315-.15.39-.075.39.285.285.72.33 1.185.03.6.135 1.14.03 1.755-.075.33.33.285-.21.72-.15.03-.285-.15-.33-.21-.105-.18-.075-.33-.18-.51-.075-.15-.255-.285-.285-.435l-.03-.135c-.045-.045-.105-.255-.15-.285-.03-.075-.18-.18-.255-.225-.315-.255-.57-.72-.96-.9-.36-.135-.825-.39-1.26-.39-.075 0-.255.105-.315.075l-.12-.105c-.18-.075-.6-.045-.825.03-.24.105-.57.255-.645.54-.105.36-.03.75-.03 1.08l-.045.075c-.06.18-.03.315-.03.495 0 0-.03.105-.03.15-.075.18.18.36.03.54.03.525-.105 1.035-.075 1.575.225.285.69.18.975.03.54-.285.855-.39 1.29-.855 0-.255.36-.405.465-.615 0-.03.075-.18.075-.21l.03-.045c.15-.135.33-.75.435-.78.15-.075.255.03.33.135.03.045.105 1.26.105 1.29 0 .075-.045.18-.075.255v.615c0 .18.105.36-.03.495v1.23c.105.105 0 .24 0 .39 0 .03.06.465.06.495v.945c0 .06-.135.135-.18.18-.36.21-.39-.54-.465-.69-.03-.03-.21-.315-.24-.36-.045-.075-.255-.57-.255-.645-.255-.105-.51-.36-.645-.57-.225-.285-.51-.51-.87-.615-.03 0-.285-.03-.315-.03l-.105-.075c-.18-.03-.36-.03-.51.075v.39c0 .075.03.33.03.39 0 .075.075.12.045.18-.045.12-.15.255-.045.36v.975c-.105.21-.105.855.045 1.035v.465c0 .225.03.615.135.825l.12.12v.21c.03.105.6.285.675.285h.645c.105-.255 1.08-.21 1.08-.465 0 0 .315-.03.36-.075l.105-.105.075-.03c.495-.36.93-.645 1.365-1.125.03-.285.285-.495.39-.75.075-.18.21-.6.285-.78.18-.3.465 0 .51.21.03.075.03.33.03.36l-.03.075v.39c.06.105 0 .075 0 .18-.045.315 0 .465 0 .75v.72c0 .255.03.615-.12.855 0 0-.03.075-.06.075-.045.045-.18.15-.18.15h-.285l-.12.03h-.18c-.135-.03-2.175-.03-2.25 0h-.54c-.105 0-.285.105-.435.075l-.135-.075c-.255-.03-.33.105-.72.045zm-2.295-.69v.225c.06.03.285-.12.285-.12.075-.03.315-.285.36-.36 0-.105 0-.21-.045-.285-.075-.03-.6.51-.6.54zm5.415.075c.075.285 1.08-.57 1.005-.975 0-.03-.045-.03-.075-.03-.15.03-.285.255-.36.315-.03.045-.255.225-.285.255 0 .045-.15.18-.15.225-.06.105-.18.06-.135.21zm-.57-.105v.075c.06.03.18-.075.135-.15-.03 0-.105.03-.135.075zm-6.075-.465c0 .03.045.18.075.21.285.075.18-.105.15-.21v-.15c-.075-.255-.225.03-.225.15zm.975.105l.03.03c.075.045.435-.285.465-.315l.12-.045c.105-.06.285-.315.345-.42.045-.075-.06-.36-.18-.3-.165.12-.24.255-.39.36l-.135.075-.075.18-.105.045-.045.03c-.03.075-.03.255-.03.36zm3.69-.045c-.105-.06-.24-.24-.39-.24-.18 0-.465.06-.39-.225h.645c.135.12.675.285.54.51-.12 0-.3.03-.405-.045zm-4.05-.57c.255.15.18.045.39-.03.105-.045.18 0 .225-.075.105-.18.135-.255.315-.39.21-.18.285-.18.33-.465 0-.045.03-.3.03-.33-.255.03-.495.36-.645.51-.075.06-.105.03-.18.135l-.075.15c-.135.135-.21 0-.39.105-.15.075-.105.315 0 .39zm6.78-.18v.045c.03 0 .105 0 .105-.045 0-.075-.105 0-.105 0zm-7.245-.825c.105.15.315.105.36-.075.03-.135-.105-.105.03-.21l-.03-.03c-.075-.045-.18-.15-.255-.15-.18 0-.18.36-.105.465zm.93-.135c.03.03.18.03.21.03.045-.03.255-.18.3-.21.06-.075.465-.51.21-.615h-.21c-.15 0-.225.36-.36.435l-.15.06c-.075.075-.03.225 0 .3zm1.11-.15s.075.105.105.075c.045-.045-.06-.15-.105-.105v.03zm-1.545-.315c.075.24.585 0 .51-.33h.285c-.03 0-.03-.105 0-.15l.18-.06c.315-.225.315-.795.075-.69-.33.15-.585.54-.765.795a1.96 1.96 0 0 0-.165.18c-.045 0-.12.03-.15.03v.045c0 .03.075.105.075.135l-.045.045zm-.465-.87c.075.255.465-.03.105-.495-.18-.18-.105.465-.105.495zm.621-.361c.174-.027.175.047.249.151.105.135 1.005-.54.75-.975-.045-.03-.075-.03-.105-.03-.15.03-.18.36-.285.42-.045 0-.18.12-.225.12-.073.03-.303.301-.384.315v-.001zm4.406-.59c-.013.043.005.103.043.156.09.113.15.071.17-.004l-.213-.152zm-4.487.126c.21.255.54-.36.72-.465.03-.03.255-.15.285-.18l.03-.03c.045-.045.12-.15.12-.15V5.64c-.225-.06-.435.36-.615.465-.03 0-.18.15-.21.15-.075.075-.12.255-.18.36-.045.075-.18.075-.225.15 0 .03.075.105.075.135zm4.095-.54l.105.225h.15s.135-.15.21-.225c.15-.135.18-.39-.105-.315-.075 0-.15.06-.18.105-.075.075-.18.21-.18.21zm-.39-.21l.03.03c.285.045.36-.18.54-.315.18-.18.435-.255.39-.54-.255-.18-.54.39-.645.465-.105.075-.465.135-.315.36zM69.54 6s.06.105.105.075c.495-.36-.615-.675-.105-.075zm3.72-.075l.075.045h.045c.03-.045.21-.21.18-.285-.12-.045-.615 0-.54.21.03 0 .21.03.24.03zm-2.97-.06c.075.24.96-.585.93-.765 0-.03-.03-.18-.03-.21-.285-.075-.36.21-.54.36-.225.21-.465.255-.36.615zm-.75-.36s.105.075.105 0c0-.045-.075-.045-.105-.045v.045zm.42-.15c.075.075.33.045.405-.03V5.22l.06-.075c.33-.225.585-.435.765-.795l.06-.135c0-.12-.18-.255-.285-.15-.03.03-.135.18-.18.21l-.105.045-.075.075c-.06.06-.21.18-.24.21l-.045.18s-.03.075-.075.075c-.105.06-.03.06-.135.18-.03.03-.285.06-.255.21l.105.105zm4.307-.178c.04-.032.073-.077.073-.077-.015-.03-.068-.037-.112-.024l.039.1zm.148-.257v.075h.03c.045 0 .12-.075.12-.105-.045 0-.12-.03-.15.03zm-4.875-.39c.42.18.135-.54.03-.495-.03 0-.105.06-.105.105v.36s.03.03.075.03zm.705-.285c.15.15.48-.105.54-.21l.045-.105c.03-.045.315-.045.315-.15.045-.18.105-.54-.18-.435-.03 0-.06.045-.105.075l-.03.075c-.045 0-.225.135-.255.135l-.03.075c-.045.075-.3.33-.36.36 0 .03.03.15.06.18zm-.39-.39c.15.21.36-.15.435-.225.03 0 .18-.105.21-.105l.045-.075.03-.03c.18-.15.36-.33.57-.39h.105c.12-.045 0-.15 0-.18 0-.075-.03-.33-.03-.405 0-.03-.075-.03-.105-.03-.285.18-.51.465-.72.72-.105.135-.105.21-.21.285-.105.075-.285.105-.36.21-.075.12-.045.12.03.225zm-.435-.87s.075.075.12.105h.03c.075-.06.03-.315.03-.345-.03-.045-.06-.12-.135-.075.03.105-.075.21-.045.315zm.795-.21c.03.03.075.105.15.075.03-.045.285-.225.315-.255.045 0 .15-.18.18-.18.255-.21.51-.36.33-.795-.075-.03-1.005.795-1.005.87-.045.105-.045.21.03.285zm-.315-.51v.045c.06.03.105-.045.135-.075-.03 0-.105-.03-.135.03zm.18-.21v.105c.315.075.57-.495.78-.6.045 0 .18-.12.21-.12.045-.03.225-.345.18-.39-.03-.03-.105-.135-.18-.105-.285.15-.75.57-.93.795.045.18-.03.135-.06.315zm6.345-.105c.39.255.495-.39.39-.39-.21-.045-.57.285-.39.39zm-7.14-.36c.255.255.315-.105.18-.18-.105-.03-.285.075-.18.18zm6.855-.075c.36.255.675-.645.36-.42l-.045.03c-.135.03-.24.03-.315.135-.075.12-.105.18 0 .255zm-6.135-.255c.105.225.42-.06.36-.165-.15-.045-.285.06-.36.165z" fill="#000" fill-rule="nonzero"/></svg>