<svg xmlns:xlink="http://www.w3.org/1999/xlink" xmlns="http://www.w3.org/2000/svg" viewBox="0 0 14 14" width="14" height="14"><g transform="matrix(1.4,0,0,1.4,0,0)" stroke="#5340FF"><path d="M5.34.909l1.1,2.224a.379.379,0,0,0,.286.208L9.175,3.7a.379.379,0,0,1,.21.647L7.61,6.077a.381.381,0,0,0-.109.336L7.92,8.858a.379.379,0,0,1-.551.4L5.177,8.1a.382.382,0,0,0-.354,0L2.631,9.258a.379.379,0,0,1-.551-.4L2.5,6.413a.381.381,0,0,0-.109-.336L.615,4.345A.379.379,0,0,1,.825,3.7l2.452-.357a.379.379,0,0,0,.286-.208L4.66.909A.379.379,0,0,1,5.34.909Z" fill="none" stroke-linecap="round" stroke-linejoin="round" stroke="#5340FF"></path></g></svg>