<svg xmlns:xlink="http://www.w3.org/1999/xlink" xmlns="http://www.w3.org/2000/svg" viewBox="0 0 14 14" width="14" height="14"><g transform="matrix(1.4,0,0,1.4,0,0)" stroke="#5340FF"><path d="M9.316,4.52a.67.67,0,0,1,0,.922C8.586,6.23,6.928,7.75,5,7.75S1.414,6.23.684,5.442a.67.67,0,0,1,0-.922A6.485,6.485,0,0,1,5,2.25,6.485,6.485,0,0,1,9.316,4.52Z" fill="none" stroke-linecap="round" stroke-linejoin="round" stroke="#5340FF"></path><path d="M3.750 5.000 A1.250 1.250 0 1 0 6.250 5.000 A1.250 1.250 0 1 0 3.750 5.000 Z" fill="none" stroke-linecap="round" stroke-linejoin="round" stroke="#5340FF"></path></g></svg>