<svg xmlns:xlink="http://www.w3.org/1999/xlink" xmlns="http://www.w3.org/2000/svg" viewBox="0 0 14 14" width="14" height="14"><g transform="matrix(1.4,0,0,1.4,0,0)" stroke="#5340FF"><path d="M7.75,5.75A2.75,2.75,0,1,0,4,8.312V9a.5.5,0,0,0,.5.5h1A.5.5,0,0,0,6,9V8.312A2.751,2.751,0,0,0,7.75,5.75Z" fill="none" stroke-linecap="round" stroke-linejoin="round" stroke="#5340FF"></path><path d="M5 0.5L5 1.5" fill="none" stroke-linecap="round" stroke-linejoin="round" stroke="#5340FF"></path><path d="M2.022 1L2.75 1.81" fill="none" stroke-linecap="round" stroke-linejoin="round" stroke="#5340FF"></path><path d="M0.5 3.5L1.5 3.5" fill="none" stroke-linecap="round" stroke-linejoin="round" stroke="#5340FF"></path><path d="M7.978 1L7.25 1.81" fill="none" stroke-linecap="round" stroke-linejoin="round" stroke="#5340FF"></path><path d="M9.5 3.5L8.5 3.5" fill="none" stroke-linecap="round" stroke-linejoin="round" stroke="#5340FF"></path></g></svg>