<svg xmlns:xlink="http://www.w3.org/1999/xlink" xmlns="http://www.w3.org/2000/svg" viewBox="0 0 14 14" width="14" height="14"><g transform="matrix(1.4,0,0,1.4,0,0)" stroke="#5340FF"><path d="M4.681,4.929.73,3.114a.388.388,0,0,1,0-.7L4.67.572a.775.775,0,0,1,.649,0L9.274,2.386a.389.389,0,0,1,0,.705L5.33,4.928A.775.775,0,0,1,4.681,4.929Z" fill="none" stroke-linecap="round" stroke-linejoin="round" stroke="#5340FF"></path><path d="M9.495,5.245,5.425,7.139a1,1,0,0,1-.839,0L.5,5.264" fill="none" stroke-linecap="round" stroke-linejoin="round" stroke="#5340FF"></path><path d="M9.495,7.512l-4.07,1.9a1,1,0,0,1-.839,0L.5,7.531" fill="none" stroke-linecap="round" stroke-linejoin="round" stroke="#5340FF"></path></g></svg>