<svg xmlns:xlink="http://www.w3.org/1999/xlink" xmlns="http://www.w3.org/2000/svg" viewBox="0 0 14 14" width="14" height="14"><g transform="matrix(1.4,0,0,1.4,0,0)" stroke="#5340FF"><path d="M0.5 9.5L5.028 4.972" fill="none" stroke-linecap="round" stroke-linejoin="round" stroke="#5340FF"></path><path d="M8.984,1.361,8.362,3.092a.27.27,0,0,0,.034.254L9.448,4.775a.288.288,0,0,1-.236.449L7.4,5.243a.293.293,0,0,0-.233.122L6.083,6.871a.274.274,0,0,1-.49-.067l-.5-1.72a.26.26,0,0,0-.179-.179l-1.72-.5a.274.274,0,0,1-.067-.49L4.635,2.835A.293.293,0,0,0,4.757,2.6L4.776.788A.288.288,0,0,1,5.225.552L6.654,1.6a.27.27,0,0,0,.254.034l1.731-.622A.267.267,0,0,1,8.984,1.361Z" fill="none" stroke-linecap="round" stroke-linejoin="round" stroke="#5340FF"></path></g></svg>