<svg xmlns:xlink="http://www.w3.org/1999/xlink" xmlns="http://www.w3.org/2000/svg" viewBox="0 0 14 14" width="14" height="14"><g transform="matrix(1.4,0,0,1.4,0,0)" stroke="#5340FF"><path d="M9.5,1.5a1,1,0,0,0-1-1" fill="none" stroke-linecap="round" stroke-linejoin="round" stroke="#5340FF"></path><path d="M1.5.5a1,1,0,0,0-1,1" fill="none" stroke-linecap="round" stroke-linejoin="round" stroke="#5340FF"></path><path d="M5 3.5L5 6.5" fill="none" stroke-linecap="round" stroke-linejoin="round" stroke="#5340FF"></path><path d="M5 0.5L5 1.5" fill="none" stroke-linecap="round" stroke-linejoin="round" stroke="#5340FF"></path><path d="M0.5 4L0.5 6" fill="none" stroke-linecap="round" stroke-linejoin="round" stroke="#5340FF"></path><path d="M9.5 4L9.5 6" fill="none" stroke-linecap="round" stroke-linejoin="round" stroke="#5340FF"></path><path d="M6.5 5L3.5 5" fill="none" stroke-linecap="round" stroke-linejoin="round" stroke="#5340FF"></path><path d="M9.5 5L8.5 5" fill="none" stroke-linecap="round" stroke-linejoin="round" stroke="#5340FF"></path><path d="M1.5 5L0.5 5" fill="none" stroke-linecap="round" stroke-linejoin="round" stroke="#5340FF"></path><path d="M6 0.5L4 0.5" fill="none" stroke-linecap="round" stroke-linejoin="round" stroke="#5340FF"></path><path d="M9.5,8.5a1,1,0,0,1-1,1" fill="none" stroke-linecap="round" stroke-linejoin="round" stroke="#5340FF"></path><path d="M1.5,9.5a1,1,0,0,1-1-1" fill="none" stroke-linecap="round" stroke-linejoin="round" stroke="#5340FF"></path><path d="M5 9.5L5 8.5" fill="none" stroke-linecap="round" stroke-linejoin="round" stroke="#5340FF"></path><path d="M6 9.5L4 9.5" fill="none" stroke-linecap="round" stroke-linejoin="round" stroke="#5340FF"></path></g></svg>