<svg xmlns="http://www.w3.org/2000/svg" width="0" height="0">
    <defs>
        <symbol id="test" viewBox="0 0 20 20">
            <path d="M10 0C5.589 0 2 3.589 2 8c0 7.495 7.197 11.694 7.504 11.869a.996.996 0 0 0 .992 0C10.803 19.694 18 15.495 18 8c0-4.412-3.589-8-8-8m-.001 17.813C8.478 16.782 4 13.296 4 8c0-3.31 2.691-6 6-6s6 2.69 6 6c0 5.276-4.482 8.778-6.001 9.813M10 10c-1.103 0-2-.897-2-2s.897-2 2-2 2 .897 2 2-.897 2-2 2m0-6C7.794 4 6 5.794 6 8s1.794 4 4 4 4-1.794 4-4-1.794-4-4-4"></path>
        </symbol>
        <symbol id="setup-logo-address" viewBox="0 0 512 512">
            <g>
                <path d="M509.5,405.3v-42.7c0-4.5-3.7-8.2-8.2-8.2h-28.7l-0.6-1.7c-1.1-3.1-2.4-6.1-3.8-9.1l-0.8-1.6l20.3-20.3
                    c3.2-3.2,3.2-8.4,0-11.5L457.5,280c-3.2-3.2-8.4-3.2-11.5,0l-20.3,20.3l-1.6-0.8c-2.9-1.4-6-2.7-9.1-3.8l-1.7-0.6v-28.7
                    c0-4.5-3.7-8.2-8.2-8.2h-42.7c-4.5,0-8.2,3.7-8.2,8.2v28.7l-1.7,0.6c-3.1,1.1-6.1,2.4-9.1,3.8l-1.6,0.8L321.5,280
                    c-3.2-3.2-8.4-3.2-11.5,0l-30.2,30.2c-3.2,3.2-3.2,8.4,0,11.5l20.3,20.3l-0.8,1.6c-1.4,2.9-2.7,6-3.8,9.1l-0.6,1.7h-28.7
                    c-4.5,0-8.2,3.7-8.2,8.2v42.7c0,4.5,3.7,8.2,8.2,8.2h28.7l0.6,1.7c1.1,3.1,2.4,6.1,3.8,9.1l0.8,1.6l-20.3,20.3
                    c-3.2,3.2-3.2,8.4,0,11.5l30.2,30.2c3.2,3.2,8.4,3.2,11.5,0l20.3-20.3l1.6,0.8c2.9,1.4,6,2.7,9.1,3.8l1.7,0.6v28.7
                    c0,4.5,3.7,8.2,8.2,8.2h42.7c4.5,0,8.2-3.7,8.2-8.2v-28.7l1.7-0.6c3.1-1.1,6.1-2.4,9.1-3.8l1.6-0.8l20.3,20.3
                    c3.2,3.2,8.4,3.2,11.5,0l30.2-30.2c3.2-3.2,3.2-8.4,0-11.5l-20.3-20.3l0.8-1.6c1.4-2.9,2.7-6,3.8-9.1l0.6-1.7h28.7
                    C505.8,413.5,509.5,409.8,509.5,405.3z M493.2,397.2h-26.6c-3.7,0-7,2.5-7.9,6.1c-1.8,7-4.6,13.6-8.2,19.8
                    c-1.9,3.2-1.4,7.3,1.3,9.9l18.8,18.8L452,470.4l-18.8-18.8c-2.6-2.6-6.7-3.2-9.9-1.3c-6.2,3.7-12.9,6.4-19.8,8.2
                    c-3.6,0.9-6.1,4.2-6.1,7.9V493h-26.3v-26.6c0-3.7-2.5-7-6.1-7.9c-7-1.8-13.6-4.6-19.8-8.2c-3.2-1.9-7.3-1.4-9.9,1.3l-18.8,18.8
                    l-18.6-18.6l18.8-18.8c2.6-2.6,3.2-6.7,1.3-9.9c-3.7-6.2-6.4-12.9-8.2-19.8c-0.9-3.6-4.2-6.1-7.9-6.1h-26.6v-26.3h26.6
                    c3.7,0,7-2.5,7.9-6.1c1.8-7,4.6-13.6,8.2-19.8c1.9-3.2,1.4-7.3-1.3-9.9l-18.8-18.8l18.6-18.6l18.8,18.8c2.6,2.6,6.7,3.2,9.9,1.3
                    c6.2-3.7,12.9-6.4,19.8-8.2c3.6-0.9,6.1-4.2,6.1-7.9v-26.6h26.3v26.6c0,3.7,2.5,7,6.1,7.9c7,1.8,13.6,4.6,19.8,8.2
                    c3.2,1.9,7.3,1.4,9.9-1.3l18.8-18.8l18.6,18.6l-18.8,18.8c-2.6,2.6-3.2,6.7-1.3,9.9c3.7,6.2,6.4,12.9,8.2,19.8
                    c0.9,3.6,4.2,6.1,7.9,6.1h26.6V397.2z" />
                <path
                    d="M384,343.8c-22.1,0-40.2,18-40.2,40.2s18,40.2,40.2,40.2c22.1,0,40.2-18,40.2-40.2S406.1,343.8,384,343.8z
                    M384,407.8c-13.1,0-23.8-10.7-23.8-23.8s10.7-23.8,23.8-23.8c13.1,0,23.8,10.7,23.8,23.8S397.1,407.8,384,407.8z" />
                <path
                    d="M509.5,245.3v-192c0-28-22.8-50.8-50.8-50.8H53.3c-28,0-50.8,22.8-50.8,50.8v405.3
                    c0,28,22.8,50.8,50.8,50.8h224c4.5,0,8.2-3.7,8.2-8.2s-3.7-8.2-8.2-8.2h-224c-19,0-34.5-15.5-34.5-34.5V53.3
                    c0-19,15.5-34.5,34.5-34.5h405.3c19,0,34.5,15.5,34.5,34.5v192c0,4.5,3.7,8.2,8.2,8.2S509.5,249.8,509.5,245.3z" />
                <path d="M498.7,87.8H13.3c-4.5,0-8.2,3.7-8.2,8.2s3.7,8.2,8.2,8.2h485.3c4.5,0,8.2-3.7,8.2-8.2
                    S503.2,87.8,498.7,87.8z" />
                <circle cx="64" cy="53.3" r="8.2" />
                <circle cx="106.7" cy="53.3" r="8.2" />
                <circle cx="144.5" cy="53.3" r="8.2" />
                <path
                    d="M189.5,98.7c0-4.5-3.7-8.2-8.2-8.2s-8.2,3.7-8.2,8.2v400c0,4.5,3.7,8.2,8.2,8.2s8.2-3.7,8.2-8.2V98.7z" />
                <path d="M226.5,202.7c0,18.8,0,18.8,18.8,18.8h203.9c3.8,0,6.9-3.1,6.9-6.9v-45.2c0-3.8-3.1-6.9-6.9-6.9H233.4
                    c-3.8,0-6.9,3.1-6.9,6.9L226.5,202.7z M242.8,178.8h197v26.3h-197L242.8,178.8L242.8,178.8z" />
                <path d="M126.7,183.8h-72c-4.5,0-8.2,3.7-8.2,8.2s3.7,8.2,8.2,8.2h72c4.5,0,8.2-3.7,8.2-8.2
                    S131.2,183.8,126.7,183.8z" />
                <path d="M126.7,237.2h-72c-4.5,0-8.2,3.7-8.2,8.2s3.7,8.2,8.2,8.2h72c4.5,0,8.2-3.7,8.2-8.2
                    S131.2,237.2,126.7,237.2z" />
                <path d="M126.7,290.5h-72c-4.5,0-8.2,3.7-8.2,8.2s3.7,8.2,8.2,8.2h72c4.5,0,8.2-3.7,8.2-8.2
                    S131.2,290.5,126.7,290.5z" />
                <path d="M126.7,343.8h-72c-4.5,0-8.2,3.7-8.2,8.2s3.7,8.2,8.2,8.2h72c4.5,0,8.2-3.7,8.2-8.2
                    S131.2,343.8,126.7,343.8z" />
                <path d="M126.7,397.2h-72c-4.5,0-8.2,3.7-8.2,8.2s3.7,8.2,8.2,8.2h72c4.5,0,8.2-3.7,8.2-8.2
                    S131.2,397.2,126.7,397.2z" />
            </g>
        </symbol>
        <symbol id="setup-payment-gateway" viewBox="0 0 512 512">
            <g>
                <g>
                    <g>
                        <path d="M355.1,222.9c-9,0-17.7,3-24.8,8.5c-6.9-5.2-15.4-8.5-24.7-8.5c-22.8,0-41.3,18.5-41.3,41.3
                            s18.5,41.3,41.3,41.3c9.4,0,17.8-3.2,24.8-8.5c7.2,5.4,15.8,8.5,24.8,8.5c22.8,0,41.3-18.5,41.3-41.3
                            C396.4,241.4,377.9,222.9,355.1,222.9z M305.6,289c-13.7,0-24.8-11.1-24.8-24.8c0-13.7,11.1-24.8,24.8-24.8s24.8,11.1,24.8,24.8
                            C330.3,277.8,319.2,289,305.6,289z M355.1,289c-5,0-9.8-1.5-13.8-4.3c3.6-6.2,5.5-13.3,5.5-20.5c0-7.2-1.9-14.2-5.5-20.5
                            c4-2.8,8.8-4.3,13.8-4.3c13.7,0,24.8,11.1,24.8,24.8C379.9,277.8,368.8,289,355.1,289z" />
                    </g>
                </g>
                <g>
                    <g>
                        <path d="M57.9,388.1h33.1c4.6,0,8.3,3.7,8.3,8.3l0,0c0,4.6-3.7,8.3-8.3,8.3H57.9c-4.6,0-8.3-3.7-8.3-8.3l0,0
                            C49.6,391.8,53.3,388.1,57.9,388.1z" />
                    </g>
                </g>
                <g>
                    <g>
                        <path d="M148.7,388.1h33.1c4.6,0,8.3,3.7,8.3,8.3l0,0c0,4.6-3.7,8.3-8.3,8.3h-33.1c-4.6,0-8.3-3.7-8.3-8.3l0,0
                            C140.4,391.8,144.1,388.1,148.7,388.1z" />
                    </g>
                </g>
                <g>
                    <g>
                        <path d="M239.5,388.1h33.1c4.6,0,8.3,3.7,8.3,8.3l0,0c0,4.6-3.7,8.3-8.3,8.3h-33.1c-4.6,0-8.3-3.7-8.3-8.3l0,0
                            C231.2,391.8,234.9,388.1,239.5,388.1z" />
                    </g>
                </g>
                <g>
                    <g>
                        <path d="M330.3,388.1h33.1c4.6,0,8.3,3.7,8.3,8.3l0,0c0,4.6-3.7,8.3-8.3,8.3h-33.1c-4.6,0-8.3-3.7-8.3-8.3l0,0
                            C322,391.8,325.7,388.1,330.3,388.1z" />
                    </g>
                </g>
                <g>
                    <g>
                        <path d="M57.9,255.9h82.5c4.6,0,8.3,3.7,8.3,8.3v0c0,4.6-3.7,8.3-8.3,8.3H57.9c-4.6,0-8.3-3.7-8.3-8.3v0
                            C49.6,259.6,53.3,255.9,57.9,255.9z" />
                    </g>
                </g>
                <g>
                    <g>
                        <path d="M57.9,322H256c4.6,0,8.3,3.7,8.3,8.3v0c0,4.6-3.7,8.3-8.3,8.3H57.9c-4.6,0-8.3-3.7-8.3-8.3v0
                            C49.6,325.7,53.3,322,57.9,322z" />
                    </g>
                </g>
                <g>
                    <g>
                        <path d="M470.7,49.5H107.3C84.6,49.5,66,68.1,66,90.9v90.8H41.3C18.5,181.7,0,200.2,0,223v198.1
                            c0,22.8,18.5,41.3,41.3,41.3h363.3c22.8,0,41.3-18.5,41.3-41.3v-90.8h24.7c22.8,0,41.3-18.5,41.3-41.3V90.8
                            C512,68,493.5,49.5,470.7,49.5z M429.5,421.1c0,13.7-11.1,24.8-24.8,24.8H41.3c-13.7,0-24.8-11.1-24.8-24.8V222.9
                            c0-13.7,11.1-24.8,24.8-24.8h363.3c13.7,0,24.8,11.1,24.8,24.8V421.1z M495.5,289c0,13.7-11.1,24.8-24.8,24.8h-24.8V223
                            c0-22.8-18.5-41.3-41.3-41.3h-322v-33.1h412.9V289z M495.5,132.1H82.5v-16.5h412.9V132.1z M495.5,99H82.5v-8.3
                            c0-13.7,11.1-24.8,24.8-24.8h363.3c13.7,0,24.8,11.1,24.8,24.8V99z" />
                    </g>
                </g>
            </g>
        </symbol>
        <symbol id="setup-content-pages" viewBox="0 0 512 512">
            <g>
                <path d="M0,478.7C0,497.1,14.9,512,33.3,512h445.5c18.3,0,33.3-14.9,33.3-33.3V33.3C512,14.9,497.1,0,478.7,0H33.3
                C14.9,0,0,14.9,0,33.3V478.7z M15.1,33.3c0-10,8.1-18.1,18.1-18.1h445.5c10,0,18.1,8.1,18.1,18.1v445.5c0,10-8.1,18.1-18.1,18.1
                H33.3c-10,0-18.1-8.1-18.1-18.1L15.1,33.3L15.1,33.3z" />
                <path
                    d="M461.6,68.5H50.4c-8.9,0-16.1,7.2-16.1,16.1v376.9c0,8.9,7.2,16.1,16.1,16.1h411.2
                c8.9,0,16.1-7.2,16.1-16.1V84.7C477.7,75.8,470.5,68.5,461.6,68.5z M462.6,462.6H49.4V83.7h413.2V462.6z" />
                <path fill="#FFFFFF" d="M294.6,186.8c-13.5,13.1-22,21.3-27.1,26.2l-0.7,0.7l20.3,19.9c1.4,1.4,2.2,3.3,2.2,5.4s-0.8,3.9-2.2,5.3
                c-1.4,1.4-3.3,2.2-5.3,2.2l0,0c-2,0-3.9-0.8-5.3-2.2l-59.3-58l-79.9,79.4h237.5l-79.5-79.5L294.6,186.8z M142.1,263.6l75-74.5
                l57.8,56.7c1.8,1.8,4.2,2.8,6.8,2.8l0,0c2.5,0,4.9-1,6.7-2.8c1.8-1.8,2.8-4.2,2.8-6.8s-1-5-2.8-6.8l-18.9-18.5
                c5-4.8,13.2-12.7,25.6-24.8l74.6,74.6H142.1V263.6z" />
                <g>
                    <path
                        d="M50.4,50.4H59c4.7,0,8.6-3.8,8.6-8.6s-3.8-8.6-8.6-8.6h-8.6c-4.7,0-8.6,3.8-8.6,8.6S45.7,50.4,50.4,50.4z" />
                </g>
                <g>
                    <path d="M93.2,50.4h8.6c4.7,0,8.6-3.8,8.6-8.6s-3.8-8.6-8.6-8.6h-8.6c-4.7,0-8.6,3.8-8.6,8.6S88.5,50.4,93.2,50.4z
			" />
                </g>
                <g>
                    <path d="M136.1,34.3c-4.3,0-7.7,3.5-7.6,7.8c0.1,4.2,3.8,7.4,7.9,7.4h7.9c4.2,0,7.8-3.2,7.9-7.4
                    c0.1-4.3-3.3-7.8-7.6-7.8H136.1z" />
                </g>
                <path d="M461.6,34.3h-51.4c-4.2,0-7.6,3.4-7.6,7.6s3.4,7.6,7.6,7.6h51.4c4.2,0,7.6-3.4,7.6-7.6
                S465.8,34.3,461.6,34.3z" />
                <path d="M410.2,308.4H101.8c-4.2,0-7.6,3.4-7.6,7.6s3.4,7.6,7.6,7.6h308.4c4.2,0,7.6-3.4,7.6-7.6
                S414.4,308.4,410.2,308.4z" />
                <path d="M410.2,357.7H316c-4.2,0-7.6,3.4-7.6,7.6s3.4,7.6,7.6,7.6h94.2c4.2,0,7.6-3.4,7.6-7.6
                S414.4,357.7,410.2,357.7z" />
                <path d="M281.7,357.7H101.8c-4.2,0-7.6,3.4-7.6,7.6s3.4,7.6,7.6,7.6h179.9c4.2,0,7.6-3.4,7.6-7.6
                S285.9,357.7,281.7,357.7z" />
                <path d="M410.2,406.9H196c-4.2,0-7.6,3.4-7.6,7.6s3.4,7.6,7.6,7.6h214.2c4.2,0,7.6-3.4,7.6-7.6
                S414.4,406.9,410.2,406.9z" />
                <path d="M161.8,406.9h-60c-4.2,0-7.6,3.4-7.6,7.6s3.4,7.6,7.6,7.6h60c4.2,0,7.6-3.4,7.6-7.6
                S165.9,406.9,161.8,406.9z" />
            </g>
            <path
                d="M410.2,111.4H101.8c-13.6,0-24.7,11.1-24.7,24.7V256c0,13.6,11.1,24.7,24.7,24.7h308.4
            c13.6,0,24.7-11.1,24.7-24.7V136.1C434.9,122.4,423.8,111.4,410.2,111.4z M139.7,264.7v-0.1l77.4-76.9l32.9,32.2l25.7,25.2
            c3.3,3.4,8.8,3.4,12.1,0.1c3.4-3.3,3.4-8.8,0.1-12.1c-0.1-0.1-0.1-0.1-0.2-0.2l-19.4-19c5-4.8,13.2-12.7,27.1-26.2l77,77H139.7z
            M419.8,256c0,5.3-4.3,9.6-9.6,9.6h-14l-89.4-89.4c-6.4-6.3-16.8-6.3-23.2-0.1l-27.5,27l-27.5-26.9c-6.5-6.2-16.8-6.2-23.3,0
            l-89.4,89.4h-14c-5.3,0-9.6-4.3-9.6-9.6l0.9-61.5l0-16.3v-42.1c0-4.7,3.8-9.6,8.6-9.6h58.6h249.8c5.3,0,9.6,4.3,9.6,9.6V256z" />
        </symbol>
        <symbol id="setup-homepage" viewBox="0 0 512 512">
            <g>
                <path d="M486.4,8.5H25.6C11.5,8.5,0,20,0,34.1v443.7c0,14.1,11.5,25.6,25.6,25.6h460.8c14.1,0,25.6-11.5,25.6-25.6
                    V34.1C512,20,500.5,8.5,486.4,8.5z M25.6,25.6h460.8c4.7,0,8.5,3.8,8.5,8.5v42.7H17.1V34.1C17.1,29.4,20.9,25.6,25.6,25.6z
                    M486.4,486.4H25.6c-4.7,0-8.5-3.8-8.5-8.5v-384H495v384C494.9,482.6,491.1,486.4,486.4,486.4z" />
                <circle cx="110.9" cy="51.2" r="8.5" />
                <circle cx="76.8" cy="51.2" r="8.5" />
                <circle cx="42.7" cy="51.2" r="8.5" />
                <path d="M452.3,128H59.7c-4.7,0-8.5,3.8-8.5,8.5V273c0,4.7,3.8,8.5,8.5,8.5h392.5c4.7,0,8.5-3.8,8.5-8.5V136.5
                    C460.8,131.8,457,128,452.3,128z M312.4,254.4l20.4-20.4l30.6,30.6H320L312.4,254.4z M298.7,264.5h-68.3l34.1-45.5L298.7,264.5z
                    M209.1,264.5h-64.7l43.3-61.9l32.7,46.7L209.1,264.5z M443.7,264.5h-56.2l-48.7-48.7c-3.3-3.3-8.7-3.3-12.1,0l0,0L302,240.6
                    l-30.7-40.9c-2.8-3.8-8.2-4.5-11.9-1.7c-0.6,0.5-1.2,1.1-1.7,1.7L231.2,235l-36.5-52.1c-2.7-3.9-8-4.8-11.9-2.1
                    c-0.8,0.6-1.5,1.3-2.1,2.1l-57.2,81.7H68.3V145.1h375.5L443.7,264.5L443.7,264.5z" />
                <path d="M162.1,332.8H59.7c-4.7,0-8.5,3.8-8.5,8.5v68.3c0,4.7,3.8,8.5,8.5,8.5h102.4c4.7,0,8.5-3.8,8.5-8.5v-68.3
                    C170.7,336.6,166.8,332.8,162.1,332.8z M153.6,349.9v48.8H68.3v-48.8H153.6z" />
                <path d="M307.2,332.8H204.8c-4.7,0-8.5,3.8-8.5,8.5v68.3c0,4.7,3.8,8.5,8.5,8.5h102.4c4.7,0,8.5-3.8,8.5-8.5v-68.3
                    C315.7,336.6,311.9,332.8,307.2,332.8z M298.7,349.9v48.8h-85.3v-48.8H298.7z" />
                <path d="M452.3,332.8H349.9c-4.7,0-8.5,3.8-8.5,8.5v68.3c0,4.7,3.8,8.5,8.5,8.5h102.4c4.7,0,8.5-3.8,8.5-8.5v-68.3
                    C460.8,336.6,457,332.8,452.3,332.8z M443.7,349.9v48.8h-85.3v-48.8H443.7z" />
                <path d="M145.1,435.2H76.8c-4.7,0-8.5,3.8-8.5,8.5s3.8,8.5,8.5,8.5h68.3c4.7,0,8.5-3.8,8.5-8.5
                    S149.8,435.2,145.1,435.2z" />
                <path d="M290.1,435.2h-68.3c-4.7,0-8.5,3.8-8.5,8.5s3.8,8.5,8.5,8.5h68.3c4.7,0,8.5-3.8,8.5-8.5
                    S294.8,435.2,290.1,435.2z" />
                <path d="M435.2,435.2h-68.3c-4.7,0-8.5,3.8-8.5,8.5s3.8,8.5,8.5,8.5h68.3c4.7,0,8.5-3.8,8.5-8.5
                    S439.9,435.2,435.2,435.2z" />
            </g>
        </symbol>
        <symbol id="setup-shipping-charges" viewBox="0 0 512 512">
            <g>
                <g>
                    <g>
                        <g>
                            <path
                                d="M476.2,231.4l-13.3-53c3.6-0.8,6.3-4,6.3-7.8v-8.6c0-18.6-15.1-33.7-33.7-33.7h-60.4v-17.6
                                c0-9.1-7.4-16.6-16.6-16.6H50.8c-9.1,0-16.6,7.4-16.6,16.6V256c0,4.4,3.6,8,8,8c4.4,0,8-3.6,8-8V110.6c0-0.3,0.2-0.5,0.5-0.5
                                h307.8c0.3,0,0.5,0.2,0.5,0.5V256c0,4.4,3.6,8,8,8c4.4,0,8-3.6,8-8v-9.1h94.6c0,0,0,0,0,0c0,0,0,0,0,0
                                c11.6,0,21.5,7.6,24.9,18.2h-24.9c-4.4,0-8,3.6-8,8v17.1c0,13.9,11.3,25.1,25.1,25.1h9.1v35.3h-21c-6.9-19.9-25.8-34.2-48-34.2
                                c-22.2,0-41.1,14.3-48,34.2h-3.9v-60.4c0-4.4-3.6-8-8-8c-4.4,0-8,3.6-8,8v60.4H192.8c-6.9-19.9-25.8-34.2-48-34.2
                                s-41.1,14.3-48,34.2H50.8c-0.3,0-0.5-0.2-0.5-0.5v-17.6H85c4.4,0,8-3.6,8-8s-3.6-8-8-8H8c-4.4,0-8,3.6-8,8s3.6,8,8,8h26.2v17.6
                                c0,9.1,7.4,16.6,16.6,16.6h43.3c0,0.2,0,0.4,0,0.5c0,28,22.8,50.8,50.8,50.8s50.8-22.8,50.8-50.8c0-0.2,0-0.4,0-0.5h180.7
                                c0,0.2,0,0.4,0,0.5c0,28,22.8,50.8,50.8,50.8c28,0,50.8-22.8,50.8-50.8c0-0.2,0-0.4,0-0.5H504c4.4,0,8-3.6,8-8v-85.5
                                C512,252,496.4,234.4,476.2,231.4z M375.2,144.3h60.4c9.7,0,17.6,7.9,17.6,17.6v0.5h-78V144.3z M375.2,230.9v-52.4h71.2
                                l13.1,52.4L375.2,230.9L375.2,230.9z M144.8,401.9c-19.2,0-34.7-15.6-34.7-34.7s15.6-34.7,34.7-34.7s34.7,15.6,34.7,34.7
                                S164,401.9,144.8,401.9z M427,401.9c-19.2,0-34.7-15.6-34.7-34.7s15.6-34.7,34.7-34.7c19.2,0,34.7,15.6,34.7,34.7
                                S446.2,401.9,427,401.9z M496,299.3h-9.1c-5,0-9.1-4.1-9.1-9.1v-9.1H496L496,299.3L496,299.3z" />
                        </g>
                    </g>
                    <g>
                        <g>
                            <path d="M144.8,350.6c-9.1,0-16.6,7.4-16.6,16.6s7.4,16.6,16.6,16.6s16.6-7.4,16.6-16.6
                                C161.4,358,154,350.6,144.8,350.6z" />
                        </g>
                    </g>
                    <g>
                        <g>
                            <path d="M427,350.6c-9.1,0-16.6,7.4-16.6,16.6s7.4,16.6,16.6,16.6c9.1,0,16.6-7.4,16.6-16.6
                                S436.2,350.6,427,350.6z" />
                        </g>
                    </g>
                    <g>
                        <g>
                            <path
                                d="M333,316.4H213.2c-4.4,0-8,3.6-8,8s3.6,8,8,8H333c4.4,0,8-3.6,8-8S337.4,316.4,333,316.4z" />
                        </g>
                    </g>
                    <g>
                        <g>
                            <path
                                d="M127.7,282.2H25.1c-4.4,0-8,3.6-8,8s3.6,8,8,8h102.6c4.4,0,8-3.6,8-8S132.2,282.2,127.7,282.2z" />
                        </g>
                    </g>
                </g>
                <g>
                    <g>
                        <path d="M209.9,190.6h-12.8c-7.3,0-13.2-5.9-13.2-13.2c0-7.3,5.9-13.2,13.2-13.2h25.6c3.3,0,6-2.7,6-6s-2.7-6-6-6
                            h-13.2v-13.2c0-3.3-2.7-6-6-6c-3.3,0-6,2.7-6,6v13.2h-0.4c-13.9,0-25.1,11.3-25.1,25.1s11.3,25.1,25.1,25.1h12.8
                            c7.3,0,13.2,5.9,13.2,13.2s-5.9,13.2-13.2,13.2h-25.6c-3.3,0-6,2.7-6,6s2.7,6,6,6h13.2v13.2c0,3.3,2.7,6,6,6c3.3,0,6-2.7,6-6
                            v-13.2h0.4c13.9,0,25.1-11.3,25.1-25.1S223.7,190.6,209.9,190.6z" />
                    </g>
                </g>
            </g>
        </symbol>
        <symbol id="setup-tax-rates" viewBox="0 0 512 512">
            <g id="Big_taxes">
                <path d="M234.4,353.8H83.3c-4.3,0-7.8,3.5-7.8,7.8s3.5,7.8,7.8,7.8h151.1c4.3,0,7.8-3.5,7.8-7.8
                    C242.2,357.2,238.7,353.8,234.4,353.8z" />
                <path d="M234.4,431.7H83.3c-4.3,0-7.8,3.5-7.8,7.8s3.5,7.8,7.8,7.8h151.1c4.3,0,7.8-3.5,7.8-7.8
                    C242.2,435.2,238.7,431.7,234.4,431.7z" />
                <path d="M169.7,269.8H83.3c-4.3,0-7.8,3.5-7.8,7.8s3.5,7.8,7.8,7.8h86.3c4.3,0,7.8-3.5,7.8-7.8
                    S173.9,269.8,169.7,269.8z" />
                <path d="M428.7,0H72.5C44.4,0,21.6,22.8,21.6,50.9v453.3c0,4.3,3.5,7.8,7.8,7.8h356.2c4.3,0,7.8-3.5,7.8-7.8v-35.1
                    l2.7-0.3c54.1-5.4,94.7-50.5,94.4-104.9l0,0c0-54.1-40.6-99-94.4-104.4l-2.7-0.3V101.9H472c4.3,0,7.8-3.5,7.8-7.8V50.9
                    C479.6,22.8,456.8,0,428.7,0z M377.8,496.5H37.1V50.9c0-19.5,15.9-35.4,35.4-35.4h319.1l-4.3,5.7c-10.4,13.6-10.4,13.6-9.8,119.5
                    c0.1,30,0.3,67.3,0.3,115.8v2.8l-2.8,0.2c-27.9,2-53.5,14.7-71.8,35.9s-27.4,48.2-25.4,76.2c3.7,51.8,45.5,93.6,97.2,97.2l2.8,0.2
                    V496.5z M474.9,363.9c0,49.3-40.1,89.4-89.4,89.4s-89.4-40.1-89.4-89.4s40.1-89.4,89.4-89.4C434.8,274.6,474.9,314.6,474.9,363.9z
                    M464.1,86.3h-70.8V50.9c0-19.5,15.9-35.4,35.4-35.4s35.4,15.9,35.4,35.4L464.1,86.3L464.1,86.3z" />
                <path d="M126.5,199c4.3,0,7.8-3.5,7.8-7.8v-78.6h24.6c4.3,0,7.8-3.5,7.8-7.8s-3.5-7.8-7.8-7.8H94.1
                    c-4.3,0-7.8,3.5-7.8,7.8s3.5,7.8,7.8,7.8h24.6v78.6C118.7,195.5,122.2,199,126.5,199z" />
                <path d="M247.9,198.5c4-1.5,6.1-6,4.6-10l-32.4-86.4c-1.5-4-5.9-6.1-9.9-4.6c-2.2,0.8-3.9,2.5-4.6,4.6l-32.4,86.4
                    c-1.5,4,0.6,8.5,4.6,10s8.5-0.6,10-4.6l6.1-16.5h37.9l6.1,16.6C239.4,198,243.9,200,247.9,198.5z M199.7,161.9l13.1-34.9l13.1,34.9
                    H199.7z" />
                <path
                    d="M313.8,194.6c2.2,3.6,7,4.7,10.6,2.6c3.2-2,4.6-6,3.2-9.5l-19.7-39.6l19.7-39.6c0.8-1.9,0.8-4,0-5.8
                    c-0.8-1.9-2.3-3.4-4.2-4.2c-3.5-1.5-7.6-0.1-9.6,3.1l-14.6,29.1l-14.6-29.1c-2.2-3.6-7-4.7-10.6-2.6c-3.2,2-4.6,6-3.2,9.5
                    l19.7,39.6l-19.7,39.6c-0.8,1.9-0.8,4,0,5.8c0.8,1.9,2.3,3.4,4.2,4.2c3.5,1.5,7.6,0.1,9.6-3.1l14.6-29.1L313.8,194.6z" />
                <path d="M353.1,313c-10.2,0-18.6,8.3-18.6,18.6c0,10.2,8.3,18.6,18.6,18.6c10.2,0,18.6-8.3,18.6-18.6
                    S363.4,313,353.1,313z" />
                <path d="M417.9,377.8c-10.2,0-18.6,8.3-18.6,18.6c0,10.2,8.3,18.6,18.6,18.6c10.2,0,18.6-8.3,18.6-18.6
                    C436.4,386.1,428.1,377.8,417.9,377.8z" />
                <path d="M351.4,414.9c2,0,2.7,0,6.5-4.1c4.6-5,12.8-15.3,28.9-35.7c10-12.7,22.5-28.5,39.3-49.4
                    c1.2-1.6,1.7-3.6,1.4-5.7c-0.3-2.1-1.4-3.9-3-5.1c-3.3-2.4-7.9-1.9-10.5,1.1l-69,86.3c-1.3,1.6-1.8,3.6-1.6,5.7
                    c0.2,2.1,1.3,3.9,2.9,5.2c1.4,1.1,3,1.7,4.8,1.7L351.4,414.9z" />
            </g>
        </symbol>
        <symbol id="setup-brand" viewBox="0 0 512 512">
            <g>
                <path d="M212.7,137.2c22.3,0,40.4-18.1,40.4-40.4S235,56.4,212.7,56.4s-40.4,18.1-40.4,40.4
                S190.4,137.2,212.7,137.2L212.7,137.2z M212.7,71.4c14,0,25.4,11.4,25.4,25.4c0,14-11.4,25.4-25.4,25.4c-14,0-25.4-11.4-25.4-25.4
                S198.7,71.4,212.7,71.4L212.7,71.4z" />
                <path
                    d="M197.8,437c25.5,0,46.2-20.7,46.2-46.2s-20.7-46.2-46.2-46.2s-46.2,20.7-46.2,46.2S172.3,437,197.8,437z
                M197.8,359.5c17.2,0,31.2,14,31.2,31.2c0,17.2-14,31.2-31.2,31.2s-31.2-14-31.2-31.2C166.6,373.5,180.6,359.5,197.8,359.5z" />
                <path d="M131.6,131.6c-27,0-49,22-49,49s22,49,49,49s49-22,49-49S158.6,131.6,131.6,131.6z M131.6,214.7
                c-18.8,0-34-15.3-34-34s15.3-34,34-34s34,15.3,34,34S150.4,214.7,131.6,214.7z" />
                <path
                    d="M117.6,348.7c27,0,49-22,49-49c0-27-22-49-49-49s-49,22-49,49C68.6,326.7,90.5,348.7,117.6,348.7z
                M117.6,265.7c18.8,0,34,15.3,34,34c0,18.8-15.3,34-34,34s-34-15.3-34-34C83.6,280.9,98.8,265.7,117.6,265.7z" />
                <path d="M166.4,490.4c4.1,0.7,8-2,8.7-6c0.7-4.1-2-8-6-8.7c-28.7-5.2-54.5-19.5-74.4-41.2
                C36.8,371.2,11,302.9,18,231.5C34,70.5,203.8-9.6,360.4,21.7c21.2,4.2,29.4,21.5,30,35c0.6,13.3-5.9,31-26.3,37.1
                c-26.4,7.9-47.2,19.4-61.9,34.2c-33.8,33.9-36.7,91.1-4.5,129.6c15.9,19,26.1,42.1,29.5,66.8c-17,38.6-34.4,82.3-47.8,122.8
                c-21.6,17.8-48.9,28.6-77.2,30.5c-4.1,0.3-7.3,3.8-7,8c0.3,4,3.6,7,7.5,7c0.2,0,0.3,0,0.5,0c24.3-1.6,48.1-9.2,68.7-21.7
                c-4.4,15.2,2.8,31.1,17.1,38c15.3,7.3,33.8,1.5,42.2-13.2c14.4-25.6,30.1-56.6,45.3-89.7c1.7-3.8,0.1-8.2-3.7-9.9
                c-3.8-1.7-8.2-0.1-9.9,3.7c-15,32.7-30.4,63.4-44.7,88.6c-4.5,7.9-14.4,11-22.6,7.1c-7.8-3.7-11.6-12.4-9.1-20.6
                c19.4-63.9,51.6-141.6,81.2-201.7l40.3,17.3c-9.4,25.6-20.1,52.3-31,77.6c-1.6,3.8,0.1,8.2,3.9,9.9c3.8,1.6,8.2-0.1,9.9-3.9
                c20.6-47.8,43.5-107.4,56.9-157.6c4.8-1.7,8.2-5.2,10-9.4l6.5-15.2c1.4-3.2,1.7-6.7,1.1-9.9c12.5-8,30-22.2,39-43.3
                c11.2-26.1,3.8-70.4-1.7-94.5c-1-4.6-4.3-8.5-8.6-10.3c-4.3-1.9-9.4-1.5-13.4,0.9c-21.2,12.7-58.3,37.9-69.5,64
                c-9.1,21.1-7.3,43.6-4.4,58.1c-2.8,1.8-5.1,4.5-6.4,7.7l-6.5,15.2c-1.8,4.3-1.9,9.2,0.1,13.8c-20.1,33-40.1,73-56.2,108.1
                c-5.7-19.5-15.3-37.7-28.4-53.4c-12.6-15-19-32.6-19-52.3c0-42.5,26.3-71.9,78.1-87.4c23.6-7.1,38.1-27.5,37-52.2
                c-0.9-20.4-14.3-43.4-42.1-49C198.2-26,20,59.8,3.1,230.1c-7.5,75.8,19.6,148,80.6,214.5C105.8,468.7,134.4,484.6,166.4,490.4
                L166.4,490.4z M405.4,203.1c9.8,4.2,17.3,7.4,27.2,11.6c-4.9,18-11.5,39-19.5,61.4l-38.7-16.6C385.1,238.4,395.7,219.1,405.4,203.1
                L405.4,203.1z M450.4,185.7l-6.5,15.2c-0.5,1.2-1.9,1.6-2.9,1.2l-32.3-13.8c-1-0.4-1.7-1.7-1.2-2.9l6.5-15.2
                c0.5-1.2,1.8-1.6,2.9-1.2l32.3,13.8C450.3,183.2,450.9,184.5,450.4,185.7L450.4,185.7z M424.9,104.3c3.3-7.7,16-28.6,63.2-56.9
                c12.1,53.7,5.7,77.3,2.5,85c-7.7,18.1-23.3,30.4-34.1,37.1c-0.4-0.2-0.8-0.4-1.2-0.6l-32.3-13.8h0c-0.4-0.2-0.8-0.3-1.3-0.5
                C419,142.2,417.1,122.4,424.9,104.3L424.9,104.3z" />
            </g>
        </symbol>
        <symbol id="setup-categoriess" viewBox="0 0 512 512">
            <g>
                <path d="M486.4,0H25.6C11.5,0,0,11.5,0,25.6v460.8C0,500.5,11.5,512,25.6,512h460.8c14.1,0,25.6-11.5,25.6-25.6
                    V25.6C512,11.5,500.5,0,486.4,0z M494.9,486.4c0,4.7-3.8,8.5-8.5,8.5H25.6c-4.7,0-8.5-3.8-8.5-8.5V25.6c0-4.7,3.8-8.5,8.5-8.5
                    h460.8c4.7,0,8.5,3.8,8.5,8.5V486.4z" />
                <circle cx="50.7" cy="52.7" r="8.5" />
                <circle cx="76.3" cy="52.7" r="8.5" />
                <circle cx="101.9" cy="52.7" r="8.5" />
                <path d="M247.5,213.3h-34.1c-4.7,0-8.5,3.8-8.5,8.5l0,0V256c0,4.7,3.8,8.5,8.5,8.5l0,0h34.1c4.7,0,8.5-3.8,8.5-8.5
                    l0,0v-34.1C256,217.2,252.2,213.3,247.5,213.3L247.5,213.3z M238.9,247.5h-17.1v-17.1h17.1V247.5z" />
                <path d="M292.8,230.4h142.4c4.7,0,8.5,3.8,8.5,8.5l0,0c0,4.7-3.8,8.5-8.5,8.5H292.8c-4.7,0-8.5-3.8-8.5-8.5l0,0
                    C284.3,234.2,288.1,230.4,292.8,230.4z" />
                <path d="M247.5,281.6h-34.1c-4.7,0-8.5,3.8-8.5,8.5l0,0v34.1c0,4.7,3.8,8.5,8.5,8.5l0,0h34.1c4.7,0,8.5-3.8,8.5-8.5
                    l0,0v-34.1C256,285.4,252.2,281.6,247.5,281.6L247.5,281.6z M238.9,315.7h-17.1v-17.1h17.1V315.7z" />
                <path d="M292.8,298.7h142.4c4.7,0,8.5,3.8,8.5,8.5l0,0c0,4.7-3.8,8.5-8.5,8.5H292.8c-4.7,0-8.5-3.8-8.5-8.5l0,0
                    C284.3,302.5,288.1,298.7,292.8,298.7z" />
                <path d="M247.5,349.9h-34.1c-4.7,0-8.5,3.8-8.5,8.5l0,0v34.1c0,4.7,3.8,8.5,8.5,8.5l0,0h34.1c4.7,0,8.5-3.8,8.5-8.5
                    l0,0v-34.1C256,353.7,252.2,349.9,247.5,349.9L247.5,349.9z M238.9,384h-17.1v-17.1h17.1V384z" />
                <path d="M292.8,366.9h142.4c4.7,0,8.5,3.8,8.5,8.5l0,0c0,4.7-3.8,8.5-8.5,8.5H292.8c-4.7,0-8.5-3.8-8.5-8.5l0,0
                    C284.3,370.8,288.1,366.9,292.8,366.9z" />
                <path d="M247.5,418.1h-34.1c-4.7,0-8.5,3.8-8.5,8.5l0,0v34.1c0,4.7,3.8,8.5,8.5,8.5l0,0h34.1c4.7,0,8.5-3.8,8.5-8.5
                    l0,0v-34.1C256,422,252.2,418.1,247.5,418.1L247.5,418.1z M238.9,452.3h-17.1v-17.1h17.1V452.3z" />
                <path d="M292.8,435.2h142.4c4.7,0,8.5,3.8,8.5,8.5l0,0c0,4.7-3.8,8.5-8.5,8.5H292.8c-4.7,0-8.5-3.8-8.5-8.5l0,0
                    C284.3,439,288.1,435.2,292.8,435.2z" />
                <path d="M460.8,85.3H51.2c-4.7,0-8.5,3.8-8.5,8.5l0,0v366.9c0,4.7,3.8,8.5,8.5,8.5l0,0h119.5c4.7,0,8.5-3.8,8.5-8.5
                    l0,0v-273h281.6c4.7,0,8.5-3.8,8.5-8.5l0,0V93.9C469.3,89.2,465.5,85.3,460.8,85.3L460.8,85.3z M162.1,452.3H59.7V187.7h102.4
                    V452.3z M452.3,170.7H59.7v-68.3h392.5L452.3,170.7L452.3,170.7z" />
            </g>
        </symbol>
        <symbol id="setup-products" viewBox="0 0 512 512">
            <g>
                <g>
                    <path d="M434.1,409.3h22.3c6.1,0,11.1,5,11.1,11.1v0c0,6.1-5,11.1-11.1,11.1h-22.3c-6.1,0-11.1-5-11.1-11.1v0
                        C423,414.3,427.9,409.3,434.1,409.3z" />
                    <path d="M367.3,189.3h22.3c6.1,0,11.1,5,11.1,11.1v0c0,6.1-5,11.1-11.1,11.1h-22.3c-6.1,0-11.1-5-11.1-11.1v0
                        C356.2,194.3,361.2,189.3,367.3,189.3z" />
                    <path d="M434.1,364.9h22.3c6.1,0,11.1,5,11.1,11.1l0,0c0,6.1-5,11.1-11.1,11.1h-22.3c-6.1,0-11.1-5-11.1-11.1l0,0
                        C423,369.8,427.9,364.9,434.1,364.9z" />
                    <path d="M188.7,409.8H211c6.1,0,11.1,5,11.1,11.1v0c0,6.1-5,11.1-11.1,11.1h-22.3c-6.1,0-11.1-5-11.1-11.1v0
                        C177.6,414.8,182.6,409.8,188.7,409.8z" />
                    <path d="M188.7,365.3H211c6.1,0,11.1,5,11.1,11.1v0c0,6.1-5,11.1-11.1,11.1h-22.3c-6.1,0-11.1-5-11.1-11.1v0
                        C177.6,370.3,182.6,365.3,188.7,365.3z" />
                </g>
                <g>
                    <path
                        d="M500.9,233.8h-55.7V47.1c0-6.1-5-11.1-11.1-11.1H211.5c-6.1,0-11.1,5-11.1,11.1v186.7H11.1c-6.1,0-11.1,5-11.1,11.1v220
                        C0,471,5,476,11.1,476h489.7c6.1,0,11.1-5,11.1-11.1v-220C512,238.7,507,233.8,500.9,233.8z M311.7,58.2h22.3v44.5h-22.3V58.2z
                        M222.6,58.2h66.8v55.6c0,6.1,5,11.1,11.1,11.1H345c6.1,0,11.1-5,11.1-11.1V58.2H423v175.5H222.6V58.2z M400.7,256v44.5h-44.5V256
                        H400.7z M111.3,256h44.5v44.5h-44.5V256z M244.9,453.8H22.3V256H89v55.6c0,6.1,5,11.1,11.1,11.1H167c6.1,0,11.1-5,11.1-11.1V256
                        h66.8V453.8z M489.7,453.8H267.1V256h66.8v55.6c0,6.1,5,11.1,11.1,11.1h66.8c6.1,0,11.1-5,11.1-11.1V256h66.8V453.8z" />
                </g>
            </g>
        </symbol>
    </defs>
</svg>