<svg xmlns="http://www.w3.org/2000/svg" width="0" height="0">
    <defs>
        <symbol id="icn-basic-details" viewBox="0 0 16 16">
            <g transform="translate(342.337 347.702)">
                <g>
                  <path d="M-333.024-347.7h-7.063v16h11.5v-11.5Zm.066,2.2,2.13,2.16h-2.13Zm-5.629,12.3v-13h4.129v4.363h4.371v8.637Z"/>
                </g>
                <g >
                  <path  d="M-336.587-340.2h4.5a.75.75,0,0,1,.75.75h0a.75.75,0,0,1-.75.75h-4.5a.75.75,0,0,1-.75-.75h0A.75.75,0,0,1-336.587-340.2Z"/>
                </g>
                <g >
                  <path d="M-336.587-337.2h4.5a.75.75,0,0,1,.75.75h0a.75.75,0,0,1-.75.75h-4.5a.75.75,0,0,1-.75-.75h0A.75.75,0,0,1-336.587-337.2Z"/>
                </g>
              </g>
        </symbol>
        <symbol id="icn-variants-options" viewBox="0 0 15.555 12.5">
            <g>
                <rect width="15.555" height="1.5"/>
              </g>
              <g  transform="translate(0 5.528)">
                <rect width="15.555" height="1.5"/>
              </g>
              <g transform="translate(0 11)">
                <rect width="15.555" height="1.5"/>
              </g>
        </symbol>
        <symbol id="icn-media" viewBox="0 0 16 16">
            <g transform="translate(-385.375 -360.002)">
                <path d="M399.266,360.752H387.484a1.36,1.36,0,0,0-1.359,1.359v11.782a1.36,1.36,0,0,0,1.359,1.359h11.782a1.36,1.36,0,0,0,1.359-1.359V362.111A1.36,1.36,0,0,0,399.266,360.752Z" fill="none" stroke="currentColor" stroke-width="1.5"/>
                <path d="M395.9,368.909a.442.442,0,0,0-.623,0l-1.018,1.017-1.9-1.9a.442.442,0,0,0-.624,0l-3.1,3.1a.443.443,0,0,0,.31.752H397.8a.442.442,0,0,0,.314-.756Z"/>
                <circle cx="1.327" cy="1.327" r="1.327" transform="translate(393.376 364.8)"/>
              </g>
        </symbol>
        <symbol id="icn-specifications" viewBox="0 0 16 15.627">
            <g transform="translate(-415.716 -360.838)">
                <rect width="14.5" height="14.127" rx="1" transform="translate(416.466 361.588)" fill="none" stroke="currentColor" stroke-width="1.5"/>
                <line x2="14.851" transform="translate(416.115 364.622)" fill="none" stroke="currentColor" stroke-width="1.5"/>
                <line x2="8.302" transform="translate(419.565 367.67)" fill="none" stroke="currentColor" stroke-width="1"/>
                <line x2="8.302" transform="translate(419.565 370.002)" fill="none" stroke="currentColor" stroke-width="1"/>
                <line x2="8.302" transform="translate(419.565 372.437)" fill="none" stroke="currentColor" stroke-width="1"/>
              </g>
        </symbol>
        <symbol id="icn-tax-shipping" viewBox="0 0 16.793 13.475">
            <g transform="translate(-355.626 -361.428)">
                <rect  width="1.016" height="5.419" rx="0.508" transform="translate(362.883 364.662) rotate(45)"/>
                <rect  width="1.355" height="1.355" rx="0.677" transform="translate(359.89 364.543) rotate(45)"/>
                <rect  width="1.355" height="1.355" rx="0.677" transform="translate(362.764 367.416) rotate(45)"/>
                <path  d="M369.467,365.477h-2.792V361.8H356v11.358h2.686a1.671,1.671,0,0,0,3.276,0h5.414a1.671,1.671,0,0,0,3.276,0h1.391v-4.107C372.044,367.63,370.89,365.477,369.467,365.477Zm-9.143,8.353a1,1,0,1,1,1-1A1,1,0,0,1,360.324,373.83Zm5.682-1.337h-4.044a1.672,1.672,0,0,0-3.276,0h-2.017V362.471h9.337Zm3.008,1.337a1,1,0,1,1,1-1A1,1,0,0,1,369.014,373.83Zm2.362-1.337h-.724a1.672,1.672,0,0,0-3.276,0h-.68v-6.348h2.771c1.054,0,1.908,1.855,1.909,2.909Z" stroke="currentColor" stroke-width="0.75"/>
              </g>
        </symbol>
    </defs>
</svg>