<svg xmlns="http://www.w3.org/2000/svg" width="0" height="0">
    <defs>
        <symbol id="test" viewBox="0 0 20 20">
            <path d="M10 0C5.589 0 2 3.589 2 8c0 7.495 7.197 11.694 7.504 11.869a.996.996 0 0 0 .992 0C10.803 19.694 18 15.495 18 8c0-4.412-3.589-8-8-8m-.001 17.813C8.478 16.782 4 13.296 4 8c0-3.31 2.691-6 6-6s6 2.69 6 6c0 5.276-4.482 8.778-6.001 9.813M10 10c-1.103 0-2-.897-2-2s.897-2 2-2 2 .897 2 2-.897 2-2 2m0-6C7.794 4 6 5.794 6 8s1.794 4 4 4 4-1.794 4-4-1.794-4-4-4"></path>
        </symbol>
        <symbol id="facebook" viewBox="0 0 24 24" >
            <path d="M13 9h4.5l-.5 2h-4v9h-2v-9H7V9h4V7.128c0-1.783.186-2.43.534-3.082a3.635 3.635 0 0 1 1.512-1.512C13.698 2.186 14.345 2 16.128 2c.522 0 .98.05 1.372.15V4h-1.372c-1.324 0-1.727.078-2.138.298-.304.162-.53.388-.692.692-.22.411-.298.814-.298 2.138V9z" fill="currentColor"/>
        </symbol>
        <symbol id="youtube" viewBox="0 0 24 24">
            <path d="M19.606 6.995c-.076-.298-.292-.523-.539-.592C18.63 6.28 16.5 6 12 6s-6.628.28-7.069.403c-.244.068-.46.293-.537.592C4.285 7.419 4 9.196 4 12s.285 4.58.394 5.006c.076.297.292.522.538.59C5.372 17.72 7.5 18 12 18s6.629-.28 7.069-.403c.244-.068.46-.293.537-.592C19.715 16.581 20 14.8 20 12s-.285-4.58-.394-5.005zm1.937-.497C22 8.28 22 12 22 12s0 3.72-.457 5.502c-.254.985-.997 1.76-1.938 2.022C17.896 20 12 20 12 20s-5.893 0-7.605-.476c-.945-.266-1.687-1.04-1.938-2.022C2 15.72 2 12 2 12s0-3.72.457-5.502c.254-.985.997-1.76 1.938-2.022C6.107 4 12 4 12 4s5.896 0 7.605.476c.945.266 1.687 1.04 1.938 2.022zM10 15.5v-7l6 3.5-6 3.5z" fill="currentColor"/>
        </symbol>
        <symbol id="instagram" viewBox="0 0 24 24">
            <path d="M12 9a3 3 0 1 0 0 6 3 3 0 0 0 0-6zm0-2a5 5 0 1 1 0 10 5 5 0 0 1 0-10zm6.5-.25a1.25 1.25 0 0 1-2.5 0 1.25 1.25 0 0 1 2.5 0zM12 4c-2.474 0-2.878.007-4.029.058-.784.037-1.31.142-1.798.332-.434.168-.747.369-1.08.703a2.89 2.89 0 0 0-.704 1.08c-.19.49-.295 1.015-.331 1.798C4.006 9.075 4 9.461 4 12c0 2.474.007 2.878.058 4.029.037.783.142 1.31.331 1.797.17.435.37.748.702 1.08.337.336.65.537 1.08.703.494.191 1.02.297 1.8.333C9.075 19.994 9.461 20 12 20c2.474 0 2.878-.007 4.029-.058.782-.037 1.309-.142 1.797-.331.433-.169.748-.37 1.08-.702.337-.337.538-.65.704-1.08.19-.493.296-1.02.332-1.8.052-1.104.058-1.49.058-4.029 0-2.474-.007-2.878-.058-4.029-.037-.782-.142-1.31-.332-1.798a2.911 2.911 0 0 0-.703-1.08 2.884 2.884 0 0 0-1.08-.704c-.49-.19-1.016-.295-1.798-.331C14.925 4.006 14.539 4 12 4zm0-2c2.717 0 3.056.01 4.122.06 1.065.05 1.79.217 2.428.465.66.254 1.216.598 1.772 1.153a4.908 4.908 0 0 1 1.153 1.772c.247.637.415 1.363.465 2.428.047 1.066.06 1.405.06 4.122 0 2.717-.01 3.056-.06 4.122-.05 1.065-.218 1.79-.465 2.428a4.883 4.883 0 0 1-1.153 1.772 4.915 4.915 0 0 1-1.772 1.153c-.637.247-1.363.415-2.428.465-1.066.047-1.405.06-4.122.06-2.717 0-3.056-.01-4.122-.06-1.065-.05-1.79-.218-2.428-.465a4.89 4.89 0 0 1-1.772-1.153 4.904 4.904 0 0 1-1.153-1.772c-.248-.637-.415-1.363-.465-2.428C2.013 15.056 2 14.717 2 12c0-2.717.01-3.056.06-4.122.05-1.066.217-1.79.465-2.428a4.88 4.88 0 0 1 1.153-1.772A4.897 4.897 0 0 1 5.45 2.525c.638-.248 1.362-.415 2.428-.465C8.944 2.013 9.283 2 12 2z" fill="currentColor"/>
        </symbol>
        <symbol id="googleplus" viewBox="0 0 512 512">
            <g>
                <g>
                    <path d="M160,224v64h90.528c-13.216,37.248-48.8,64-90.528,64c-52.928,0-96-43.072-96-96c0-52.928,43.072-96,96-96
                        c22.944,0,45.024,8.224,62.176,23.168l42.048-48.256C235.424,109.824,198.432,96,160,96C71.776,96,0,167.776,0,256
                        s71.776,160,160,160s160-71.776,160-160v-32H160z" />
                </g>
            </g>
        </symbol>
        <symbol id="twitter" viewBox="0 0 24 24">
            <path d="M15.3 5.55a2.9 2.9 0 0 0-2.9 2.847l-.028 1.575a.6.6 0 0 1-.68.583l-1.561-.212c-2.054-.28-4.022-1.226-5.91-2.799-.598 3.31.57 5.603 3.383 7.372l1.747 1.098a.6.6 0 0 1 .034.993L7.793 18.17c.947.059 1.846.017 2.592-.131 4.718-.942 7.855-4.492 7.855-10.348 0-.478-1.012-2.141-2.94-2.141zm-4.9 2.81a4.9 4.9 0 0 1 8.385-3.355c.711-.005 1.316.175 2.669-.645-.335 1.64-.5 2.352-1.214 3.331 0 7.642-4.697 11.358-9.463 12.309-3.268.652-8.02-.419-9.382-1.841.694-.054 3.514-.357 5.144-1.55C5.16 15.7-.329 12.47 3.278 3.786c1.693 1.977 3.41 3.323 5.15 4.037 1.158.475 1.442.465 1.973.538z" fill="currentColor"/>
        </symbol>
        <symbol id="pinterest" viewBox="0 0 24 24">
            <path d="M8.49 19.191c.024-.336.072-.671.144-1.001.063-.295.254-1.13.534-2.34l.007-.03.387-1.668c.079-.34.14-.604.181-.692a3.46 3.46 0 0 1-.284-1.423c0-1.337.756-2.373 1.736-2.373.36-.006.704.15.942.426.238.275.348.644.302.996 0 .453-.085.798-.453 2.035-.071.238-.12.404-.166.571-.051.188-.095.358-.132.522-.096.386-.008.797.237 1.106a1.2 1.2 0 0 0 1.006.456c1.492 0 2.6-1.985 2.6-4.548 0-1.97-1.29-3.274-3.432-3.274A3.878 3.878 0 0 0 9.2 9.1a4.13 4.13 0 0 0-1.195 2.961 2.553 2.553 0 0 0 .512 1.644c.181.14.25.383.175.59-.041.168-.14.552-.176.68a.41.41 0 0 1-.216.297.388.388 0 0 1-.355.002c-1.16-.479-1.796-1.778-1.796-3.44 0-2.985 2.491-5.584 6.192-5.584 3.135 0 5.481 2.329 5.481 5.14 0 3.532-1.932 6.104-4.69 6.104a2.508 2.508 0 0 1-2.046-.959l-.043.177-.207.852-.002.007c-.146.6-.248 1.017-.288 1.174-.106.355-.24.703-.4 1.04a8 8 0 1 0-1.656-.593zM12 22C6.477 22 2 17.523 2 12S6.477 2 12 2s10 4.477 10 10-4.477 10-10 10z" fill="currentColor"/>
        </symbol>
        <symbol id="email" viewBox="0 0 230.17 230.17" width="20px" height="20px">
            <g>
                <path d="M230,49.585c0-0.263,0.181-0.519,0.169-0.779l-70.24,67.68l70.156,65.518c0.041-0.468-0.085-0.94-0.085-1.418V49.585z" />
                <path d="M149.207,126.901l-28.674,27.588c-1.451,1.396-3.325,2.096-5.2,2.096c-1.836,0-3.672-0.67-5.113-2.013l-28.596-26.647
                    L11.01,195.989c1.717,0.617,3.56,1.096,5.49,1.096h197.667c2.866,0,5.554-0.873,7.891-2.175L149.207,126.901z" />
                <path d="M115.251,138.757L222.447,35.496c-2.427-1.443-5.252-2.411-8.28-2.411H16.5c-3.943,0-7.556,1.531-10.37,3.866
                    L115.251,138.757z" />
                <path d="M0,52.1v128.484c0,1.475,0.339,2.897,0.707,4.256l69.738-67.156L0,52.1z" />
            </g>
        </symbol>
        <symbol id="linkedin" viewBox="0 0 100 100">
            <g id="_x31_0.Linkedin">
                <path d="m89.98 90v-.003h.02v-29.34c0-14.353-3.09-25.41-19.87-25.41-8.067 0-13.48 4.427-15.69 8.623h-.233v-7.283h-15.91v53.41h16.567v-26.447c0-6.963 1.32-13.697 9.943-13.697 8.497 0 8.623 7.947 8.623 14.143v26.004z" />
                <path d="m11.32 36.59h16.587v53.41h-16.587z" />
                <path d="m19.607 10c-5.304 0-9.607 4.303-9.607 9.607s4.303 9.697 9.607 9.697 9.607-4.393 9.607-9.697c-.004-5.304-4.307-9.607-9.607-9.607z" />
            </g>
        </symbol>
        <symbol id="reddit" viewBox="0 0 24 24" width="20px" height="20px">
            <path d="m21.325 9.308c-.758 0-1.425.319-1.916.816-1.805-1.268-4.239-2.084-6.936-2.171l1.401-6.406 4.461 1.016c0 1.108.89 2.013 1.982 2.013 1.113 0 2.008-.929 2.008-2.038s-.889-2.038-2.007-2.038c-.779 0-1.451.477-1.786 1.129l-4.927-1.108c-.248-.067-.491.113-.557.365l-1.538 7.062c-2.676.113-5.084.928-6.895 2.197-.491-.518-1.184-.837-1.942-.837-2.812 0-3.733 3.829-1.158 5.138-.091.405-.132.837-.132 1.268 0 4.301 4.775 7.786 10.638 7.786 5.888 0 10.663-3.485 10.663-7.786 0-.431-.045-.883-.156-1.289 2.523-1.314 1.594-5.115-1.203-5.117zm-15.724 5.41c0-1.129.89-2.038 2.008-2.038 1.092 0 1.983.903 1.983 2.038 0 1.109-.89 2.013-1.983 2.013-1.113.005-2.008-.904-2.008-2.013zm10.839 4.798c-1.841 1.868-7.036 1.868-8.878 0-.203-.18-.203-.498 0-.703.177-.18.491-.18.668 0 1.406 1.463 6.07 1.488 7.537 0 .177-.18.491-.18.668 0 .207.206.207.524.005.703zm-.041-2.781c-1.092 0-1.982-.903-1.982-2.011 0-1.129.89-2.038 1.982-2.038 1.113 0 2.008.903 2.008 2.038-.005 1.103-.895 2.011-2.008 2.011z" />
        </symbol>
        <symbol id="tumblr" viewBox="0 0 100 100">
            <g id="_x31_9.Tumblr">
                <path id="Icon_6_" d="m34.29 42.731c-3.027 0-5.965 0-8.904 0-.021-.376.03-7.23 0-10.357-.006-.643.16-.975.807-1.21 10.358-3.094 15.294-18.418 15.349-20.153 0-.695.406-1.011 1.075-1.011 3.158.03 6.317.031 9.475 0 .744-.007.925.259.922.973-.027 6.007-.015 18.747-.015 19.195h18.895v12.547c-6.276 0-12.358 0-18.641 0-.039.252-.187 26.975 0 28.258.286 1.957 1.513 3.413 3.205 4.431 2.987 1.797 6.207 1.902 9.517 1.317 2.742-.485 8.271-3.264 8.635-3.466.033.356-.03 8 0 11.561.005.656-.222.959-.815 1.241-6.308 2.991-12.94 4.31-19.901 3.856-5.933-.387-11.348-2.088-15.659-6.46-2.247-2.279-3.944-4.835-3.944-8.178s-.001-31.995-.001-32.544z" />
            </g>
        </symbol>
        <symbol id="digg" viewBox="0 0 512 512">
            <g>
                <g>
                    <rect x="152" y="176" width="48" height="160" />
                </g>
            </g>
            <g>
                <g>
                    <path d="M224,176v160h80v48h-80v48h128V176H224z M304,288h-32v-64h32V288z" />
                </g>
            </g>
            <g>
                <g>
                    <path d="M384,176v160h80v48h-80v48h128V176H384z M464,288h-32v-64h32V288z" />
                </g>
            </g>
            <g>
                <g>
                    <path d="M80,80v96H0v160h128V80H80z M80,288H48v-64h32V288z" />
                </g>
            </g>
            <g>
                <g>
                    <rect x="152" y="112" width="48" height="32" />
                </g>
            </g>
        </symbol>
        <symbol id="whatsapp" viewBox="0 0 512 512" width="20px" height="20px">
            <g>
                <path d="M256.064,0h-0.128C114.784,0,0,114.816,0,256c0,56,18.048,107.904,48.736,150.048l-31.904,95.104l98.4-31.456
                    C155.712,496.512,204,512,256.064,512C397.216,512,512,397.152,512,256S397.216,0,256.064,0z M405.024,361.504
                    c-6.176,17.44-30.688,31.904-50.24,36.128c-13.376,2.848-30.848,5.12-89.664-19.264C189.888,347.2,141.44,270.752,137.664,265.792
                    c-3.616-4.96-30.4-40.48-30.4-77.216s18.656-54.624,26.176-62.304c6.176-6.304,16.384-9.184,26.176-9.184
                    c3.168,0,6.016,0.16,8.576,0.288c7.52,0.32,11.296,0.768,16.256,12.64c6.176,14.88,21.216,51.616,23.008,55.392
                    c1.824,3.776,3.648,8.896,1.088,13.856c-2.4,5.12-4.512,7.392-8.288,11.744c-3.776,4.352-7.36,7.68-11.136,12.352
                    c-3.456,4.064-7.36,8.416-3.008,15.936c4.352,7.36,19.392,31.904,41.536,51.616c28.576,25.44,51.744,33.568,60.032,37.024
                    c6.176,2.56,13.536,1.952,18.048-2.848c5.728-6.176,12.8-16.416,20-26.496c5.12-7.232,11.584-8.128,18.368-5.568
                    c6.912,2.4,43.488,20.48,51.008,24.224c7.52,3.776,12.48,5.568,14.304,8.736C411.2,329.152,411.2,344.032,405.024,361.504z" />
            </g>
        </symbol>
        <symbol id="weibo" viewBox="0 0 24 24">
            <path d="m23.977 8.171c.103 1.315-.123 2.891-1.006 2.969-1.442.127-.69-1.435-.671-2.375.053-2.725-2.312-4.618-4.629-4.618-.656 0-2.181.438-1.946-.924.106-.6.623-.592 1.14-.66 3.897-.51 6.838 2.125 7.112 5.608z" />
            <path d="m17.604 11.337c1.675.901 3.687 1.35 3.354 4.024-.614 4.929-11.054 8.24-17.575 4.618-1.788-.994-3.639-2.448-3.354-5.344.246-2.493 1.95-4.424 3.623-6.069 1.596-1.57 3.278-2.798 5.567-3.364 2.484-.614 3.218 1.422 2.549 3.43 1.439-.095 4.488-1.674 5.836-.132.594.68.367 1.897 0 2.837zm-1.811 6.333c.537-.598 1.076-1.51 1.073-2.572-.01-4.395-7.635-5.376-11.806-2.969-4.747 2.74-2.743 7.664 3.086 8.048 3.088.204 6.179-.868 7.647-2.507z" />
            <path d="m19.952 10.084c-.977.064-.612-.658-.671-1.517-.037-.529-.483-1.14-.872-1.32-.763-.352-1.945.256-1.945-.791 0-.778.686-.697 1.074-.726 3.555-.266 3.775 4.265 2.414 4.354z" />
            <path d="m12.842 14.768c1.429 4.248-6.017 6.223-7.379 2.573-.911-2.441 1.277-4.383 3.555-4.618 1.945-.201 3.395.775 3.824 2.045zm-3.422.726c.303.516 1 .145.939-.264-.073-.473-.945-.403-.939.264zm-1.207 2.243c1.252-.293 1.42-2.612-.47-2.177-1.587.364-1.28 2.586.47 2.177z" />
        </symbol>
        <symbol id="wechat" viewBox="0 0 512 512">
            <g>
                <g>
                    <path d="M192,32C85.952,32,0,103.648,0,192c0,50.944,28.736,96.128,73.312,125.376L48,368l68.96-29.536
                        c14.784,5.248,30.144,9.568,46.56,11.584c-2.24-9.76-3.52-19.776-3.52-30.048c0-88.224,86.112-160,192-160
                        c9.696,0,19.168,0.8,28.512,1.952C363.616,87.968,285.696,32,192,32z M128,152c-13.248,0-24-10.752-24-24s10.752-24,24-24
                        s24,10.752,24,24S141.248,152,128,152z M256,152c-13.248,0-24-10.752-24-24s10.752-24,24-24s24,10.752,24,24S269.248,152,256,152z
                        " />
                </g>
            </g>
            <g>
                <g>
                    <path d="M512,320c0-70.688-71.648-128-160-128s-160,57.312-160,128s71.648,128,160,128c14.528,0,28.352-2.048,41.76-4.96L480,480
                        l-29.824-59.616C487.552,396.96,512,360.928,512,320z M304,312c-13.248,0-24-10.752-24-24s10.752-24,24-24s24,10.752,24,24
                        S317.248,312,304,312z M400,312c-13.248,0-24-10.752-24-24s10.752-24,24-24s24,10.752,24,24S413.248,312,400,312z" />
                </g>
            </g>
        </symbol>
        <symbol id="skype" viewBox="0 0 24.08 24.08" width="20px" height="20px">
            <path d="M23.029,13.494c0.34,0.481,0.599,1.003,0.78,1.575c0.18,0.57,0.271,1.16,0.271,1.771c0,0.875-0.177,1.697-0.527,2.467
                c-0.351,0.768-0.834,1.445-1.45,2.033c-0.616,0.582-1.333,1.039-2.157,1.371s-1.691,0.495-2.613,0.495
                c-1.313,0-2.491-0.31-3.536-0.929c-0.29,0.04-0.582,0.069-0.877,0.091c-0.296,0.02-0.589,0.028-0.882,0.028
                c-1.534,0-2.974-0.275-4.321-0.823c-1.344-0.551-2.521-1.299-3.535-2.252c-1.011-0.949-1.808-2.068-2.382-3.349
                c-0.579-1.281-0.868-2.65-0.868-4.105c0-0.282,0.014-0.55,0.044-0.798c0.027-0.248,0.064-0.501,0.102-0.754
                C0.358,9.316,0,8.243,0,7.092c0-0.856,0.177-1.665,0.528-2.426c0.35-0.76,0.83-1.421,1.446-1.982C2.59,2.122,3.311,1.68,4.13,1.356
                c0.821-0.324,1.692-0.482,2.614-0.482c0.664,0,1.287,0.078,1.879,0.237c0.592,0.161,1.146,0.385,1.657,0.678
                c0.289-0.041,0.585-0.07,0.877-0.093c0.296-0.018,0.592-0.029,0.881-0.029c1.539,0,2.984,0.268,4.335,0.801
                c1.348,0.529,2.528,1.262,3.542,2.192c1.014,0.934,1.813,2.015,2.393,3.245c0.578,1.232,0.867,2.554,0.867,3.962
                C23.176,12.386,23.128,12.929,23.029,13.494z M17.333,16.696c0.474-0.624,0.708-1.357,0.708-2.199c0-0.663-0.132-1.22-0.392-1.672
                c-0.271-0.45-0.653-0.827-1.146-1.128c-0.453-0.292-1.042-0.551-1.763-0.783c-0.725-0.182-1.494-0.36-2.307-0.542l-0.891-0.203
                c-0.239-0.051-0.429-0.094-0.572-0.133c-0.159-0.039-0.306-0.082-0.446-0.133c-0.132-0.047-0.272-0.102-0.412-0.162
                C9.84,9.627,9.612,9.472,9.431,9.29c-0.14-0.157-0.21-0.368-0.21-0.63c0-0.383,0.228-0.725,0.681-1.028
                c0.513-0.283,1.14-0.419,1.885-0.41c0.861,0,1.466,0.127,1.807,0.382c0.412,0.302,0.735,0.674,0.966,1.113
                c0.201,0.322,0.405,0.562,0.616,0.72c0.201,0.154,0.48,0.237,0.831,0.248c0.395,0,0.722-0.131,0.997-0.395
                c0.269-0.246,0.398-0.523,0.391-0.835c0-0.361-0.102-0.716-0.302-1.058c-0.198-0.321-0.531-0.663-0.99-1.026
                c-0.232-0.156-0.487-0.299-0.762-0.43c-0.276-0.132-0.586-0.248-0.923-0.346c-0.353-0.096-0.724-0.17-1.115-0.22
                c-0.392-0.049-0.82-0.072-1.294-0.072c-1.194,0-2.201,0.146-3.021,0.438c-0.881,0.304-1.548,0.722-2,1.264
                C6.536,7.521,6.31,8.141,6.31,8.865c0,0.762,0.219,1.382,0.651,1.86c0.435,0.517,1.024,0.908,1.769,1.173
                c0.708,0.283,1.613,0.531,2.723,0.745c0.415,0.098,0.778,0.181,1.099,0.244c0.316,0.062,0.603,0.133,0.854,0.21
                c0.473,0.129,0.857,0.345,1.15,0.652c0.313,0.266,0.47,0.608,0.47,1.03c0,0.583-0.286,1.055-0.851,1.415
                c-0.534,0.369-1.256,0.551-2.165,0.538c-0.728,0-1.255-0.084-1.589-0.254c-0.415-0.189-0.721-0.429-0.922-0.715
                c-0.255-0.326-0.459-0.688-0.623-1.079c-0.143-0.371-0.336-0.651-0.588-0.84c-0.235-0.191-0.51-0.286-0.833-0.286
                c-0.412,0-0.752,0.115-1.021,0.341c-0.269,0.257-0.398,0.558-0.392,0.896c0,0.589,0.218,1.178,0.65,1.768
                c0.429,0.607,0.98,1.081,1.651,1.422c0.983,0.508,2.218,0.765,3.702,0.775c1.211,0,2.29-0.18,3.229-0.539
                C16.196,17.812,16.884,17.305,17.333,16.696z" />
        </symbol>
        <symbol id="telegram" viewBox="0 -31 512 512" width="20px" height="20px">
            <path d="m123.195312 260.738281 63.679688 159.1875 82.902344-82.902343 142.140625 112.976562 100.082031-450-512 213.265625zm242.5-131.628906-156.714843 142.941406-19.519531 73.566407-36.058594-90.164063zm0 0" />
        </symbol>
        <symbol id="copy"  viewBox="0 0 24 24">
            <path d="M7 6V3a1 1 0 0 1 1-1h12a1 1 0 0 1 1 1v14a1 1 0 0 1-1 1h-3v3c0 .552-.45 1-1.007 1H4.007A1.001 1.001 0 0 1 3 21l.003-14c0-.552.45-1 1.007-1H7zM5.003 8L5 20h10V8H5.003zM9 6h8v10h2V4H9v2z"/>
        </symbol>
        <symbol id="double-arrow-left"  viewBox="0 0 24 24">
            <polygon points="17.59,18 19,16.59 14.42,12 19,7.41 17.59,6 11.59,12"/>
            <polygon points="11,18 12.41,16.59 7.83,12 12.41,7.41 11,6 5,12"/>
        </symbol>
        <symbol id="double-arrow-right"  viewBox="0 0 24 24">
            <polygon points="6.41,6 5,7.41 9.58,12 5,16.59 6.41,18 12.41,12"/>
            <polygon points="13,6 11.59,7.41 16.17,12 11.59,16.59 13,18 19,12"/>
        </symbol>
        <symbol id="payment-mode" viewBox="0 0 16 16">
            <path d="M0 4a2 2 0 0 1 2-2h12a2 2 0 0 1 2 2v8a2 2 0 0 1-2 2H2a2 2 0 0 1-2-2V4zm2-1a1 1 0 0 0-1 1v1h14V4a1 1 0 0 0-1-1H2zm13 4H1v5a1 1 0 0 0 1 1h12a1 1 0 0 0 1-1V7z"/>
            <path d="M2 10a1 1 0 0 1 1-1h1a1 1 0 0 1 1 1v1a1 1 0 0 1-1 1H3a1 1 0 0 1-1-1v-1z"/>
        </symbol>
        <symbol id="cancel" viewBox="0 0 16 16">
            <path d="M2.146 2.854a.5.5 0 1 1 .708-.708L8 7.293l5.146-5.147a.5.5 0 0 1 .708.708L8.707 8l5.147 5.146a.5.5 0 0 1-.708.708L8 8.707l-5.146 5.147a.5.5 0 0 1-.708-.708L7.293 8 2.146 2.854Z"/>
        </symbol>
        <symbol id="view" viewBox="0 0 16 16">
            <path d="M16 8s-3-5.5-8-5.5S0 8 0 8s3 5.5 8 5.5S16 8 16 8zM1.173 8a13.133 13.133 0 0 1 1.66-2.043C4.12 4.668 5.88 3.5 8 3.5c2.12 0 3.879 1.168 5.168 2.457A13.133 13.133 0 0 1 14.828 8c-.058.087-.122.183-.195.288-.335.48-.83 1.12-1.465 1.755C11.879 11.332 10.119 12.5 8 12.5c-2.12 0-3.879-1.168-5.168-2.457A13.134 13.134 0 0 1 1.172 8z"/>
            <path d="M8 5.5a2.5 2.5 0 1 0 0 5 2.5 2.5 0 0 0 0-5zM4.5 8a3.5 3.5 0 1 1 7 0 3.5 3.5 0 0 1-7 0z"/>
        </symbol>
        <symbol id="tick"  viewBox="0 0 24 24">
            <rect opacity="0.3" x="2" y="2" width="20" height="20" rx="10" fill="currentColor"></rect>
            <path d="M10.4343 12.4343L8.75 10.75C8.33579 10.3358 7.66421 10.3358 7.25 10.75C6.83579 11.1642 6.83579 11.8358 7.25 12.25L10.2929 15.2929C10.6834 15.6834 11.3166 15.6834 11.7071 15.2929L17.25 9.75C17.6642 9.33579 17.6642 8.66421 17.25 8.25C16.8358 7.83579 16.1642 7.83579 15.75 8.25L11.5657 12.4343C11.2533 12.7467 10.7467 12.7467 10.4343 12.4343Z" fill="currentColor"></path>
        </symbol>
        <symbol id="tick-disabled"  viewBox="0 0 24 24">
            <rect opacity="0.3" x="2" y="2" width="20" height="20" rx="10" fill="currentColor"></rect>
            <rect x="7" y="15.3137" width="12" height="2" rx="1" transform="rotate(-45 7 15.3137)" fill="currentColor"></rect>
            <rect x="8.41422" y="7" width="12" height="2" rx="1" transform="rotate(45 8.41422 7)" fill="currentColor"></rect>
        </symbol>
        <symbol id="test"  viewBox="0 0 24 24">
            <polygon points="6.41,6 5,7.41 9.58,12 5,16.59 6.41,18 12.41,12"/>
            <polygon points="13,6 11.59,7.41 16.17,12 11.59,16.59 13,18 19,12"/>
        </symbol>
    </defs>
</svg>