<svg xmlns="http://www.w3.org/2000/svg" width="0" height="0">
    <defs>
        <symbol id="general-settings" viewBox="0 0 32 32">
            <g id="Group_566" data-name="Group 566" transform="translate(-83.597 -69.35)">
                <rect id="Rectangle_535" data-name="Rectangle 535" width="32" height="32" transform="translate(83.597 69.35)" fill="none"/>
                <g id="Group_565" data-name="Group 565">
                    <g id="Group_563" data-name="Group 563">
                        <path id="Path_426" data-name="Path 426" d="M99.6,91.351a6,6,0,1,1,6-6A6.007,6.007,0,0,1,99.6,91.351Zm0-10a4,4,0,1,0,4,4A4,4,0,0,0,99.6,81.351Z"/>
                    </g>
                    <g id="Group_564" data-name="Group 564">
                        <path id="Path_427" data-name="Path 427" d="M101.6,100.817h-4.01a3.1,3.1,0,0,1-3-2.412l-.4-1.767a12.271,12.271,0,0,1-1.668-.969l-1.716.542a3.094,3.094,0,0,1-3.615-1.416L85.2,91.352a3.114,3.114,0,0,1,.568-3.8l1.347-1.239c-.024-.322-.036-.643-.036-.96s.012-.638.035-.96l-1.33-1.224a3.109,3.109,0,0,1-.6-3.794l2.017-3.49a3.093,3.093,0,0,1,3.59-1.4l1.729.547a12.09,12.09,0,0,1,1.667-.968l.4-1.774a3.093,3.093,0,0,1,3-2.4h4.01a3.1,3.1,0,0,1,3,2.412l.4,1.767a12.211,12.211,0,0,1,1.668.969l1.717-.542A3.1,3.1,0,0,1,112,75.906l1.992,3.444a3.114,3.114,0,0,1-.567,3.8l-1.348,1.239c.024.322.035.643.035.96s-.011.636-.035.96l1.348,1.237a3.1,3.1,0,0,1,.58,3.779l-2.017,3.489a3.079,3.079,0,0,1-3.594,1.4l-1.727-.546a12.339,12.339,0,0,1-1.667.97l-.4,1.772A3.092,3.092,0,0,1,101.6,100.817Zm-8.708-7.363.412.312a10.143,10.143,0,0,0,2.142,1.245l.473.2.62,2.758a1.085,1.085,0,0,0,1.051.848h4.01a1.093,1.093,0,0,0,1.047-.843l.622-2.763.472-.2a10.271,10.271,0,0,0,2.145-1.247l.411-.312,2.694.853a1.1,1.1,0,0,0,1.257-.477l2.018-3.49a1.1,1.1,0,0,0-.164-1.283l-.079-.078-2.038-1.872.056-.5a11.223,11.223,0,0,0,0-2.5l-.056-.5,2.076-1.908a1.111,1.111,0,0,0,.192-1.35L110.264,76.9a1.093,1.093,0,0,0-1.282-.5l-2.682.848-.412-.311a10.112,10.112,0,0,0-2.143-1.246l-.473-.2-.62-2.758a1.083,1.083,0,0,0-1.05-.848h-4.01a1.1,1.1,0,0,0-1.049.842l-.622,2.763-.473.2a10.105,10.105,0,0,0-2.142,1.246l-.412.311L90.2,76.394a1.09,1.09,0,0,0-1.256.478l-2.018,3.49a1.107,1.107,0,0,0,.221,1.34L89.205,83.6l-.056.5a11.527,11.527,0,0,0-.07,1.251A11.206,11.206,0,0,0,89.15,86.6l.057.5-2.077,1.91a1.112,1.112,0,0,0-.192,1.349l1.992,3.443a1.09,1.09,0,0,0,1.278.5Z"/>
                    </g>
                </g>
            </g>
        </symbol>
        <symbol id="plugins" viewBox="0 0 32 32">
            <g id="Group_533" data-name="Group 533" transform="translate(-166.258 -42.881)">
                <rect id="Rectangle_516" data-name="Rectangle 516" width="32" height="32" transform="translate(166.258 42.882)" fill="none"/>
                <path id="Path_400" data-name="Path 400" d="M182.258,43.382a15.5,15.5,0,0,0,0,31,1,1,0,0,0,1-1V68.366a7.006,7.006,0,0,0,6-6.92v-7h-2.871V49.575a1,1,0,0,0-2,0v4.871H179.9V49.575a1,1,0,0,0-2,0v4.871h-2.645v7a7.006,7.006,0,0,0,6,6.92v3.979a13.5,13.5,0,1,1,14.5-13.463,1,1,0,0,0,2,0A15.517,15.517,0,0,0,182.258,43.382Zm-5,18.064v-5h10v5a5,5,0,0,1-10,0Z"/>
            </g>
        </symbol>
        <symbol id="labels" viewBox="0 0 32 32.001">
            <svg xmlns="http://www.w3.org/2000/svg" width="32" height="32.001" viewBox="0 0 32 32.001">
                <g id="Group_541" data-name="Group 541" transform="translate(-275.468 -39.323)">
                    <rect id="Rectangle_520" data-name="Rectangle 520" width="32" height="32" transform="translate(275.468 39.323)" fill="none"/>
                    <g id="Group_540" data-name="Group 540">
                        <path id="Path_406" data-name="Path 406" d="M301.78,71.323a1,1,0,0,1-.613-.21l-9.7-7.524-9.7,7.524a1,1,0,0,1-1.614-.79v-30a1,1,0,0,1,1-1H301.78a1,1,0,0,1,1,1v30a1,1,0,0,1-1,1Zm-10.312-10a1.006,1.006,0,0,1,.613.21l8.7,6.749V41.323H282.155V68.282l8.7-6.749A1.009,1.009,0,0,1,291.468,61.323Z"/>
                    </g>
                </g>
            </svg>
        </symbol>
        <symbol id="theme" viewBox="0 0 32 32.001">
            <g id="Group_536" data-name="Group 536" transform="translate(-164.758 -46.322)">
                <rect id="Rectangle_518" data-name="Rectangle 518" width="32" height="32" transform="translate(164.758 46.323)" fill="none"/>
                <path id="Path_403" data-name="Path 403" d="M193.887,51.322h-3.866v-3.5a1.5,1.5,0,0,0-1.5-1.5H172.854a1.5,1.5,0,0,0-1.5,1.5v9a1.5,1.5,0,0,0,1.5,1.5h15.667a1.5,1.5,0,0,0,1.5-1.5v-3.5h2.866v8h-12.2a1,1,0,0,0-1,1v4h-1a1.5,1.5,0,0,0-1.5,1.5v9a1.5,1.5,0,0,0,1.5,1.5h4a1.5,1.5,0,0,0,1.5-1.5v-9a1.5,1.5,0,0,0-1.5-1.5h-1v-3h12.2a1,1,0,0,0,1-1v-10A1,1,0,0,0,193.887,51.322Zm-5.866,5H173.354v-8h14.667Zm-5.834,20h-3v-8h3Z"/>
            </g>
        </symbol>
        <symbol id="currencies" viewBox="0 0 32 32">
            <g id="Group_535" data-name="Group 535" transform="translate(-182.258 -29.479)">
                <rect id="Rectangle_517" data-name="Rectangle 517" width="32" height="32" transform="translate(182.258 29.479)" fill="none"/>
                <g id="Group_534" data-name="Group 534">
                    <path id="Path_401" data-name="Path 401" d="M198.258,61.479a16,16,0,1,1,16-16A16.019,16.019,0,0,1,198.258,61.479Zm0-30a14,14,0,1,0,14,14A14.015,14.015,0,0,0,198.258,31.479Z"/>
                </g>
                <path id="Path_402" data-name="Path 402" d="M198.258,44.479a2,2,0,0,1-.357-3.964h.714a2,2,0,0,1,1.643,1.964h2a4,4,0,0,0-3-3.859v-3.1h-2v3.1a3.992,3.992,0,0,0,1,7.859,2,2,0,1,1-2,2h-2a4,4,0,0,0,3,3.858v3.189h2V52.337a3.992,3.992,0,0,0-1-7.858Z"/>
            </g>
        </symbol>
        <symbol id="site-commission" viewBox="0 0 32 32">
            <g id="Group_553" data-name="Group 553" transform="translate(66.578 -50.375)">
                <rect id="Rectangle_525" data-name="Rectangle 525" width="32" height="32" transform="translate(-66.578 50.375)" fill="none"/>
                <g id="Group_551" data-name="Group 551">
                    <path id="Path_414" data-name="Path 414" d="M-50.578,81.946a15.517,15.517,0,0,1-15.5-15.5,15.517,15.517,0,0,1,15.5-15.5,15.517,15.517,0,0,1,15.5,15.5A15.517,15.517,0,0,1-50.578,81.946Zm0-29a13.516,13.516,0,0,0-13.5,13.5,13.515,13.515,0,0,0,13.5,13.5,13.515,13.515,0,0,0,13.5-13.5A13.515,13.515,0,0,0-50.578,52.946Z"/>
                </g>
                <rect id="Rectangle_526" data-name="Rectangle 526" width="4" height="4" rx="2" transform="translate(-54.82 59.376) rotate(45)"/>
                <rect id="Rectangle_527" data-name="Rectangle 527" width="4" height="4" rx="2" transform="translate(-46.335 67.861) rotate(45)"/>
                <g id="Group_552" data-name="Group 552">
                    <path id="Path_415" data-name="Path 415" d="M-56.234,73.1a1,1,0,0,1-.707-.293,1,1,0,0,1,0-1.415l11.313-11.313a1,1,0,0,1,1.414,0,1,1,0,0,1,0,1.414L-55.527,72.811A1,1,0,0,1-56.234,73.1Z"/>
                </g>
            </g>
        </symbol>
        <symbol id="affiliate-commision" viewBox="0 0 32 32">
            <g id="Group_555" data-name="Group 555" transform="translate(-101.452 -75.993)">
                <rect id="Rectangle_528" data-name="Rectangle 528" width="32" height="32" transform="translate(101.452 75.993)" fill="none"/>
                <rect id="Rectangle_529" data-name="Rectangle 529" width="2" height="2" rx="1" transform="translate(123.288 96.447) rotate(45)"/>
                <rect id="Rectangle_530" data-name="Rectangle 530" width="2" height="2" rx="1" transform="translate(127.531 100.69) rotate(45)"/>
                <g id="Group_554" data-name="Group 554">
                    <path id="Path_416" data-name="Path 416" d="M124.75,83.658a7.591,7.591,0,1,0-12.079,6.108c-10.016,2.47-11.213,13.254-11.213,18.227h2c0-6.253,1.78-16.744,13.7-16.744A7.6,7.6,0,0,0,124.75,83.658Zm-7.59,5.591a5.59,5.59,0,1,1,5.59-5.591A5.6,5.6,0,0,1,117.16,89.249Z"/>
                    <path id="Path_417" data-name="Path 417" d="M125.451,91.993a8,8,0,1,0,8,8A8.009,8.009,0,0,0,125.451,91.993Zm0,14a6,6,0,1,1,6-6A6.007,6.007,0,0,1,125.451,105.993Z"/>
                    <path id="Path_418" data-name="Path 418" d="M126.869,97.092l-4.242,4.243a1,1,0,1,0,1.414,1.414l4.242-4.243a1,1,0,0,0-1.414-1.414Z"/>
                </g>
            </g>
        </symbol>
        <symbol id="subscriptions-packages" viewBox="0 0 32.001 32">
            <g id="Group_560" data-name="Group 560" transform="translate(-281.548 -119.588)">
                <g id="Group_559" data-name="Group 559">
                    <rect id="Rectangle_533" data-name="Rectangle 533" width="32" height="32" transform="translate(281.548 119.588)" fill="none"/>
                </g>
                <path id="Path_423" data-name="Path 423" d="M313.549,125.588h-7v-5h-18v5h-7v20h7v5h18v-5h7Zm-30,18v-16h5v16Zm21,5h-14v-26h14v26Zm7-5h-5v-16h5Z"/>
            </g>
        </symbol>
        <symbol id="zones" viewBox="0 0 32 32.001">
            <g id="Group_546" data-name="Group 546" transform="translate(-360.296 -63.241)">
                <rect id="Rectangle_521" data-name="Rectangle 521" width="32" height="32" transform="translate(360.296 63.241)" fill="none"/>
                <g id="Group_544" data-name="Group 544">
                    <g id="Group_542" data-name="Group 542">
                        <path id="Path_407" data-name="Path 407" d="M376.394,91.241a1.817,1.817,0,0,1-1.205-.458c-.389-.345-9.545-8.549-9.545-16.721a10.75,10.75,0,1,1,21.5,0c0,8.148-9.157,16.376-9.546,16.722A1.819,1.819,0,0,1,376.394,91.241Zm0-26a8.8,8.8,0,0,0-8.75,8.821c0,6.81,7.681,14.129,8.75,15.114,1.062-.983,8.75-8.323,8.75-15.114A8.8,8.8,0,0,0,376.394,65.241Z"/>
                    </g>
                    <g id="Group_543" data-name="Group 543">
                        <path id="Path_408" data-name="Path 408" d="M376.363,78.935a4.586,4.586,0,1,1,4.587-4.586A4.592,4.592,0,0,1,376.363,78.935Zm0-7.172a2.586,2.586,0,1,0,2.587,2.586A2.589,2.589,0,0,0,376.363,71.763Z"/>
                    </g>
                </g>
                <g id="Group_545" data-name="Group 545">
                    <rect id="Rectangle_522" data-name="Rectangle 522" width="16" height="2" transform="translate(368.394 93.242)"/>
                </g>
            </g>
        </symbol>
        <symbol id="countries" viewBox="0 0 32.001 32.001">
            <g id="Group_556" data-name="Group 556" transform="translate(-177.758 -50.375)">
                <rect id="Rectangle_531" data-name="Rectangle 531" width="32" height="32" transform="translate(177.758 50.375)" fill="none"/>
                <path id="Path_419" data-name="Path 419" d="M208.077,64.648a1.682,1.682,0,0,0,1.682-1.679V60.241a1.69,1.69,0,0,0-.823-1.445l-13.267-7.874-.114-.071a3.673,3.673,0,0,0-3.637.023L178.581,58.8a1.688,1.688,0,0,0-.822,1.445v2.728a1.682,1.682,0,0,0,1.681,1.679h3.319V74.922h-1.273a3.731,3.731,0,0,0-3.727,3.726v2.045a1.684,1.684,0,0,0,1.681,1.683h28.637a1.684,1.684,0,0,0,1.682-1.683V78.648a3.731,3.731,0,0,0-3.728-3.726h-1.272V64.648Zm-28.318-4.226,13.152-7.813a1.634,1.634,0,0,1,1.666-.014l13.182,7.828v2.225h-28Zm10,14.5V64.648h8V74.922Zm-5-10.274h3V74.922h-3Zm23,14v1.728h-28V78.648a1.728,1.728,0,0,1,1.727-1.726h24.545A1.729,1.729,0,0,1,207.759,78.648Zm-5-3.726h-3V64.648h3Z"/>
            </g>
        </symbol>
        <symbol id="states" viewBox="0 0 32 32">
            <rect id="Rectangle_534" data-name="Rectangle 534" width="32" height="32" fill="none"/>
            <g id="Group_561" data-name="Group 561">
                <path id="Path_424" data-name="Path 424" d="M24.97,6.981a6.909,6.909,0,0,0-1.894.272A9.225,9.225,0,0,0,8.93,7.245a6.93,6.93,0,0,0-1.894-.264A7.044,7.044,0,0,0,.021,14.039c0,5.107,5.4,10.053,6.017,10.6a1.5,1.5,0,0,0,2,0,25.6,25.6,0,0,0,2.185-2.283,34.513,34.513,0,0,0,4.651,5.272,1.691,1.691,0,0,0,2.25,0,34,34,0,0,0,4.666-5.259,24.428,24.428,0,0,0,2.181,2.273,1.5,1.5,0,0,0,2,0c.616-.549,6.015-5.506,6.015-10.6A7.043,7.043,0,0,0,24.97,6.981Zm.309,6.089a1.19,1.19,0,0,1-.224,2.337A10.682,10.682,0,0,0,25.29,13.3C25.29,13.22,25.281,13.146,25.279,13.07ZM7.037,22.835c-1.164-1.124-5.016-5.122-5.016-8.8A5.043,5.043,0,0,1,7.036,8.981a4.937,4.937,0,0,1,.7.066A9.331,9.331,0,0,0,7,11.005a3.212,3.212,0,0,0,.015,6.423,3.206,3.206,0,0,0,.491-.052A19.489,19.489,0,0,0,9.075,20.6,24.647,24.647,0,0,1,7.037,22.835Zm-.085-7.42a1.192,1.192,0,0,1-.231-2.351c0,.078-.012.154-.012.232A10.5,10.5,0,0,0,6.952,15.415ZM16,25.944C14.8,24.817,8.709,18.827,8.709,13.3a7.291,7.291,0,1,1,14.581,0C23.29,18.883,17.228,24.8,16,25.944Zm8.972-3.1a24.257,24.257,0,0,1-2.032-2.219A19.217,19.217,0,0,0,24.5,17.369a3.069,3.069,0,0,0,.448.059A3.21,3.21,0,0,0,25,11.009a9.324,9.324,0,0,0-.737-1.971,4.927,4.927,0,0,1,.71-.057,5.041,5.041,0,0,1,5.013,5.058C29.983,17.28,26.872,21.044,24.973,22.839Z"/>
                <path id="Path_425" data-name="Path 425" d="M15.975,9.491a4.05,4.05,0,1,0,4.049,4.05A4.054,4.054,0,0,0,15.975,9.491Zm0,6.1a2.05,2.05,0,1,1,2.049-2.049A2.052,2.052,0,0,1,15.975,15.59Z"/>
            </g>
        </symbol>
        <symbol id="abusive-keywords" viewBox="0 0 32 32">
            <g id="Group_548" data-name="Group 548" transform="translate(59.072 -107.44)">
                <rect id="Rectangle_523" data-name="Rectangle 523" width="32" height="32" transform="translate(-59.072 107.44)" fill="none"/>
                <path id="Path_409" data-name="Path 409" d="M-27.143,137.948l-8.456-8.455a13.162,13.162,0,0,0,3.2-8.6,13.242,13.242,0,0,0-13.227-13.227A13.242,13.242,0,0,0-58.85,120.889a13.241,13.241,0,0,0,13.226,13.226,13.157,13.157,0,0,0,8.611-3.208l8.456,8.455Zm-18.481-5.833A11.239,11.239,0,0,1-56.85,120.889a11.239,11.239,0,0,1,11.226-11.227A11.24,11.24,0,0,1-34.4,120.889,11.24,11.24,0,0,1-45.624,132.115Z"/>
                <g id="Group_547" data-name="Group 547">
                    <path id="Path_410" data-name="Path 410" d="M-42.005,125.973h-1.84l-2.077-7.993-1.959,7.993H-49.7l-2.947-10.168h1.78l2.1,7.913,1.938-7.913h1.979l2,7.913,2.018-7.913h1.819Z"/>
                </g>
            </g>
        </symbol>
        <symbol id="empty-cart" viewBox="0 0 32.001 32">
            <g id="Group_558" data-name="Group 558" transform="translate(-122.548 -63.536)">
                <rect id="Rectangle_532" data-name="Rectangle 532" width="32" height="32" transform="translate(122.548 63.536)" fill="none"/>
                <g id="Group_557" data-name="Group 557">
                    <path id="Path_420" data-name="Path 420" d="M154.335,68a1,1,0,0,0-.786-.382H129.865l-.543-2.417a1,1,0,0,0-.975-.781h-4.8a1,1,0,0,0,0,2h4l1.06,4.721,2.205,9.818v0l1.105,4.921a1,1,0,0,0,.976.781H150.55a1,1,0,0,0,0-2H133.693l-.656-2.924h17.575a1,1,0,0,0,.972-.764l2.937-12.123A1,1,0,0,0,154.335,68Zm-4.51,11.74H132.588L130.314,69.62h21.963Z"/>
                    <path id="Path_421" data-name="Path 421" d="M136.607,87.983a3.333,3.333,0,1,0,3.334,3.334A3.339,3.339,0,0,0,136.607,87.983Zm0,4.667a1.334,1.334,0,1,1,1.334-1.333A1.335,1.335,0,0,1,136.607,92.65Z"/>
                    <path id="Path_422" data-name="Path 422" d="M148.216,87.983a3.333,3.333,0,1,0,3.334,3.334A3.337,3.337,0,0,0,148.216,87.983Zm0,4.667a1.334,1.334,0,1,1,1.334-1.333A1.333,1.333,0,0,1,148.216,92.65Z"/>
                </g>
            </g>
        </symbol>
        <symbol id="shop-reports" viewBox="0 0 24 24">
            <g transform="translate(-87.936 -112.044)">
                <path d="M102.935,112.044h-12v24h18v-18Zm0,1.415,4.585,4.585h-4.585Zm-11,21.585v-22h10v6h6v16Z"/>
                <rect width="7" height="1" transform="translate(93.936 121.043)"/>
                <rect width="9" height="1" transform="translate(93.936 125.043)"/>
                <rect width="11" height="1" transform="translate(93.94 129.043)"/>
            </g>
        </symbol>
        <symbol id="general" viewBox="0 0 16 16">
            <rect id="Rectangle_403" data-name="Rectangle 403" width="16" height="16" fill="none"/>
            <g id="Group_445" data-name="Group 445">
                <g id="Group_443" data-name="Group 443">
                    <path id="Path_336" data-name="Path 336" d="M8,11.25A3.25,3.25,0,1,1,11.25,8,3.254,3.254,0,0,1,8,11.25Zm0-5A1.75,1.75,0,1,0,9.75,8,1.752,1.752,0,0,0,8,6.25Z"/>
                </g>
                <g id="Group_444" data-name="Group 444">
                    <path id="Path_337" data-name="Path 337" d="M9,15.983H7a1.8,1.8,0,0,1-1.746-1.4l-.172-.766a6.471,6.471,0,0,1-.657-.381l-.744.234a1.8,1.8,0,0,1-2.1-.824L.585,11.126A1.809,1.809,0,0,1,.914,8.917l.588-.54C1.5,8.25,1.491,8.125,1.491,8s0-.25.01-.376L.924,7.092a1.8,1.8,0,0,1-.347-2.2l1.01-1.748a1.8,1.8,0,0,1,2.085-.812l.751.237a6.2,6.2,0,0,1,.657-.382l.173-.769A1.8,1.8,0,0,1,7,.017H9a1.8,1.8,0,0,1,1.746,1.4l.172.766a6.246,6.246,0,0,1,.656.381l.744-.235a1.807,1.807,0,0,1,2.1.824l.995,1.72a1.809,1.809,0,0,1-.328,2.207l-.59.542c.007.126.011.252.011.376s0,.25-.011.376l.59.541a1.8,1.8,0,0,1,.336,2.193l-1.011,1.748a1.787,1.787,0,0,1-2.088.811l-.748-.236a6.26,6.26,0,0,1-.657.381l-.173.77A1.8,1.8,0,0,1,9,15.983ZM4.7,11.774,5,12.008a4.859,4.859,0,0,0,1.018.592l.355.149.339,1.505A.294.294,0,0,0,7,14.483H9a.294.294,0,0,0,.28-.224l.339-1.509.355-.15a4.824,4.824,0,0,0,1.017-.592l.31-.235,1.469.465a.294.294,0,0,0,.335-.121l1.012-1.749a.3.3,0,0,0-.039-.336L12.935,8.977l.04-.375a5.507,5.507,0,0,0,0-1.2l-.04-.375,1.129-1.039a.3.3,0,0,0,.047-.368L13.116,3.9a.3.3,0,0,0-.35-.134L11.3,4.226l-.309-.234A4.8,4.8,0,0,0,9.977,3.4l-.355-.15-.338-1.5A.294.294,0,0,0,9,1.517H7a.3.3,0,0,0-.281.224L6.377,3.25,6.023,3.4a4.82,4.82,0,0,0-1.018.592L4.7,4.225l-1.47-.464a.293.293,0,0,0-.335.122L1.881,5.631a.3.3,0,0,0,.065.363l1.119,1.03L3.024,7.4a5.566,5.566,0,0,0-.033.6,5.29,5.29,0,0,0,.034.6l.041.378-1.13,1.04a.3.3,0,0,0-.047.368L2.883,12.1a.3.3,0,0,0,.348.135Z"/>
                </g>
            </g>
        </symbol>
        <symbol id="local"  viewBox="0 0 16 16">
            <rect id="Rectangle_499" data-name="Rectangle 499" width="16" height="16" fill="none"/>
            <g id="Group_527" data-name="Group 527">
                <path id="Path_397" data-name="Path 397" d="M10.587,15.328H5.414A3.016,3.016,0,0,1,2.946,13.9L.359,9.425a3.021,3.021,0,0,1,0-2.849L2.946,2.1A3.019,3.019,0,0,1,5.414.671h5.173A3.017,3.017,0,0,1,13.055,2.1l2.586,4.478a3.029,3.029,0,0,1,0,2.849L13.054,13.9A3.013,3.013,0,0,1,10.587,15.328ZM5.414,2.171a1.543,1.543,0,0,0-1.169.675L1.658,7.325a1.519,1.519,0,0,0,0,1.35l2.587,4.478a1.539,1.539,0,0,0,1.169.675h5.173a1.558,1.558,0,0,0,1.167-.674l2.588-4.479a1.522,1.522,0,0,0,0-1.35L11.755,2.846a1.537,1.537,0,0,0-1.168-.675Z"/>
            </g>
            <g id="Group_528" data-name="Group 528">
                <path id="Path_398" data-name="Path 398" d="M8,11.75A3.75,3.75,0,1,1,11.75,8,3.755,3.755,0,0,1,8,11.75Zm0-6A2.25,2.25,0,1,0,10.25,8,2.252,2.252,0,0,0,8,5.75Z"/>
            </g>
        </symbol>
        <symbol id="seo" viewBox="0 0 16 16">
            <rect id="Rectangle_608" data-name="Rectangle 608" width="16" height="16" fill="none"/>
            <g id="Group_608" data-name="Group 608">
                <path id="Path_432" data-name="Path 432" d="M13.75,0H2.25A2.252,2.252,0,0,0,0,2.25v11.5A2.253,2.253,0,0,0,2.25,16h11.5A2.253,2.253,0,0,0,16,13.75V2.25A2.253,2.253,0,0,0,13.75,0ZM2.25,1.5h11.5a.751.751,0,0,1,.75.75v2H1.5v-2A.75.75,0,0,1,2.25,1.5Zm11.5,13H2.25a.751.751,0,0,1-.75-.75v-8h13v8A.752.752,0,0,1,13.75,14.5Z"/>
                <path id="Path_433" data-name="Path 433" d="M8.334,10.889,6.389,8.943,3.508,11.824l1.061,1.061,1.82-1.82L8.334,13.01l4.158-4.157L11.432,7.792Z"/>
            </g>
        </symbol>
        <symbol id="user-account"   viewBox="0 0 16 16.021">
            <rect id="Rectangle_411" data-name="Rectangle 411" width="16" height="16" fill="none"/>
            <g id="Group_456" data-name="Group 456">
                <g id="Group_455" data-name="Group 455">
                    <g id="Group_454" data-name="Group 454">
                        <path id="Path_343" data-name="Path 343" d="M14.675,16.021H1.325A1.27,1.27,0,0,1,.008,14.809c0-3.7,2.913-5.817,7.992-5.817s7.992,2.12,7.992,5.817A1.27,1.27,0,0,1,14.675,16.021Zm-13.159-1.5H14.484C14.3,11.2,10.88,10.492,8,10.492S1.7,11.2,1.516,14.521Z"/>
                    </g>
                </g>
            </g>
            <g id="Group_459" data-name="Group 459">
                <g id="Group_458" data-name="Group 458">
                    <g id="Group_457" data-name="Group 457">
                        <path id="Path_344" data-name="Path 344" d="M8,8.131A4.033,4.033,0,0,1,4.112,3.975,3.834,3.834,0,0,1,8,.024a3.834,3.834,0,0,1,3.888,3.952A4.033,4.033,0,0,1,8,8.131ZM8,1.524A2.341,2.341,0,0,0,5.612,3.975,2.535,2.535,0,0,0,8,6.631a2.536,2.536,0,0,0,2.388-2.655A2.341,2.341,0,0,0,8,1.524Z"/>
                    </g>
                </g>
            </g>
        </symbol>
        <symbol id="product" viewBox="0 0 16 16">
            <rect id="Rectangle_402" data-name="Rectangle 402" width="16" height="16" fill="none"/>
            <path id="Path_334" data-name="Path 334" d="M11.25,0H0V16H16V0ZM9.75,1.5V5H6.25V1.5Zm4.75,13H1.5V1.5H4.75v5h6.5v-5H14.5Z"/>
        </symbol>
        <symbol id="cart-wishlist" viewBox="0 0 16 16">
            <rect id="Rectangle_443" data-name="Rectangle 443" width="16" height="16" fill="none"/>
            <g id="Group_478" data-name="Group 478">
                <g id="Group_477" data-name="Group 477">
                    <g id="Group_476" data-name="Group 476">
                        <path id="Path_361" data-name="Path 361" d="M8,15.121a1.171,1.171,0,0,1-.773-.29h0c-.631-.552-1.233-1.063-1.8-1.545C2.276,10.607,0,8.672,0,5.777A4.707,4.707,0,0,1,4.6.878,4.283,4.283,0,0,1,8,2.558,4.285,4.285,0,0,1,11.4.878a4.707,4.707,0,0,1,4.6,4.9c0,2.894-2.274,4.828-5.423,7.5-.568.483-1.171,1-1.8,1.549A1.172,1.172,0,0,1,8,15.121ZM8.213,13.7h0ZM4.6,2.378a3.188,3.188,0,0,0-3.1,3.4c0,2.2,1.949,3.859,4.9,6.367.507.43,1.042.885,1.6,1.372.561-.489,1.1-.945,1.6-1.376,2.948-2.507,4.9-4.162,4.9-6.363a3.188,3.188,0,0,0-3.1-3.4A3.13,3.13,0,0,0,8.664,4.271L8,5.534,7.336,4.271A3.13,3.13,0,0,0,4.6,2.378Z"/>
                    </g>
                </g>
            </g>
        </symbol>
        <symbol id="checkout-process" viewBox="0 0 16 16.004">
            <rect id="Rectangle_444" data-name="Rectangle 444" width="16" height="16" fill="none"/>
            <path id="Path_362" data-name="Path 362" d="M10.121,6.737l-3,3.006L5.878,8.5,4.818,9.565l2.3,2.3L11.182,7.8Z"/>
            <path id="Path_363" data-name="Path 363" d="M13.672,4.45A1.153,1.153,0,0,0,12.53,3.4H11.354V3.362a3.354,3.354,0,1,0-6.708,0V3.4H3.469a1.136,1.136,0,0,0-1.14,1.041l-.822,8.787-.007.111A2.8,2.8,0,0,0,4.407,16h7.187A2.8,2.8,0,0,0,14.5,13.342ZM6.146,3.362a1.854,1.854,0,1,1,3.708,0V3.4H6.146ZM11.594,14.5H4.407A1.3,1.3,0,0,1,3,13.377L3.792,4.9h8.416L13,13.369A1.312,1.312,0,0,1,11.594,14.5Z"/>
        </symbol>
        <symbol id="commission" viewBox="0 0 16 16">
            <rect id="Rectangle_413" data-name="Rectangle 413" width="16" height="16" fill="none"/>
            <path id="Path_347" data-name="Path 347" d="M13.657,2.343a8,8,0,1,0,0,11.314A7.948,7.948,0,0,0,13.657,2.343ZM12.6,12.6a6.5,6.5,0,1,1,0-9.193A6.511,6.511,0,0,1,12.6,12.6Z"/>
            <rect id="Rectangle_414" data-name="Rectangle 414" width="1.5" height="8" rx="0.75" transform="matrix(0.707, 0.707, -0.707, 0.707, 10.298, 4.641)"/>
            <rect id="Rectangle_415" data-name="Rectangle 415" width="2" height="2" rx="1" transform="translate(5.879 4.464) rotate(45)"/>
            <rect id="Rectangle_416" data-name="Rectangle 416" width="2" height="2" rx="1" transform="translate(10.121 8.707) rotate(45)"/>
        </symbol>
        <symbol id="discount" viewBox="0 0 16 16">
            <rect id="Rectangle_413" data-name="Rectangle 413" width="16" height="16" fill="none"/>
            <path id="Path_347" data-name="Path 347" d="M13.657,2.343a8,8,0,1,0,0,11.314A7.948,7.948,0,0,0,13.657,2.343ZM12.6,12.6a6.5,6.5,0,1,1,0-9.193A6.511,6.511,0,0,1,12.6,12.6Z"/>
            <rect id="Rectangle_414" data-name="Rectangle 414" width="1.5" height="8" rx="0.75" transform="matrix(0.707, 0.707, -0.707, 0.707, 10.298, 4.641)"/>
            <rect id="Rectangle_415" data-name="Rectangle 415" width="2" height="2" rx="1" transform="translate(5.879 4.464) rotate(45)"/>
            <rect id="Rectangle_416" data-name="Rectangle 416" width="2" height="2" rx="1" transform="translate(10.121 8.707) rotate(45)"/>
        </symbol>
        <symbol id="reward-points" viewBox="0 0 16 16">
            <rect id="Rectangle_445" data-name="Rectangle 445" width="16" height="16" fill="none"/>
            <g id="Group_481" data-name="Group 481">
                <path id="Path_364" data-name="Path 364" d="M8,16a8,8,0,1,1,8-8A8.009,8.009,0,0,1,8,16ZM8,1.5A6.5,6.5,0,1,0,14.5,8,6.508,6.508,0,0,0,8,1.5Z"/>
            </g>
            <g id="Group_482" data-name="Group 482">
                <path id="Path_365" data-name="Path 365" d="M10.21,12.584a1.17,1.17,0,0,1-.606-.17L8,11.456l-1.606.96a1.2,1.2,0,0,1-1.3-.061,1.166,1.166,0,0,1-.452-1.208l.416-1.832L3.65,8.08a1.177,1.177,0,0,1,.668-2.056l1.865-.169.736-1.724a1.176,1.176,0,0,1,2.162,0l.736,1.725,1.864.169a1.172,1.172,0,0,1,1.011.808h0a1.177,1.177,0,0,1-.342,1.247L10.939,9.315l.416,1.832a1.178,1.178,0,0,1-1.145,1.437Zm-.317-1.1v0Zm-4.269-.35-.005,0Zm4.75,0,0,0ZM5.208,7.45,6.721,8.776l-.446,1.963L8,9.708l1.725,1.031L9.279,8.776,10.792,7.45l-2-.181L8,5.418,7.21,7.269Z"/>
            </g>
        </symbol>
        <symbol id="affiliate" viewBox="0 0 16 16">
            <rect id="Rectangle_606" data-name="Rectangle 606" width="16" height="16" fill="none"/>
            <path id="Path_429" data-name="Path 429" d="M8,0A3.988,3.988,0,0,0,5.277,6.913C1.929,8,0,11.228,0,16H1.5c0-2.987.844-8,6.5-8A4,4,0,0,0,8,0ZM8,6.5A2.5,2.5,0,1,1,10.5,4,2.5,2.5,0,0,1,8,6.5Z"/>
            <path id="Path_430" data-name="Path 430" d="M15.936,11.25h-3.25V8h-1.5v3.25H7.936v1.5h3.25V16h1.5V12.75h3.25Z"/>
        </symbol>
        <symbol id="reviews" viewBox="0 0 16 16">
            <rect id="Rectangle_442" data-name="Rectangle 442" width="16" height="16" fill="none"/>
            <g id="Group_473" data-name="Group 473">
                <path id="Path_359" data-name="Path 359" d="M6.635,2.047H1.175A1.176,1.176,0,0,0,0,3.222V8.683A1.176,1.176,0,0,0,1.175,9.857H2.73v2.92A1.176,1.176,0,0,0,3.9,13.952H5.27a1.172,1.172,0,0,0,1.114-.8l1.367-4.1a1.173,1.173,0,0,0,.059-.366V3.222A1.176,1.176,0,0,0,6.635,2.047ZM6.31,8.631,5.036,12.452H4.23V8.357H1.5V3.547H6.31Z"/>
                <path id="Path_360" data-name="Path 360" d="M14.825,2.047H9.365A1.176,1.176,0,0,0,8.19,3.222V8.683A1.176,1.176,0,0,0,9.365,9.857H10.92v2.92A1.176,1.176,0,0,0,12.1,13.952H13.46a1.172,1.172,0,0,0,1.115-.8l1.369-4.107A1.2,1.2,0,0,0,16,8.683V3.222A1.176,1.176,0,0,0,14.825,2.047ZM14.5,8.631l-1.274,3.821H12.42V8.357H9.69V3.547H14.5Z"/>
            </g>
        </symbol>
        <symbol id="third-party-api" viewBox="0 0 16 16">
            <rect id="Rectangle_491" data-name="Rectangle 491" width="16" height="16" fill="none"/>
            <path id="Path_396" data-name="Path 396" d="M8,0A8,8,0,0,0,8,16a.75.75,0,0,0,.75-.75V12.956a3.756,3.756,0,0,0,3-3.674V5.532H10.314V3.347h-1.5V5.532H7.073V3.347h-1.5V5.532H4.25v3.75a3.755,3.755,0,0,0,3,3.674v1.5A6.5,6.5,0,1,1,14.5,8H16A8.009,8.009,0,0,0,8,0ZM5.75,9.282V7.032h4.5v2.25a2.25,2.25,0,1,1-4.5,0Z"/>
        </symbol>
        <symbol id="email" viewBox="0 0 16 16">
            <rect id="Rectangle_433" data-name="Rectangle 433" width="16" height="16" fill="none"/>
            <path id="Path_354" data-name="Path 354" d="M13.551,1.926H2.449A2.452,2.452,0,0,0,0,4.375v7.25a2.452,2.452,0,0,0,2.449,2.449h11.1A2.452,2.452,0,0,0,16,11.625V4.375A2.452,2.452,0,0,0,13.551,1.926Zm0,1.5a.934.934,0,0,1,.374.078L8,7.912,2.075,3.5a.934.934,0,0,1,.374-.078Zm0,9.148H2.449a.95.95,0,0,1-.949-.949V4.946L8,9.781l6.5-4.836v6.68A.95.95,0,0,1,13.551,12.574Z"/>
        </symbol>
        <symbol id="media" viewBox="0 0 16 16">
            <rect id="Rectangle_432" data-name="Rectangle 432" width="16" height="16" fill="none"/>
            <g id="Group_466" data-name="Group 466">
                <path id="Path_352" data-name="Path 352" d="M13.891,16H2.109A2.111,2.111,0,0,1,0,13.891V2.109A2.111,2.111,0,0,1,2.109,0H13.891A2.111,2.111,0,0,1,16,2.109V13.891A2.111,2.111,0,0,1,13.891,16ZM2.109,1.5a.609.609,0,0,0-.609.609V13.891a.609.609,0,0,0,.609.609H13.891a.609.609,0,0,0,.609-.609V2.109a.609.609,0,0,0-.609-.609Z"/>
            </g>
            <path id="Path_353" data-name="Path 353" d="M10.855,8.645a.5.5,0,0,0-.7,0L9,9.8,6.855,7.65a.5.5,0,0,0-.7,0l-3.5,3.5A.5.5,0,0,0,3,12H13a.5.5,0,0,0,.355-.855Z"/>
            <circle id="Ellipse_23" data-name="Ellipse 23" cx="1.5" cy="1.5" r="1.5" transform="translate(8 4)"/>
        </symbol>
        <symbol id="subscription" viewBox="0 0 16 16">
            <rect id="Rectangle_490" data-name="Rectangle 490" width="16" height="16" fill="none"/>
            <g id="Group_524" data-name="Group 524">
                <path id="Path_394" data-name="Path 394" d="M16,9.748H12.646v-1.5H14.5V2.686H1.5V8.248H7v1.5H0V1.186H16Z"/>
            </g>
            <path id="Path_395" data-name="Path 395" d="M14,14.064l-4-2-4,2,3.854-8Z"/>
        </symbol>
        <symbol id="referal" viewBox="0 0 16 16">
            <rect id="Rectangle_488" data-name="Rectangle 488" width="16" height="16" fill="none"/>
            <g id="Group_521" data-name="Group 521">
                <path id="Path_390" data-name="Path 390" d="M12,4A4,4,0,1,0,5.277,6.913C1.929,8,0,11.228,0,16H1.5c0-2.987.844-8,6.5-8A4,4,0,0,0,12,4ZM5.5,4A2.5,2.5,0,1,1,8,6.5,2.5,2.5,0,0,1,5.5,4Z"/>
                <path id="Path_391" data-name="Path 391" d="M12.3,7.909,11.237,8.97l1.9,1.9H8.661a2.753,2.753,0,0,0-2.75,2.75V16h1.5V13.621a1.251,1.251,0,0,1,1.25-1.25h4.478l-1.9,1.9L12.3,15.334l3.712-3.713Z"/>
            </g>
        </symbol>
        <symbol id="sharing" viewBox="0 0 16 16">
            <rect id="Rectangle_441" data-name="Rectangle 441" width="16" height="16" fill="none"/>
            <path id="Path_357" data-name="Path 357" d="M13,3" fill="none" stroke="#000" stroke-miterlimit="10" stroke-width="1.5"/>
            <path id="Path_358" data-name="Path 358" d="M13,10a2.981,2.981,0,0,0-2.25,1.037L5.932,8.628A3.021,3.021,0,0,0,6,8a2.934,2.934,0,0,0-.162-.927l4.709-2.355A2.993,2.993,0,1,0,10,3a2.958,2.958,0,0,0,.03.3l-5,2.5A3,3,0,1,0,5.25,9.964l4.818,2.409A3,3,0,1,0,13,10Zm0-8.5A1.5,1.5,0,1,1,11.5,3,1.5,1.5,0,0,1,13,1.5ZM3,9.5A1.5,1.5,0,1,1,4.5,8,1.5,1.5,0,0,1,3,9.5Zm10,5A1.5,1.5,0,1,1,14.5,13,1.5,1.5,0,0,1,13,14.5Z"/>
        </symbol>
        <symbol id="system" viewBox="0 0 16 16">
            <rect id="Rectangle_607" data-name="Rectangle 607" width="16" height="16" fill="none"/>
            <path id="Path_431" data-name="Path 431" d="M13.75,0H2.25A2.252,2.252,0,0,0,0,2.25v11.5A2.253,2.253,0,0,0,2.25,16h11.5A2.253,2.253,0,0,0,16,13.75V2.25A2.253,2.253,0,0,0,13.75,0ZM2.25,1.5h11.5a.751.751,0,0,1,.75.75v2H1.5v-2A.75.75,0,0,1,2.25,1.5Zm11.5,13H2.25a.751.751,0,0,1-.75-.75v-8h13v8A.752.752,0,0,1,13.75,14.5Z"/>
        </symbol>
        <symbol id="live-chat" viewBox="0 0 16 16">
            <g id="Group_520" data-name="Group 520" transform="translate(0)">
                <rect id="Rectangle_485" data-name="Rectangle 485" width="16" height="16" fill="none"/>
                <g id="Group_517" data-name="Group 517">
                    <g id="Group_516" data-name="Group 516">
                        <g id="Group_515" data-name="Group 515">
                            <path id="Path_389" data-name="Path 389" d="M8,16a7.933,7.933,0,0,1-3.955-1.046l-2.4.96A1.2,1.2,0,0,1,.086,14.35l.959-2.4A8,8,0,1,1,8,16ZM4.193,13.279l.326.209A6.429,6.429,0,0,0,8,14.5,6.5,6.5,0,1,0,1.5,8a6.426,6.426,0,0,0,1.012,3.48l.209.326-.985,2.458Z"/>
                        </g>
                    </g>
                </g>
                <g id="Group_518" data-name="Group 518">
                    <rect id="Rectangle_486" data-name="Rectangle 486" width="6" height="1.5" transform="translate(5 5.5)"/>
                </g>
                <g id="Group_519" data-name="Group 519">
                    <rect id="Rectangle_487" data-name="Rectangle 487" width="6" height="1.5" transform="translate(5 9.001)"/>
                </g>
            </g>
        </symbol>
        <symbol id="ppc" viewBox="0 0 16 16">
            <rect id="Rectangle_484" data-name="Rectangle 484" width="16" height="16" fill="none"/>
            <g id="Group_512" data-name="Group 512">
                <path id="Path_386" data-name="Path 386" d="M8,16a8,8,0,1,1,8-8H14.5A6.5,6.5,0,1,0,8,14.5Z"/>
            </g>
            <g id="Group_513" data-name="Group 513">
                <path id="Path_387" data-name="Path 387" d="M8,12.75A4.75,4.75,0,1,1,12.75,8h-1.5A3.25,3.25,0,1,0,8,11.25Z"/>
            </g>
            <path id="Path_388" data-name="Path 388" d="M16,10.343l-4.243,1.414L10.343,16,7.515,7.515Z"/>
        </symbol>
        <symbol id="server" viewBox="0 0 16 16">
            <rect id="Rectangle_434" data-name="Rectangle 434" width="16" height="16" transform="translate(0)" fill="none"/>
            <rect id="Rectangle_435" data-name="Rectangle 435" width="3" height="1.5" transform="translate(3 3.852)"/>
            <rect id="Rectangle_436" data-name="Rectangle 436" width="3" height="1.5" transform="translate(3 10.648)"/>
            <path id="Path_355" data-name="Path 355" d="M0,.453V15.547H16V.453ZM14.5,14.047H1.5V8.75h13Zm-13-6.8v-5.3h13v5.3Z"/>
        </symbol>
        <symbol id="currency-converter" viewBox="0 0 16 16">
            <rect id="Rectangle_449" data-name="Rectangle 449" width="16" height="16" fill="none"/>
            <g id="Group_487" data-name="Group 487">
                <path id="Path_368" data-name="Path 368" d="M8,16a8,8,0,1,1,8-8A8.009,8.009,0,0,1,8,16ZM8,1.5A6.5,6.5,0,1,0,14.5,8,6.508,6.508,0,0,0,8,1.5Z"/>
            </g>
            <path id="Path_369" data-name="Path 369" d="M8,7.25a.75.75,0,1,1,.75-.75h1.5a2.248,2.248,0,0,0-1.5-2.112V3.066H7.25V4.388A2.245,2.245,0,0,0,8,8.75a.75.75,0,1,1-.75.75H5.75a2.248,2.248,0,0,0,1.5,2.112v1.371h1.5V11.612A2.245,2.245,0,0,0,8,7.25Z"/>
        </symbol>
        <symbol id="social-login" viewBox="0 0 16 16">
            <rect id="Rectangle_447" data-name="Rectangle 447" width="16" height="16" fill="none"/>
            <g id="Group_485" data-name="Group 485">
                <path id="Path_366" data-name="Path 366" d="M16,16H4V11.25H5.5V14.5h9V1.5h-9V4.75H4V0H16Z"/>
            </g>
            <path id="Path_367" data-name="Path 367" d="M7.7,4.639,6.641,5.7,8.189,7.248H0v1.5H8.189L6.641,10.3,7.7,11.356,11.061,8Z"/>
        </symbol>
        <symbol id="push-notification" viewBox="0 0 16 16">
            <rect id="Rectangle_473" data-name="Rectangle 473" width="16" height="16" fill="none"/>
            <rect id="Rectangle_474" data-name="Rectangle 474" width="4" height="1.5" rx="0.75" transform="translate(6 14.5)"/>
            <path id="Path_378" data-name="Path 378" d="M12.75,9.3V6.653a2.49,2.49,0,0,0-2.126-4.487,4.766,4.766,0,0,0-1.874-.74V.75a.75.75,0,0,0-1.5,0v.676A4.692,4.692,0,0,0,3.25,6V9.3A2.407,2.407,0,0,0,4.574,13.75h6.852A2.407,2.407,0,0,0,12.75,9.3Zm-.495,2.533a.943.943,0,0,1-.829.422H4.574a.908.908,0,0,1-.93-1.168.929.929,0,0,1,.474-.557,1.24,1.24,0,0,0,.632-1.11V6A3.192,3.192,0,0,1,7.53,2.894,4.453,4.453,0,0,1,8,2.855a4.4,4.4,0,0,1,.467.039,3.258,3.258,0,0,1,.92.281,2.48,2.48,0,0,0,1.863,3.8v2.44a1.239,1.239,0,0,0,.633,1.11.913.913,0,0,1,.372,1.3Z"/>
        </symbol>
        <symbol id="payout" viewBox="0 0 16 16">
            <g id="Group_494" data-name="Group 494" transform="translate(0.017)">
                <rect id="Rectangle_466" data-name="Rectangle 466" width="16" height="16" fill="none"/>
                <path id="Path_374" data-name="Path 374" d="M14.25,1.813H1.75A1.752,1.752,0,0,0,0,3.563V5.315H-.017v1.5H0v5.623a1.753,1.753,0,0,0,1.75,1.75h12.5A1.753,1.753,0,0,0,16,12.438V3.563A1.752,1.752,0,0,0,14.25,1.813ZM1.5,3.563a.25.25,0,0,1,.25-.25h12.5a.25.25,0,0,1,.25.25V5.315H1.5Zm12.75,9.125H1.75a.251.251,0,0,1-.25-.25V6.815h13v5.623A.251.251,0,0,1,14.25,12.688Z"/>
                <g id="Group_493" data-name="Group 493">
                    <rect id="Rectangle_467" data-name="Rectangle 467" width="4" height="1.5" transform="translate(9 9.476)"/>
                </g>
            </g>
        </symbol>
        <symbol id="advertisement-feed" viewBox="0 0 16 16">
            <rect id="Rectangle_477" data-name="Rectangle 477" width="16" height="16" fill="none"/>
            <rect id="Rectangle_478" data-name="Rectangle 478" width="6" height="6" rx="3" transform="translate(0 10)"/>
            <g id="Group_504" data-name="Group 504">
                <path id="Path_380" data-name="Path 380" d="M16,16H14.5A14.517,14.517,0,0,0,0,1.5V0A16.019,16.019,0,0,1,16,16Z"/>
            </g>
            <g id="Group_505" data-name="Group 505">
                <path id="Path_381" data-name="Path 381" d="M11.75,16h-1.5A10.261,10.261,0,0,0,0,5.75V4.25A11.763,11.763,0,0,1,11.75,16Z"/>
            </g>
        </symbol>
        <symbol id="sms-notification" viewBox="0 0 16 16">
            <rect id="Rectangle_468" data-name="Rectangle 468" width="16" height="16" fill="none"/>
            <g id="Group_496" data-name="Group 496">
                <g id="Group_495" data-name="Group 495">
                    <path id="Path_375" data-name="Path 375" d="M2.5,15.985V11.567H0V1.117H16v10.45H6.779Zm-1-5.918H4V12.28l2.143-2.213H14.5V2.617H1.5Z"/>
                </g>
            </g>
            <g id="Group_497" data-name="Group 497">
                <rect id="Rectangle_469" data-name="Rectangle 469" width="2" height="1.5" transform="translate(4 5.234)"/>
            </g>
            <g id="Group_498" data-name="Group 498">
                <rect id="Rectangle_470" data-name="Rectangle 470" width="2" height="1.5" transform="translate(7 5.234)"/>
            </g>
            <g id="Group_499" data-name="Group 499">
                <rect id="Rectangle_471" data-name="Rectangle 471" width="2" height="1.5" transform="translate(10 5.234)"/>
            </g>
        </symbol>
        <symbol id="full-text-search" viewBox="0 0 16 16">
            <path d="M10 0C5.589 0 2 3.589 2 8c0 7.495 7.197 11.694 7.504 11.869a.996.996 0 0 0 .992 0C10.803 19.694 18 15.495 18 8c0-4.412-3.589-8-8-8m-.001 17.813C8.478 16.782 4 13.296 4 8c0-3.31 2.691-6 6-6s6 2.69 6 6c0 5.276-4.482 8.778-6.001 9.813M10 10c-1.103 0-2-.897-2-2s.897-2 2-2 2 .897 2 2-.897 2-2 2m0-6C7.794 4 6 5.794 6 8s1.794 4 4 4 4-1.794 4-4-1.794-4-4-4"></path>
        </symbol>
        <symbol id="tax" viewBox="0 0 16 16">
            <rect id="Rectangle_479" data-name="Rectangle 479" width="16" height="16" fill="none"/>
            <path id="Path_382" data-name="Path 382" d="M15.087,8.917l-.59-.541c.007-.126.011-.252.011-.376s0-.25-.011-.376l.59-.542a1.809,1.809,0,0,0,.328-2.207l-.995-1.72a1.807,1.807,0,0,0-2.1-.824l-.744.235a6.246,6.246,0,0,0-.656-.381l-.172-.766A1.8,1.8,0,0,0,9,.017H7a1.8,1.8,0,0,0-1.745,1.4l-.173.769a6.2,6.2,0,0,0-.657.382l-.751-.237a1.8,1.8,0,0,0-2.085.812L.577,4.889a1.8,1.8,0,0,0,.347,2.2l.577.532c-.006.126-.01.251-.01.376s0,.25.011.377l-.588.54a1.809,1.809,0,0,0-.329,2.209l.994,1.718a1.8,1.8,0,0,0,2.1.824l.744-.234a6.471,6.471,0,0,0,.657.381l.172.766A1.8,1.8,0,0,0,7,15.983H9a1.8,1.8,0,0,0,1.744-1.4l.173-.77a6.26,6.26,0,0,0,.657-.381l.748.236a1.787,1.787,0,0,0,2.088-.811l1.011-1.748A1.8,1.8,0,0,0,15.087,8.917Zm-.968,1.451-1.012,1.749a.294.294,0,0,1-.335.121L11.3,11.773l-.31.235a4.824,4.824,0,0,1-1.017.592l-.355.15-.339,1.509a.294.294,0,0,1-.28.224H7a.294.294,0,0,1-.282-.229l-.339-1.505L6.022,12.6A4.859,4.859,0,0,1,5,12.008L4.7,11.774l-1.465.463a.3.3,0,0,1-.348-.135l-.994-1.718a.3.3,0,0,1,.047-.368l1.13-1.04L3.025,8.6A5.29,5.29,0,0,1,2.991,8a5.566,5.566,0,0,1,.033-.6l.041-.376L1.946,5.994a.3.3,0,0,1-.065-.363l1.01-1.748a.293.293,0,0,1,.335-.122l1.47.464.309-.234A4.82,4.82,0,0,1,6.023,3.4l.354-.149.34-1.509A.3.3,0,0,1,7,1.517H9a.294.294,0,0,1,.282.229l.338,1.5.355.15a4.8,4.8,0,0,1,1.018.592l.309.234,1.462-.463a.3.3,0,0,1,.35.134l.995,1.719a.3.3,0,0,1-.047.368L12.935,7.023l.04.375a5.507,5.507,0,0,1,0,1.2l-.04.375,1.145,1.055A.3.3,0,0,1,14.119,10.368Z"/>
            <g id="Group_507" data-name="Group 507">
                <rect id="Rectangle_480" data-name="Rectangle 480" width="1.5" height="8" rx="0.75" transform="translate(10.298 4.641) rotate(45)"/>
                <rect id="Rectangle_481" data-name="Rectangle 481" width="2" height="2" rx="1" transform="translate(5.879 4.464) rotate(45)"/>
                <rect id="Rectangle_482" data-name="Rectangle 482" width="2" height="2" rx="1" transform="translate(10.121 8.707) rotate(45)"/>
            </g>
        </symbol>
        <symbol id="payment-methods" viewBox="0 0 16 16">
            <rect id="Rectangle_472" data-name="Rectangle 472" width="16" height="16" fill="none"/>
            <path id="Path_376" data-name="Path 376" d="M7.605,12.79" fill="none" stroke="#000" stroke-miterlimit="10" stroke-width="1.5"/>
            <path id="Path_377" data-name="Path 377" d="M14.259,4.313h-1.25V3.063a1.752,1.752,0,0,0-1.75-1.75h-9.5a1.752,1.752,0,0,0-1.75,1.75V9.938a1.753,1.753,0,0,0,1.75,1.75h1.25v1.25a1.753,1.753,0,0,0,1.75,1.75h9.5a1.753,1.753,0,0,0,1.75-1.75V6.063A1.752,1.752,0,0,0,14.259,4.313Zm.25,1.75v1.25h-10V6.063a.251.251,0,0,1,.25-.25h9.5A.251.251,0,0,1,14.509,6.063ZM1.758,10.188a.251.251,0,0,1-.25-.25V3.063a.251.251,0,0,1,.25-.25h9.5a.251.251,0,0,1,.25.25v1.25H4.758a1.752,1.752,0,0,0-1.75,1.75v1.25H2.992v1.5h.016v1.375Zm12.5,3h-9.5a.251.251,0,0,1-.25-.25V8.813h10v4.125A.251.251,0,0,1,14.259,13.188Z"/>
        </symbol>
        <symbol id="marketplace-channels" viewBox="0 0 16 16">
            <rect id="Rectangle_465" data-name="Rectangle 465" width="16" height="16" fill="none"/>
            <path id="Path_372" data-name="Path 372" d="M9.637,9.54" fill="none" stroke="#000" stroke-miterlimit="10" stroke-width="1.5"/>
            <path id="Path_373" data-name="Path 373" d="M14,4a2,2,0,1,0-2-2,1.975,1.975,0,0,0,.173.806l-2.6,2.65a2.935,2.935,0,0,0-3.149,0l-1.7-1.7a1.977,1.977,0,0,0,.194-.844A2.022,2.022,0,1,0,3.621,4.781L5.39,6.55a2.916,2.916,0,0,0,.072,3.032L2.848,12.2A1.978,1.978,0,0,0,2,12a2,2,0,1,0,2,2,1.972,1.972,0,0,0-.134-.7l2.687-2.687a2.893,2.893,0,0,0,2.9,0l1.836,1.837a2.019,2.019,0,1,0,1.021-1.1L10.54,9.578a2.915,2.915,0,0,0,.066-3.035l2.643-2.692A2,2,0,0,0,14,4Zm0-2.5a.5.5,0,1,1-.5.5A.5.5,0,0,1,14,1.5ZM2.416,2.916a.5.5,0,1,1,.5.5A.5.5,0,0,1,2.416,2.916ZM2,14.5a.5.5,0,1,1,.5-.5A.5.5,0,0,1,2,14.5ZM6.5,8A1.5,1.5,0,1,1,8,9.5,1.5,1.5,0,0,1,6.5,8Zm6.652,4.652a.5.5,0,1,1-.5.5A.5.5,0,0,1,13.152,12.652Z"/>
        </symbol>
        <symbol id="payment-methods" viewBox="0 0 16 16">
            <rect id="Rectangle_472" data-name="Rectangle 472" width="16" height="16" fill="none"/>
            <path id="Path_376" data-name="Path 376" d="M7.605,12.79" fill="none" stroke="#000" stroke-miterlimit="10" stroke-width="1.5"/>
            <path id="Path_377" data-name="Path 377" d="M14.259,4.313h-1.25V3.063a1.752,1.752,0,0,0-1.75-1.75h-9.5a1.752,1.752,0,0,0-1.75,1.75V9.938a1.753,1.753,0,0,0,1.75,1.75h1.25v1.25a1.753,1.753,0,0,0,1.75,1.75h9.5a1.753,1.753,0,0,0,1.75-1.75V6.063A1.752,1.752,0,0,0,14.259,4.313Zm.25,1.75v1.25h-10V6.063a.251.251,0,0,1,.25-.25h9.5A.251.251,0,0,1,14.509,6.063ZM1.758,10.188a.251.251,0,0,1-.25-.25V3.063a.251.251,0,0,1,.25-.25h9.5a.251.251,0,0,1,.25.25v1.25H4.758a1.752,1.752,0,0,0-1.75,1.75v1.25H2.992v1.5h.016v1.375Zm12.5,3h-9.5a.251.251,0,0,1-.25-.25V8.813h10v4.125A.251.251,0,0,1,14.259,13.188Z"/>
        </symbol>
        <symbol id="shipping-services" viewBox="0 0 16 16">
            <rect id="Rectangle_609" data-name="Rectangle 609" width="16" height="16" fill="none"/>
            <path id="Path_434" data-name="Path 434" d="M12.75,2H4V5.484H0v1.5H4V9.017H1.774v1.5H4V14H16V2Zm-1.5,1.5V6H8.75V3.5Zm3.25,9h-9v-9H7.25v4h5.5v-4H14.5Z"/>
        </symbol>
        <symbol id="shipment-tracking" viewBox="0 0 16 16">
            <rect id="Rectangle_475" data-name="Rectangle 475" width="16" height="16" fill="none"/>
            <rect id="Rectangle_476" data-name="Rectangle 476" width="4" height="4" rx="2" transform="translate(6 6)"/>
            <path id="Path_379" data-name="Path 379" d="M16,7.25H13.695A5.753,5.753,0,0,0,8.75,2.305V0H7.25V2.305A5.754,5.754,0,0,0,2.305,7.25H0v1.5H2.305A5.753,5.753,0,0,0,7.25,13.695V16h1.5V13.695A5.752,5.752,0,0,0,13.695,8.75H16Zm-8,5A4.25,4.25,0,1,1,12.25,8,4.255,4.255,0,0,1,8,12.25Z"/>
        </symbol>
        <symbol id="data-migration" viewBox="0 0 16 16">
            <rect id="Rectangle_412" data-name="Rectangle 412" width="16" height="16" fill="none"/>
            <path id="Path_345" data-name="Path 345" d="M15.992,5.9l-4.03-4.03L7.932,5.9,8.992,6.962l2.22-2.22v8.19h1.5V4.743l2.22,2.22Z"/>
            <path id="Path_346" data-name="Path 346" d="M7.066,9.017l-2.22,2.22V2.711h-1.5v8.525l-2.22-2.22L.066,10.077l4.03,4.03,4.03-4.03Z"/>
        </symbol>
        <symbol id="star-outline" viewBox="0 0 24 24">
            <path d="M0 0h24v24H0z" fill="none"/><path d="M22 9.24l-7.19-.62L12 2 9.19 8.63 2 9.24l5.46 4.73L5.82 21 12 17.27 18.18 21l-1.63-7.03L22 9.24zM12 15.4l-3.76 2.27 1-4.28-3.32-2.88 4.38-.38L12 6.1l1.71 4.04 4.38.38-3.32 2.88 1 4.28L12 15.4z"/>
        </symbol>
        <symbol id="test" viewBox="0 0 16 16">
            <path d="M10 0C5.589 0 2 3.589 2 8c0 7.495 7.197 11.694 7.504 11.869a.996.996 0 0 0 .992 0C10.803 19.694 18 15.495 18 8c0-4.412-3.589-8-8-8m-.001 17.813C8.478 16.782 4 13.296 4 8c0-3.31 2.691-6 6-6s6 2.69 6 6c0 5.276-4.482 8.778-6.001 9.813M10 10c-1.103 0-2-.897-2-2s.897-2 2-2 2 .897 2 2-.897 2-2 2m0-6C7.794 4 6 5.794 6 8s1.794 4 4 4 4-1.794 4-4-1.794-4-4-4"></path>
        </symbol>
    </defs>
</svg>