<?xml version="1.0" encoding="UTF-8"?>
<svg width="13px" height="10px" viewBox="0 0 13 10" version="1.1" xmlns="http://www.w3.org/2000/svg" xmlns:xlink="http://www.w3.org/1999/xlink">
    <!-- Generator: Sketch 61.2 (89653) - https://sketch.com -->
    <title>checkmark-small</title>
    <desc>Created with Sketch.</desc>
    <g id="Page-1" stroke="none" stroke-width="1" fill="none" fill-rule="evenodd">
        <g id="Artboard-Copy-11" transform="translate(-470.000000, -876.000000)" fill="#2AD37C">
            <g id="Group-4-Copy" transform="translate(438.000000, 217.000000)">
                <g id="Group-2" transform="translate(32.482715, 286.000000)">
                    <path d="M11.3554318,373.738212 L11.7790728,374.161853 C11.9743349,374.357115 11.9743349,374.673697 11.7790728,374.86896 L5.26314006,381.385245 C5.24094091,381.466061 5.1980914,381.542391 5.13459151,381.605891 L4.71095048,382.029532 C4.63630661,382.104176 4.54393369,382.150285 4.44738646,382.16786 C4.25972669,382.265296 4.02198899,382.235238 3.86383807,382.077087 L3.44019704,381.653446 C3.34805372,381.561303 3.29939242,381.442144 3.29421312,381.321465 L0.187959207,378.213647 C-0.00730293923,378.018385 -0.00730293923,377.701803 0.187959207,377.506541 L0.611600243,377.0829 C0.806862389,376.887638 1.12344488,376.887638 1.31870702,377.0829 L4.311,380.075253 L10.648325,373.738212 C10.8435871,373.54295 11.1601696,373.54295 11.3554318,373.738212 Z" id="checkmark-small"></path>
                </g>
            </g>
        </g>
    </g>
</svg>