<svg xmlns="http://www.w3.org/2000/svg" width="0" height="0">
    <defs>

        <symbol id="facebook" viewBox="0 0 24 24">
            <path
                d="M15.12,5.32H17V2.14A26.11,26.11,0,0,0,14.26,2C11.54,2,9.68,3.66,9.68,6.7V9.32H6.61v3.56H9.68V22h3.68V12.88h3.06l.46-3.56H13.36V7.05C13.36,6,13.64,5.32,15.12,5.32Z"></path>
        </symbol>
        <symbol id="twitter" viewBox="0 0 24 24">
            <path
                d="M15.3499 5.5498C13.7681 5.5498 12.4786 6.81785 12.4504 8.39633L12.4223 9.97138C12.4164 10.3027 12.143 10.5665 11.8117 10.5606C11.7881 10.5602 11.7646 10.5584 11.7413 10.5552L10.1805 10.3423C8.12699 10.0623 6.15883 9.11711 4.27072 7.54387C3.67275 10.8535 4.84 13.147 7.65342 14.9157L9.40041 16.014C9.68095 16.1904 9.7654 16.5608 9.58903 16.8413C9.54861 16.9056 9.49636 16.9616 9.43504 17.0064L7.84338 18.1693C8.78973 18.2288 9.68938 18.1873 10.435 18.0385C15.1526 17.097 18.2897 13.5468 18.2897 7.69084C18.2897 7.21275 17.2774 5.5498 15.3499 5.5498ZM10.4507 8.36066C10.4983 5.69559 12.6735 3.5498 15.3499 3.5498C16.7132 3.5498 17.9465 4.10658 18.8348 5.00515C19.5462 4.9998 20.1514 5.17966 21.5035 4.35943C21.1693 5.9998 21.0034 6.71177 20.2897 7.69084C20.2897 15.3324 15.5926 19.0487 10.8264 19.9998C7.5587 20.6519 2.80646 19.5812 1.44531 18.1584C2.13874 18.1051 4.95928 17.8018 6.58895 16.6089C5.20994 15.6984 -0.278631 12.4679 3.32772 3.78617C5.02119 5.76283 6.73797 7.10831 8.47807 7.82262C9.63548 8.29774 9.91978 8.28825 10.4507 8.36066Z"
            />
        </symbol>

        <symbol id="pintrest" viewBox="0 0 24 24">
            <path
                d="M8.49161 19.1912C8.51535 18.8546 8.56306 18.5199 8.63456 18.1897C8.69754 17.8951 8.88867 17.0596 9.16872 15.8498L9.17581 15.8191C9.29895 15.2872 9.43089 14.7192 9.56283 14.1525C9.64199 13.8124 9.70356 13.5484 9.74438 13.4602C9.55012 13.0123 9.45298 12.5263 9.45969 12.0373C9.45969 10.6999 10.2157 9.66359 11.1958 9.6636C11.5555 9.65809 11.8996 9.81388 12.1383 10.09C12.3764 10.3655 12.4863 10.7335 12.4404 11.086C12.4404 11.5385 12.3548 11.8844 11.9865 13.1212C11.9158 13.3587 11.8674 13.5254 11.8215 13.692C11.7696 13.8799 11.7261 14.0503 11.6887 14.2136C11.5928 14.6003 11.6811 15.011 11.9262 15.3195C12.1707 15.6272 12.5421 15.7966 12.9319 15.7762C14.4242 15.7762 15.5321 13.7911 15.5321 11.2277C15.5321 9.25804 14.2412 7.95424 12.1 7.95416C11.0224 7.91127 9.97466 8.32523 9.20095 9.09986C8.42664 9.87508 7.99452 10.9437 8.00559 12.0614C7.98214 12.6633 8.17064 13.2536 8.51804 13.7053C8.69915 13.8441 8.76869 14.0885 8.69262 14.2941C8.65157 14.4632 8.55259 14.8473 8.51649 14.9755C8.49464 15.1032 8.41497 15.2131 8.30126 15.2715C8.18678 15.3303 8.05172 15.3297 7.94618 15.2737C6.78507 14.7954 6.14967 13.4963 6.14967 11.8349C6.14967 8.84907 8.64129 6.2497 12.3417 6.2497C15.4772 6.2497 17.8231 8.57864 17.8231 11.3896C17.8231 14.922 15.8911 17.4942 13.1337 17.4942C12.3393 17.5202 11.5838 17.162 11.087 16.535L11.044 16.712C10.9499 17.0992 10.9028 17.2928 10.8368 17.5638L10.8349 17.5715C10.6887 18.1717 10.5867 18.5885 10.5471 18.7452C10.4412 19.0998 10.307 19.448 10.1471 19.7841C10.7421 19.9253 11.3628 20 12.001 20C16.4193 20 20.001 16.4183 20.001 12C20.001 7.58172 16.4193 4 12.001 4C7.5827 4 4.00098 7.58172 4.00098 12C4.00098 15.1594 5.83244 17.8911 8.49161 19.1912ZM12.001 22C6.47813 22 2.00098 17.5228 2.00098 12C2.00098 6.47715 6.47813 2 12.001 2C17.5238 2 22.001 6.47715 22.001 12C22.001 17.5228 17.5238 22 12.001 22Z"></path>

        </symbol>
        <symbol id="email" viewBox="0 0 24 24">
            <path
                d="M3 3H21C21.5523 3 22 3.44772 22 4V20C22 20.5523 21.5523 21 21 21H3C2.44772 21 2 20.5523 2 20V4C2 3.44772 2.44772 3 3 3ZM20 7.23792L12.0718 14.338L4 7.21594V19H20V7.23792ZM4.51146 5L12.0619 11.662L19.501 5H4.51146Z"></path>

        </symbol>
        <symbol id="test" viewBox="0 0 24 24">
            <path
                fill-rule="evenodd"
                d="M2.5 12a.5.5 0 0 1 .5-.5h10a.5.5 0 0 1 0 1H3a.5.5 0 0 1-.5-.5zm0-4a.5.5 0 0 1 .5-.5h10a.5.5 0 0 1 0 1H3a.5.5 0 0 1-.5-.5zm0-4a.5.5 0 0 1 .5-.5h10a.5.5 0 0 1 0 1H3a.5.5 0 0 1-.5-.5z"
            />
        </symbol>

    </defs>
</svg>