<svg xmlns="http://www.w3.org/2000/svg" data-name="Layer 1" viewBox="0 0 650 512"><path fill="#dbe8ec" d="M602.82043,220.74547V202.55431A13.07945,13.07945,0,0,0,589.741,189.47486H573.575a13.07945,13.07945,0,0,1-13.07945-13.07945V158.20424A13.07945,13.07945,0,0,1,573.575,145.12479h1.45764a13.07945,13.07945,0,0,0,13.07945-13.07945V113.85418a13.07945,13.07945,0,0,0-13.07945-13.07945H83.12546A13.07945,13.07945,0,0,0,70.046,113.85418v18.19116a13.07945,13.07945,0,0,0,13.07945,13.07945h0a13.07945,13.07945,0,0,1,13.07946,13.07945v18.19117a13.07945,13.07945,0,0,1-13.07946,13.07945H42.54608a13.07945,13.07945,0,0,0-13.07946,13.07945v18.19116a13.07945,13.07945,0,0,0,13.07946,13.07945h9.84658a13.07945,13.07945,0,0,1,13.07945,13.07946v18.19124a13.07945,13.07945,0,0,1-13.07945,13.07946h-.048a13.07945,13.07945,0,0,0-13.07945,13.07945V309.4456A13.07945,13.07945,0,0,0,52.3447,322.52506h2.87138a13.07945,13.07945,0,0,1,13.07945,13.07945v18.19125a13.07945,13.07945,0,0,1-13.07945,13.07945h-1.1245a13.07945,13.07945,0,0,0-13.07946,13.07945v18.19116a13.07945,13.07945,0,0,0,13.07946,13.07945h527.963A13.07945,13.07945,0,0,0,595.134,398.14582V379.95466a13.07945,13.07945,0,0,0-13.07945-13.07945H570.71407a13.07945,13.07945,0,0,1-13.07945-13.07945V335.60451a13.07945,13.07945,0,0,1,13.07945-13.07945h36.73985a13.07946,13.07946,0,0,0,13.07946-13.07946V291.25453a13.07945,13.07945,0,0,0-13.07946-13.07945H589.3423a13.07945,13.07945,0,0,1-13.07945-13.07946V246.90438a13.07945,13.07945,0,0,1,13.07945-13.07946h.39868A13.07945,13.07945,0,0,0,602.82043,220.74547Z"/><path fill="#409cb5" d="M273.9976,385.30216H112.87367a6.57652,6.57652,0,0,1-6.45618-7.82888l44.42376-229.01335a6.57653,6.57653,0,0,1,6.45618-5.32416H318.42136a6.57653,6.57653,0,0,1,6.45618,7.82889L280.45378,379.978A6.57653,6.57653,0,0,1,273.9976,385.30216Z"/><polygon fill="#3086a3" points="297.986 148.547 258.727 343.363 161.319 343.363 297.986 148.547"/><path fill="#f9ae2b" d="M254.04308,263.98769c28.53294-44.38259,37.6213-86.36688,44.65989-115.44056H171.566a378.00668,378.00668,0,0,1-49.35741,115.44056,377.34277,377.34277,0,0,1-68.3436,79.375H185.69948A377.34306,377.34306,0,0,0,254.04308,263.98769Z"/><path fill="#3086a3" d="M259.49668,157.4538H209.80013c-1.27525,0-2.23417-.77927-1.99133-1.61826l5.29055-19.15285a1.98885,1.98885,0,0,1,1.99132-1.10053h49.69655c1.27525,0,2.23417.77927,1.99132,1.61826L261.488,156.35328A1.98886,1.98886,0,0,1,259.49668,157.4538Z"/><line x1="182.643" x2="251.979" y1="178.531" y2="177.178" fill="none" stroke="#3086a3" stroke-miterlimit="10" stroke-width="3"/><line x1="260.588" x2="276.488" y1="177.333" y2="177.023" fill="none" stroke="#3086a3" stroke-miterlimit="10" stroke-width="3"/><line x1="177.244" x2="246.579" y1="195.395" y2="194.042" fill="none" stroke="#3086a3" stroke-miterlimit="10" stroke-width="3"/><line x1="255.188" x2="271.089" y1="194.197" y2="193.887" fill="none" stroke="#3086a3" stroke-miterlimit="10" stroke-width="3"/><line x1="168.725" x2="238.06" y1="212.21" y2="210.858" fill="none" stroke="#3086a3" stroke-miterlimit="10" stroke-width="3"/><line x1="246.669" x2="262.57" y1="211.013" y2="210.702" fill="none" stroke="#3086a3" stroke-miterlimit="10" stroke-width="3"/><line x1="160.848" x2="230.184" y1="229.181" y2="227.828" fill="none" stroke="#3086a3" stroke-miterlimit="10" stroke-width="3"/><line x1="238.793" x2="254.694" y1="227.983" y2="227.673" fill="none" stroke="#3086a3" stroke-miterlimit="10" stroke-width="3"/><line x1="150.939" x2="220.274" y1="245.955" y2="244.602" fill="none" stroke="#3086a3" stroke-miterlimit="10" stroke-width="3"/><line x1="228.883" x2="244.784" y1="244.757" y2="244.447" fill="none" stroke="#3086a3" stroke-miterlimit="10" stroke-width="3"/><line x1="138.684" x2="208.019" y1="262.884" y2="261.531" fill="none" stroke="#3086a3" stroke-miterlimit="10" stroke-width="3"/><line x1="216.628" x2="232.529" y1="261.687" y2="261.376" fill="none" stroke="#3086a3" stroke-miterlimit="10" stroke-width="3"/><line x1="126.429" x2="195.764" y1="279.969" y2="278.616" fill="none" stroke="#3086a3" stroke-miterlimit="10" stroke-width="3"/><line x1="204.373" x2="220.274" y1="278.771" y2="278.461" fill="none" stroke="#3086a3" stroke-miterlimit="10" stroke-width="3"/><line x1="111.539" x2="180.875" y1="297.208" y2="295.855" fill="none" stroke="#3086a3" stroke-miterlimit="10" stroke-width="3"/><line x1="189.484" x2="205.384" y1="296.011" y2="295.7" fill="none" stroke="#3086a3" stroke-miterlimit="10" stroke-width="3"/><line x1="99.284" x2="168.62" y1="314.603" y2="313.25" fill="none" stroke="#3086a3" stroke-miterlimit="10" stroke-width="3"/><line x1="177.229" x2="193.13" y1="313.405" y2="313.095" fill="none" stroke="#3086a3" stroke-miterlimit="10" stroke-width="3"/><line x1="79.506" x2="148.842" y1="332.153" y2="330.8" fill="none" stroke="#3086a3" stroke-miterlimit="10" stroke-width="3"/><line x1="157.451" x2="173.351" y1="330.955" y2="330.645" fill="none" stroke="#3086a3" stroke-miterlimit="10" stroke-width="3"/><path fill="#ee781d" d="M293.24444,185.41342H450.74279a0,0,0,0,1,0,0V385.30216a0,0,0,0,1,0,0H297.24444a4,4,0,0,1-4-4V185.41342A0,0,0,0,1,293.24444,185.41342Z"/><path fill="#e06714" d="M450.74279,185.41342H533.156a0,0,0,0,1,0,0V381.30216a4,4,0,0,1-4,4H450.74279a0,0,0,0,1,0,0V185.41342A0,0,0,0,1,450.74279,185.41342Z"/><rect width="32.469" height="19.842" x="392.907" y="258.018" fill="#e06714" rx="2"/><rect width="32.469" height="19.842" x="293.267" y="227.578" fill="#e06714" rx="2"/><rect width="32.469" height="19.842" x="312.861" y="331.074" fill="#e06714" rx="2"/><rect width="32.469" height="19.842" x="459.198" y="339.772" fill="#c95d14" rx="2"/><rect width="32.469" height="19.842" x="500.687" y="261.304" fill="#c95d14" rx="2"/><path fill="#ee781d" d="M498.22791,237.49949h73.15277a3.758,3.758,0,0,0,2.79071-6.27488l-41.316-45.81119H449.72812l45.70508,50.84047A3.758,3.758,0,0,0,498.22791,237.49949Z"/><path fill="#f98232" d="M450.74279,185.41342H293.24444l-36.00307,46.01222a3.758,3.758,0,0,0,2.95966,6.07385h147.9549a3.758,3.758,0,0,0,2.95966-1.44218Z"/><path fill="#3086a3" d="M383.58188 372.13179h-67.634a3.39148 3.39148 0 00-3.38948 3.38949v6.611a3.15939 3.15939 0 003.157 3.16992h68.09912a3.15938 3.15938 0 003.15691-3.16992v-6.611a3.39149 3.39149 0 00-3.38949-3.38949zm0 0M383.58188 261.29755h-67.634a3.39148 3.39148 0 00-3.38948 3.38948v6.611a3.15939 3.15939 0 003.157 3.16992h68.09912a3.15938 3.15938 0 003.15691-3.16992v-6.611a3.39149 3.39149 0 00-3.38949-3.38948zm0 0"/><path fill="#b9d4db" d="M373.00794,334.4913a34.08476,34.08476,0,0,0-14.33019-7.31634,3.37789,3.37789,0,0,1-2.64295-3.24994v-.50379a3.3801,3.3801,0,0,1,2.64295-3.24986,34.04561,34.04561,0,0,0,14.33019-7.29562c12.83712-11.16042,12.84737-29.2754,0-40.43843h-46.481c-12.84737,11.163-12.84737,29.26768,0,40.4281a34.21005,34.21005,0,0,0,14.32,7.306,3.36909,3.36909,0,0,1,2.6428,3.24986v.50379a3.36691,3.36691,0,0,1-2.6428,3.24994,33.92012,33.92012,0,0,0-14.32,7.29569c-12.84737,11.17068-12.84737,29.28565-.01025,40.44608h46.49129c12.84737-11.16043,12.83712-29.265,0-40.42543Zm0,0"/><path fill="#dbe8ec" d="M380.77192,334.4913a34.08482,34.08482,0,0,0-14.33019-7.31634,3.37789,3.37789,0,0,1-2.64295-3.24994v-.50379a3.3801,3.3801,0,0,1,2.64295-3.24986,34.04567,34.04567,0,0,0,14.33019-7.29562c12.83711-11.16042,12.84736-29.2754,0-40.43843H334.29087c-12.84737,11.163-12.84737,29.26768,0,40.4281a34.21015,34.21015,0,0,0,14.32,7.306,3.36909,3.36909,0,0,1,2.64279,3.24986v.50379a3.3669,3.3669,0,0,1-2.64279,3.24994,33.92016,33.92016,0,0,0-14.32,7.29569c-12.84737,11.17068-12.84737,29.28565-.01025,40.44608h46.4913c12.84736-11.16043,12.83711-29.265,0-40.42543Zm0,0"/><path fill="#b9d4db" d="M361.063,332.76558v-9.4347a6.29492,6.29492,0,0,1,4.875-6.07628A31.88965,31.88965,0,0,0,379.32,310.44212a24.32617,24.32617,0,0,0,8.8199-18.425,23.14379,23.14379,0,0,0-.21184-2.99938c-5.09708-2.48007-12.49345-4.78188-35.008-1.21934-14.91675,2.35085-21.69825-.57617-24.74408-3.23962a22.76633,22.76633,0,0,0-1.26325,7.448,24.34684,24.34684,0,0,0,8.83008,18.42758,32.02353,32.02353,0,0,0,13.38213,6.82021,6.29159,6.29159,0,0,1,4.86467,6.066v9.445a21.67809,21.67809,0,0,1-15.13633,20.66734l-11.82954,3.7434a24.38776,24.38776,0,0,0,7.93374,15.71241h45.13761a24.38819,24.38819,0,0,0,7.93375-15.71241l-11.82694-3.7434A21.67714,21.67714,0,0,1,361.063,332.76558Zm0,0"/><path fill="#409cb5" d="M391.34845 372.13179h-67.634a3.38538 3.38538 0 00-3.38949 3.392v6.60844a3.15944 3.15944 0 003.157 3.16992H391.581a3.15942 3.15942 0 003.15691-3.16992V375.5238a3.38537 3.38537 0 00-3.38949-3.392zm0 0M391.34845 261.29755h-67.634a3.39149 3.39149 0 00-3.38949 3.38948v6.611a3.15939 3.15939 0 003.157 3.16992H391.581a3.15938 3.15938 0 003.15691-3.16992v-6.611a3.39148 3.39148 0 00-3.38949-3.38948zm0 0"/><line x1="335.062" x2="365.382" y1="131.509" y2="131.509" fill="none" stroke="#b9d4db" stroke-linecap="round" stroke-miterlimit="10" stroke-width="3"/><line x1="335.062" x2="365.382" y1="140.248" y2="140.248" fill="none" stroke="#b9d4db" stroke-linecap="round" stroke-miterlimit="10" stroke-width="3"/><line x1="335.062" x2="365.382" y1="148.987" y2="148.987" fill="none" stroke="#b9d4db" stroke-linecap="round" stroke-miterlimit="10" stroke-width="3"/><line x1="562.275" x2="592.596" y1="288.469" y2="288.469" fill="none" stroke="#b9d4db" stroke-linecap="round" stroke-miterlimit="10" stroke-width="3"/><line x1="562.275" x2="592.596" y1="297.208" y2="297.208" fill="none" stroke="#b9d4db" stroke-linecap="round" stroke-miterlimit="10" stroke-width="3"/><line x1="562.275" x2="592.596" y1="305.947" y2="305.947" fill="none" stroke="#b9d4db" stroke-linecap="round" stroke-miterlimit="10" stroke-width="3"/><line x1="84.124" x2="114.445" y1="228.76" y2="228.76" fill="none" stroke="#b9d4db" stroke-linecap="round" stroke-miterlimit="10" stroke-width="3"/><line x1="84.124" x2="114.445" y1="237.499" y2="237.499" fill="none" stroke="#b9d4db" stroke-linecap="round" stroke-miterlimit="10" stroke-width="3"/><line x1="84.124" x2="114.445" y1="246.239" y2="246.239" fill="none" stroke="#b9d4db" stroke-linecap="round" stroke-miterlimit="10" stroke-width="3"/><circle cx="89.659" cy="393.803" r="15.42" fill="#b9d4db"/><circle cx="58.291" cy="391.595" r="8.032" fill="#b9d4db"/><circle cx="57.651" cy="363.32" r="4.633" fill="#b9d4db"/><circle cx="83.18" cy="359.216" r="11.107" fill="#b9d4db"/><circle cx="113.491" cy="120.833" r="15.42" fill="#b9d4db"/><circle cx="114.117" cy="89.394" r="8.032" fill="#b9d4db"/><circle cx="167.614" cy="94.087" r="6.952" fill="#b9d4db"/><circle cx="142.324" cy="87.332" r="4.633" fill="#b9d4db"/><circle cx="147.708" cy="112.621" r="11.107" fill="#b9d4db"/><circle cx="428.683" cy="161.6" r="15.42" fill="#b9d4db"/><circle cx="438.516" cy="128.008" r="8.032" fill="#b9d4db"/><circle cx="463.694" cy="148.547" r="4.633" fill="#b9d4db"/><circle cx="477.688" cy="169.307" r="11.107" fill="#b9d4db"/><circle cx="556.897" cy="395.04" r="15.42" fill="#b9d4db"/><circle cx="556.897" cy="367.692" r="4.633" fill="#b9d4db"/><circle cx="581.487" cy="377.04" r="11.107" fill="#b9d4db"/></svg>